# Object Export From Tinkercad Server 2015

mtllib obj.mtl

o obj_0
v -39.447 		11.902 		0
v -39.447 		11.902 		4
v -39.363 		11.923 		4
v -39.348 		11.929 		0
v -39.312 		11.955 		0
v -39.295 		11.973 		4
v -39.262 		12.03 		4
v -39.262 		12.03 		0
v -39.247 		12.102 		4
v -39.247 		12.102 		0
v -43.247 		11.902 		4
v -43.247 		11.902 		0
v -43.442 		12.058 		0
v -43.447 		12.102 		0
v -43.447 		12.102 		4
v -43.397 		11.972 		0
v -43.423 		12.011 		4
v -43.369 		11.945 		4
v -43.336 		11.924 		0
v -43.319 		11.916 		4
v -39.497 		7.802 		4
v -39.497 		7.802 		0
v -38.207 		6.661 		0
v -38.197 		6.502 		0
v -38.197 		6.502 		4
v -38.217 		6.724 		4
v -38.263 		6.91 		0
v -38.309 		7.029 		0
v -38.338 		7.086 		4
v -38.249 		6.864 		4
v -38.434 		7.25 		0
v -38.444 		7.263 		4
v -38.601 		7.443 		0
v -38.637 		7.475 		4
v -38.75 		7.563 		0
v -38.762 		7.573 		4
v -38.913 		7.663 		4
v -38.913 		7.663 		0
v -39.044 		7.72 		0
v -39.089 		7.736 		4
v -39.275 		7.781 		0
v -39.275 		7.781 		4
v -44.497 		6.502 		4
v -44.497 		6.502 		0
v -43.388 		7.788 		0
v -43.197 		7.802 		0
v -43.197 		7.802 		4
v -43.388 		7.788 		4
v -43.605 		7.736 		0
v -43.679 		7.708 		4
v -43.851 		7.624 		4
v -43.937 		7.567 		0
v -44.093 		7.443 		4
v -44.093 		7.443 		0
v -43.997 		7.527 		4
v -44.26 		7.25 		4
v -44.26 		7.25 		0
v -44.385 		7.029 		4
v -44.385 		7.029 		0
v -44.465 		6.787 		4
v -44.465 		6.787 		0
v -28 		-8.2 		0
v -28 		-8.2 		4
v -28 		-23.8 		4
v -28 		-23.8 		0
v -32 		-23.8 		0
v -32 		-23.8 		4
v -32 		-8.2 		0
v -32 		-8.2 		4
v -38.197 		-4.498 		4
v -38.197 		-4.498 		0
v -39.275 		-5.777 		0
v -39.497 		-5.798 		0
v -39.497 		-5.798 		4
v -39.212 		-5.766 		4
v -39 		-5.699 		0
v -38.97 		-5.686 		4
v -38.857 		-5.627 		0
v -38.697 		-5.523 		4
v -38.697 		-5.523 		0
v -38.601 		-5.439 		4
v -38.552 		-5.387 		0
v -38.483 		-5.31 		4
v -38.368 		-5.138 		4
v -38.399 		-5.193 		0
v -38.284 		-4.966 		4
v -38.284 		-4.966 		0
v -38.217 		-4.72 		0
v -38.217 		-4.72 		4
v -44.497 		-4.498 		0
v -44.497 		-4.498 		4
v -43.197 		-5.798 		4
v -43.197 		-5.798 		0
v -44.465 		-4.783 		0
v -44.431 		-4.906 		0
v -44.408 		-4.965 		4
v -44.465 		-4.783 		4
v -44.328 		-5.139 		0
v -44.26 		-5.246 		0
v -44.181 		-5.347 		4
v -44.328 		-5.139 		4
v -44.093 		-5.439 		0
v -43.997 		-5.523 		4
v -43.892 		-5.596 		0
v -43.81 		-5.644 		4
v -43.665 		-5.711 		0
v -43.635 		-5.722 		4
v -43.482 		-5.766 		0
v -43.451 		-5.773 		4
v -39.4 		-31.8 		0
v -39.4 		-31.8 		4
v -54.2 		-31.8 		4
v -54.2 		-31.8 		0
v -39.4 		-36.2 		0
v -46.8 		-36.2 		0
v -46.8 		-36.2 		4
v -39.4 		-36.2 		4
v -73 		8.2 		0
v -73 		8.2 		4
v -73 		23.8 		4
v -73 		23.8 		0
v -73 		-23.8 		0
v -73 		-23.8 		4
v -73 		-8.2 		4
v -73 		-8.2 		0
v -69 		-40 		4
v -69 		-40 		0
v -61.6 		36.2 		0
v -61.6 		31.8 		0
v -59.95 		17.6 		0
v -59.9341 		17.676 		0
v -59.919 		17.707 		0
v -59.888 		17.745 		0
v -59.836 		17.778 		0
v -59.75 		17.8 		0
v -59.936 		17.672 		0
v -59.75 		10.9 		0
v -59.839 		10.922 		0
v -59.9 		10.97 		0
v -59.945 		11.056 		0
v -59.95 		11.1 		0
v -61 		5.5 		0
v -60.968 		5.785 		0
v -60.888 		6.027 		0
v -60.763 		6.248 		0
v -60.596 		6.441 		0
v -60.44 		6.565 		0
v -60.108 		6.734 		0
v -59.891 		6.786 		0
v -59.7 		6.8 		0
v -69 		23.8 		0
v -69 		8.2 		0
v -69 		36.2 		0
v -69 		40 		0
v -69 		31.8 		0
v -59.7 		-6.8 		0
v -59.985 		-6.768 		0
v -60.168 		-6.713 		0
v -60.395 		-6.598 		0
v -60.596 		-6.441 		0
v -60.763 		-6.248 		0
v -60.831 		-6.141 		0
v -60.934 		-5.908 		0
v -60.968 		-5.785 		0
v -61 		-5.5 		0
v -61.6 		-31.8 		0
v -61.6 		-36.2 		0
v -69 		-36.2 		0
v -69 		-8.2 		0
v -69 		-23.8 		0
v -69 		-31.8 		0
v -69 		40 		4
v -61.6 		36.2 		4
v -61.6 		31.8 		4
v -59.75 		17.8 		4
v -59.831 		17.782 		4
v -59.888 		17.745 		4
v -59.937 		17.662 		4
v -59.95 		17.6 		4
v -59.95 		11.1 		4
v -59.866 		10.9395 		4
v -59.8334 		10.9206 		4
v -59.75 		10.9 		4
v -59.926 		11.009 		4
v -59.872 		10.943 		4
v -59.822 		10.914 		4
v -59.7 		6.8 		4
v -59.891 		6.786 		4
v -60.182 		6.706 		4
v -60.354 		6.622 		4
v -60.4411 		6.5642 		4
v -60.596 		6.441 		4
v -60.763 		6.248 		4
v -60.888 		6.027 		4
v -60.968 		5.785 		4
v -61 		5.5 		4
v -60.5 		6.525 		4
v -69 		23.8 		4
v -69 		8.2 		4
v -69 		36.2 		4
v -69 		31.8 		4
v -61 		-5.5 		4
v -60.9726 		-5.7442 		4
v -60.911 		-5.967 		4
v -60.8698 		-6.0567 		4
v -60.684 		-6.349 		4
v -60.5 		-6.525 		4
v -60.313 		-6.646 		4
v -60.138 		-6.724 		4
v -59.954 		-6.775 		4
v -59.7 		-6.8 		4
v -60.968 		-5.785 		4
v -60.831 		-6.141 		4
v -43.247 		18.802 		0
v -34.998 		21.003 		0
v -43.333 		18.78 		0
v -43.385 		18.747 		0
v -43.416 		18.709 		0
v -43.433 		18.674 		0
v -55.865 		17.78 		0
v -55.817 		17.748 		0
v -55.758 		17.653 		0
v -55.75 		17.6 		0
v -55.95 		17.8 		0
v -45.995 		20 		0
v -52.003 		21.003 		0
v -43.447 		18.602 		0
v -36 		10.1106 		0
v -45.995 		7.802 		0
v -55.75 		11.1 		0
v -55.765 		11.028 		0
v -55.815 		10.953 		0
v -55.851 		10.927 		0
v -55.95 		10.9 		0
v -52.003 		8.985 		0
v -56 		6.8 		0
v -55.778 		6.779 		0
v -55.547 		6.718 		0
v -55.4337 		6.6687 		0
v -55.253 		6.561 		0
v -55.104 		6.441 		0
v -54.937 		6.248 		0
v -54.812 		6.027 		0
v -54.766 		5.908 		0
v -54.71 		5.659 		0
v -54.7 		5.5 		0
v -55.416 		6.661 		0
v -34.998 		-7.003 		0
v -36 		-6.995 		0
v -55.778 		-6.779 		0
v -55.503 		-6.701 		0
v -55.36 		-6.629 		0
v -55.2 		-6.525 		0
v -55.055 		-6.389 		0
v -54.902 		-6.195 		0
v -54.787 		-5.968 		0
v -54.72 		-5.722 		0
v -54.7 		-5.5 		0
v -52.003 		-7.003 		0
v -56 		-6.8 		0
v -32 		40 		4
v -28 		23.8 		4
v -32 		23.8 		4
v -32 		8.2 		4
v -28 		8.2 		4
v -46.8 		40 		4
v -46.8 		36.2 		4
v -39.4 		36.2 		4
v -54.2 		40 		4
v -39.4 		31.8 		4
v -54.2 		31.8 		4
v -43.247 		18.802 		4
v -39.447 		18.802 		4
v -39.277 		18.705 		4
v -39.247 		18.602 		4
v -39.375 		18.788 		4
v -36 		20 		4
v -36 		8.192 		4
v -45.995 		8.192 		4
v -55.95 		10.9 		4
v -55.866 		10.921 		4
v -55.798 		10.971 		4
v -55.765 		11.028 		4
v -55.75 		11.1 		4
v -52.003 		10.9 		4
v -54.7 		5.5 		4
v -54.72 		5.722 		4
v -54.7474 		5.8418 		4
v -54.841 		6.084 		4
v -54.947 		6.261 		4
v -55.14 		6.473 		4
v -55.265 		6.571 		4
v -55.416 		6.661 		4
v -55.592 		6.734 		4
v -55.778 		6.779 		4
v -56 		6.8 		4
v -54.752 		5.862 		4
v -34.998 		-7.003 		4
v -36 		-6.995 		4
v -45.995 		-6.995 		4
v -56 		-6.8 		4
v -55.715 		-6.768 		4
v -55.473 		-6.688 		4
v -55.2 		-6.525 		4
v -55.104 		-6.441 		4
v -54.986 		-6.312 		4
v -54.871 		-6.14 		4
v -54.787 		-5.968 		4
v -54.72 		-5.722 		4
v -54.7 		-5.5 		4
v -52.003 		-7.003 		4
v -28 		23.8 		0
v -28 		8.2 		0
v -32 		40 		0
v -32 		8.2 		0
v -32 		23.8 		0
v -46.8 		40 		0
v -54.2 		40 		0
v -46.8 		36.2 		0
v -39.4 		36.2 		0
v -39.4 		31.8 		0
v -54.2 		31.8 		0
v -39.255 		18.655 		0
v -39.247 		18.602 		0
v -39.314 		18.75 		0
v -39.362 		18.782 		0
v -39.447 		18.802 		0
v -43.447 		18.602 		4
v -43.328 		18.784 		4
v -43.385 		18.747 		4
v -43.434 		18.664 		4
v -34.998 		21.003 		4
v -55.75 		17.6 		4
v -55.78 		17.703 		4
v -55.878 		17.786 		4
v -55.95 		17.8 		4
v -61.6 		-31.8 		4
v -61.6 		-36.2 		4
v -69 		-36.2 		4
v -69 		-23.8 		4
v -69 		-8.2 		4
v -69 		-31.8 		4
v -46.8 		-40 		4
v -46.8 		-40 		0
v -32 		-40 		0
v -32 		-40 		4
v -54.2 		-40 		0
v -54.2 		-40 		4
v -36 		20 		0
v -45.995 		20 		4
v -52.003 		21.003 		4
v -45.995 		-6.995 		0
# 352 vertices

g group_0_11909273

usemtl color_11909273
s 0

f 1 	2 	3
f 4 	1 	3
f 5 	4 	3
f 5 	3 	6
f 6 	7 	8
f 5 	6 	8
f 8 	7 	9
f 8 	9 	10
f 1 	12 	2
f 11 	2 	12
f 13 	14 	15
f 13 	15 	16
f 15 	17 	16
f 16 	17 	18
f 19 	16 	18
f 19 	11 	12
f 19 	18 	20
f 19 	20 	11
f 21 	46 	22
f 23 	24 	25
f 23 	25 	26
f 27 	23 	26
f 28 	27 	29
f 27 	26 	30
f 27 	30 	29
f 31 	28 	29
f 31 	29 	32
f 33 	31 	32
f 33 	32 	34
f 35 	33 	34
f 35 	34 	36
f 37 	35 	36
f 37 	38 	35
f 39 	38 	37
f 39 	37 	40
f 41 	39 	40
f 41 	40 	42
f 41 	42 	21
f 41 	21 	22
f 45 	46 	47
f 45 	47 	48
f 49 	45 	48
f 49 	48 	50
f 49 	50 	51
f 52 	49 	51
f 52 	53 	54
f 51 	55 	52
f 52 	55 	53
f 54 	53 	56
f 54 	56 	57
f 57 	56 	58
f 57 	58 	59
f 59 	58 	60
f 59 	60 	61
f 61 	60 	43
f 61 	43 	44
f 21 	47 	46
f 62 	63 	64
f 62 	64 	65
f 66 	65 	64
f 66 	64 	67
f 62 	68 	69
f 62 	69 	63
f 24 	71 	25
f 70 	25 	71
f 72 	73 	74
f 72 	74 	75
f 76 	72 	75
f 76 	75 	77
f 78 	76 	77
f 78 	77 	79
f 80 	78 	79
f 80 	79 	81
f 82 	80 	81
f 82 	81 	83
f 83 	84 	85
f 82 	83 	85
f 84 	86 	87
f 85 	84 	87
f 88 	87 	86
f 88 	86 	89
f 70 	71 	88
f 70 	88 	89
f 43 	91 	44
f 90 	44 	91
f 73 	93 	74
f 92 	74 	93
f 94 	90 	91
f 95 	94 	96
f 91 	97 	94
f 94 	97 	96
f 98 	95 	96
f 99 	98 	100
f 96 	101 	98
f 98 	101 	100
f 102 	99 	100
f 102 	100 	103
f 104 	102 	103
f 104 	103 	105
f 106 	104 	105
f 106 	105 	107
f 108 	106 	107
f 108 	107 	109
f 93 	108 	109
f 92 	93 	109
f 110 	111 	112
f 110 	112 	113
f 114 	115 	116
f 114 	116 	117
f 117 	111 	114
f 110 	114 	111
f 118 	119 	120
f 118 	120 	121
f 122 	123 	124
f 122 	124 	125
f 127 	347 	126
f 154 	318 	128
f 131 	230 	136
f 133 	230 	132
f 134 	230 	133
f 135 	230 	134
f 134 	129 	135
f 132 	151 	133
f 131 	151 	132
f 132 	230 	131
f 136 	151 	131
f 133 	151 	134
f 152 	151 	130
f 128 	322 	129
f 138 	139 	137
f 137 	139 	140
f 137 	140 	141
f 130 	234 	141
f 148 	147 	138
f 140 	152 	141
f 139 	152 	140
f 130 	141 	152
f 136 	130 	151
f 143 	144 	142
f 142 	144 	145
f 142 	145 	146
f 142 	146 	147
f 142 	147 	148
f 142 	148 	149
f 142 	149 	150
f 145 	152 	146
f 143 	152 	144
f 165 	169 	142
f 152 	142 	169
f 139 	138 	147
f 152 	139 	147
f 147 	146 	152
f 145 	144 	152
f 149 	148 	138
f 150 	149 	137
f 234 	150 	137
f 138 	137 	149
f 121 	151 	152
f 121 	152 	118
f 128 	153 	154
f 129 	134 	151
f 155 	129 	151
f 143 	142 	152
f 150 	246 	156
f 150 	156 	157
f 150 	157 	158
f 150 	158 	159
f 150 	159 	160
f 150 	160 	161
f 150 	161 	162
f 150 	162 	163
f 150 	163 	164
f 150 	164 	165
f 150 	165 	142
f 164 	169 	165
f 163 	169 	164
f 162 	169 	163
f 170 	169 	161
f 160 	170 	161
f 158 	157 	170
f 159 	170 	160
f 166 	157 	156
f 127 	167 	347
f 127 	168 	167
f 125 	169 	170
f 125 	170 	122
f 162 	161 	169
f 159 	158 	170
f 171 	170 	166
f 157 	166 	170
f 318 	154 	172
f 173 	172 	200
f 174 	271 	173
f 177 	178 	176
f 175 	176 	178
f 175 	178 	179
f 176 	175 	174
f 269 	173 	271
f 201 	198 	174
f 177 	176 	198
f 178 	177 	198
f 184 	185 	180
f 179 	180 	182
f 182 	186 	179
f 179 	183 	280
f 181 	182 	180
f 181 	180 	185
f 183 	179 	186
f 199 	197 	185
f 185 	189 	181
f 181 	189 	182
f 186 	188 	183
f 184 	180 	199
f 198 	199 	179
f 185 	184 	199
f 182 	189 	186
f 188 	189 	187
f 189 	190 	187
f 190 	191 	187
f 191 	197 	187
f 187 	192 	193
f 187 	193 	194
f 187 	194 	195
f 187 	195 	196
f 187 	196 	202
f 296 	295 	280
f 188 	186 	189
f 192 	187 	197
f 189 	185 	190
f 197 	199 	192
f 193 	199 	194
f 195 	194 	199
f 196 	195 	199
f 202 	196 	199
f 193 	192 	199
f 191 	185 	197
f 190 	185 	191
f 188 	187 	183
f 198 	120 	119
f 198 	119 	199
f 180 	179 	199
f 179 	178 	198
f 211 	301 	187
f 205 	187 	204
f 203 	212 	187
f 213 	187 	205
f 207 	187 	206
f 208 	187 	207
f 209 	187 	208
f 210 	187 	209
f 211 	187 	210
f 295 	296 	301
f 202 	203 	187
f 204 	187 	212
f 199 	341 	202
f 203 	202 	341
f 206 	187 	213
f 212 	203 	341
f 216 	225 	214
f 217 	225 	216
f 218 	225 	217
f 349 	225 	215
f 221 	222 	220
f 224 	220 	222
f 222 	223 	224
f 135 	224 	230
f 223 	230 	224
f 129 	322 	135
f 222 	226 	223
f 221 	226 	222
f 229 	235 	225
f 220 	226 	221
f 220 	224 	322
f 224 	135 	322
f 226 	220 	322
f 226 	215 	225
f 349 	327 	225
f 218 	219 	225
f 225 	219 	227
f 5 	8 	228
f 8 	10 	228
f 39 	41 	4
f 228 	39 	4
f 4 	5 	228
f 19 	229 	16
f 46 	45 	12
f 16 	229 	13
f 14 	13 	229
f 227 	14 	225
f 229 	225 	14
f 33 	228 	31
f 39 	228 	38
f 35 	228 	33
f 38 	228 	35
f 1 	4 	41
f 12 	1 	22
f 46 	12 	22
f 41 	22 	1
f 27 	228 	23
f 228 	27 	28
f 28 	31 	228
f 24 	23 	228
f 54 	229 	52
f 61 	229 	59
f 59 	229 	57
f 61 	44 	229
f 45 	49 	19
f 49 	52 	19
f 229 	19 	52
f 54 	57 	229
f 19 	12 	45
f 130 	136 	230
f 232 	130 	231
f 230 	231 	130
f 130 	232 	233
f 130 	233 	234
f 137 	141 	234
f 230 	223 	235
f 235 	233 	232
f 226 	235 	223
f 231 	230 	235
f 226 	225 	235
f 232 	231 	235
f 237 	238 	236
f 238 	239 	236
f 150 	236 	239
f 239 	247 	150
f 150 	240 	241
f 150 	241 	242
f 150 	242 	243
f 150 	243 	244
f 150 	244 	245
f 150 	245 	246
f 150 	234 	236
f 243 	235 	244
f 240 	150 	247
f 239 	233 	247
f 240 	235 	241
f 233 	235 	247
f 234 	233 	237
f 238 	237 	233
f 234 	237 	236
f 244 	235 	245
f 242 	235 	243
f 242 	241 	235
f 238 	233 	239
f 240 	247 	235
f 246 	245 	235
f 246 	235 	259
f 65 	66 	68
f 65 	68 	62
f 66 	113 	68
f 114 	110 	345
f 82 	85 	249
f 87 	249 	85
f 248 	249 	228
f 87 	88 	249
f 88 	71 	249
f 71 	24 	249
f 228 	249 	24
f 249 	352 	73
f 93 	73 	352
f 73 	72 	249
f 72 	76 	249
f 249 	76 	78
f 78 	80 	249
f 80 	82 	249
f 94 	352 	90
f 95 	352 	94
f 44 	90 	229
f 98 	352 	95
f 352 	229 	90
f 99 	352 	98
f 352 	259 	229
f 102 	352 	99
f 259 	113 	253
f 254 	259 	253
f 255 	259 	254
f 256 	259 	255
f 235 	229 	259
f 257 	258 	259
f 256 	257 	259
f 250 	251 	113
f 251 	252 	113
f 252 	253 	113
f 250 	113 	260
f 260 	113 	156
f 110 	113 	66
f 166 	156 	113
f 167 	166 	113
f 66 	345 	110
f 262 	264 	265
f 264 	262 	263
f 263 	332 	264
f 266 	267 	268
f 261 	266 	268
f 270 	261 	268
f 172 	173 	269
f 174 	198 	176
f 276 	274 	277
f 278 	9 	7
f 6 	278 	7
f 17 	279 	18
f 20 	18 	279
f 20 	48 	11
f 2 	11 	21
f 32 	278 	34
f 34 	278 	36
f 37 	36 	3
f 42 	40 	3
f 40 	37 	3
f 21 	42 	2
f 29 	278 	32
f 3 	36 	278
f 29 	30 	278
f 30 	26 	278
f 278 	26 	25
f 70 	278 	25
f 48 	20 	50
f 51 	279 	55
f 53 	279 	56
f 60 	279 	43
f 58 	279 	60
f 43 	279 	91
f 58 	56 	279
f 53 	55 	279
f 50 	20 	51
f 47 	11 	48
f 279 	51 	20
f 21 	11 	47
f 283 	179 	282
f 281 	282 	179
f 284 	179 	283
f 280 	281 	179
f 281 	280 	295
f 283 	285 	284
f 282 	285 	283
f 351 	333 	285
f 279 	350 	285
f 187 	296 	280
f 183 	187 	280
f 288 	289 	287
f 297 	289 	288
f 286 	289 	290
f 286 	290 	291
f 292 	301 	291
f 293 	301 	292
f 294 	301 	293
f 187 	301 	296
f 295 	301 	294
f 295 	294 	281
f 286 	287 	289
f 287 	285 	288
f 289 	285 	290
f 291 	290 	285
f 292 	285 	293
f 294 	293 	285
f 285 	282 	294
f 282 	281 	294
f 292 	291 	285
f 289 	297 	285
f 297 	288 	285
f 287 	286 	285
f 69 	67 	63
f 63 	67 	64
f 264 	298 	69
f 77 	299 	79
f 81 	79 	299
f 83 	81 	299
f 84 	83 	299
f 86 	84 	299
f 278 	299 	298
f 89 	86 	299
f 70 	89 	299
f 70 	299 	278
f 67 	69 	298
f 77 	75 	299
f 74 	299 	75
f 92 	300 	74
f 300 	91 	279
f 97 	91 	300
f 96 	97 	300
f 101 	96 	300
f 100 	101 	300
f 103 	100 	300
f 105 	103 	300
f 107 	105 	300
f 299 	300 	298
f 109 	107 	300
f 92 	109 	300
f 299 	74 	300
f 303 	304 	302
f 301 	302 	304
f 301 	304 	305
f 301 	305 	306
f 301 	306 	307
f 301 	307 	308
f 301 	308 	309
f 301 	309 	310
f 286 	291 	301
f 310 	286 	301
f 305 	311 	306
f 306 	311 	307
f 308 	307 	311
f 285 	311 	279
f 300 	279 	311
f 309 	311 	310
f 309 	308 	311
f 285 	286 	311
f 310 	311 	286
f 298 	300 	311
f 111 	67 	311
f 304 	111 	305
f 303 	111 	304
f 302 	111 	303
f 301 	211 	112
f 111 	117 	346
f 346 	67 	111
f 298 	311 	67
f 111 	302 	112
f 312 	262 	265
f 312 	265 	313
f 315 	313 	265
f 315 	265 	264
f 312 	316 	263
f 312 	263 	262
f 69 	68 	264
f 315 	264 	68
f 316 	314 	263
f 261 	263 	314
f 317 	266 	314
f 261 	314 	266
f 269 	318 	172
f 268 	267 	319
f 268 	319 	320
f 317 	319 	267
f 317 	267 	266
f 268 	320 	321
f 268 	321 	270
f 269 	271 	322
f 318 	269 	322
f 270 	321 	322
f 270 	322 	271
f 214 	327 	272
f 273 	272 	327
f 323 	324 	275
f 323 	275 	274
f 325 	323 	274
f 325 	274 	276
f 325 	276 	326
f 273 	326 	276
f 273 	327 	326
f 10 	275 	324
f 328 	15 	14
f 328 	14 	227
f 214 	272 	329
f 216 	214 	329
f 329 	330 	217
f 216 	329 	217
f 218 	217 	330
f 218 	330 	331
f 218 	331 	219
f 227 	331 	328
f 227 	219 	331
f 9 	275 	10
f 277 	278 	332
f 298 	332 	278
f 298 	264 	332
f 275 	277 	274
f 278 	277 	9
f 275 	9 	277
f 328 	350 	15
f 277 	350 	273
f 273 	276 	277
f 261 	270 	263
f 332 	263 	270
f 271 	351 	270
f 272 	273 	350
f 329 	272 	350
f 330 	329 	350
f 334 	335 	333
f 335 	336 	333
f 336 	179 	333
f 175 	179 	336
f 284 	333 	179
f 175 	336 	174
f 213 	205 	341
f 205 	204 	341
f 206 	340 	207
f 213 	341 	206
f 207 	340 	208
f 208 	340 	209
f 210 	340 	337
f 209 	340 	210
f 337 	112 	211
f 211 	210 	337
f 302 	301 	112
f 311 	305 	111
f 338 	112 	337
f 126 	338 	339
f 123 	340 	341
f 123 	341 	124
f 342 	337 	340
f 341 	340 	206
f 204 	212 	341
f 173 	200 	128
f 129 	174 	128
f 173 	128 	174
f 174 	129 	201
f 119 	118 	152
f 119 	152 	199
f 151 	121 	120
f 151 	120 	198
f 154 	153 	200
f 154 	200 	172
f 169 	199 	152
f 201 	155 	151
f 201 	151 	198
f 200 	153 	128
f 129 	155 	201
f 337 	342 	166
f 337 	166 	338
f 167 	339 	338
f 166 	167 	338
f 167 	168 	339
f 168 	127 	126
f 168 	126 	339
f 166 	342 	171
f 123 	122 	170
f 123 	170 	340
f 169 	125 	124
f 169 	124 	341
f 340 	170 	171
f 340 	171 	342
f 169 	341 	199
f 344 	346 	343
f 345 	346 	344
f 347 	348 	126
f 115 	114 	344
f 344 	114 	345
f 113 	347 	167
f 116 	343 	117
f 117 	343 	346
f 348 	112 	338
f 348 	338 	126
f 116 	115 	344
f 116 	344 	343
f 66 	67 	345
f 346 	345 	67
f 348 	347 	113
f 348 	113 	112
f 313 	316 	312
f 313 	215 	316
f 248 	215 	315
f 68 	248 	315
f 320 	319 	317
f 317 	314 	320
f 318 	322 	128
f 321 	320 	314
f 314 	316 	321
f 215 	226 	321
f 322 	321 	226
f 326 	349 	325
f 214 	225 	327
f 327 	349 	326
f 248 	228 	215
f 215 	321 	316
f 349 	215 	228
f 313 	315 	215
f 325 	349 	323
f 324 	323 	349
f 228 	10 	349
f 324 	349 	10
f 334 	351 	335
f 336 	335 	174
f 350 	351 	285
f 334 	333 	351
f 174 	335 	351
f 284 	285 	333
f 332 	270 	351
f 174 	351 	271
f 277 	332 	350
f 332 	351 	350
f 331 	330 	350
f 328 	331 	350
f 350 	279 	15
f 17 	15 	279
f 2 	42 	3
f 278 	6 	3
f 104 	352 	102
f 106 	352 	104
f 108 	352 	106
f 248 	259 	352
f 352 	249 	248
f 248 	113 	259
f 108 	93 	352
f 248 	68 	113
f 256 	255 	257
f 255 	254 	257
f 258 	257 	254
f 254 	253 	258
f 253 	252 	258
f 252 	251 	258
f 251 	250 	258
f 250 	260 	258
f 260 	156 	258
f 246 	258 	156
f 258 	246 	259
# 708 faces

 #end of obj_0

