# Object Export From Tinkercad Server 2015

mtllib obj.mtl

o obj_0
v -60 		-3.7 		4
v -60 		-3.7 		0
v -60 		-18.5 		0
v -60 		-18.5 		4
v -60 		18.5 		4
v -60 		18.5 		0
v 34.921 		-9.124 		4
v -60 		3.7 		0
v -60 		3.7 		4
v 35.022 		-9.175 		4
v 36.8 		-22.5 		0
v 36.8 		-22.5 		4
v 22.4 		-22.5 		4
v 20.793 		-15.163 		4
v 22.4 		-22.5 		0
v 36.82 		-9.211 		4
v 4.913 		-8.482 		4
v 4.883 		-8.438 		4
v 7.2 		-22.5 		0
v 7.2 		-22.5 		4
v -7.2 		-22.5 		4
v -7.2 		-22.5 		0
v -22.4 		-22.5 		0
v -22.4 		-22.5 		4
v 21.4154 		-14.848 		4
v -36.8 		-22.5 		4
v -36.8 		-22.5 		0
v 56.2 		11.1 		0
v 56.2 		18.5 		0
v 60 		18.5 		0
v 20.48 		-15.5287 		4
v 60 		3.7 		0
v 20.556 		-15.486 		4
v 20.66 		-15.385 		4
v 20.6773 		-15.36 		4
v 51.8 		3.7 		0
v 51.8 		11.1 		0
v 51.8 		18.5 		0
v 36.8 		18.5 		0
v 33.531 		-10.171 		2.998
v 33.59 		-10.015 		2.998
v 21.5994 		-15.36 		4
v 21.682 		-15.59 		4
v 21.923 		-15.59 		4
v 22.0056 		-15.36 		4
v 33.676 		-9.891 		2.998
v 33.785 		-9.799 		2.998
v 6.006 		-9.377 		4
v 6.027 		-9.315 		4
v 6.013 		-9.343 		4
v 35.54 		-10.462 		4
v 36.671 		-9.325 		4
v 6.005 		-9.425 		4
v 6.342 		-9.36 		2.998
v 26.382 		-10.013 		4
v 36.497 		-9.513 		4
v 6.002 		-9.389 		4
v 36.278 		-9.904 		4
v 36.356 		-9.732 		4
v 6.008 		-9.432 		4
v 35.54 		-10.462 		2.998
v 18.746 		-13.238 		4
v 26.348 		-10.108 		4
v 18.519 		-13.238 		4
v 36.22 		-10.08 		4
v 36.272 		-11.259 		2.998
v 36.22 		-11.075 		2.998
v 36.272 		-11.259 		4
v 36.8 		22.5 		0
v 36.205 		-11.012 		4
v 36.176 		-10.82 		2.998
v 36.169 		-10.726 		4
v 20.1842 		-13.824 		4
v 20.101 		-13.812 		4
v 19.936 		-13.819 		4
v 7.024 		-9.962 		2.998
v 36.163 		-10.444 		2.998
v 36.173 		-10.352 		4
v 35.347 		-9.526 		4
v 35.416 		-9.676 		4
v 6.9881 		-9.9649 		3.072
v 6.9863 		-9.965 		2.998
v 26.565 		-9.784 		4
v 6.959 		-9.965 		2.998
v 35.261 		-9.389 		4
v 25.688 		-9.788 		4
v 35.152 		-9.272 		4
v 19.9207 		-13.824 		4
v 35.465 		-9.831 		4
v 35.515 		-10.095 		4
v 6.9521 		-9.9677 		3.0516
v 6.949 		-9.968 		2.998
v 26.111 		-9.283 		4
v 25.988 		-9.386 		4
v 6.9203 		-9.9765 		2.998
v 6.9151 		-9.9789 		3.072
v 20.4755 		-13.9319 		4
v 26.111 		-9.283 		2.998
v 25.988 		-9.386 		2.998
v 25.877 		-9.505 		2.998
v 20.324 		-13.859 		4
v 25.733 		-9.714 		2.998
v 20.212 		-13.828 		4
v 19.991 		-14.012 		4
v 20.0459 		-14.0143 		4
v 36.349 		-11.429 		4
v 36.349 		-11.429 		2.998
v 36.446 		-11.589 		4
v 6.905 		-9.981 		2.998
v 36.703 		-11.876 		2.998
v 36.608 		-11.785 		4
v 36.484 		-11.639 		2.998
v 6.034 		-9.301 		4
v 6.064 		-9.263 		4
v 36.703 		-11.876 		4
v 19.968 		-14.0167 		4
v 36.841 		-11.979 		4
v 6.936 		-9.969 		2.998
v 36.841 		-11.979 		2.998
v 6.4 		-11.24 		4
v 20.48 		-13.9341 		4
v 20.358 		-14.099 		4
v 35.54 		-12.102 		4
v 35.54 		-12.102 		2.998
v 20.155 		-14.019 		4
v 25.623 		-9.927 		2.998
v 6.9521 		-9.9677 		3.072
v 26.539 		-9.805 		2.998
v 20.238 		-14.042 		4
v 20.472 		-14.201 		4
v 6.999 		-10.25 		4
v 6.345 		-10.811 		4
v 6.389 		-10.861 		4
v 33.485 		-12.08 		2.998
v 20.48 		-14.2144 		4
v 33.485 		-12.08 		4
v 7.392 		-12.044 		4
v 26.382 		-10.013 		2.998
v 33.486 		-10.689 		4
v 33.486 		-10.689 		2.998
v 7.385 		-12.045 		4
v 33.493 		-10.425 		2.998
v 33.495 		-10.388 		4
v 33.503 		-10.315 		2.998
v 7.278 		-11.989 		4
v 19.834 		-14.055 		4
v 19.912 		-14.028 		4
v 19.6462 		-13.9203 		4
v 19.491 		-14.028 		4
v 19.456 		-14.0726 		4
v 34.761 		-10.324 		2.998
v 34.773 		-10.518 		4
v 34.778 		-10.676 		2.998
v 7.834 		-11.68 		4
v 19.664 		-13.908 		4
v 7.412 		-11.683 		4
v 7.294 		-11.688 		4
v 7.349 		-11.7 		4
v 19.578 		-14.262 		4
v 19.635 		-14.188 		4
v 19.684 		-14.145 		4
v 51.8 		-11.1 		0
v 7.019 		-10.24 		2.998
v 56.2 		-11.1 		0
v 7.07 		-10.228 		2.998
v 60 		-18.5 		0
v 56.2 		-3.7 		0
v 60 		-3.7 		0
v 19.5392 		-14.336 		4
v 25.553 		-10.14 		2.998
v 7.161 		-11.928 		4
v 43.246 		-9.709 		4
v 43.409 		-9.774 		4
v 43.059 		-9.701 		4
v 34.75 		-9.063 		4
v 19.396 		-14.149 		4
v 6.875 		-9.998 		2.998
v 19.324 		-14.271 		4
v 19.3029 		-14.336 		4
v 33.912 		-9.073 		4
v 34.076 		-9.026 		4
v 34.579 		-9.021 		4
v 25.598 		-9.997 		4
v 34.41 		-9 		4
v 34.242 		-9.002 		4
v 25.534 		-10.211 		4
v 43.009 		-9.707 		2.998
v 33.75 		-9.145 		4
v 16.803 		-13.861 		4
v 16.587 		-13.862 		4
v 16.587 		-14.056 		4
v 16.5877 		-14.336 		4
v 16.8045 		-14.336 		4
v 16.804 		-14.055 		4
v 43.201 		-9.704 		2.998
v 16.587 		-13.39 		4
v 33.396 		-9.106 		4
v 6.749 		-10.09 		2.998
v 6.749 		-10.091 		2.998
v 17.318 		-14.055 		4
v 17.318 		-13.861 		4
v 6.745 		-10.093 		2.998
v 16.803 		-13.39 		4
v 34.746 		-10.206 		4
v 34.716 		-10.093 		4
v 34.671 		-9.987 		4
v 34.63 		-9.923 		4
v 34.519 		-9.814 		4
v 6.746 		-10.093 		2.998
v 34.448 		-9.772 		4
v 34.319 		-9.723 		4
v 34.183 		-9.7 		4
v 34.044 		-9.705 		4
v 33.91 		-9.737 		4
v 33.534 		-9.285 		4
v 6.748 		-10.091 		2.998
v 33.487 		-9.323 		4
v 33.396 		-9.397 		4
v 33.785 		-9.799 		4
v 33.676 		-9.891 		4
v 33.59 		-10.015 		4
v 33.531 		-10.171 		4
v 43.611 		-10.049 		2.998
v 19.487 		-14.597 		4
v 19.496 		-14.922 		4
v 19.499 		-14.778 		4
v 7.138 		-11.904 		4
v 19.501 		-14.465 		4
v 19.5059 		-14.4476 		4
v 43.48 		-9.834 		2.998
v 43.543 		-9.914 		2.998
v 43.409 		-9.774 		2.998
v 6.002 		-10.803 		4
v 6.007 		-10.84 		4
v 5.999 		-10.747 		4
v 5.995 		-10.788 		4
v 43.331 		-9.734 		2.998
v 19.535 		-14.344 		4
v 36.8 		-18.5 		0
v 22.4 		18.5 		0
v 22.4 		22.5 		0
v 6.1079 		-9.2153 		2.998
v 6.1074 		-9.216 		2.9994
v 7.2 		22.5 		0
v 7.2 		18.5 		0
v 34.783 		-10.918 		4
v 34.783 		-12.102 		2.998
v 6.113 		-9.209 		2.998
v 19.7879 		-15.36 		4
v 19.773 		-15.354 		4
v 34.783 		-12.102 		4
v 0.448 		12.483 		0
v 20.383 		-15.329 		4
v 20.3202 		-15.36 		4
v 0.894 		12.431 		0
v 20.48 		-15.2526 		4
v 19.526 		-15.056 		4
v 1.48 		12.313 		0
v 19.584 		-15.175 		4
v 6.025 		-10.87 		4
v 2.051 		12.136 		0
v 19.667 		-15.276 		4
v 3.128 		11.618 		0
v 6.124 		-10.98 		4
v 2.602 		11.904 		0
v 5.123 		-8.237 		2.998
v 6.005 		-10.743 		4
v 5.123 		-8.237 		4
v 4.08 		10.897 		0
v 3.622 		11.281 		0
v 5.216 		-8.376 		4
v 6.033 		-10.886 		4
v 6.056 		-10.914 		4
v 5.359 		-8.503 		4
v 27.686 		-11.115 		2.998
v 27.659 		-11.12 		2.998
v 27.659 		-11.12 		4
v 4.497 		10.469 		0
v 19.241 		-14.527 		4
v 19.229 		-14.728 		4
v 19.25 		-14.933 		4
v 19.285 		-15.072 		4
v 19.344 		-15.22 		4
v 19.419 		-15.346 		4
v 19.4314 		-15.36 		4
v 36.8 		-18.5 		4
v 4.87 		10.001 		0
v 22.4 		18.5 		4
v 22.4 		22.5 		4
v 5.195 		9.499 		0
v 28.402 		-10.797 		2.998
v 7.2 		22.5 		4
v 28.419 		-10.65 		2.998
v 7.2 		18.5 		4
v 28.4 		-10.361 		2.998
v 5.406 		9.103 		0
v 0.448 		12.483 		4
v 28.416 		-10.684 		4
v 5.584 		8.691 		0
v 28.402 		-10.797 		4
v 1.625 		12.276 		4
v 1.042 		12.409 		4
v 27.686 		-11.115 		4
v 5.638 		4.448 		0
v 2.192 		12.085 		4
v 27.543 		-11.251 		2.998
v 5.881 		7.689 		0
v 3.255 		11.54 		4
v 27.543 		-11.251 		4
v 2.737 		11.839 		4
v 5.933 		7.394 		0
v 19.511 		-15.45 		4
v 5.981 		6.948 		0
v 19.619 		-15.531 		4
v 27.626 		-11.14 		2.998
v 19.74 		-15.59 		4
v 19.876 		-15.626 		4
v 20.024 		-15.64 		4
v 19.897 		-15.404 		4
v 19.456 		-15.3878 		4
v 27.626 		-11.14 		4
v 20.304 		-15.368 		4
v 20.187 		-15.405 		4
v 20.387 		-15.581 		4
v 6.13 		-10.997 		4
v 20.036 		-15.423 		4
v 3.741 		11.191 		4
v 5.649 		-8.761 		4
v 5.479 		-8.61 		2.998
v 5.303 		-11.351 		4
v 27.682 		-12.042 		2.998
v 27.831 		-11.964 		2.998
v 27.968 		-11.869 		2.998
v 28.092 		-11.757 		2.998
v 5.787 		-11.308 		4
v 28.203 		-11.627 		2.998
v 28.299 		-11.48 		2.998
v 28.382 		-11.315 		2.998
v 28.299 		-11.48 		4
v 28.382 		-11.315 		4
v 5.286 		-11.736 		4
v 5.208 		-11.816 		4
v 5.132 		-11.957 		4
v 28.226 		-11.273 		4
v 6.12 		-9.199 		2.998
v 4.189 		10.795 		4
v 5.97 		5.903 		0
v 5.136 		-8.288 		2.998
v 5.136 		-8.288 		4
v 6 		6.5 		0
v 4.596 		10.357 		4
v 5.774 		4.875 		0
v 5.881 		5.311 		0
v 4.957 		9.88 		4
v 28.203 		-11.627 		4
v 5.269 		9.37 		4
v 28.092 		-11.757 		4
v 5.467 		8.967 		4
v 27.682 		-12.042 		4
v 27.831 		-11.964 		4
v 5.638 		8.552 		4
v 27.968 		-11.869 		4
v 5.774 		8.125 		0
v 5.114 		-12.109 		4
v 5.638 		4.448 		4
v 4.933 		-11.676 		4
v 26.724 		-12.157 		4
v 26.954 		-12.179 		4
v 5.814 		7.981 		4
v 5.933 		7.394 		4
v 27.345 		-12.147 		4
v 4.877 		-11.752 		4
v 4.189 		2.205 		0
v 4.398 		2.419 		0
v 4.86 		-11.833 		4
v 27.188 		-12.171 		4
v 5.993 		6.799 		4
v 5.467 		4.033 		0
v 5.996 		6.35 		4
v 6.12 		-9.199 		4
v 5.269 		3.63 		0
v 5.039 		3.246 		0
v 4.783 		2.877 		0
v 5.97 		5.903 		4
v 6.408 		-12.601 		4
v 26.667 		-11.406 		4
v 5.848 		5.165 		4
v 6.837 		-12.554 		4
v 5.733 		4.731 		4
v 27.453 		-11.333 		4
v 5.674 		-9.152 		2.998
v 27.298 		-11.419 		4
v 3.856 		1.905 		0
v 26.77 		-11.447 		4
v 3.128 		1.382 		0
v 3.502 		1.628 		0
v 27.127 		-11.468 		4
v 27.008 		-11.477 		4
v 4.398 		2.419 		4
v 5.12 		-12.299 		4
v 2.737 		1.161 		0
v 5.406 		3.897 		4
v 2.33 		0.973 		0
v 4.863 		-8.358 		2.998
v 4.913 		-8.482 		2.998
v 5.269 		3.63 		4
v 4.863 		-8.358 		4
v 1.48 		0.687 		0
v 1.911 		0.812 		0
v 4.957 		3.12 		4
v 26.667 		-11.406 		2.998
v 4.783 		2.877 		4
v 5.448 		-13.828 		4
v 5.127 		-13.769 		4
v 27.453 		-11.333 		2.998
v 6.0112 		-9.3617 		3.7712
v 6.0112 		-9.3617 		2.998
v 6.006 		-9.377 		2.998
v 6.006 		-9.377 		3.9024
v 4.08 		2.103 		4
v 27.298 		-11.419 		2.998
v 6.013 		-9.343 		2.998
v 5.122 		-13.669 		4
v 3.741 		1.809 		4
v 6.007 		-9.4045 		2.998
v 6.007 		-9.4045 		3.2485
v 4.863 		-13.772 		4
v 3.502 		1.628 		4
v 6.005 		-9.425 		2.998
v 5.078 		-14.153 		4
v 26.77 		-11.447 		2.998
v 4.865 		-14.048 		4
v 27.068 		-11.473 		2.998
v 3 		1.304 		4
v 5.007 		-14.182 		4
v 2.737 		1.161 		4
v 2.192 		0.915 		4
v 4.956 		-14.179 		4
v 4.912 		-14.147 		4
v 1.911 		0.812 		4
v 6.0213 		-9.3318 		2.998
v 6.0226 		-9.3279 		3.1873
v 6.0248 		-9.3215 		3.4252
v 6.027 		-9.315 		2.998
v 1.335 		0.65 		4
v 1.042 		0.591 		4
v 0.597 		0.532 		0
v 1.042 		0.591 		0
v 0.448 		0.517 		4
v 0.15 		0.502 		4
v 0.15 		0.502 		0
v 7.2 		-18.5 		4
v 16.384 		-18.5 		4
v 22.608 		-8.089 		4
v 23.338 		-8.089 		4
v -7.2 		22.5 		4
v -7.2 		18.5 		4
v 17.923 		-8.088 		4
v 18.541 		-8.089 		4
v 19.288 		-8.089 		4
v -5.686 		8.411 		4
v -5.467 		8.967 		4
v -5.269 		9.37 		4
v 32.734 		-9.106 		4
v 26.724 		-12.157 		2.998
v 26.954 		-12.179 		2.998
v -5.12 		9.629 		4
v 27.345 		-12.147 		2.998
v 30.84 		-9.049 		4
v 31.268 		-9.211 		4
v 6.027 		-9.315 		3.666
v 31.062 		-9.115 		4
v -4.783 		10.123 		4
v 6.0392 		-9.302 		3.5119
v -4.398 		10.581 		4
v -3.97 		10.999 		4
v 6.027 		-9.315 		3.8055
v 31.755 		-9.675 		4
v -3.502 		11.372 		4
v 31.866 		-9.886 		4
v 31.953 		-10.156 		4
v -3 		11.696 		4
v -2.468 		11.969 		4
v 6.0546 		-9.2855 		3.1396
v -1.911 		12.188 		4
v -1.335 		12.35 		4
v 31.453 		-9.337 		4
v -0.746 		12.453 		4
v 26.405 		-11.136 		2.998
v -0.15 		12.498 		4
v 31.617 		-9.492 		4
v 26.405 		-11.136 		4
v 30.905 		-9.815 		4
v 31.016 		-9.914 		4
v 26.328 		-10.94 		2.998
v 26.309 		-10.797 		2.998
v 31.123 		-10.086 		4
v 26.309 		-10.797 		4
v -5.529 		4.169 		4
v 26.34 		-10.989 		4
v 30.605 		-9.015 		4
v -5.996 		6.65 		4
v -5.97 		7.097 		4
v 30.381 		-9.013 		4
v -5.933 		7.394 		4
v 30.203 		-9.034 		4
v -5.814 		7.981 		4
v 26.321 		-10.246 		2.998
v 30.072 		-9.063 		4
v 29.901 		-9.122 		4
v 6.008 		-9.432 		2.998
v 29.762 		-9.186 		4
v -5.733 		4.731 		4
v 26.321 		-10.246 		4
v -5.848 		5.165 		4
v -5.933 		5.606 		4
v -5.993 		6.201 		4
v 30.709 		-9.729 		4
v 30.59 		-9.706 		4
v 30.469 		-9.706 		4
v 30.278 		-9.726 		4
v 30.144 		-9.779 		4
v 30.019 		-9.86 		4
v 29.888 		-10.023 		4
v 29.843 		-10.128 		4
v 29.633 		-9.262 		4
v 29.408 		-9.444 		4
v 29.271 		-9.612 		4
v -1.042 		0.591 		4
v 25.51 		-10.356 		2.998
v 25.497 		-10.576 		2.998
v 25.505 		-10.8 		2.998
v 29.154 		-9.801 		4
v -0.448 		0.517 		4
v 29.07 		-10.006 		4
v 25.504 		-10.429 		4
v -1.625 		0.724 		4
v 25.496 		-10.65 		4
v -2.192 		0.915 		4
v 32.005 		-10.47 		4
v 25.524 		-10.95 		4
v 25.555 		-11.101 		4
v -2.737 		1.161 		4
v 25.555 		-11.101 		2.998
v 22.608 		-8.089 		2.998
v 23.338 		-8.089 		2.998
v 32.002 		-10.735 		4
v -3.255 		1.46 		4
v 31.981 		-10.897 		4
v 31.935 		-11.108 		4
v 31.882 		-11.264 		4
v 17.923 		-8.088 		2.998
v -3.741 		1.809 		4
v 25.599 		-11.243 		2.998
v -4.08 		2.103 		4
v 18.541 		-8.089 		2.998
v 19.288 		-8.089 		2.998
v -4.596 		2.643 		4
v -4.957 		3.12 		4
v 31.063 		-11.198 		4
v 31.17 		-10.967 		4
v 31.218 		-10.669 		4
v 31.175 		-10.241 		4
v -5.269 		3.63 		4
v 31.836 		-11.365 		4
v 26.498 		-11.271 		2.998
v 25.728 		-11.502 		2.998
v 25.965 		-11.778 		2.998
v 26.144 		-11.92 		2.998
v 32.734 		-9.106 		2.998
v 26.284 		-12.004 		2.998
v 26.428 		-12.071 		2.998
v 32.734 		-12.08 		4
v 25.728 		-11.502 		4
v 30.84 		-9.049 		2.998
v 31.688 		-11.603 		4
v 31.268 		-9.211 		2.998
v 6.389 		-10.861 		2.998
v 30.767 		-12.152 		4
v 26.501 		-12.097 		4
v 31.062 		-9.115 		2.998
v 30.742 		-11.447 		4
v 30.834 		-11.409 		4
v 30.998 		-11.284 		4
v 26.498 		-11.271 		4
v -22.4 		18.5 		4
v -22.4 		22.5 		4
v 31.081 		-12.072 		4
v 31.223 		-12.009 		4
v -7.2 		-18.5 		4
v 6.345 		-10.811 		2.998
v 31.474 		-11.836 		4
v 31.953 		-10.156 		2.998
v 31.866 		-9.886 		2.998
v 31.755 		-9.675 		2.998
v -22.4 		-18.5 		4
v 26.284 		-12.004 		4
v -36.8 		-18.5 		4
v 25.861 		-11.673 		4
v -51.8 		3.7 		4
v 20.183 		-15.631 		4
v 6.944 		-10.294 		2.998
v 25.812 		-11.619 		2.998
v -56.2 		-11.1 		4
v -56.2 		-3.7 		4
v -51.8 		-11.1 		4
v -36.8 		22.5 		4
v -36.8 		18.5 		4
v -51.8 		18.5 		4
v -51.8 		11.1 		4
v -56.2 		11.1 		4
v -56.2 		18.5 		4
v 56.2 		18.5 		4
v 60 		18.5 		4
v 51.8 		18.5 		4
v 31.123 		-10.086 		2.998
v 36.8 		18.5 		4
v 18.519 		-15.593 		4
v 18.746 		-15.593 		4
v 60 		3.7 		4
v 51.8 		3.7 		4
v 31.617 		-9.492 		2.998
v 31.453 		-9.337 		2.998
v 56.2 		11.1 		4
v 51.8 		11.1 		4
v 7.392 		-12.044 		2.998
v 7.294 		-11.688 		2.998
v 36.8 		22.5 		4
v 51.8 		-11.1 		4
v 56.2 		-11.1 		4
v 56.2 		-3.7 		4
v 16.5897 		-15.1232 		4
v 16.59 		-15.23 		4
v 60 		-3.7 		4
v 16.6239 		-15.36 		4
v 16.8984 		-15.36 		4
v 16.858 		-15.329 		4
v 30.86 		-9.791 		2.998
v 30.983 		-9.877 		2.998
v 60 		-18.5 		4
v 39.019 		-8.087 		4
v 38.262 		-8.087 		4
v 38.262 		-8.087 		2.998
v 39.019 		-8.087 		2.998
v 7.385 		-12.045 		2.998
v 40.705 		-8.002 		2.998
v 40.705 		-8.002 		4
v 16.82 		-15.258 		4
v 16.806 		-15.207 		4
v 16.5879 		-14.4125 		4
v 39.975 		-8.002 		4
v 39.975 		-8.002 		2.998
v 47.353 		-9.262 		2.998
v 47.187 		-9.167 		4
v 47.353 		-9.262 		4
v 30.605 		-9.015 		2.998
v 30.203 		-9.034 		2.998
v 16.832 		-15.571 		4
v 17.0074 		-15.6082 		4
v 17.122 		-15.618 		4
v 17.222 		-15.604 		4
v 17.319 		-15.577 		4
v 17.127 		-15.42 		4
v 16.6312 		-15.3789 		4
v 16.683 		-15.464 		4
v 30.425 		-9.01 		2.998
v 47.353 		-9.104 		2.998
v 48.002 		-9.104 		2.998
v 48.002 		-9.104 		4
v 47.353 		-9.104 		4
v 17.319 		-15.42 		4
v 47.301 		-10.206 		4
v 7.363 		-11.699 		2.998
v 47.291 		-10.155 		2.998
v 16.931 		-15.385 		4
v 16.627 		-15.372 		4
v 16.985 		-15.405 		4
v 7.412 		-11.683 		2.998
v 29.965 		-9.099 		2.998
v 47.122 		-9.843 		2.998
v 29.762 		-9.186 		2.998
v 16.923 		-15.601 		4
v 47.122 		-9.843 		4
v 29.81 		-10.927 		4
v 47.237 		-10.011 		2.998
v 29.771 		-10.655 		4
v 47.259 		-10.057 		4
v 29.784 		-10.37 		4
v 29.893 		-11.158 		4
v 29.952 		-11.246 		4
v 29.001 		-10.264 		4
v 28.971 		-10.525 		4
v 47.086 		-9.117 		2.998
v 28.972 		-10.722 		4
v 46.541 		-9.014 		2.998
v 45.994 		-9.117 		2.998
v 29.008 		-10.987 		4
v 26.144 		-11.92 		4
v 29.064 		-11.19 		4
v 26.02 		-11.828 		4
v 22.4 		-18.5 		0
v 46.966 		-9.065 		4
v 46.873 		-9.039 		4
v 46.826 		-9.031 		2.998
v 46.684 		-9.012 		4
v 22.4 		-18.5 		4
v 46.493 		-9.012 		4
v 46.3 		-9.034 		4
v 30.453 		-12.175 		4
v 30.225 		-12.158 		4
v 29.86 		-12.058 		4
v 10.794 		-8.087 		4
v 7.161 		-11.928 		2.998
v 45.994 		-9.117 		4
v 11.545 		-8.087 		4
v 30.027 		-11.318 		4
v 30.231 		-11.426 		4
v 30.41 		-11.473 		4
v 30.598 		-11.477 		4
v 14.099 		-8.151 		4
v 14.667 		-8.088 		4
v 14.055 		-8.086 		4
v 29.175 		-11.438 		4
v 13.341 		-8.082 		4
v 46.518 		-9.683 		4
v 46.647 		-9.671 		4
v 29.585 		-11.898 		4
v 46.402 		-9.714 		4
v 6.546 		-11.375 		2.998
v 7.156 		-11.922 		2.998
v 46.299 		-9.762 		4
v 29.33 		-11.66 		4
v 47.002 		-9.746 		4
v 4.906 		-6.038 		4
v 4.948 		-6.004 		4
v 29.474 		-11.809 		4
v 5.015 		-5.999 		4
v 46.903 		-9.703 		4
v 5.082 		-6.023 		4
v 46.79 		-9.678 		4
v 4.864 		-6.141 		4
v 27.435 		-9.064 		4
v 27.297 		-9.032 		4
v 27.014 		-9.009 		4
v 46.21 		-9.828 		4
v 26.722 		-9.035 		4
v 6.0044 		-10.8101 		2.998
v 6.0044 		-10.8101 		3.6775
v 6.002 		-10.803 		3.7366
v 6.002 		-10.803 		2.998
v 27.702 		-9.172 		4
v 6.0027 		-10.7896 		3.4574
v 7.382 		-8.13 		4
v 46.518 		-9.683 		2.998
v 46.647 		-9.671 		2.998
v 7.381 		-8.123 		4
v 28.32 		-9.925 		4
v 28.372 		-10.149 		4
v 46.402 		-9.714 		2.998
v 6.0027 		-10.7896 		2.998
v 28.136 		-9.55 		4
v 28.254 		-9.757 		4
v 6.418 		-7.595 		4
v 7.124 		-7.862 		4
v 46.903 		-9.703 		2.998
v 28.022 		-9.41 		4
v 27.932 		-9.326 		4
v 5.668 		-6.906 		4
v 5.13 		-6.422 		4
v 27.831 		-9.25 		4
v 46.79 		-9.678 		2.998
v 5.999 		-10.747 		2.998
v 5.121 		-6.455 		4
v 5.311 		-6.213 		4
v 5.837 		-6.701 		4
v 46.1 		-9.958 		2.998
v 26.983 		-9.642 		4
v 26.852 		-9.66 		4
v 25.062 		-12.08 		2.998
v 25.062 		-11.39 		2.998
v 46.299 		-9.762 		2.998
v 25.062 		-12.08 		4
v 25.062 		-11.39 		4
v 14.667 		-8.799 		4
v 27.641 		-10.235 		4
v 27.627 		-10.091 		4
v 27.562 		-9.919 		4
v 27.483 		-9.81 		4
v 27.298 		-9.69 		4
v 27.163 		-9.654 		4
v 47.002 		-9.746 		2.998
v 26.685 		-9.716 		4
v 13.341 		-9.722 		4
v 26.392 		-9.126 		4
v 22.608 		-12.08 		2.998
v 15.919 		-8.799 		4
v 15.919 		-12.081 		4
v 14.099 		-12.081 		4
v 26.246 		-9.196 		4
v 13.344 		-12.081 		4
v 13.344 		-10.447 		4
v 23.338 		-11.39 		2.998
v 22.608 		-12.08 		4
v 11.545 		-9.722 		4
v 21.016 		-11.39 		2.998
v 21.016 		-11.39 		4
v 42.989 		-9.038 		2.998
v 9.429 		-9.965 		4
v 9.483 		-10.018 		4
v 21.016 		-12.086 		2.998
v 21.016 		-12.086 		4
v 45.471 		-9.527 		2.998
v 42.744 		-9.108 		4
v 42.629 		-9.166 		4
v 45.242 		-9.962 		2.998
v 45.173 		-10.203 		2.998
v 9.514 		-10.064 		4
v 9.519 		-10.108 		4
v 46.014 		-10.117 		2.998
v 23.338 		-11.39 		4
v 45.734 		-9.261 		4
v 42.864 		-9.064 		4
v 9.502 		-10.153 		4
v 30.469 		-9.706 		2.998
v 30.59 		-9.706 		2.998
v 45.797 		-9.222 		2.998
v 42.744 		-9.108 		2.998
v 16.652 		-12.081 		2.998
v 16.652 		-12.081 		4
v 42.305 		-9.106 		2.998
v 9.426 		-9.958 		4
v 19.288 		-11.39 		2.998
v 46.067 		-10.006 		4
v 30.278 		-9.726 		2.998
v 19.288 		-11.39 		4
v 46.014 		-10.117 		4
v 7.2 		-18.5 		0
v 16.652 		-8.773 		2.998
v 17.923 		-8.773 		2.998
v 17.923 		-8.773 		4
v -7.2 		18.5 		0
v -7.2 		22.5 		0
v 9.044 		-9.956 		4
v -5.638 		8.552 		0
v 16.652 		-8.773 		4
v 8.991 		-10.222 		4
v 45.568 		-9.411 		4
v 8.94 		-10.227 		4
v -5.529 		8.831 		0
v 8.995 		-10.23 		4
v 29.819 		-10.209 		2.998
v 45.62 		-9.356 		2.998
v 9.158 		-9.701 		4
v -5.338 		9.236 		0
v -4.87 		10.001 		0
v -5.12 		9.629 		0
v 8.976 		-10.64 		4
v 30.144 		-9.779 		2.998
v 8.981 		-10.266 		4
v 45.425 		-9.588 		4
v 45.344 		-9.725 		4
v -4.596 		10.357 		0
v 18.541 		-12.086 		2.998
v 18.541 		-12.086 		4
v 45.344 		-9.725 		2.998
v -4.294 		10.688 		0
v -3.856 		11.095 		0
v 29.983 		-9.897 		2.998
v -3.502 		11.372 		0
v 42.305 		-9.106 		4
v 45.173 		-10.203 		4
v 11.548 		-12.081 		4
v 10.794 		-12.081 		4
v 41.669 		-9.106 		4
v 41.669 		-9.106 		2.998
v 11.548 		-10.447 		4
v 6.007 		-10.84 		2.998
v 47.334 		-10.421 		2.998
v 6.025 		-10.87 		3.5628
v 6.023 		-10.8642 		3.325
v 15.994 		-13.892 		4
v 6.0207 		-10.8575 		2.998
v 15.9007 		-13.88 		4
v 6.025 		-10.87 		2.998
v 15.73 		-13.922 		4
v 15.688 		-13.955 		4
v 42.513 		-9.247 		2.998
v 15.612 		-14.049 		4
v 15.4012 		-14.336 		4
v 25.877 		-9.505 		4
v 6.0321 		-10.8778 		3.5104
v 6.0675 		-10.9172 		2.998
v 47.334 		-10.421 		4
v 15.905 		-13.879 		4
v 42.305 		-9.404 		4
v 42.305 		-9.404 		2.998
v 26.447 		-9.899 		4
v 26.512 		-9.825 		4
v 47.346 		-10.636 		2.998
v 6.0222 		-10.8669 		3.5836
v 42.489 		-10.082 		4
v 42.489 		-10.082 		2.998
v 47.346 		-10.636 		4
v 16.224 		-13.862 		4
v 16.224 		-14.056 		4
v 47.204 		-11.233 		2.998
v 42.657 		-9.839 		2.998
v 42.657 		-9.839 		4
v 47.204 		-11.233 		4
v 42.742 		-9.781 		4
v 42.742 		-9.781 		2.998
v 47.267 		-11.105 		4
v 42.842 		-9.738 		2.998
v 47.329 		-10.846 		2.998
v 42.842 		-9.738 		4
v 6.124 		-10.98 		2.998
v 6.005 		-10.743 		2.998
v 47.329 		-10.846 		4
v 42.559 		-9.95 		4
v 42.531 		-9.991 		2.998
v 47.298 		-11.002 		4
v 15.0671 		-14.336 		4
v 15.004 		-14.252 		4
v 14.825 		-14.023 		4
v 14.712 		-13.913 		4
v 14.522 		-13.88 		4
v 14.464 		-13.883 		4
v 14.8093 		-14.336 		4
v 14.6167 		-13.876 		4
v -3 		11.696 		0
v 47.265 		-12.27 		2.998
v -2.468 		11.969 		0
v -1.911 		12.188 		0
v 47.269 		-12.204 		4
v 14.617 		-13.876 		4
v -1.335 		12.35 		0
v -0.746 		12.453 		0
v 47.116 		-11.343 		2.998
v 47.116 		-11.343 		4
v 10.794 		-8.087 		2.998
v 11.545 		-8.087 		2.998
v 47.108 		-12.058 		4
v 47.266 		-11.986 		4
v 47.266 		-11.986 		2.998
v 47.108 		-12.058 		2.998
v 29.888 		-10.023 		2.998
v 14.1794 		-14.336 		4
v 14.15 		-14.244 		4
v 14.073 		-14.104 		4
v 13.979 		-13.992 		4
v 13.867 		-13.908 		4
v 13.741 		-13.851 		4
v 13.6769 		-13.8361 		4
v 13.877 		-14.195 		4
v 13.935 		-14.299 		4
v 29.462 		-9.396 		2.998
v 6.13 		-10.997 		2.998
v 29.191 		-9.736 		2.998
v 13.603 		-13.819 		4
v 13.5374 		-13.8155 		4
v 13.809 		-14.119 		4
v 13.454 		-13.811 		4
v 13.3653 		-13.8195 		4
v 13.729 		-14.065 		4
v 29.313 		-9.552 		2.998
v 5.123 		-12.017 		2.998
v 46.097 		-11.244 		4
v 13.373 		-14.025 		4
v 13.538 		-14.018 		4
v 13.312 		-13.8246 		4
v 45.148 		-10.367 		4
v 5.162 		-11.881 		2.998
v 5.208 		-11.816 		2.998
v 13.312 		-14.0385 		4
v 45.176 		-10.955 		4
v 29.092 		-9.941 		2.998
v 45.23 		-11.183 		4
v 29.047 		-10.07 		2.998
v 13.9475 		-14.336 		4
v 5.787 		-11.308 		2.998
v 5.286 		-11.736 		2.998
v 45.142 		-10.701 		4
v 13.001 		-14.241 		4
v 13.063 		-14.162 		4
v 31.935 		-11.108 		2.998
v 5.335 		-11.325 		2.998
v 13.297 		-13.826 		4
v 31.981 		-10.897 		2.998
v 13.151 		-13.864 		4
v 32.005 		-10.657 		2.998
v 13.025 		-13.922 		4
v 31.998 		-10.406 		2.998
v 12.919 		-14 		4
v 12.832 		-14.095 		4
v 12.762 		-14.204 		4
v 12.7157 		-14.336 		4
v 45.953 		-10.317 		4
v 13.224 		-14.058 		4
v 12.9525 		-14.336 		4
v 45.924 		-10.623 		4
v 45.946 		-10.83 		4
v 45.981 		-10.976 		4
v 46.056 		-11.173 		4
v 4.913 		-11.696 		2.998
v 31.22 		-10.609 		2.998
v 45.93 		-10.469 		4
v 31.175 		-10.241 		2.998
v 24.858 		-13.24 		4
v 24.858 		-15.586 		4
v 25.068 		-15.586 		4
v 25.068 		-13.24 		4
v 15.36 		-14.7272 		4
v 15.36 		-14.7168 		4
v 15.36 		-14.3921 		4
v 4.86 		-11.833 		2.998
v 31.208 		-10.789 		2.998
v 4.871 		-11.771 		2.998
v 15.36 		-15.0557 		4
v 31.17 		-10.967 		2.998
v 45.148 		-10.367 		2.998
v 45.14 		-10.617 		2.998
v 14.8814 		-15.36 		4
v 15.223 		-14.892 		4
v 15.236 		-14.561 		4
v 15.2352 		-14.5599 		4
v 14.929 		-14.961 		4
v 15.2783 		-14.5034 		4
v 31.859 		-11.315 		2.998
v 14.6228 		-15.36 		4
v 45.966 		-10.267 		2.998
v 15.233 		-14.5571 		4
v 15.069 		-14.775 		4
v 15.0521 		-14.7975 		4
v 14.099 		-8.151 		2.998
v -0.15 		12.498 		0
v 45.931 		-10.701 		2.998
v 32.734 		-12.08 		2.998
v 15.1747 		-14.4793 		4
v 15.08 		-14.725 		4
v 15.076 		-14.755 		4
v 45.93 		-10.469 		2.998
v -5.529 		4.169 		0
v -5.981 		6.948 		0
v -6 		6.5 		0
v 24.3112 		-14.336 		4
v 24.305 		-14.309 		4
v 24.241 		-14.162 		4
v -5.933 		7.394 		0
v 24.151 		-14.034 		4
v 15.073 		-14.682 		4
v 30.998 		-11.284 		2.998
v -5.814 		7.981 		0
v 30.788 		-11.428 		2.998
v -5.686 		4.59 		0
v 30.886 		-12.124 		2.998
v 31.288 		-11.97 		2.998
v 31.474 		-11.836 		2.998
v 31.735 		-11.534 		2.998
v 24.095 		-13.979 		4
v 24.031 		-13.931 		4
v 23.9351 		-13.8876 		4
v -5.814 		5.019 		0
v 15.2244 		-14.8932 		4
v 15.356 		-14.722 		4
v -5.907 		5.458 		0
v 15.266 		-14.931 		4
v -5.97 		5.903 		0
v -5.993 		6.201 		0
v 45.23 		-11.183 		2.998
v 23.552 		-14.0221 		4
v 23.5692 		-14.0204 		4
v 23.624 		-14.015 		4
v 45.981 		-10.976 		2.998
v 23.9263 		-13.8836 		4
v 23.861 		-13.854 		4
v 23.667 		-13.814 		4
v 14.4466 		-15.593 		4
v 14.686 		-15.589 		4
v 14.753 		-15.536 		4
v -1.48 		0.687 		0
v 46.038 		-11.135 		2.998
v 14.444 		-15.593 		4
v -0.894 		0.569 		0
v -0.15 		0.502 		0
v -2.051 		0.864 		0
v 45.16 		-10.87 		2.998
v 24.003 		-14.191 		4
v 16.0155 		-15.5832 		4
v -2.602 		1.096 		0
v 24.0312 		-14.2436 		4
v 15.743 		-15.564 		4
v 15.7781 		-15.5847 		4
v 23.933 		-14.12 		4
v -3.128 		1.382 		0
v -3.622 		1.719 		0
v 24.0809 		-14.336 		4
v -3.97 		2.001 		0
v 16.023 		-15.593 		4
v 14.667 		-8.088 		2.998
v -4.497 		2.531 		0
v 15.782 		-15.587 		4
v -4.87 		2.999 		0
v -5.195 		3.501 		0
v 23.746 		-14.031 		4
v -5.406 		3.897 		0
v 5.122 		-12.394 		2.998
v 14.055 		-8.086 		2.998
v 23.847 		-14.064 		4
v 13.341 		-8.082 		2.998
v 5.145 		-6.072 		2.998
v 14.095 		-15.348 		4
v 14.206 		-15.166 		4
v 14.0405 		-15.0981 		4
v 13.93 		-15.205 		4
v 4.906 		-6.039 		2.998
v 13.838 		-15.294 		4
v 4.948 		-6.004 		2.998
v 14.0821 		-15.36 		4
v 5.025 		-6.003 		2.998
v 23.169 		-14.193 		4
v 46.943 		-12.117 		4
v 23.3827 		-13.8405 		4
v 23.376 		-13.842 		4
v 23.181 		-13.919 		4
v 23.001 		-14.073 		4
v 22.882 		-14.228 		4
v 13.74 		-15.359 		4
v 13.7375 		-15.36 		4
v 5.475 		-13.804 		2.998
v 46.452 		-12.183 		4
v 46.615 		-12.181 		4
v 14.016 		-15.088 		4
v 4.873 		-6.098 		2.998
v 5.507 		-13.416 		2.998
v 4.864 		-6.141 		2.998
v 23.0879 		-14.336 		4
v 23.11 		-14.281 		4
v 23.471 		-14.03 		4
v 46.292 		-12.165 		4
v 13.98 		-14.432 		4
v 23.5097 		-14.0262 		4
v 14.012 		-14.597 		4
v 5.127 		-13.769 		2.998
v 14.26 		-14.779 		4
v 14.211 		-14.435 		4
v 46.373 		-11.459 		4
v 23.409 		-14.047 		4
v 23.221 		-14.142 		4
v 7.382 		-8.13 		2.998
v 46.273 		-11.413 		4
v 23.286 		-14.098 		4
v 46.885 		-11.483 		4
v 46.8 		-11.5 		4
v 23.3141 		-14.0864 		4
v 5.123 		-13.691 		2.998
v 46.175 		-11.337 		4
v 7.168 		-7.904 		2.998
v 46.552 		-11.49 		4
v 7.381 		-8.123 		2.998
v 47.006 		-11.426 		4
v 12.673 		-14.458 		4
v 12.648 		-14.65 		4
v 12.646 		-14.799 		4
v 22.8367 		-14.336 		4
v 12.6521 		-14.848 		4
v 12.9035 		-14.848 		4
v 12.899 		-14.779 		4
v 22.528 		-13.9053 		4
v 22.545 		-13.858 		4
v 22.528 		-13.8584 		4
v 5.078 		-14.153 		2.998
v 23.473 		-13.821 		4
v 4.865 		-14.048 		2.998
v 4.899 		-14.131 		2.998
v 12.915 		-14.457 		4
v 5.016 		-14.18 		2.998
v 12.951 		-14.339 		4
v 12.893 		-14.597 		4
v 4.956 		-14.181 		2.998
v 4.988 		-14.185 		2.998
v 22.449 		-13.86 		4
v 22.3501 		-13.8693 		4
v 22.328 		-13.877 		4
v 22.278 		-13.95 		4
v 22.3733 		-14.336 		4
v 41.669 		-12.086 		4
v 41.669 		-12.086 		2.998
v 42.441 		-10.311 		2.998
v 42.441 		-10.311 		4
v -22.4 		22.5 		0
v -22.4 		18.5 		0
v 42.42 		-12.086 		2.998
v 42.42 		-10.951 		4
v 12.664 		-14.944 		4
v 12.717 		-15.133 		4
v 12.837 		-15.358 		4
v -7.2 		-18.5 		0
v 12.8392 		-15.36 		4
v 12.911 		-14.962 		4
v 42.42 		-12.086 		4
v -22.4 		-18.5 		0
v 44.473 		-10.485 		4
v 44.473 		-10.485 		2.998
v 22.377 		-13.86 		4
v -36.8 		-18.5 		0
v 43.722 		-11.033 		4
v -51.8 		3.7 		0
v 13.024 		-15.22 		4
v 43.709 		-10.495 		2.998
v 43.696 		-10.377 		4
v -56.2 		-3.7 		0
v -56.2 		-11.1 		0
v -51.8 		-11.1 		0
v 13.08 		-15.288 		4
v -36.8 		18.5 		0
v -36.8 		22.5 		0
v 43.686 		-10.31 		2.998
v 20.528 		-14.295 		4
v 13.1855 		-15.36 		4
v 20.541 		-14.336 		4
v -51.8 		11.1 		0
v 20.7738 		-14.336 		4
v -51.8 		18.5 		0
v 20.738 		-14.24 		4
v 20.659 		-14.096 		4
v 20.579 		-14.003 		4
v 20.513 		-13.95 		4
v 43.721 		-10.92 		2.998
v -56.2 		18.5 		0
v -56.2 		11.1 		0
v 13.312 		-15.6212 		4
v 13.374 		-15.635 		4
v 13.575 		-15.631 		4
v 13.769 		-15.582 		4
v 13.946 		-15.487 		4
v 21.214 		-14.2875 		4
v 21.2314 		-14.336 		4
v 13.637 		-15.4 		4
v 21.064 		-13.87 		4
v 13.531 		-15.42 		4
v 21.4484 		-14.336 		4
v 21.298 		-13.92 		4
v 13.369 		-15.413 		4
v 13.312 		-15.3994 		4
v 46.133 		-12.125 		4
v 21.241 		-13.865 		4
v 46.885 		-11.483 		2.998
v 46.8 		-11.5 		2.998
v 43.718 		-12.1 		4
v 43.718 		-12.1 		2.998
v 44.475 		-12.1 		2.998
v 44.475 		-12.1 		4
v 12.995 		-15.499 		4
v 47.045 		-11.402 		2.998
v 13.177 		-15.591 		4
v 13.206 		-15.374 		4
v 24.282 		-15.27 		4
v 24.333 		-15.166 		4
v 24.303 		-15.1542 		4
v 23.917 		-15.338 		4
v 23.8708 		-15.36 		4
v 24.1968 		-15.36 		4
v 46.373 		-11.459 		2.998
v 24.1638 		-15.0994 		4
v 24.068 		-15.192 		4
v 11.6861 		-13.824 		4
v 11.671 		-13.82 		4
v 11.528 		-13.814 		4
v 46.506 		-11.485 		2.998
v 24.1604 		-15.098 		4
v 46.204 		-11.365 		2.998
v 24.135 		-15.088 		4
v 46.122 		-11.276 		2.998
v 24.131 		-14.523 		4
v 24.142 		-14.591 		4
v 24.378 		-14.7 		4
v 24.363 		-14.562 		4
v 5.121 		-6.455 		2.998
v 5.13 		-6.422 		2.998
v 24.083 		-14.34 		4
v 47.951 		-12.749 		4
v 47.988 		-12.581 		4
v 5.481 		-6.737 		2.998
v 5.724 		-6.595 		2.998
v 48.001 		-12.395 		4
v 24.388 		-14.78 		4
v 47.575 		-13.253 		4
v 47.891 		-12.9 		4
v 47.175 		-12.571 		4
v 47.218 		-12.481 		4
v 46.861 		-12.138 		2.998
v 22.8279 		-14.3702 		4
v 22.793 		-14.518 		4
v 22.7765 		-14.7098 		4
v 22.778 		-14.842 		4
v 22.7791 		-14.848 		4
v 47.257 		-12.324 		4
v 46.615 		-12.181 		2.998
v 46.452 		-12.183 		2.998
v 22.835 		-14.34 		4
v 47.702 		-13.152 		4
v 47.808 		-13.034 		4
v 46.292 		-12.165 		2.998
v 46.133 		-12.125 		2.998
v 22.776 		-14.668 		4
v 14.667 		-8.799 		2.998
v 12.2068 		-14.336 		4
v 12.173 		-14.232 		4
v 12.092 		-14.086 		4
v 12.012 		-13.996 		4
v 11.807 		-13.856 		4
v 11.776 		-13.8478 		4
v 15.919 		-8.799 		2.998
v 23.018 		-14.591 		4
v 23.057 		-14.413 		4
v 45.309 		-11.385 		4
v 23.0237 		-14.848 		4
v 23.018 		-14.78 		4
v 45.975 		-12.062 		4
v 45.975 		-12.062 		2.998
v 45.821 		-11.976 		4
v 13.341 		-9.722 		2.998
v 45.699 		-11.889 		2.998
v 45.494 		-11.687 		2.998
v 45.645 		-11.841 		4
v 45.339 		-11.45 		2.998
v 45.452 		-11.629 		4
v 11.856 		-14.182 		4
v 11.8672 		-14.2006 		4
v 22.8482 		-15.1183 		4
v 22.966 		-15.341 		4
v 22.983 		-15.36 		4
v 23.3163 		-15.36 		4
v 23.264 		-15.333 		4
v 47.988 		-12.581 		2.998
v 47.951 		-12.749 		2.998
v 11.776 		-14.1158 		4
v 48.001 		-12.395 		2.998
v 11.925 		-14.297 		4
v 43.853 		-9.121 		4
v 43.853 		-9.121 		2.998
v 44.001 		-9.214 		2.998
v 47.175 		-12.571 		2.998
v 11.9408 		-14.336 		4
v 22.819 		-15.063 		4
v 47.224 		-12.463 		2.998
v 23.028 		-14.899 		4
v 43.696 		-9.059 		4
v 23.066 		-15.058 		4
v 43.656 		-9.049 		2.998
v 11.429 		-13.829 		4
v 43.576 		-9.032 		4
v 11.2757 		-13.8834 		4
v 23.188 		-15.271 		4
v 43.116 		-9.017 		4
v 43.03 		-9.027 		4
v 43.412 		-9.014 		4
v 11.264 		-13.8875 		4
v 43.412 		-9.014 		2.998
v 43.246 		-9.012 		2.998
v 11.314 		-14.065 		4
v 11.458 		-14.034 		4
v 47.575 		-13.253 		2.998
v 23.632 		-15.637 		4
v 29.779 		-10.411 		2.998
v 47.891 		-12.9 		2.998
v 23.8128 		-15.6059 		4
v 23.944 		-15.561 		4
v 24.0082 		-15.5227 		4
v 23.561 		-15.425 		4
v 47.702 		-13.152 		2.998
v 23.552 		-15.423 		4
v 11.763 		-14.105 		4
v 47.808 		-13.034 		2.998
v 11.666 		-14.054 		4
v 23.841 		-15.601 		4
v 44.046 		-9.248 		4
v 44.31 		-9.597 		2.998
v 44.377 		-9.781 		4
v 11.264 		-14.0896 		4
v 44.258 		-9.499 		2.998
v 44.228 		-9.454 		4
v 47.427 		-13.338 		4
v 47.427 		-13.338 		2.998
v 44.31 		-9.597 		4
v 47.163 		-13.438 		4
v 11.563 		-14.034 		4
v 44.162 		-9.366 		2.998
v 23.791 		-15.398 		4
v 44.127 		-9.324 		4
v 24.088 		-15.475 		4
v 44.44 		-10.059 		4
v 44.388 		-9.812 		2.998
v 23.656 		-15.426 		4
v 44.44 		-10.059 		2.998
v 47.094 		-12.659 		2.998
v 47.094 		-12.659 		4
v 46.986 		-12.726 		4
v 46.986 		-12.726 		2.998
v 46.581 		-12.807 		2.998
v 46.581 		-12.807 		4
v 46.45 		-12.792 		4
v 11.077 		-14.248 		4
v 46.45 		-12.792 		2.998
v 10.958 		-14.074 		4
v 46.335 		-12.757 		2.998
v 46.335 		-12.757 		4
v 11.0355 		-14.336 		4
v 11.118 		-13.97 		4
v 11.2418 		-13.8987 		4
v 46.858 		-12.774 		4
v 46.858 		-12.774 		2.998
v 46.72 		-12.8 		4
v 15.919 		-12.081 		2.998
v 10.958 		-13.867 		4
v 10.773 		-13.867 		4
v 14.099 		-12.081 		2.998
v 13.344 		-10.447 		2.998
v 13.344 		-12.081 		2.998
v 23.083 		-15.472 		4
v 23.0863 		-15.4744 		4
v 23.223 		-15.562 		4
v 23.378 		-15.616 		4
v 23.545 		-15.637 		4
v 23.355 		-15.38 		4
v 11.137 		-14.17 		4
v 11.188 		-14.127 		4
v 43.655 		-10.177 		4
v 11.257 		-13.89 		4
v 43.611 		-10.049 		4
v 11.545 		-9.722 		2.998
v 43.48 		-9.834 		4
v 43.543 		-9.914 		4
v 46.066 		-12.559 		4
v 46.066 		-12.559 		2.998
v 45.401 		-12.873 		4
v 45.401 		-12.873 		2.998
v 23.151 		-15.522 		4
v 45.736 		-13.235 		4
v 45.736 		-13.235 		2.998
v 45.615 		-13.131 		4
v 11.961 		-14.386 		4
v 11.996 		-14.574 		4
v 12.2287 		-14.4598 		4
v 12.214 		-14.358 		4
v 9.429 		-9.965 		2.998
v 9.506 		-10.049 		2.998
v 12.24 		-14.722 		4
v 12.233 		-14.49 		4
v 21.799 		-15.306 		4
v 47.067 		-13.464 		2.998
v 45.866 		-13.324 		2.998
v 9.519 		-10.108 		2.998
v 45.866 		-13.324 		4
v 21.504 		-14.4899 		4
v 46.477 		-13.513 		2.998
v 46.232 		-13.471 		2.998
v 46.477 		-13.513 		4
v 46.153 		-13.451 		4
v 12 		-14.958 		4
v 12.0006 		-15.36 		4
v 46.676 		-13.519 		4
v 9.489 		-10.17 		2.998
v 46.848 		-13.503 		2.998
v 46.824 		-13.508 		4
v 20.838 		-14.778 		4
v 20.83 		-14.665 		4
v 20.8194 		-14.597 		4
v 20.597 		-14.597 		4
v 47.019 		-13.475 		4
v 9.426 		-9.958 		2.998
v 20.562 		-14.402 		4
v 20.782 		-14.358 		4
v 10.9846 		-15.36 		4
v 10.985 		-15.219 		4
v 40.705 		-8.661 		4
v 11.008 		-14.475 		4
v 40.705 		-8.661 		2.998
v 39.975 		-8.661 		4
v 39.975 		-8.661 		2.998
v 11.035 		-14.337 		4
v 21.3902 		-14.778 		4
v 40.704 		-9.106 		4
v 39.975 		-9.106 		4
v 39.975 		-9.106 		2.998
v 40.704 		-9.106 		2.998
v 8.712 		-9.301 		2.998
v 9.044 		-9.956 		2.998
v 10.773 		-15.587 		4
v 10.984 		-15.587 		4
v 12.001 		-15.587 		4
v 12.239 		-15.587 		4
v 38.262 		-9.193 		2.998
v 38.262 		-9.193 		4
v 38.119 		-9.111 		4
v 38.119 		-9.111 		2.998
v 20.746 		-15.261 		4
v 20.663 		-15.114 		4
v 20.6076 		-15.1218 		4
v 20.535 		-15.194 		4
v 20.496 		-15.24 		4
v 37.909 		-9.046 		4
v 8.991 		-10.222 		2.998
v 8.94 		-10.227 		2.998
v 37.958 		-9.059 		2.998
v 20.599 		-15.123 		4
v 8.995 		-10.23 		2.998
v 7.196 		-8.234 		4
v 7.356 		-8.448 		4
v 7.668 		-8.349 		4
v 8.116 		-8.764 		4
v 6.222 		-9.106 		4
v 7.083 		-8.32 		4
v 37.735 		-9.02 		2.998
v 7.148 		-8.254 		4
v 37.71 		-9.015 		4
v 37.407 		-9.019 		4
v 37.173 		-9.06 		4
v 37.173 		-9.06 		2.998
v 8.299 		-11.252 		2.998
v 37.509 		-9.012 		4
v 8.981 		-10.266 		2.998
v 37.458 		-9.016 		2.998
v 37.048 		-9.099 		4
v 7.168 		-9.9631 		4
v 6.342 		-9.36 		4
v 11.548 		-10.447 		2.998
v 38.012 		-9.734 		4
v 37.931 		-9.697 		2.998
v 11.548 		-12.081 		2.998
v 7 		-9.963 		4
v 10.794 		-12.081 		2.998
v 38.185 		-9.877 		2.998
v 38.089 		-9.785 		4
v 7.024 		-9.962 		4
v 6.985 		-9.96 		4
v 38.242 		-9.954 		2.998
v 6.936 		-9.969 		4
v 38.286 		-10.038 		4
v 38.302 		-10.081 		2.998
v 38.193 		-9.89 		4
v 7.356 		-8.448 		2.998
v 7.196 		-8.234 		2.998
v 6.745 		-10.093 		4
v 38.318 		-10.125 		4
v 6.746 		-10.093 		4
v 6.748 		-10.091 		4
v 6.749 		-10.091 		4
v 6.749 		-10.09 		4
v 6.875 		-9.998 		4
v 7.07 		-10.228 		4
v 7.583 		-8.278 		2.998
v 37 		-10.228 		4
v 29.768 		-10.573 		2.998
v 37.846 		-9.674 		4
v 37.04 		-10.117 		4
v 7.154 		-8.257 		2.998
v 6.954 		-8.434 		2.998
v 37.07 		-10.057 		4
v 29.778 		-10.738 		2.998
v 29.952 		-11.246 		2.998
v 37.435 		-9.712 		4
v 37.344 		-9.75 		4
v 29.893 		-11.158 		2.998
v 37.222 		-9.838 		4
v 37.144 		-9.935 		4
v 29.81 		-10.927 		2.998
v 37.578 		-9.677 		4
v 37.67 		-9.665 		4
v 28.973 		-10.459 		2.998
v 7.148 		-8.254 		2.998
v 28.997 		-10.921 		2.998
v 37.715 		-9.664 		2.998
v 37.846 		-9.674 		2.998
v 37.531 		-9.688 		2.998
v 29.042 		-11.124 		2.998
v 29.086 		-11.255 		2.998
v 37.178 		-9.89 		2.998
v 30.231 		-11.426 		2.998
v 30.027 		-11.318 		2.998
v 29.932 		-12.084 		2.998
v 30.15 		-12.147 		2.998
v 30.453 		-12.175 		2.998
v 37.33 		-9.762 		2.998
v 6.9839 		-9.9638 		3.6075
v 6.9849 		-9.9638 		3.584
v 6.9794 		-9.9648 		3.584
v 30.41 		-11.473 		2.998
v 30.598 		-11.477 		2.998
v 40.704 		-12.08 		4
v 40.704 		-12.08 		2.998
v 39.975 		-12.08 		4
v 39.975 		-12.08 		2.998
v 39.019 		-12.081 		4
v 39.019 		-12.081 		2.998
v 29.209 		-11.497 		2.998
v 29.424 		-11.761 		2.998
v 29.653 		-11.943 		2.998
v 6.8795 		-9.9959 		3.584
v 6.875 		-9.998 		3.648
v 38.229 		-11.235 		4
v 38.275 		-11.148 		2.998
v 38.31 		-11.054 		2.998
v 38.31 		-11.054 		4
v 29.286 		-11.608 		2.998
v 38.341 		-10.915 		2.998
v 38.341 		-10.915 		4
v 38.358 		-10.729 		2.998
v 38.358 		-10.729 		4
v 38.351 		-10.402 		4
v 38.342 		-10.263 		2.998
v 38.342 		-10.263 		4
v 27.602 		-9.129 		2.998
v 27.014 		-9.009 		2.998
v 27.227 		-9.023 		2.998
v 6.9861 		-9.9639 		3.5525
v 6.9947 		-9.9643 		3.332
v 6.9946 		-9.9643 		3.328
v 37.117 		-11.242 		4
v 37.042 		-11.091 		4
v 28.368 		-10.114 		2.998
v 37.097 		-11.206 		2.998
v 28.32 		-9.925 		2.998
v 28.229 		-9.702 		2.998
v 28.17 		-9.598 		2.998
v 28.062 		-9.456 		2.998
v 36.992 		-10.926 		2.998
v 37.004 		-10.968 		4
v 36.956 		-10.725 		4
v 36.961 		-10.751 		2.998
v 36.988 		-10.277 		2.998
v 36.975 		-10.326 		4
v 36.954 		-10.475 		2.998
v 36.95 		-10.525 		4
v 27.932 		-9.326 		2.998
v 6.9747 		-9.9659 		3.5596
v 6.9637 		-9.9668 		3.328
v 37.907 		-12.129 		2.998
v 37.936 		-12.121 		4
v 38.201 		-12.019 		4
v 38.201 		-12.019 		2.998
v 38.173 		-11.312 		2.998
v 38.173 		-11.312 		4
v 38.069 		-11.405 		2.998
v 6.8973 		-9.9874 		3.328
v 38.031 		-11.432 		4
v 38.355 		-11.953 		4
v 38.355 		-11.953 		2.998
v 38.355 		-12.081 		4
v 38.355 		-12.081 		2.998
v 37.745 		-12.161 		4
v 27.028 		-9.643 		2.998
v 37.43 		-12.177 		4
v 36.982 		-12.06 		4
v 37.127 		-12.119 		4
v 37.277 		-12.158 		4
v 27.34 		-9.706 		2.998
v 6.9044 		-9.984 		3.2253
v 27.209 		-9.664 		2.998
v 37.443 		-11.473 		4
v 37.685 		-11.498 		4
v 26.895 		-9.651 		2.998
v 37.296 		-11.415 		4
v 37.197 		-11.337 		4
v 37.848 		-11.495 		4
v 26.725 		-9.697 		2.998
v 6.9521 		-9.9677 		3.0806
v 37.443 		-11.473 		2.998
v 37.632 		-11.496 		2.998
v 27.627 		-10.091 		2.998
v 27.641 		-10.235 		2.998
v 37.848 		-11.495 		2.998
v 37.337 		-11.435 		2.998
v 27.45 		-9.781 		2.998
v 27.539 		-9.88 		2.998
v 37.197 		-11.337 		2.998
v 26.644 		-9.735 		2.998
v 26.392 		-9.126 		2.998
v 26.246 		-9.196 		2.998
v 37.586 		-12.178 		2.998
v 37.127 		-12.119 		2.998
v 36.982 		-12.06 		2.998
v 37.277 		-12.158 		2.998
v 34.921 		-9.124 		2.998
v 35.022 		-9.175 		2.998
v 36.82 		-9.211 		2.998
v 36.671 		-9.325 		2.998
v 36.536 		-9.46 		2.998
v 36.278 		-9.904 		2.998
v 36.22 		-10.08 		2.998
v 36.356 		-9.732 		2.998
v 35.373 		-9.574 		2.998
v 35.416 		-9.676 		2.998
v 35.261 		-9.389 		2.998
v 35.152 		-9.272 		2.998
v 35.487 		-9.926 		2.998
v 35.528 		-10.217 		2.998
v 34.579 		-9.021 		2.998
v 33.912 		-9.073 		2.998
v 34.076 		-9.026 		2.998
v 34.41 		-9 		2.998
v 34.242 		-9.002 		2.998
v 33.75 		-9.145 		2.998
v 33.396 		-9.106 		2.998
v 34.183 		-9.7 		2.998
v 34.319 		-9.723 		2.998
v 34.044 		-9.705 		2.998
v 33.91 		-9.737 		2.998
v 34.703 		-10.056 		2.998
v 34.651 		-9.955 		2.998
v 34.549 		-9.84 		2.998
v 34.448 		-9.772 		2.998
v 33.396 		-9.397 		2.998
# 1713 vertices

g group_0_3356795

usemtl color_3356795
s 0

f 1 	2 	4
f 3 	4 	2
f 8 	5 	6
f 5 	8 	9
f 11 	12 	15
f 15 	12 	13
f 10 	288 	7
f 19 	20 	22
f 22 	20 	21
f 1498 	14 	1466
f 25 	1482 	14
f 23 	24 	26
f 23 	26 	27
f 30 	28 	29
f 34 	256 	33
f 37 	28 	36
f 32 	36 	28
f 32 	28 	30
f 45 	1450 	44
f 43 	44 	1450
f 184 	182 	288
f 87 	52 	10
f 16 	288 	52
f 87 	85 	52
f 1524 	288 	16
f 48 	49 	50
f 48 	50 	57
f 34 	43 	35
f 33 	706 	34
f 31 	706 	33
f 38 	37 	39
f 48 	57 	53
f 42 	1497 	43
f 123 	51 	61
f 66 	67 	68
f 288 	10 	52
f 56 	52 	85
f 70 	67 	71
f 242 	441 	54
f 72 	70 	71
f 59 	56 	79
f 85 	79 	56
f 68 	67 	70
f 75 	104 	74
f 72 	71 	77
f 81 	82 	84
f 103 	811 	73
f 72 	77 	78
f 74 	811 	75
f 73 	811 	74
f 92 	82 	91
f 82 	81 	91
f 864 	62 	88
f 88 	75 	864
f 82 	81 	76
f 78 	65 	90
f 73 	74 	125
f 105 	125 	74
f 103 	73 	125
f 75 	88 	104
f 105 	74 	104
f 125 	129 	103
f 1627 	1630 	67
f 66 	1627 	67
f 48 	53 	60
f 107 	66 	106
f 68 	106 	66
f 102 	138 	100
f 100 	138 	99
f 95 	109 	96
f 107 	106 	108
f 84 	92 	91
f 110 	108 	111
f 112 	107 	108
f 96 	95 	91
f 92 	91 	95
f 112 	108 	110
f 94 	100 	99
f 110 	111 	115
f 113 	49 	114
f 116 	105 	104
f 96 	118 	95
f 18 	590 	17
f 110 	115 	117
f 110 	117 	119
f 93 	94 	98
f 99 	98 	94
f 121 	97 	122
f 123 	61 	124
f 247 	123 	124
f 101 	103 	129
f 127 	84 	91
f 97 	101 	122
f 112 	110 	1676
f 1676 	1622 	112
f 119 	1676 	110
f 130 	1226 	122
f 129 	122 	101
f 61 	153 	124
f 132 	133 	131
f 128 	99 	138
f 118 	127 	91
f 92 	118 	91
f 134 	136 	139
f 134 	139 	140
f 142 	143 	144
f 122 	224 	130
f 129 	224 	122
f 125 	224 	129
f 105 	224 	125
f 1218 	135 	224
f 128 	138 	55
f 139 	142 	140
f 145 	141 	137
f 139 	143 	142
f 138 	63 	55
f 147 	88 	146
f 147 	116 	88
f 88 	155 	146
f 150 	160 	149
f 388 	452 	141
f 138 	126 	508
f 151 	152 	153
f 116 	104 	88
f 171 	141 	145
f 146 	105 	147
f 116 	147 	105
f 95 	163 	92
f 138 	508 	63
f 118 	54 	95
f 92 	84 	54
f 118 	92 	54
f 149 	161 	148
f 148 	146 	155
f 848 	1551 	156
f 155 	88 	62
f 76 	54 	82
f 84 	82 	54
f 148 	155 	62
f 149 	148 	62
f 150 	176 	159
f 86 	126 	102
f 109 	95 	54
f 54 	198 	177
f 109 	54 	177
f 161 	149 	160
f 146 	148 	161
f 159 	160 	150
f 162 	164 	166
f 167 	168 	164
f 166 	164 	168
f 58 	59 	89
f 65 	58 	89
f 80 	89 	59
f 165 	82 	163
f 79 	80 	59
f 105 	146 	161
f 105 	161 	160
f 105 	160 	159
f 105 	159 	169
f 95 	96 	177
f 619 	279 	62
f 177 	1600 	109
f 149 	62 	150
f 176 	150 	62
f 7 	288 	175
f 126 	86 	183
f 64 	618 	62
f 619 	62 	618
f 182 	175 	288
f 170 	126 	183
f 170 	183 	186
f 201 	200 	64
f 184 	288 	185
f 186 	530 	170
f 178 	176 	62
f 191 	194 	190
f 193 	194 	192
f 191 	192 	194
f 189 	190 	194
f 190 	189 	196
f 203 	196 	189
f 64 	829 	203
f 215 	188 	197
f 181 	288 	180
f 197 	188 	288
f 187 	174 	172
f 189 	194 	201
f 200 	201 	194
f 195 	187 	172
f 618 	64 	200
f 207 	208 	206
f 205 	206 	208
f 208 	210 	205
f 210 	211 	205
f 211 	212 	205
f 204 	205 	212
f 204 	212 	213
f 214 	152 	213
f 232 	230 	1342
f 180 	288 	188
f 203 	189 	201
f 201 	64 	203
f 239 	36 	162
f 197 	218 	217
f 197 	217 	215
f 194 	193 	200
f 193 	649 	200
f 1388 	1342 	230
f 904 	905 	190
f 187 	195 	807
f 221 	152 	220
f 219 	220 	152
f 222 	152 	221
f 143 	152 	222
f 199 	602 	177
f 198 	199 	177
f 145 	227 	171
f 162 	166 	239
f 226 	281 	225
f 224 	228 	279
f 209 	602 	216
f 228 	229 	179
f 229 	238 	179
f 179 	238 	178
f 335 	385 	120
f 227 	120 	385
f 157 	158 	1551
f 179 	279 	228
f 230 	232 	173
f 39 	37 	36
f 224 	105 	228
f 163 	177 	602
f 202 	591 	209
f 199 	216 	602
f 234 	233 	236
f 233 	267 	236
f 232 	237 	173
f 238 	169 	178
f 237 	195 	173
f 176 	178 	169
f 159 	176 	169
f 1469 	224 	226
f 1217 	1395 	223
f 11 	15 	239
f 1378 	1381 	231
f 299 	296 	240
f 241 	69 	240
f 69 	39 	240
f 229 	228 	105
f 229 	105 	238
f 1469 	1472 	224
f 1220 	1218 	224
f 169 	238 	105
f 72 	78 	51
f 204 	152 	151
f 153 	246 	247
f 242 	54 	248
f 312 	314 	262
f 284 	285 	259
f 152 	246 	153
f 290 	287 	240
f 246 	251 	247
f 324 	31 	254
f 242 	248 	243
f 484 	243 	248
f 322 	324 	254
f 68 	70 	123
f 51 	123 	70
f 70 	72 	51
f 89 	90 	65
f 90 	51 	78
f 253 	254 	31
f 247 	251 	123
f 243 	345 	242
f 225 	282 	257
f 283 	284 	259
f 257 	283 	259
f 140 	142 	570
f 252 	245 	255
f 260 	233 	234
f 1512 	484 	248
f 142 	144 	570
f 258 	255 	245
f 1135 	404 	1278
f 1278 	266 	268
f 235 	236 	267
f 1544 	60 	267
f 1697 	151 	61
f 247 	124 	153
f 153 	61 	151
f 226 	225 	257
f 226 	257 	259
f 226 	259 	262
f 226 	262 	250
f 226 	250 	249
f 249 	319 	226
f 226 	254 	253
f 256 	1501 	226
f 253 	256 	226
f 263 	265 	245
f 265 	261 	245
f 68 	123 	106
f 108 	106 	123
f 270 	263 	245
f 276 	275 	277
f 111 	108 	123
f 276 	277 	321
f 280 	224 	279
f 281 	226 	280
f 282 	225 	281
f 285 	320 	259
f 283 	257 	282
f 224 	280 	226
f 640 	286 	239
f 640 	239 	166
f 12 	11 	239
f 12 	239 	286
f 123 	286 	115
f 115 	111 	123
f 240 	294 	288
f 269 	270 	245
f 241 	240 	288
f 241 	288 	289
f 245 	244 	292
f 245 	292 	294
f 245 	240 	269
f 178 	62 	179
f 240 	245 	294
f 278 	269 	240
f 287 	278 	240
f 295 	293 	298
f 297 	490 	252
f 297 	252 	255
f 758 	295 	298
f 298 	293 	291
f 280 	619 	281
f 251 	246 	136
f 136 	573 	286
f 139 	136 	246
f 246 	152 	139
f 143 	139 	152
f 204 	213 	152
f 214 	219 	152
f 300 	298 	291
f 296 	290 	240
f 282 	619 	283
f 282 	281 	619
f 301 	255 	258
f 251 	136 	286
f 302 	297 	255
f 303 	277 	275
f 301 	302 	255
f 123 	251 	286
f 258 	305 	301
f 276 	333 	275
f 258 	261 	305
f 619 	280 	279
f 179 	62 	279
f 454 	288 	460
f 307 	240 	311
f 265 	263 	308
f 289 	288 	628
f 317 	319 	316
f 319 	249 	316
f 318 	326 	317
f 601 	326 	318
f 249 	250 	316
f 314 	316 	250
f 250 	262 	314
f 312 	262 	320
f 262 	259 	320
f 306 	333 	315
f 315 	333 	276
f 273 	260 	272
f 273 	325 	264
f 264 	260 	273
f 234 	272 	260
f 261 	310 	305
f 321 	315 	276
f 292 	456 	294
f 354 	288 	351
f 261 	265 	310
f 306 	315 	321
f 306 	321 	309
f 310 	265 	308
f 295 	1671 	293
f 291 	293 	1671
f 322 	323 	324
f 256 	253 	33
f 35 	1501 	34
f 319 	317 	326
f 302 	294 	297
f 301 	294 	302
f 328 	274 	329
f 270 	269 	346
f 235 	267 	60
f 508 	1671 	514
f 263 	327 	308
f 335 	341 	385
f 335 	120 	325
f 264 	325 	120
f 263 	270 	327
f 327 	270 	346
f 308 	294 	310
f 306 	415 	333
f 333 	334 	275
f 336 	275 	334
f 337 	275 	336
f 338 	275 	337
f 338 	337 	339
f 338 	339 	340
f 344 	338 	340
f 328 	329 	345
f 341 	342 	385
f 343 	385 	342
f 346 	294 	327
f 351 	288 	346
f 311 	240 	313
f 348 	349 	268
f 344 	275 	338
f 327 	294 	308
f 313 	240 	350
f 344 	303 	275
f 274 	271 	348
f 339 	337 	336
f 339 	336 	355
f 274 	348 	329
f 356 	288 	354
f 350 	240 	347
f 355 	336 	334
f 355 	334 	357
f 456 	297 	294
f 323 	226 	326
f 319 	326 	226
f 322 	226 	323
f 254 	226 	322
f 271 	349 	348
f 332 	331 	359
f 332 	359 	360
f 361 	369 	288
f 333 	332 	360
f 333 	360 	362
f 352 	701 	304
f 353 	701 	352
f 304 	701 	378
f 361 	288 	358
f 358 	288 	356
f 357 	334 	333
f 357 	333 	362
f 53 	17 	60
f 240 	363 	299
f 329 	391 	242
f 400 	385 	364
f 405 	348 	404
f 266 	404 	348
f 347 	240 	353
f 701 	353 	240
f 363 	240 	307
f 330 	235 	17
f 374 	701 	373
f 366 	330 	17
f 329 	348 	405
f 366 	17 	372
f 375 	372 	590
f 380 	328 	345
f 268 	266 	348
f 407 	590 	18
f 590 	372 	17
f 378 	701 	381
f 381 	701 	382
f 365 	402 	715
f 387 	288 	384
f 405 	17 	53
f 383 	701 	374
f 382 	701 	383
f 393 	373 	701
f 389 	365 	715
f 452 	1489 	137
f 137 	141 	452
f 369 	370 	288
f 343 	364 	385
f 171 	227 	385
f 431 	394 	386
f 413 	452 	388
f 345 	114 	380
f 370 	377 	288
f 377 	379 	288
f 379 	384 	288
f 345 	329 	242
f 243 	484 	345
f 420 	739 	399
f 398 	394 	431
f 396 	393 	701
f 395 	396 	701
f 407 	404 	1135
f 468 	371 	331
f 359 	331 	371
f 405 	404 	17
f 407 	18 	404
f 764 	712 	410
f 566 	569 	411
f 404 	18 	17
f 406 	410 	715
f 351 	346 	269
f 391 	329 	405
f 332 	415 	331
f 332 	333 	415
f 712 	715 	410
f 412 	775 	410
f 399 	774 	412
f 424 	739 	420
f 428 	737 	424
f 434 	737 	428
f 437 	735 	436
f 440 	735 	437
f 446 	734 	445
f 449 	734 	446
f 430 	452 	413
f 351 	269 	278
f 416 	417 	418
f 416 	418 	419
f 390 	415 	306
f 390 	306 	309
f 423 	414 	385
f 415 	421 	331
f 433 	468 	421
f 422 	391 	417
f 400 	423 	385
f 419 	418 	426
f 425 	426 	418
f 390 	392 	421
f 390 	421 	415
f 356 	287 	290
f 354 	278 	287
f 418 	391 	425
f 571 	572 	411
f 354 	351 	278
f 287 	356 	354
f 386 	411 	431
f 358 	290 	296
f 398 	433 	397
f 358 	356 	290
f 425 	417 	426
f 416 	426 	417
f 358 	296 	299
f 417 	416 	422
f 50 	422 	416
f 361 	358 	299
f 433 	421 	397
f 426 	425 	429
f 421 	392 	397
f 361 	299 	369
f 436 	735 	434
f 443 	444 	442
f 441 	442 	444
f 401 	395 	701
f 439 	21 	438
f 444 	391 	441
f 422 	441 	391
f 427 	590 	432
f 375 	590 	427
f 422 	443 	442
f 701 	837 	401
f 403 	401 	837
f 445 	735 	440
f 435 	438 	452
f 432 	590 	439
f 21 	452 	438
f 435 	452 	430
f 370 	307 	311
f 416 	417 	443
f 370 	311 	313
f 377 	370 	313
f 447 	837 	451
f 442 	441 	422
f 20 	452 	21
f 294 	346 	288
f 377 	313 	379
f 417 	425 	54
f 313 	350 	379
f 379 	350 	347
f 460 	288 	459
f 353 	352 	387
f 441 	442 	417
f 442 	443 	417
f 455 	288 	454
f 353 	387 	347
f 384 	379 	347
f 431 	433 	398
f 462 	586 	461
f 387 	384 	347
f 389 	387 	352
f 426 	416 	419
f 304 	365 	389
f 463 	586 	462
f 50 	416 	419
f 50 	419 	57
f 433 	431 	466
f 466 	468 	433
f 331 	421 	468
f 389 	352 	304
f 367 	368 	465
f 466 	465 	368
f 429 	57 	426
f 419 	426 	57
f 467 	586 	463
f 444 	443 	471
f 288 	472 	470
f 370 	363 	307
f 473 	586 	467
f 471 	443 	474
f 442 	474 	443
f 369 	299 	363
f 368 	468 	466
f 369 	363 	370
f 422 	471 	443
f 475 	586 	473
f 468 	368 	376
f 472 	288 	469
f 476 	457 	475
f 468 	376 	371
f 477 	416 	471
f 471 	416 	443
f 373 	399 	374
f 479 	457 	476
f 367 	465 	580
f 422 	50 	471
f 482 	457 	479
f 480 	464 	478
f 481 	464 	480
f 483 	457 	482
f 365 	304 	378
f 474 	442 	484
f 442 	441 	484
f 481 	540 	464
f 547 	573 	540
f 464 	540 	573
f 486 	457 	485
f 402 	365 	378
f 381 	406 	402
f 485 	457 	483
f 531 	532 	496
f 425 	511 	54
f 490 	457 	488
f 381 	402 	378
f 288 	470 	464
f 478 	464 	491
f 406 	381 	382
f 491 	464 	487
f 487 	464 	470
f 48 	419 	49
f 477 	49 	419
f 477 	419 	416
f 410 	406 	382
f 383 	412 	410
f 102 	126 	138
f 496 	508 	531
f 530 	531 	508
f 170 	530 	508
f 49 	477 	50
f 477 	471 	50
f 486 	488 	457
f 297 	456 	490
f 457 	490 	456
f 305 	294 	301
f 310 	294 	305
f 383 	410 	382
f 495 	498 	496
f 412 	383 	374
f 412 	374 	399
f 493 	518 	494
f 519 	563 	518
f 494 	518 	497
f 48 	60 	419
f 419 	60 	426
f 420 	399 	373
f 495 	500 	498
f 288 	501 	469
f 420 	373 	393
f 495 	489 	500
f 429 	53 	57
f 489 	492 	500
f 424 	420 	393
f 429 	391 	53
f 428 	424 	396
f 291 	1671 	496
f 506 	504 	288
f 504 	501 	288
f 428 	396 	395
f 498 	300 	291
f 498 	291 	496
f 608 	596 	513
f 60 	198 	511
f 424 	393 	396
f 509 	506 	288
f 198 	54 	511
f 434 	428 	395
f 511 	426 	60
f 425 	426 	511
f 434 	395 	401
f 436 	434 	401
f 510 	509 	288
f 512 	510 	288
f 515 	608 	513
f 436 	401 	403
f 516 	586 	515
f 437 	436 	403
f 63 	508 	514
f 471 	474 	444
f 444 	474 	484
f 517 	586 	516
f 440 	437 	409
f 474 	1512 	471
f 440 	409 	408
f 409 	437 	403
f 471 	1512 	477
f 484 	1512 	474
f 502 	586 	517
f 503 	586 	502
f 505 	586 	503
f 521 	522 	520
f 522 	523 	520
f 523 	524 	520
f 524 	525 	520
f 525 	688 	520
f 519 	520 	688
f 445 	440 	408
f 243 	484 	441
f 243 	441 	242
f 446 	445 	448
f 441 	417 	54
f 512 	288 	526
f 527 	526 	288
f 507 	586 	505
f 461 	586 	507
f 446 	448 	447
f 445 	408 	448
f 484 	243 	444
f 444 	243 	242
f 532 	544 	496
f 495 	496 	544
f 544 	554 	495
f 489 	495 	554
f 288 	767 	527
f 449 	446 	447
f 451 	450 	449
f 530 	186 	536
f 528 	527 	761
f 528 	762 	533
f 531 	530 	536
f 449 	447 	451
f 531 	536 	538
f 533 	757 	535
f 532 	531 	538
f 537 	590 	529
f 450 	451 	1084
f 532 	538 	541
f 542 	532 	541
f 795 	802 	545
f 542 	544 	532
f 455 	454 	545
f 455 	545 	546
f 242 	391 	444
f 454 	803 	545
f 405 	53 	391
f 458 	552 	839
f 549 	573 	547
f 550 	573 	549
f 551 	573 	550
f 429 	425 	391
f 418 	417 	391
f 113 	114 	471
f 474 	471 	114
f 460 	459 	556
f 460 	556 	557
f 471 	477 	113
f 562 	519 	561
f 563 	519 	562
f 497 	518 	563
f 560 	561 	519
f 716 	717 	519
f 484 	474 	345
f 114 	345 	474
f 564 	499 	596
f 477 	49 	113
f 465 	466 	431
f 567 	603 	489
f 554 	567 	489
f 566 	489 	603
f 603 	568 	566
f 569 	571 	411
f 431 	411 	572
f 465 	431 	572
f 570 	1704 	464
f 197 	464 	1704
f 555 	596 	553
f 573 	551 	565
f 565 	576 	573
f 574 	544 	542
f 499 	513 	596
f 564 	596 	559
f 559 	596 	558
f 574 	554 	544
f 591 	916 	578
f 577 	470 	472
f 577 	472 	581
f 581 	472 	469
f 581 	469 	575
f 572 	580 	465
f 534 	529 	590
f 539 	590 	537
f 543 	590 	539
f 548 	596 	543
f 553 	596 	548
f 558 	596 	555
f 450 	534 	590
f 584 	519 	583
f 560 	519 	584
f 583 	519 	582
f 590 	543 	596
f 566 	411 	585
f 386 	585 	411
f 575 	638 	581
f 608 	515 	586
f 457 	586 	475
f 489 	566 	492
f 585 	492 	566
f 202 	917 	591
f 595 	616 	594
f 571 	580 	572
f 133 	132 	591
f 133 	591 	578
f 571 	597 	580
f 21 	439 	590
f 589 	286 	592
f 286 	573 	592
f 24 	596 	598
f 574 	567 	554
f 598 	26 	24
f 594 	593 	481
f 594 	481 	480
f 95 	177 	163
f 602 	209 	591
f 599 	567 	574
f 478 	595 	594
f 478 	594 	480
f 596 	608 	598
f 606 	598 	600
f 324 	323 	601
f 323 	326 	601
f 132 	602 	591
f 568 	569 	566
f 1 	604 	605
f 4 	606 	604
f 1 	4 	604
f 599 	603 	567
f 4 	598 	606
f 132 	131 	602
f 586 	587 	608
f 607 	608 	587
f 318 	706 	601
f 324 	706 	31
f 43 	34 	706
f 609 	610 	608
f 610 	600 	608
f 131 	163 	602
f 573 	570 	464
f 611 	612 	5
f 324 	601 	706
f 317 	706 	318
f 316 	453 	317
f 619 	453 	314
f 9 	600 	611
f 5 	9 	611
f 610 	611 	600
f 600 	598 	608
f 30 	29 	613
f 30 	613 	614
f 312 	619 	314
f 320 	619 	312
f 615 	38 	39
f 615 	39 	617
f 36 	32 	620
f 36 	620 	621
f 595 	622 	616
f 623 	639 	622
f 577 	639 	623
f 29 	28 	624
f 29 	624 	613
f 618 	662 	453
f 487 	470 	577
f 487 	577 	623
f 624 	28 	37
f 624 	37 	625
f 478 	491 	595
f 622 	595 	491
f 661 	453 	662
f 615 	625 	37
f 615 	37 	38
f 623 	622 	491
f 623 	491 	487
f 617 	39 	69
f 617 	69 	628
f 621 	629 	162
f 621 	162 	36
f 164 	162 	629
f 164 	629 	630
f 284 	619 	285
f 285 	619 	320
f 284 	283 	619
f 316 	314 	453
f 618 	453 	619
f 631 	167 	164
f 631 	164 	630
f 168 	167 	631
f 168 	631 	634
f 635 	676 	637
f 637 	648 	635
f 656 	825 	575
f 577 	581 	638
f 639 	577 	638
f 730 	145 	137
f 641 	642 	643
f 641 	643 	644
f 638 	493 	494
f 633 	1098 	635
f 650 	1012 	632
f 632 	1012 	633
f 494 	639 	638
f 632 	633 	649
f 649 	193 	632
f 646 	647 	651
f 646 	651 	652
f 648 	649 	633
f 633 	635 	648
f 650 	632 	193
f 192 	650 	193
f 518 	493 	638
f 616 	622 	639
f 497 	616 	639
f 648 	200 	649
f 637 	200 	648
f 636 	675 	200
f 677 	663 	200
f 637 	636 	200
f 494 	497 	639
f 654 	653 	655
f 192 	1013 	650
f 668 	667 	653
f 681 	858 	679
f 469 	501 	575
f 656 	575 	501
f 713 	645 	171
f 141 	171 	645
f 661 	663 	660
f 662 	663 	661
f 659 	660 	663
f 682 	659 	677
f 677 	675 	682
f 675 	636 	658
f 653 	667 	670
f 653 	670 	655
f 504 	656 	501
f 504 	666 	656
f 657 	666 	504
f 667 	668 	669
f 667 	669 	670
f 154 	1520 	626
f 657 	504 	506
f 36 	239 	39
f 627 	158 	157
f 657 	509 	679
f 662 	671 	663
f 657 	506 	509
f 679 	509 	510
f 693 	791 	653
f 665 	658 	636
f 636 	637 	665
f 676 	664 	637
f 664 	665 	637
f 693 	653 	654
f 158 	673 	156
f 673 	626 	678
f 658 	682 	675
f 679 	834 	657
f 154 	857 	1520
f 512 	679 	510
f 677 	200 	675
f 663 	671 	200
f 618 	200 	671
f 662 	618 	671
f 673 	678 	156
f 663 	677 	659
f 627 	626 	673
f 512 	681 	679
f 158 	627 	673
f 682 	453 	659
f 659 	453 	660
f 626 	1520 	678
f 576 	592 	573
f 589 	588 	286
f 579 	286 	588
f 685 	653 	680
f 674 	668 	685
f 701 	39 	239
f 685 	672 	674
f 685 	687 	672
f 689 	519 	684
f 686 	684 	519
f 690 	519 	689
f 716 	519 	690
f 688 	686 	519
f 834 	522 	521
f 154 	626 	137
f 687 	685 	680
f 683 	687 	680
f 568 	603 	599
f 535 	758 	691
f 569 	568 	698
f 692 	298 	694
f 568 	599 	700
f 658 	665 	453
f 1098 	453 	665
f 654 	702 	693
f 626 	627 	730
f 703 	693 	702
f 298 	300 	694
f 137 	626 	730
f 15 	701 	239
f 664 	676 	1098
f 635 	1098 	676
f 665 	664 	1098
f 703 	704 	693
f 705 	707 	695
f 409 	403 	837
f 699 	697 	340
f 708 	696 	695
f 1381 	1388 	231
f 706 	317 	453
f 661 	660 	453
f 682 	658 	453
f 695 	707 	708
f 710 	711 	1010
f 44 	43 	706
f 13 	286 	706
f 12 	286 	13
f 230 	231 	1388
f 704 	703 	705
f 695 	704 	705
f 696 	708 	714
f 1511 	712 	1510
f 402 	406 	715
f 288 	387 	715
f 388 	141 	645
f 719 	519 	718
f 717 	718 	519
f 582 	519 	719
f 713 	1134 	645
f 709 	286 	579
f 711 	359 	1010
f 709 	710 	286
f 720 	721 	722
f 725 	726 	755
f 288 	724 	722
f 784 	721 	720
f 288 	722 	721
f 721 	458 	288
f 458 	459 	288
f 288 	715 	724
f 729 	227 	730
f 450 	734 	449
f 590 	741 	450
f 699 	340 	723
f 578 	729 	627
f 729 	730 	627
f 448 	837 	447
f 737 	434 	735
f 732 	723 	339
f 340 	339 	723
f 727 	360 	711
f 145 	730 	227
f 740 	755 	726
f 227 	729 	120
f 743 	742 	288
f 734 	450 	741
f 578 	627 	133
f 157 	133 	627
f 735 	445 	734
f 739 	424 	737
f 774 	399 	739
f 749 	750 	748
f 747 	748 	750
f 752 	749 	748
f 751 	288 	742
f 387 	389 	715
f 704 	695 	755
f 759 	754 	695
f 755 	771 	704
f 693 	704 	771
f 749 	748 	234
f 744 	743 	288
f 751 	770 	288
f 755 	754 	725
f 233 	260 	749
f 240 	39 	701
f 753 	1510 	756
f 754 	755 	695
f 752 	760 	750
f 752 	750 	749
f 754 	759 	728
f 754 	728 	725
f 752 	267 	749
f 758 	535 	757
f 749 	236 	752
f 234 	236 	749
f 752 	236 	772
f 763 	768 	268
f 268 	349 	763
f 236 	235 	772
f 771 	765 	693
f 756 	712 	764
f 775 	764 	410
f 1510 	712 	756
f 733 	765 	738
f 761 	527 	766
f 773 	268 	768
f 769 	773 	768
f 767 	288 	770
f 765 	771 	740
f 765 	740 	738
f 1197 	451 	837
f 766 	527 	767
f 757 	533 	762
f 762 	528 	761
f 771 	755 	740
f 775 	412 	774
f 568 	700 	698
f 298 	692 	758
f 697 	694 	300
f 696 	826 	781
f 407 	741 	590
f 571 	569 	698
f 597 	571 	698
f 759 	696 	781
f 780 	779 	782
f 780 	782 	783
f 728 	759 	731
f 781 	731 	759
f 765 	791 	693
f 680 	653 	791
f 780 	783 	820
f 788 	789 	787
f 786 	787 	789
f 789 	790 	786
f 777 	785 	790
f 778 	785 	777
f 83 	785 	792
f 792 	785 	778
f 724 	715 	793
f 683 	680 	791
f 683 	791 	733
f 720 	798 	784
f 798 	797 	784
f 408 	837 	448
f 796 	784 	797
f 791 	765 	733
f 794 	288 	799
f 746 	288 	794
f 746 	744 	288
f 455 	93 	288
f 546 	545 	802
f 781 	745 	731
f 795 	545 	803
f 804 	793 	715
f 781 	776 	745
f 776 	833 	745
f 805 	806 	835
f 805 	810 	811
f 805 	811 	806
f 887 	827 	813
f 546 	802 	820
f 546 	820 	455
f 815 	819 	865
f 819 	776 	865
f 816 	1030 	815
f 812 	865 	776
f 696 	759 	695
f 776 	781 	826
f 826 	852 	776
f 780 	802 	779
f 795 	779 	802
f 821 	696 	714
f 818 	712 	817
f 803 	782 	795
f 779 	795 	782
f 813 	807 	822
f 824 	657 	834
f 825 	656 	824
f 666 	657 	824
f 666 	824 	656
f 820 	802 	780
f 813 	827 	807
f 712 	808 	809
f 809 	817 	712
f 823 	873 	818
f 696 	821 	826
f 828 	829 	845
f 824 	520 	825
f 519 	825 	520
f 853 	831 	712
f 776 	819 	833
f 810 	805 	832
f 810 	832 	863
f 808 	712 	831
f 1020 	1041 	816
f 835 	832 	805
f 857 	873 	823
f 712 	818 	873
f 819 	836 	833
f 839 	552 	838
f 408 	409 	837
f 1201 	1094 	1197
f 819 	815 	1030
f 518 	825 	519
f 839 	840 	458
f 19 	1197 	837
f 843 	808 	831
f 842 	244 	245
f 997 	836 	819
f 841 	842 	245
f 557 	832 	460
f 521 	520 	834
f 824 	834 	520
f 819 	1030 	997
f 638 	575 	825
f 864 	863 	459
f 840 	839 	838
f 840 	838 	845
f 518 	638 	825
f 552 	1099 	838
f 847 	826 	821
f 846 	848 	850
f 838 	828 	845
f 812 	776 	852
f 956 	965 	868
f 863 	832 	556
f 557 	556 	832
f 826 	847 	852
f 835 	460 	832
f 556 	459 	863
f 681 	956 	868
f 834 	679 	858
f 812 	852 	847
f 854 	849 	1191
f 849 	844 	1191
f 850 	848 	859
f 859 	848 	156
f 812 	847 	860
f 858 	522 	834
f 861 	812 	860
f 856 	854 	1191
f 855 	856 	1191
f 862 	855 	1191
f 810 	863 	864
f 810 	864 	811
f 858 	523 	522
f 861 	865 	812
f 706 	453 	701
f 858 	681 	868
f 861 	871 	815
f 830 	870 	874
f 830 	874 	875
f 816 	815 	871
f 747 	760 	752
f 747 	752 	748
f 857 	154 	873
f 801 	876 	872
f 801 	872 	800
f 815 	865 	861
f 877 	234 	748
f 877 	748 	747
f 798 	885 	797
f 800 	959 	798
f 894 	797 	883
f 760 	752 	772
f 653 	685 	668
f 1338 	668 	899
f 878 	899 	668
f 882 	884 	880
f 879 	880 	884
f 668 	1338 	669
f 887 	813 	814
f 885 	886 	883
f 886 	888 	883
f 881 	883 	888
f 889 	881 	888
f 880 	891 	892
f 880 	892 	882
f 881 	894 	883
f 672 	893 	878
f 94 	455 	890
f 877 	882 	880
f 878 	668 	674
f 887 	814 	895
f 887 	895 	896
f 878 	674 	672
f 55 	785 	897
f 886 	885 	798
f 879 	891 	880
f 830 	896 	870
f 895 	870 	896
f 798 	925 	886
f 900 	877 	880
f 900 	880 	879
f 893 	903 	899
f 893 	899 	878
f 897 	785 	898
f 898 	785 	83
f 63 	785 	55
f 883 	797 	885
f 881 	797 	894
f 904 	797 	881
f 879 	748 	260
f 880 	748 	879
f 882 	747 	880
f 747 	748 	880
f 749 	260 	748
f 902 	1188 	901
f 191 	190 	905
f 907 	908 	910
f 907 	910 	911
f 909 	906 	912
f 877 	900 	234
f 1013 	192 	905
f 191 	905 	192
f 1338 	899 	914
f 1338 	914 	906
f 913 	915 	187
f 264 	120 	916
f 904 	190 	196
f 899 	918 	914
f 913 	911 	910
f 913 	910 	915
f 917 	202 	267
f 86 	890 	455
f 455 	94 	93
f 799 	288 	93
f 904 	881 	905
f 196 	797 	904
f 881 	1013 	905
f 903 	918 	899
f 907 	919 	908
f 233 	749 	267
f 917 	267 	752
f 917 	752 	760
f 455 	183 	86
f 907 	920 	919
f 902 	901 	919
f 921 	914 	918
f 884 	892 	891
f 884 	891 	879
f 920 	902 	919
f 921 	906 	914
f 906 	921 	912
f 925 	935 	928
f 924 	925 	928
f 923 	924 	928
f 927 	928 	926
f 922 	923 	928
f 260 	264 	879
f 891 	879 	264
f 264 	916 	891
f 892 	891 	916
f 706 	701 	15
f 706 	15 	13
f 926 	928 	929
f 866 	862 	1191
f 892 	957 	891
f 929 	798 	926
f 926 	798 	927
f 1191 	841 	866
f 869 	867 	841
f 691 	758 	692
f 272 	900 	273
f 900 	879 	273
f 891 	273 	879
f 923 	888 	924
f 930 	869 	841
f 929 	928 	935
f 340 	697 	300
f 272 	234 	900
f 1532 	940 	712
f 935 	798 	929
f 1532 	1431 	940
f 896 	902 	920
f 887 	896 	911
f 920 	907 	896
f 715 	712 	940
f 715 	940 	941
f 942 	943 	944
f 942 	944 	945
f 300 	498 	303
f 303 	344 	300
f 925 	798 	935
f 858 	868 	523
f 321 	498 	309
f 277 	498 	321
f 303 	498 	277
f 772 	986 	760
f 924 	886 	925
f 922 	888 	923
f 786 	790 	785
f 524 	868 	946
f 877 	980 	882
f 524 	523 	868
f 340 	300 	344
f 892 	591 	882
f 944 	934 	931
f 949 	927 	950
f 943 	934 	944
f 946 	525 	524
f 736 	732 	357
f 760 	591 	917
f 747 	591 	760
f 882 	591 	747
f 916 	591 	892
f 729 	578 	916
f 851 	525 	946
f 951 	961 	950
f 949 	950 	954
f 954 	955 	949
f 952 	964 	951
f 953 	964 	952
f 948 	949 	955
f 955 	979 	948
f 362 	736 	357
f 360 	727 	362
f 355 	357 	732
f 339 	355 	732
f 909 	939 	906
f 938 	906 	939
f 851 	688 	525
f 747 	986 	877
f 750 	986 	747
f 884 	882 	980
f 736 	362 	727
f 359 	711 	360
f 760 	986 	750
f 928 	948 	947
f 120 	729 	916
f 951 	798 	952
f 952 	798 	953
f 949 	948 	927
f 928 	927 	948
f 325 	273 	957
f 927 	798 	950
f 951 	950 	798
f 1254 	1247 	944
f 1254 	944 	938
f 273 	891 	957
f 359 	371 	1010
f 376 	368 	1010
f 371 	376 	1010
f 976 	851 	958
f 958 	946 	965
f 946 	868 	965
f 960 	969 	959
f 959 	969 	953
f 954 	950 	961
f 956 	512 	526
f 1338 	906 	944
f 368 	367 	1010
f 931 	1338 	944
f 325 	957 	335
f 980 	335 	957
f 938 	944 	906
f 956 	681 	512
f 959 	800 	960
f 953 	798 	959
f 956 	526 	527
f 980 	877 	986
f 957 	892 	980
f 669 	1338 	1285
f 892 	884 	980
f 528 	956 	527
f 963 	968 	962
f 962 	969 	960
f 961 	951 	964
f 398 	585 	394
f 397 	498 	398
f 392 	498 	397
f 390 	498 	392
f 309 	498 	390
f 978 	851 	976
f 981 	980 	986
f 528 	965 	956
f 962 	800 	963
f 960 	800 	962
f 500 	398 	498
f 492 	398 	500
f 585 	398 	492
f 958 	965 	528
f 969 	962 	968
f 968 	963 	970
f 958 	528 	533
f 514 	785 	63
f 800 	970 	963
f 964 	953 	969
f 986 	772 	235
f 972 	342 	973
f 535 	691 	978
f 535 	958 	533
f 966 	343 	972
f 343 	342 	972
f 981 	341 	335
f 981 	335 	980
f 186 	820 	536
f 535 	976 	958
f 981 	973 	342
f 981 	342 	341
f 964 	969 	961
f 954 	961 	969
f 955 	954 	969
f 969 	968 	955
f 979 	955 	968
f 974 	1140 	968
f 538 	536 	820
f 978 	976 	535
f 364 	343 	966
f 542 	541 	783
f 541 	538 	783
f 820 	783 	538
f 986 	235 	330
f 594 	1007 	593
f 1005 	1016 	990
f 990 	992 	1005
f 593 	1007 	992
f 991 	993 	984
f 998 	974 	989
f 991 	998 	989
f 999 	983 	995
f 1177 	999 	995
f 996 	1177 	995
f 481 	593 	992
f 986 	330 	1004
f 992 	990 	540
f 970 	800 	987
f 481 	992 	540
f 987 	989 	974
f 386 	394 	585
f 549 	990 	988
f 984 	998 	991
f 597 	1011 	580
f 547 	540 	990
f 993 	994 	984
f 549 	547 	990
f 973 	1004 	972
f 1000 	1036 	1001
f 551 	550 	985
f 968 	970 	974
f 981 	1004 	973
f 966 	972 	1015
f 988 	985 	550
f 988 	550 	549
f 970 	987 	974
f 986 	1004 	981
f 1017 	972 	1004
f 700 	599 	782
f 984 	1142 	998
f 983 	1142 	984
f 999 	1142 	983
f 580 	1011 	367
f 698 	1011 	597
f 1011 	1010 	367
f 800 	1309 	993
f 1008 	1011 	782
f 599 	574 	782
f 542 	783 	574
f 782 	574 	783
f 985 	988 	1016
f 1016 	1019 	985
f 988 	990 	1016
f 989 	987 	800
f 991 	989 	800
f 993 	991 	800
f 330 	366 	1004
f 562 	1005 	563
f 994 	993 	1309
f 1007 	594 	616
f 1005 	992 	1007
f 1008 	1009 	1010
f 1008 	1010 	1011
f 1005 	1007 	563
f 372 	1017 	1004
f 1009 	1008 	1286
f 1014 	1013 	889
f 881 	889 	1013
f 1004 	366 	372
f 497 	563 	616
f 1007 	616 	563
f 698 	700 	1011
f 1015 	372 	375
f 1028 	985 	1019
f 706 	1010 	1009
f 1003 	1002 	1081
f 1088 	633 	1012
f 1013 	1012 	650
f 561 	1016 	562
f 1017 	372 	1015
f 886 	924 	888
f 1014 	889 	922
f 889 	888 	922
f 286 	710 	1010
f 706 	286 	1010
f 1016 	1005 	562
f 1020 	971 	1021
f 1015 	972 	1017
f 1019 	561 	560
f 460 	835 	806
f 806 	454 	460
f 803 	454 	806
f 806 	811 	803
f 864 	75 	811
f 1051 	1058 	1019
f 1039 	1040 	1064
f 1025 	1050 	1024
f 1022 	1023 	1026
f 971 	982 	1021
f 1051 	1019 	560
f 1013 	1027 	1024
f 782 	803 	1008
f 1021 	982 	975
f 1025 	1024 	1027
f 1019 	1016 	561
f 186 	183 	455
f 820 	186 	455
f 713 	171 	385
f 551 	985 	1028
f 864 	840 	829
f 1021 	1041 	1020
f 565 	551 	1028
f 1031 	1050 	1025
f 1033 	1023 	1032
f 1026 	1023 	1033
f 864 	459 	840
f 458 	840 	459
f 720 	1107 	1034
f 413 	388 	645
f 1014 	1027 	1013
f 565 	1028 	1058
f 933 	841 	936
f 245 	1035 	841
f 845 	829 	840
f 1025 	1027 	1031
f 1038 	1031 	1027
f 1038 	1027 	1014
f 1037 	570 	573
f 1038 	1050 	1031
f 1023 	1064 	1040
f 1037 	573 	136
f 1037 	136 	134
f 203 	829 	196
f 64 	62 	864
f 864 	829 	64
f 797 	196 	829
f 936 	841 	937
f 937 	841 	1035
f 261 	258 	245
f 252 	1035 	245
f 1038 	1014 	922
f 1041 	997 	1030
f 1032 	1023 	1040
f 700 	782 	1011
f 1041 	1006 	997
f 570 	1037 	140
f 134 	140 	1037
f 1039 	1144 	1040
f 1040 	1144 	1032
f 1041 	1036 	1006
f 1039 	1064 	1050
f 1038 	922 	1050
f 928 	1050 	922
f 1049 	1087 	1047
f 1046 	1047 	1280
f 1059 	1087 	1049
f 1006 	1036 	1000
f 1028 	1019 	1058
f 1053 	1056 	1051
f 1057 	1051 	1056
f 1058 	1051 	1057
f 1021 	1086 	1036
f 1050 	1144 	1039
f 1032 	1144 	1033
f 1033 	1144 	1026
f 1026 	1112 	1029
f 576 	565 	1058
f 1030 	816 	1041
f 1041 	1021 	1036
f 1063 	1012 	1023
f 1013 	1024 	1064
f 1024 	1050 	1064
f 1008 	1059 	1049
f 579 	588 	1055
f 1064 	1023 	1012
f 1012 	1063 	1066
f 592 	1057 	1056
f 1059 	1008 	1060
f 1061 	1060 	1008
f 1013 	1064 	1012
f 1054 	1205 	1062
f 1051 	583 	1053
f 1066 	1018 	1012
f 1062 	1205 	1065
f 1065 	1205 	1067
f 1008 	1049 	1047
f 1008 	1047 	1046
f 1045 	1008 	1046
f 971 	1020 	816
f 871 	971 	816
f 1067 	1205 	1068
f 1051 	584 	583
f 975 	977 	1069
f 1068 	1205 	1044
f 844 	1052 	1191
f 1063 	1022 	1066
f 1023 	1022 	1063
f 1073 	1002 	1001
f 1074 	1075 	1108
f 1104 	1108 	1075
f 1075 	1076 	1104
f 1071 	1072 	1076
f 1076 	1172 	1071
f 1051 	560 	584
f 1078 	1079 	1029
f 1079 	1022 	1029
f 1026 	1029 	1022
f 1036 	1073 	1001
f 1048 	1043 	1191
f 1043 	1044 	1191
f 1052 	1048 	1191
f 1079 	1091 	1022
f 1073 	1081 	1002
f 1029 	1082 	1077
f 1077 	1078 	1029
f 1008 	803 	1075
f 1076 	1075 	803
f 1589 	1053 	582
f 1072 	1104 	1076
f 1061 	1008 	1074
f 1075 	1074 	1008
f 1021 	975 	1086
f 1129 	645 	1134
f 1090 	1047 	1087
f 1060 	1093 	1059
f 1086 	975 	1069
f 1092 	1012 	1091
f 1018 	1091 	1012
f 1092 	1101 	1012
f 1069 	977 	1316
f 645 	1129 	413
f 1087 	1059 	1093
f 1098 	633 	1088
f 1087 	1093 	1090
f 724 	793 	1109
f 1066 	1022 	1018
f 1018 	1022 	1091
f 1079 	453 	1091
f 1134 	713 	385
f 721 	1306 	1099
f 1088 	1012 	1101
f 1098 	1088 	1101
f 1096 	1047 	1090
f 400 	364 	966
f 1034 	1107 	1322
f 1095 	1201 	1097
f 1060 	1061 	1108
f 1061 	1074 	1108
f 1069 	1326 	1081
f 1069 	1073 	1086
f 1073 	1036 	1086
f 1099 	552 	721
f 458 	721 	552
f 1155 	400 	1106
f 1101 	453 	1098
f 1096 	1090 	1071
f 720 	722 	1107
f 1092 	1091 	453
f 1107 	722 	724
f 1107 	724 	1109
f 1093 	1060 	1108
f 966 	1106 	400
f 1073 	1069 	1081
f 1109 	1322 	1107
f 1101 	1092 	453
f 1078 	453 	1079
f 1082 	453 	1077
f 1078 	1077 	453
f 1082 	1235 	453
f 1326 	1324 	1081
f 734 	1115 	1117
f 1093 	1108 	1090
f 1108 	1104 	1090
f 1104 	1072 	1090
f 1072 	1071 	1090
f 1070 	1141 	1274
f 1173 	1106 	1015
f 966 	1015 	1106
f 1111 	1112 	1113
f 1111 	1113 	1114
f 1116 	1118 	1114
f 1235 	1118 	1116
f 1111 	1114 	1118
f 735 	734 	1117
f 737 	735 	1117
f 1110 	737 	1119
f 1112 	1026 	1144
f 1120 	1148 	1125
f 1125 	1148 	1124
f 1164 	1136 	1126
f 1128 	1234 	1127
f 1116 	1127 	1235
f 1110 	739 	737
f 741 	1115 	734
f 1113 	1132 	1114
f 1133 	1115 	741
f 385 	414 	1134
f 1133 	741 	1135
f 1123 	803 	1124
f 1127 	1116 	1166
f 1114 	1166 	1116
f 1132 	1166 	1114
f 1125 	1126 	1137
f 413 	1129 	1171
f 1117 	1115 	1119
f 1110 	1119 	1115
f 1115 	1133 	1110
f 1133 	1135 	1110
f 1134 	414 	1143
f 1141 	1070 	1172
f 1070 	1071 	1172
f 1172 	1122 	1138
f 1147 	1138 	1122
f 1144 	1145 	1142
f 1145 	947 	1140
f 979 	1140 	947
f 947 	948 	979
f 1138 	1141 	1172
f 1147 	1154 	1274
f 1050 	928 	1144
f 1145 	1144 	928
f 947 	1145 	928
f 737 	1117 	1119
f 1148 	1151 	1124
f 1171 	1129 	1143
f 1134 	1143 	1129
f 1113 	1112 	1144
f 1137 	1120 	1125
f 1173 	1174 	1143
f 1123 	1124 	1154
f 1151 	1154 	1124
f 1543 	1542 	1149
f 1152 	1153 	1248
f 1147 	1123 	1154
f 1113 	1144 	1132
f 414 	1155 	1143
f 1543 	1149 	753
f 1148 	1275 	1151
f 1140 	1142 	1145
f 400 	1155 	423
f 974 	1142 	1140
f 979 	968 	1140
f 1159 	756 	1157
f 1155 	414 	423
f 1111 	1082 	1112
f 1029 	1112 	1082
f 1141 	1138 	1274
f 1138 	1147 	1274
f 1275 	1274 	1154
f 1151 	1275 	1154
f 1120 	1275 	1148
f 1137 	1275 	1120
f 1136 	1275 	1137
f 1153 	1158 	1248
f 1143 	1155 	1173
f 1164 	1300 	1315
f 1106 	1173 	1155
f 1167 	1178 	1162
f 1163 	1167 	1162
f 1165 	1167 	1163
f 1166 	1167 	1165
f 1161 	1162 	1178
f 1178 	1175 	1161
f 996 	1161 	1175
f 1126 	1125 	1168
f 1015 	375 	427
f 1168 	1169 	1170
f 1171 	430 	413
f 1284 	1283 	1157
f 1169 	1168 	1125
f 1124 	803 	1125
f 1293 	1292 	1185
f 1123 	1147 	1122
f 830 	875 	896
f 427 	432 	1173
f 1097 	1201 	1100
f 907 	911 	896
f 911 	913 	887
f 827 	887 	913
f 807 	827 	187
f 1173 	432 	1174
f 1100 	1201 	1102
f 1102 	1201 	1103
f 827 	913 	187
f 996 	1175 	1177
f 983 	984 	994
f 994 	995 	983
f 1176 	435 	430
f 1176 	430 	1171
f 1179 	1174 	439
f 1103 	1201 	1105
f 1191 	1044 	1205
f 1105 	1201 	1042
f 1042 	1201 	1054
f 1123 	1122 	803
f 1172 	803 	1122
f 1169 	1125 	803
f 1172 	1076 	803
f 1170 	1169 	803
f 435 	1176 	1180
f 1144 	1142 	1167
f 1178 	1167 	1142
f 1179 	439 	438
f 874 	1187 	875
f 1144 	1167 	1132
f 1166 	1132 	1167
f 1187 	1188 	875
f 1184 	1185 	1183
f 1204 	1182 	1185
f 1181 	1204 	1185
f 1168 	1181 	1185
f 1170 	1181 	1168
f 1089 	1197 	1094
f 1085 	1197 	1089
f 1083 	1197 	1080
f 1080 	1197 	1085
f 1084 	1197 	1083
f 451 	1197 	1084
f 874 	1186 	1187
f 1094 	1201 	1095
f 867 	866 	841
f 1189 	901 	1188
f 1175 	1142 	1177
f 1178 	1142 	1175
f 999 	1177 	1142
f 974 	998 	1142
f 1190 	1191 	1216
f 1180 	1143 	1179
f 1176 	1143 	1180
f 1171 	1143 	1176
f 1174 	1179 	1143
f 1192 	1193 	1188
f 1180 	1179 	438
f 933 	932 	841
f 932 	930 	841
f 1191 	1205 	1215
f 1305 	1293 	1185
f 1193 	1189 	1188
f 435 	1180 	438
f 1198 	1208 	1196
f 1196 	1208 	1195
f 1194 	1195 	1199
f 1199 	1166 	1194
f 803 	1242 	1183
f 1200 	1193 	1192
f 1174 	432 	439
f 1205 	1054 	1201
f 22 	1197 	19
f 1202 	1392 	1203
f 1182 	1183 	1185
f 23 	1205 	1201
f 1015 	427 	1173
f 27 	1205 	23
f 453 	452 	837
f 453 	837 	701
f 803 	1181 	1170
f 20 	19 	837
f 20 	837 	452
f 1199 	1195 	1208
f 842 	841 	457
f 842 	457 	456
f 2 	1211 	1212
f 1209 	1210 	1206
f 1204 	803 	1182
f 1204 	1181 	803
f 1182 	803 	1183
f 1165 	1194 	1166
f 1213 	3 	1212
f 2 	1212 	3
f 1213 	1207 	1205
f 3 	1213 	1205
f 1208 	1198 	1214
f 1221 	1223 	1215
f 1216 	1191 	1215
f 1221 	1215 	1207
f 1222 	1224 	1220
f 1224 	1225 	1218
f 130 	135 	1225
f 1226 	130 	1225
f 1227 	122 	1226
f 121 	122 	1227
f 6 	1229 	1230
f 6 	1230 	8
f 461 	844 	849
f 1206 	1228 	1209
f 1205 	1207 	1215
f 1221 	1207 	1230
f 8 	1230 	1207
f 462 	461 	849
f 1209 	1217 	1210
f 1208 	1128 	1199
f 1214 	1128 	1208
f 1219 	1128 	1214
f 1166 	1199 	1128
f 1128 	1127 	1166
f 462 	849 	854
f 620 	32 	614
f 30 	614 	32
f 168 	634 	640
f 168 	640 	166
f 463 	462 	854
f 467 	463 	856
f 628 	69 	241
f 628 	241 	289
f 1194 	1492 	1195
f 1163 	1448 	1165
f 1165 	1448 	1194
f 467 	856 	855
f 292 	244 	456
f 1202 	1203 	1251
f 1224 	1239 	1225
f 1225 	1239 	1226
f 456 	244 	842
f 587 	1190 	1216
f 856 	463 	854
f 1218 	1220 	1224
f 135 	1218 	1225
f 587 	1216 	607
f 1187 	1186 	1200
f 1187 	1200 	1192
f 473 	467 	855
f 614 	613 	624
f 135 	130 	224
f 473 	855 	862
f 938 	939 	1160
f 625 	621 	624
f 621 	620 	624
f 614 	624 	620
f 1238 	1240 	1233
f 1234 	1238 	1233
f 1235 	1127 	1234
f 1238 	1234 	1128
f 1232 	1233 	1240
f 1240 	1243 	1232
f 866 	473 	862
f 615 	617 	625
f 621 	625 	617
f 1235 	1082 	1118
f 1160 	1254 	938
f 475 	473 	866
f 628 	288 	617
f 1222 	1236 	1224
f 1222 	1473 	1236
f 1239 	1224 	1236
f 867 	475 	866
f 629 	621 	669
f 476 	475 	867
f 1246 	1239 	1236
f 1237 	1241 	1236
f 1242 	1236 	1241
f 1246 	1236 	1242
f 967 	1003 	1273
f 630 	629 	640
f 867 	869 	479
f 634 	631 	630
f 634 	630 	640
f 1231 	1232 	1243
f 1256 	1255 	1244
f 1243 	1244 	1231
f 476 	867 	479
f 642 	641 	617
f 482 	479 	869
f 482 	869 	930
f 464 	197 	288
f 1524 	1518 	288
f 181 	185 	288
f 641 	651 	617
f 1239 	811 	1226
f 121 	1227 	811
f 97 	811 	101
f 1227 	1226 	811
f 121 	811 	97
f 1240 	1238 	1243
f 1238 	1128 	1243
f 1244 	1243 	1128
f 483 	482 	930
f 483 	930 	932
f 1245 	1304 	1319
f 485 	483 	932
f 485 	932 	933
f 1234 	453 	1235
f 1233 	1232 	453
f 1118 	1082 	1111
f 1247 	1152 	1248
f 1206 	1249 	1228
f 486 	485 	933
f 486 	933 	936
f 1233 	453 	1234
f 452 	453 	1232
f 1231 	452 	1232
f 1228 	1249 	1250
f 488 	486 	936
f 488 	936 	937
f 1251 	1252 	1202
f 490 	488 	937
f 490 	937 	1035
f 1254 	1160 	1247
f 583 	582 	1053
f 803 	811 	1246
f 1242 	803 	1246
f 1246 	811 	1239
f 101 	811 	103
f 1231 	1244 	1255
f 1255 	1256 	1253
f 1219 	1253 	1256
f 1214 	1253 	1219
f 1198 	1253 	1214
f 490 	1035 	252
f 1160 	1152 	1247
f 1128 	1219 	1244
f 1256 	1244 	1219
f 1055 	1583 	579
f 1231 	1255 	452
f 1056 	1055 	589
f 945 	944 	1247
f 1248 	1291 	1247
f 1184 	1183 	1242
f 502 	1044 	1043
f 503 	502 	1043
f 1157 	756 	764
f 1250 	1249 	1252
f 1250 	1252 	1251
f 1253 	1492 	1255
f 1196 	1492 	1198
f 1198 	1492 	1253
f 1195 	1492 	1196
f 503 	1043 	1048
f 1257 	1258 	1259
f 1259 	1264 	1257
f 1261 	1369 	1260
f 1257 	1265 	1262
f 896 	875 	902
f 1188 	902 	875
f 505 	503 	1048
f 1192 	1188 	1187
f 1416 	1415 	873
f 505 	1048 	1052
f 505 	1052 	507
f 1269 	1146 	1263
f 1260 	1262 	1265
f 1264 	1265 	1257
f 1055 	588 	589
f 1270 	1265 	1264
f 499 	1042 	1054
f 592 	1056 	589
f 513 	499 	1054
f 1271 	1263 	1146
f 1057 	592 	576
f 1268 	872 	1351
f 1272 	1265 	1270
f 1058 	1057 	576
f 1150 	1271 	1146
f 515 	1054 	1062
f 579 	1583 	709
f 1261 	1260 	1265
f 1261 	1265 	1272
f 1156 	1273 	1271
f 1054 	515 	513
f 1248 	1158 	1269
f 1251 	1203 	1228
f 1209 	1228 	1203
f 1203 	1395 	1217
f 1150 	1156 	1271
f 517 	1065 	1067
f 1286 	1276 	1275
f 1276 	1277 	1275
f 1277 	1045 	1274
f 1280 	1274 	1045
f 1045 	1046 	1280
f 266 	1278 	404
f 1278 	1279 	1135
f 1209 	1203 	1217
f 1158 	1146 	1269
f 1277 	1008 	1045
f 773 	1278 	268
f 1081 	1273 	1003
f 1279 	1110 	1135
f 515 	1062 	1065
f 516 	515 	1065
f 1280 	1047 	1096
f 517 	516 	1065
f 1274 	1275 	1277
f 1228 	1250 	1251
f 670 	669 	621
f 1278 	773 	1279
f 769 	1279 	773
f 517 	1067 	1068
f 1273 	1156 	967
f 517 	1068 	1044
f 1274 	1280 	1071
f 1096 	1071 	1280
f 1283 	1284 	1279
f 1110 	1279 	1284
f 1044 	502 	517
f 1304 	1303 	1263
f 1263 	1303 	1269
f 1052 	844 	461
f 769 	1283 	1279
f 1273 	1081 	1324
f 1286 	1008 	1276
f 1277 	1276 	1008
f 1052 	461 	507
f 1324 	1323 	1273
f 769 	768 	1283
f 1299 	1298 	1269
f 1286 	1318 	1272
f 1272 	1270 	1286
f 1286 	1270 	1264
f 1286 	1264 	1259
f 1258 	1286 	1259
f 1257 	1009 	1258
f 1283 	768 	763
f 1262 	1009 	1257
f 1084 	529 	534
f 1291 	942 	945
f 1084 	1083 	529
f 1283 	1571 	1157
f 1291 	1121 	942
f 1157 	775 	1284
f 1297 	1290 	1346
f 1295 	1318 	1294
f 1296 	1318 	1295
f 1293 	1305 	1314
f 1314 	1315 	1293
f 1130 	1131 	1299
f 1298 	1299 	1131
f 774 	739 	1110
f 775 	774 	1284
f 1292 	1315 	1300
f 764 	775 	1157
f 931 	934 	1297
f 1085 	539 	1080
f 1164 	1126 	1168
f 1121 	1291 	1131
f 1284 	774 	1110
f 1083 	537 	529
f 1298 	1131 	1291
f 741 	407 	1135
f 1083 	1080 	537
f 1168 	1185 	1164
f 1374 	1301 	1302
f 1303 	1139 	1299
f 1130 	1299 	1139
f 1322 	1109 	793
f 539 	537 	1080
f 1139 	1303 	1304
f 1139 	1304 	1245
f 1268 	1267 	872
f 1267 	1266 	872
f 1266 	1312 	872
f 1312 	1311 	872
f 995 	994 	1309
f 543 	1085 	1089
f 1294 	1318 	1305
f 721 	784 	1306
f 1320 	1319 	1304
f 1085 	543 	539
f 1306 	1313 	1099
f 1313 	838 	1099
f 1305 	45 	1294
f 1300 	1164 	1185
f 1292 	1300 	1185
f 1312 	1373 	1311
f 1310 	1311 	1373
f 1373 	1337 	1310
f 1337 	1328 	1310
f 1344 	1442 	1308
f 548 	1089 	1094
f 796 	1313 	1306
f 796 	1306 	784
f 1299 	1269 	1303
f 1291 	1248 	1298
f 945 	1247 	1291
f 1248 	1269 	1298
f 1292 	1293 	1315
f 1137 	1126 	1136
f 1136 	1164 	1315
f 838 	1313 	828
f 1286 	1275 	1318
f 1317 	1318 	1296
f 796 	797 	1414
f 1089 	548 	543
f 720 	1034 	798
f 1314 	1305 	1318
f 1275 	1314 	1318
f 800 	872 	1311
f 1321 	1319 	1320
f 1322 	1418 	1034
f 1323 	1324 	1325
f 1309 	800 	1310
f 1311 	1310 	800
f 1322 	793 	804
f 553 	548 	1094
f 1323 	1325 	1321
f 1314 	1275 	1315
f 1136 	1315 	1275
f 1071 	1070 	1274
f 996 	995 	1308
f 1414 	828 	1313
f 555 	1095 	1097
f 1323 	1321 	1320
f 553 	1094 	1095
f 1317 	1272 	1318
f 796 	1414 	1313
f 1309 	1308 	995
f 1307 	1445 	996
f 1308 	1307 	996
f 1069 	1316 	1326
f 1095 	555 	553
f 45 	1295 	1294
f 1326 	1316 	1327
f 1288 	1374 	1302
f 558 	1097 	1100
f 1308 	1309 	1339
f 1309 	1310 	1328
f 1326 	1327 	1324
f 1329 	1339 	1309
f 1325 	1324 	1327
f 558 	555 	1097
f 1332 	1354 	1331
f 1330 	1331 	1349
f 1281 	1282 	1336
f 1335 	1336 	1282
f 1100 	559 	558
f 1285 	1338 	1282
f 1335 	1282 	1338
f 1328 	1337 	1329
f 1344 	1339 	1337
f 1100 	1102 	559
f 1307 	1308 	1442
f 1339 	1344 	1308
f 1320 	1271 	1323
f 1271 	1273 	1323
f 1304 	1263 	1320
f 1271 	1320 	1263
f 1340 	1341 	1342
f 1330 	45 	1331
f 44 	1331 	45
f 1330 	1347 	1345
f 1296 	1345 	1347
f 1329 	1337 	1339
f 1346 	1290 	1343
f 1341 	1340 	1348
f 499 	1103 	1105
f 1347 	1330 	1349
f 1290 	1289 	1343
f 1350 	1341 	1348
f 1350 	1348 	1352
f 1353 	1358 	1361
f 1361 	1362 	1353
f 1103 	499 	564
f 1349 	1331 	1354
f 1332 	1420 	1354
f 807 	1355 	1356
f 1102 	564 	559
f 931 	1297 	1346
f 564 	1102 	1103
f 499 	1105 	1042
f 1357 	1350 	1352
f 1296 	1347 	1317
f 1336 	1335 	1346
f 1335 	1338 	1346
f 931 	1346 	1338
f 1357 	1359 	1350
f 1343 	1366 	1346
f 1351 	872 	1353
f 450 	1084 	534
f 1355 	1359 	1357
f 1353 	872 	1358
f 1334 	1272 	1354
f 1349 	1354 	1272
f 1317 	1347 	1272
f 1333 	1272 	1334
f 1349 	1272 	1347
f 1191 	1190 	587
f 1191 	587 	586
f 1355 	807 	1360
f 586 	457 	1191
f 841 	1191 	457
f 1295 	45 	1296
f 1197 	22 	21
f 1197 	21 	590
f 1359 	1355 	1360
f 1197 	590 	596
f 1197 	596 	1201
f 1345 	45 	1330
f 1345 	1296 	45
f 1351 	1353 	1362
f 1387 	1268 	1362
f 1387 	1375 	1267
f 1268 	1387 	1267
f 1351 	1362 	1268
f 24 	23 	1201
f 24 	1201 	596
f 1205 	27 	26
f 1205 	26 	598
f 807 	1356 	822
f 851 	978 	1365
f 946 	958 	851
f 1366 	1288 	1336
f 1281 	1336 	1288
f 1205 	598 	3
f 4 	3 	598
f 1207 	1213 	600
f 1369 	1261 	1368
f 1367 	1376 	1389
f 1367 	1394 	1364
f 1372 	1424 	1370
f 1371 	1363 	1287
f 1371 	1287 	1301
f 605 	1211 	2
f 605 	2 	1
f 1328 	1329 	1309
f 1312 	1375 	1373
f 1350 	1359 	237
f 195 	237 	1359
f 1360 	195 	1359
f 605 	604 	1212
f 605 	1212 	1211
f 1301 	1374 	1371
f 1213 	1212 	604
f 1213 	604 	606
f 1213 	606 	600
f 807 	195 	1360
f 1288 	1366 	1374
f 9 	8 	1207
f 9 	1207 	600
f 1368 	1389 	1376
f 1216 	1215 	608
f 1216 	608 	607
f 608 	1215 	1223
f 608 	1223 	609
f 1312 	1266 	1375
f 1367 	1364 	706
f 612 	1229 	6
f 612 	6 	5
f 1371 	1374 	1343
f 1366 	1343 	1374
f 1336 	1346 	1366
f 1223 	1221 	610
f 1223 	610 	609
f 1381 	1378 	1382
f 612 	611 	1230
f 612 	1230 	1229
f 1384 	1383 	1363
f 1287 	1363 	1383
f 610 	1221 	1230
f 610 	1230 	611
f 1367 	706 	1376
f 1378 	1379 	1385
f 1386 	1383 	1384
f 1378 	1385 	1382
f 1376 	706 	1368
f 1009 	1368 	706
f 1388 	1381 	1382
f 1266 	1267 	1375
f 1388 	1382 	1390
f 1389 	1368 	1261
f 1391 	1260 	1369
f 1262 	1260 	1391
f 1392 	1379 	1393
f 1370 	1364 	1394
f 1394 	1367 	1389
f 1392 	1393 	1395
f 1373 	1460 	1337
f 1387 	1460 	1375
f 1362 	1460 	1387
f 1380 	1460 	1361
f 1361 	1460 	1362
f 1396 	1397 	1398
f 1396 	1398 	1399
f 1379 	1378 	1393
f 1400 	1401 	1402
f 1400 	1402 	1404
f 1377 	1388 	1390
f 1408 	1403 	1405
f 1377 	1342 	1388
f 1405 	1426 	1409
f 1402 	1407 	1406
f 1402 	1406 	1404
f 1417 	798 	1034
f 1389 	1272 	1394
f 1370 	1394 	1272
f 1261 	1272 	1389
f 1372 	1370 	1272
f 1415 	1416 	1405
f 1392 	1395 	1203
f 1398 	1411 	1412
f 1398 	1412 	1399
f 1009 	1262 	1391
f 1415 	1405 	1409
f 1412 	1413 	1400
f 1368 	1009 	1369
f 1489 	1477 	1416
f 1413 	1401 	1400
f 1411 	1413 	1412
f 1391 	1369 	1009
f 1286 	1258 	1009
f 231 	223 	1378
f 237 	232 	1350
f 1341 	1350 	232
f 1393 	1378 	223
f 1395 	1393 	223
f 1342 	1341 	232
f 1417 	1418 	1419
f 1396 	1343 	1397
f 1289 	1397 	1343
f 1418 	801 	800
f 1418 	800 	1419
f 1409 	1410 	1415
f 1415 	1410 	872
f 872 	873 	1415
f 1342 	1377 	1340
f 1333 	1334 	1422
f 1425 	1333 	1422
f 1372 	1425 	1423
f 1424 	1372 	1423
f 1364 	1370 	1424
f 1438 	1422 	1334
f 1421 	1438 	1334
f 1429 	1410 	1361
f 1427 	1409 	1426
f 1410 	1409 	1380
f 1399 	1384 	1396
f 1464 	1451 	1412
f 1380 	1361 	1410
f 1427 	1380 	1409
f 1210 	223 	1428
f 797 	829 	1414
f 828 	1414 	829
f 1430 	1428 	223
f 1358 	872 	1429
f 1429 	872 	1410
f 798 	1417 	1419
f 798 	1419 	800
f 1332 	1331 	44
f 1371 	1396 	1363
f 1404 	1406 	1457
f 712 	873 	1532
f 1403 	1426 	1405
f 1422 	1438 	706
f 1452 	1457 	1406
f 941 	940 	1431
f 223 	1210 	1217
f 1358 	1429 	1361
f 804 	715 	1431
f 941 	1431 	715
f 1424 	1423 	706
f 1424 	706 	1364
f 1400 	1404 	1456
f 174 	187 	915
f 1322 	1431 	1527
f 1532 	1527 	1431
f 1426 	1460 	1427
f 1403 	1460 	1426
f 1408 	1460 	1403
f 1334 	1354 	1421
f 1396 	1371 	1343
f 1420 	1421 	1354
f 804 	1431 	1322
f 1433 	231 	1432
f 230 	1432 	231
f 1435 	1406 	1434
f 1407 	1434 	1406
f 230 	173 	1432
f 1372 	1272 	1425
f 1333 	1425 	1272
f 1435 	1434 	1436
f 1435 	1436 	1437
f 873 	154 	1416
f 1422 	1423 	1425
f 1437 	1439 	1440
f 231 	1433 	223
f 1430 	223 	1433
f 1436 	1441 	1437
f 1437 	1441 	1439
f 44 	706 	1420
f 1420 	1332 	44
f 1444 	1442 	1443
f 1460 	1448 	1443
f 1448 	1449 	1443
f 1440 	1439 	1452
f 195 	172 	173
f 1444 	1161 	1445
f 1438 	1421 	706
f 1421 	1420 	706
f 1423 	1422 	706
f 1446 	1447 	809
f 1437 	1440 	1435
f 1406 	1435 	1440
f 1406 	1440 	1452
f 1457 	1456 	1404
f 1446 	809 	808
f 45 	1185 	1450
f 1184 	1450 	1185
f 1444 	1443 	1449
f 1386 	1384 	1451
f 1185 	45 	1305
f 1449 	1448 	1162
f 1161 	996 	1445
f 818 	1447 	1453
f 1439 	1454 	1452
f 1476 	874 	647
f 1447 	818 	817
f 25 	42 	1450
f 42 	43 	1450
f 1456 	1457 	1458
f 651 	647 	617
f 647 	621 	617
f 1492 	1194 	1448
f 1163 	1162 	1448
f 1162 	1161 	1449
f 1444 	1449 	1161
f 1447 	817 	809
f 1450 	1184 	1455
f 1458 	1457 	1459
f 823 	818 	1453
f 1461 	1492 	1460
f 1492 	1448 	1460
f 1456 	1458 	1462
f 823 	1453 	1463
f 1445 	1442 	1444
f 1241 	1455 	1184
f 1464 	1456 	1462
f 655 	670 	654
f 1464 	1462 	1465
f 1467 	1469 	1466
f 1468 	1469 	1467
f 226 	1466 	1469
f 1464 	1465 	1470
f 1451 	1464 	1470
f 1445 	1307 	1442
f 1452 	1454 	1459
f 1466 	1482 	1467
f 1468 	1467 	1482
f 853 	1471 	831
f 1459 	1457 	1452
f 831 	1471 	1488
f 831 	1488 	843
f 1460 	1475 	1461
f 1380 	1427 	1460
f 1443 	1337 	1460
f 1442 	1337 	1443
f 1344 	1337 	1442
f 1373 	1375 	1460
f 1468 	1473 	1469
f 1469 	1473 	1472
f 1222 	1472 	1473
f 1386 	1451 	1470
f 670 	621 	654
f 1474 	1475 	1489
f 1475 	1477 	1489
f 1220 	1472 	1222
f 1399 	1412 	1451
f 1451 	1384 	1399
f 1363 	1396 	1384
f 1412 	1400 	1464
f 1456 	1464 	1400
f 646 	1478 	647
f 1476 	647 	1478
f 1477 	1481 	1405
f 1405 	1416 	1477
f 702 	654 	621
f 1447 	1507 	1453
f 1446 	1507 	1447
f 1220 	224 	1472
f 1488 	1471 	1487
f 1480 	1479 	1476
f 1480 	1476 	1478
f 1483 	1484 	1485
f 1483 	1485 	1486
f 1237 	1482 	1455
f 1241 	1237 	1455
f 1405 	1481 	1408
f 1480 	652 	1479
f 651 	1479 	652
f 1471 	853 	1487
f 707 	705 	621
f 705 	703 	621
f 703 	702 	621
f 1485 	1484 	1593
f 1482 	1237 	1468
f 1473 	1468 	1237
f 1237 	1236 	1473
f 708 	707 	621
f 1475 	1460 	1477
f 1474 	1461 	1475
f 1477 	1460 	1481
f 1408 	1481 	1460
f 1594 	641 	644
f 1241 	1184 	1242
f 1489 	1490 	1474
f 1480 	1478 	652
f 646 	652 	1478
f 1482 	25 	1455
f 1450 	1455 	25
f 621 	821 	714
f 714 	708 	621
f 1486 	1485 	1593
f 1461 	1491 	1492
f 1466 	14 	1482
f 843 	1488 	1509
f 1493 	1494 	1495
f 1493 	1495 	1496
f 738 	687 	733
f 740 	687 	738
f 726 	687 	740
f 725 	687 	726
f 728 	687 	725
f 731 	687 	728
f 745 	687 	731
f 833 	687 	745
f 683 	733 	687
f 14 	1498 	1497
f 1498 	1499 	1497
f 1499 	1506 	1497
f 35 	1497 	1500
f 35 	1500 	1501
f 256 	34 	1501
f 1491 	1474 	1490
f 1461 	1474 	1491
f 1498 	1466 	1499
f 848 	846 	1503
f 848 	1503 	1504
f 452 	1255 	1492
f 452 	1492 	1491
f 452 	1491 	1490
f 1489 	452 	1490
f 1497 	42 	14
f 997 	893 	836
f 1502 	1496 	1495
f 42 	25 	14
f 154 	137 	1416
f 1416 	137 	1489
f 1500 	1497 	1506
f 1502 	1505 	1496
f 836 	672 	833
f 643 	1494 	1493
f 1507 	1503 	850
f 846 	850 	1503
f 753 	756 	1508
f 1515 	1508 	756
f 31 	33 	253
f 643 	642 	1494
f 1504 	1503 	1446
f 1507 	1446 	1503
f 1500 	1506 	226
f 1466 	226 	1506
f 1501 	1500 	226
f 621 	1390 	821
f 821 	1390 	847
f 1526 	1535 	1509
f 1573 	1574 	1514
f 1505 	1574 	1496
f 1506 	1499 	1466
f 1520 	1463 	1522
f 35 	43 	1497
f 861 	860 	1385
f 871 	861 	1392
f 853 	712 	1511
f 847 	1382 	860
f 643 	1493 	644
f 1513 	763 	1512
f 1505 	1502 	1514
f 1511 	1487 	853
f 857 	823 	1463
f 1514 	1502 	1516
f 918 	1002 	921
f 903 	1001 	918
f 893 	1006 	903
f 672 	836 	893
f 921 	1002 	912
f 687 	833 	672
f 1517 	1518 	1519
f 1513 	1515 	763
f 1514 	1516 	1521
f 1453 	1507 	1463
f 678 	1520 	1522
f 1514 	1521 	1523
f 1508 	1515 	1513
f 328 	1512 	763
f 156 	678 	859
f 1522 	859 	678
f 1517 	1519 	1523
f 850 	859 	1522
f 850 	1522 	1507
f 1522 	1463 	1507
f 943 	942 	934
f 843 	1525 	808
f 1519 	1518 	1524
f 1523 	1521 	1517
f 1285 	1282 	629
f 669 	1285 	629
f 857 	1463 	1520
f 158 	156 	1551
f 1002 	918 	1001
f 909 	912 	1003
f 1519 	1575 	1523
f 1514 	1523 	1573
f 801 	1418 	876
f 1527 	876 	1418
f 1530 	1532 	873
f 1530 	873 	872
f 1533 	1528 	1534
f 1527 	1530 	872
f 1527 	872 	876
f 1528 	1533 	1529
f 975 	982 	1202
f 1535 	1536 	1531
f 1536 	1538 	1531
f 1550 	1531 	1538
f 1537 	1539 	1540
f 1417 	1034 	1418
f 1418 	1322 	1527
f 1202 	1252 	975
f 1537 	1541 	1539
f 1530 	1527 	1532
f 1525 	1509 	1535
f 1534 	1541 	1533
f 753 	1149 	1552
f 1531 	1525 	1535
f 843 	1509 	1525
f 1552 	1149 	1542
f 1557 	1542 	1543
f 1552 	1510 	753
f 1006 	893 	997
f 1000 	903 	1006
f 1001 	903 	1000
f 1003 	912 	1002
f 939 	909 	1003
f 967 	1158 	1003
f 1392 	861 	1379
f 982 	971 	1202
f 971 	871 	1392
f 1546 	1547 	1544
f 1547 	60 	1544
f 1539 	1545 	1540
f 1537 	1533 	1541
f 1548 	1549 	1547
f 1549 	60 	1547
f 753 	1508 	1543
f 1413 	1411 	1131
f 1297 	934 	1121
f 644 	1493 	1537
f 1533 	1537 	1493
f 1529 	1533 	1493
f 1493 	1496 	1529
f 1515 	756 	1159
f 1130 	1402 	1131
f 1551 	131 	157
f 133 	157 	131
f 1411 	1398 	1131
f 1434 	1407 	1139
f 942 	1121 	934
f 1537 	1540 	644
f 1552 	1542 	1487
f 1488 	1487 	1542
f 274 	763 	271
f 271 	763 	349
f 1146 	1158 	1150
f 1156 	1150 	1158
f 967 	1156 	1158
f 1153 	1003 	1158
f 1152 	1003 	1153
f 1160 	1003 	1152
f 939 	1003 	1160
f 1488 	1542 	1509
f 1487 	1511 	1552
f 328 	763 	274
f 1511 	1510 	1552
f 1365 	688 	851
f 1365 	1570 	1554
f 1365 	1554 	688
f 1553 	1556 	1578
f 1542 	1558 	54
f 1557 	1558 	1542
f 248 	54 	1558
f 235 	60 	17
f 1554 	686 	688
f 477 	1512 	49
f 49 	1512 	114
f 380 	114 	1512
f 328 	380 	1512
f 1570 	1572 	1554
f 1554 	1560 	686
f 1558 	1557 	1513
f 690 	1561 	716
f 1139 	1245 	1434
f 248 	1558 	1513
f 1572 	1576 	1567
f 1434 	1245 	1319
f 1512 	248 	1513
f 690 	689 	1564
f 690 	1564 	1561
f 1560 	1554 	1572
f 1321 	1436 	1319
f 1567 	684 	686
f 977 	975 	1252
f 1560 	1567 	686
f 1567 	1560 	1572
f 1557 	1543 	1513
f 1316 	977 	1252
f 689 	684 	1564
f 1567 	1564 	684
f 1555 	1573 	1569
f 1327 	1316 	1252
f 1252 	1436 	1325
f 1569 	1573 	1568
f 1543 	1508 	1513
f 1529 	1555 	1528
f 1159 	1571 	1515
f 1570 	1365 	978
f 1571 	763 	1515
f 691 	1570 	978
f 1283 	763 	1571
f 1555 	1574 	1573
f 1159 	1157 	1571
f 1570 	691 	692
f 694 	1572 	1570
f 1526 	1509 	54
f 1542 	54 	1509
f 694 	1570 	692
f 808 	1525 	1446
f 1352 	621 	1357
f 1355 	1357 	621
f 1572 	694 	697
f 1575 	1568 	1573
f 699 	1572 	697
f 1555 	1529 	1574
f 621 	1340 	1377
f 1564 	1567 	1577
f 1505 	1514 	1574
f 699 	1576 	1572
f 621 	1356 	1355
f 1340 	621 	1348
f 1348 	621 	1352
f 1577 	1576 	699
f 1578 	1584 	1686
f 1519 	1686 	1584
f 92 	163 	82
f 165 	1504 	82
f 1446 	82 	1504
f 1573 	1523 	1575
f 1549 	198 	60
f 1529 	1496 	1574
f 54 	1535 	1526
f 1578 	1556 	1559
f 1056 	1053 	1055
f 1580 	1598 	1579
f 1561 	1597 	1580
f 1564 	1605 	1561
f 1588 	1579 	1582
f 1589 	1588 	1583
f 1055 	1589 	1583
f 1583 	710 	709
f 1562 	1584 	1563
f 1565 	1563 	1584
f 1382 	847 	1390
f 1385 	860 	1382
f 1585 	1586 	84
f 1377 	1390 	621
f 1379 	861 	1385
f 1202 	971 	1392
f 1565 	1578 	1566
f 1585 	1587 	1586
f 1584 	1562 	1568
f 1536 	1586 	1585
f 1579 	717 	716
f 1579 	716 	1580
f 1584 	1568 	1575
f 1582 	1583 	1588
f 1581 	1582 	1579
f 1578 	1559 	1566
f 901 	1430 	919
f 1433 	919 	1430
f 1579 	1588 	718
f 1579 	718 	717
f 1578 	1565 	1584
f 1586 	1446 	1585
f 1432 	173 	919
f 84 	1637 	1585
f 1588 	1589 	719
f 1588 	719 	718
f 1531 	1550 	1585
f 716 	1561 	1580
f 1432 	919 	1433
f 174 	919 	172
f 173 	172 	919
f 1536 	1585 	1538
f 1585 	1587 	1538
f 1636 	1538 	1587
f 1519 	1584 	1575
f 582 	719 	1589
f 621 	870 	813
f 621 	813 	822
f 621 	822 	1356
f 1589 	1055 	1053
f 1446 	1525 	1531
f 1486 	1591 	1483
f 1590 	1483 	1591
f 1592 	1590 	1591
f 1592 	1591 	1593
f 1531 	1585 	1446
f 711 	710 	1582
f 1484 	1592 	1593
f 1582 	1581 	711
f 621 	874 	870
f 814 	813 	870
f 644 	1595 	1594
f 1587 	1585 	1550
f 1583 	1582 	710
f 1593 	1591 	1486
f 1596 	1564 	1577
f 1576 	1577 	1567
f 1605 	1564 	1596
f 1598 	1580 	1597
f 1581 	1579 	1598
f 870 	895 	814
f 723 	1577 	699
f 1598 	727 	711
f 1601 	1602 	1603
f 1581 	1598 	711
f 908 	919 	910
f 1189 	1430 	901
f 915 	910 	919
f 915 	919 	174
f 1596 	1577 	723
f 1603 	1604 	1601
f 732 	1596 	723
f 1546 	1544 	202
f 1597 	1561 	1605
f 1483 	1590 	874
f 1606 	1607 	1604
f 1606 	1604 	1603
f 732 	1605 	1596
f 1608 	1609 	1607
f 1608 	1607 	1606
f 1608 	1610 	1609
f 1597 	1605 	732
f 1597 	732 	736
f 1597 	736 	727
f 1611 	1610 	1608
f 1599 	109 	1600
f 727 	1598 	1597
f 1611 	1612 	1610
f 1430 	1189 	1428
f 1428 	1189 	1210
f 1206 	1210 	1193
f 1193 	1210 	1189
f 1193 	1200 	1206
f 1614 	1652 	1615
f 1600 	1550 	1538
f 1600 	1538 	1599
f 1612 	1611 	1540
f 751 	742 	1613
f 1612 	1540 	1545
f 743 	1613 	742
f 1249 	1206 	1200
f 1590 	286 	1186
f 1186 	874 	1590
f 1200 	1186 	286
f 1325 	1327 	1252
f 743 	1615 	1613
f 1249 	1200 	286
f 744 	1614 	1615
f 640 	629 	1282
f 644 	1611 	1595
f 1602 	1595 	1603
f 1615 	743 	744
f 1504 	1551 	848
f 76 	1536 	1535
f 1603 	1595 	1606
f 1288 	640 	1281
f 1614 	744 	746
f 1606 	1595 	1608
f 1540 	1611 	644
f 1297 	1121 	1290
f 1608 	1595 	1611
f 1613 	770 	751
f 76 	1617 	1616
f 1586 	1536 	1616
f 76 	1616 	1536
f 640 	1288 	1302
f 1302 	1301 	640
f 1616 	1446 	1586
f 1617 	1446 	1616
f 1282 	1281 	640
f 1625 	1626 	1675
f 1626 	1635 	1675
f 1674 	1675 	1635
f 1386 	640 	1383
f 1621 	758 	757
f 1618 	1617 	1637
f 1287 	1383 	640
f 1620 	1622 	1619
f 1624 	761 	1625
f 1618 	1617 	76
f 1624 	762 	761
f 1301 	1287 	640
f 1470 	640 	1386
f 1618 	1446 	1617
f 1623 	1621 	757
f 1627 	1628 	1629
f 762 	1623 	757
f 1629 	1630 	1627
f 1622 	1620 	1628
f 1627 	1622 	1628
f 1402 	1130 	1407
f 1401 	1131 	1402
f 1289 	1290 	1131
f 1397 	1289 	1131
f 1398 	1397 	1131
f 1121 	1131 	1290
f 1413 	1131 	1401
f 1139 	1407 	1130
f 762 	1624 	1623
f 1626 	1625 	761
f 1553 	1631 	1632
f 1626 	761 	766
f 1631 	1633 	1632
f 1617 	84 	1616
f 1586 	1616 	84
f 767 	1626 	766
f 1633 	1634 	1632
f 1321 	1325 	1436
f 1613 	1674 	1635
f 1633 	1630 	1634
f 1617 	1616 	1636
f 1616 	1586 	1636
f 1587 	1636 	1586
f 1252 	286 	1436
f 1635 	1626 	767
f 1630 	1629 	1634
f 1441 	1436 	286
f 1553 	1578 	1631
f 1635 	767 	770
f 1636 	1587 	1637
f 1587 	1585 	1637
f 66 	107 	1627
f 1613 	1635 	770
f 1622 	1627 	107
f 295 	758 	1621
f 71 	67 	1630
f 1465 	1462 	640
f 1439 	286 	1454
f 1630 	1633 	71
f 77 	71 	1633
f 1458 	286 	1462
f 1459 	1454 	286
f 1439 	1441 	286
f 1688 	1691 	1578
f 1470 	1465 	640
f 1458 	1459 	286
f 1637 	1617 	1636
f 1631 	1690 	1633
f 640 	1462 	286
f 1538 	1636 	1637
f 1252 	1249 	286
f 1434 	1319 	1436
f 1484 	1483 	1479
f 1637 	1636 	1550
f 1587 	1550 	1636
f 1640 	1638 	1639
f 1479 	1483 	1476
f 1483 	874 	1476
f 621 	647 	874
f 1641 	1638 	1640
f 641 	1594 	1484
f 641 	1484 	1479
f 641 	1479 	651
f 1642 	1643 	1644
f 1494 	642 	1495
f 1601 	1643 	1642
f 1600 	177 	1599
f 642 	1502 	1495
f 787 	786 	1675
f 1643 	1646 	1644
f 1602 	1601 	1642
f 1544 	267 	202
f 1502 	642 	1516
f 1648 	1640 	1647
f 1641 	1640 	1648
f 1647 	1649 	1648
f 1547 	1546 	216
f 617 	1517 	642
f 1521 	642 	1517
f 1521 	1516 	642
f 617 	288 	1518
f 1517 	617 	1518
f 1649 	1594 	1595
f 1649 	1595 	1650
f 216 	1548 	1547
f 792 	128 	83
f 1649 	1650 	1648
f 1645 	109 	1599
f 1528 	1539 	1534
f 1541 	1534 	1539
f 1528 	1555 	1539
f 1642 	1644 	1648
f 1602 	1642 	1595
f 1641 	1648 	1644
f 1595 	1642 	1648
f 1634 	1629 	1609
f 1609 	1610 	1634
f 91 	1600 	1599
f 91 	1599 	1645
f 1559 	1556 	1610
f 1599 	1538 	1645
f 1658 	1645 	1538
f 788 	1657 	789
f 1644 	1672 	1641
f 91 	127 	1600
f 1563 	1565 	1610
f 1565 	1566 	1610
f 1566 	1559 	1610
f 1556 	1553 	1610
f 1553 	1632 	1610
f 1632 	1634 	1610
f 1595 	1648 	1650
f 1651 	1639 	1638
f 165 	163 	1551
f 1614 	1678 	1662
f 1652 	1659 	1615
f 1484 	1594 	1592
f 1594 	286 	1592
f 1504 	165 	1551
f 1590 	1592 	286
f 1655 	1682 	1654
f 1652 	777 	790
f 1624 	1625 	1670
f 1623 	1624 	1670
f 1659 	1657 	1613
f 1674 	1613 	1657
f 1629 	1628 	1609
f 1562 	1563 	1610
f 1610 	1612 	1562
f 1568 	1562 	1612
f 1569 	1568 	1612
f 1612 	1545 	1569
f 1545 	1539 	1569
f 1555 	1569 	1539
f 1658 	177 	96
f 1613 	1615 	1659
f 789 	1659 	790
f 81 	84 	1618
f 1604 	1607 	1620
f 1628 	1620 	1607
f 1607 	1609 	1628
f 1643 	1601 	1620
f 1619 	1643 	1620
f 1601 	1604 	1620
f 1659 	1652 	790
f 1679 	1677 	1678
f 1652 	1614 	1662
f 778 	777 	1652
f 81 	1618 	1667
f 1637 	1667 	1618
f 1652 	1662 	778
f 1649 	1647 	1640
f 1649 	1640 	286
f 76 	81 	1618
f 286 	1594 	1649
f 82 	1446 	81
f 1618 	81 	1446
f 1639 	286 	1640
f 1676 	1664 	1619
f 1639 	1651 	286
f 1658 	96 	109
f 1657 	1659 	789
f 1654 	117 	286
f 96 	91 	1658
f 1645 	1658 	91
f 170 	508 	126
f 778 	1666 	792
f 1656 	286 	1653
f 1662 	1678 	1666
f 96 	1658 	118
f 1538 	118 	1658
f 1619 	1622 	1676
f 1662 	1666 	778
f 1617 	1618 	84
f 1660 	1643 	1663
f 1661 	1643 	1660
f 1664 	1663 	1643
f 1646 	1643 	1665
f 1661 	1665 	1643
f 1619 	1664 	1643
f 1653 	286 	1651
f 1682 	117 	1654
f 1637 	84 	1667
f 1660 	1668 	1669
f 1655 	1654 	286
f 117 	115 	286
f 1656 	1655 	286
f 84 	127 	1667
f 1669 	1661 	1660
f 1670 	1671 	1621
f 295 	1621 	1671
f 1672 	1661 	1669
f 1670 	786 	1671
f 785 	1671 	786
f 1660 	1673 	1668
f 1675 	1670 	1625
f 1621 	1623 	1670
f 1664 	1676 	1663
f 787 	1675 	1674
f 1676 	1673 	1663
f 1667 	127 	81
f 91 	81 	127
f 1667 	118 	1637
f 1672 	1665 	1661
f 1675 	786 	1670
f 1538 	1637 	118
f 127 	118 	1667
f 787 	1674 	788
f 1660 	1663 	1673
f 1637 	1550 	1667
f 508 	496 	1671
f 1672 	1646 	1665
f 127 	1667 	1600
f 1550 	1600 	1667
f 785 	514 	1671
f 1646 	1672 	1644
f 76 	1535 	54
f 1657 	788 	1674
f 119 	1682 	1673
f 1673 	1681 	1668
f 1683 	1680 	1668
f 1677 	1679 	128
f 1666 	1678 	1677
f 128 	792 	1677
f 1645 	1599 	177
f 1658 	1645 	177
f 1638 	1672 	1680
f 1548 	199 	1549
f 198 	1549 	199
f 792 	1666 	1677
f 1673 	1676 	119
f 1546 	202 	209
f 1679 	98 	128
f 98 	99 	128
f 1678 	1614 	746
f 216 	1546 	209
f 1638 	1641 	1672
f 1678 	746 	794
f 1548 	216 	199
f 1679 	1678 	794
f 1679 	794 	799
f 107 	112 	1622
f 799 	98 	1679
f 1653 	1651 	1680
f 799 	93 	98
f 1658 	109 	1645
f 1681 	1682 	1655
f 890 	86 	102
f 1655 	1656 	1681
f 1683 	1681 	1656
f 100 	94 	890
f 1683 	1656 	1653
f 890 	102 	100
f 1551 	163 	131
f 1683 	1653 	1680
f 1680 	1651 	1638
f 128 	898 	83
f 117 	1682 	119
f 897 	898 	128
f 128 	55 	897
f 1681 	1673 	1682
f 1683 	1668 	1681
f 1669 	1680 	1672
f 1669 	1668 	1680
f 10 	7 	1684
f 10 	1684 	1685
f 87 	10 	1685
f 87 	1685 	1695
f 1519 	1524 	1686
f 1686 	1524 	16
f 52 	1686 	16
f 1684 	1711 	1685
f 52 	1687 	1686
f 56 	1687 	52
f 56 	1688 	1687
f 59 	58 	1689
f 1689 	58 	65
f 1689 	65 	1690
f 59 	1688 	56
f 59 	1689 	1691
f 59 	1691 	1688
f 78 	1690 	65
f 1690 	78 	77
f 1631 	1578 	1691
f 1686 	1687 	1578
f 1688 	1578 	1687
f 77 	1633 	1690
f 1689 	1690 	1631
f 1691 	1689 	1631
f 1692 	1693 	79
f 1693 	80 	79
f 1694 	1692 	79
f 1694 	79 	85
f 1694 	85 	87
f 1694 	87 	1695
f 1696 	90 	89
f 1693 	1696 	89
f 51 	90 	1697
f 90 	1696 	1697
f 80 	1693 	89
f 51 	1697 	61
f 1710 	1709 	1693
f 1693 	1692 	1710
f 1692 	1694 	1710
f 1695 	1711 	1694
f 1685 	1711 	1695
f 175 	1698 	1684
f 7 	175 	1684
f 180 	1703 	1699
f 181 	180 	1699
f 181 	1699 	1700
f 1698 	175 	182
f 1698 	182 	184
f 1698 	184 	1701
f 1701 	184 	185
f 1701 	185 	1702
f 1702 	185 	181
f 1702 	181 	1700
f 1701 	1702 	1706
f 1705 	1706 	1702
f 1700 	1705 	1702
f 1699 	1707 	1700
f 180 	188 	1703
f 1703 	188 	215
f 197 	1704 	1713
f 570 	1713 	1704
f 212 	1707 	213
f 211 	1706 	212
f 1705 	212 	1706
f 1705 	1707 	212
f 210 	1706 	211
f 1705 	1700 	1707
f 1706 	1712 	1698
f 1684 	1698 	1712
f 1698 	1701 	1706
f 1708 	214 	213
f 1708 	213 	1707
f 1708 	47 	214
f 204 	151 	1709
f 1709 	205 	204
f 205 	1709 	1710
f 205 	1710 	206
f 1710 	207 	206
f 1710 	1711 	207
f 1711 	208 	207
f 1711 	1712 	208
f 1712 	210 	208
f 1712 	1706 	210
f 1703 	47 	1708
f 1707 	1703 	1708
f 151 	1696 	1709
f 1697 	1696 	151
f 1696 	1693 	1709
f 1710 	1694 	1711
f 1684 	1712 	1711
f 215 	217 	1703
f 1703 	217 	218
f 1713 	1703 	218
f 218 	197 	1713
f 222 	144 	143
f 144 	222 	40
f 46 	220 	219
f 46 	219 	47
f 221 	41 	40
f 221 	40 	222
f 46 	41 	221
f 46 	221 	220
f 219 	214 	47
f 40 	41 	570
f 144 	40 	570
f 1713 	570 	41
f 41 	46 	1713
f 46 	47 	1713
f 1703 	1713 	47
f 1703 	1707 	1699
# 3512 faces

 #end of obj_0

