# Object Export From Tinkercad Server 2015

mtllib obj.mtl

o obj_0
v -60 		36 		4
v -60 		36 		0
v 41.623 		24.155 		4
v 48.076 		27.742 		1.96
v 42.011 		23.424 		4
v 41.828 		23.728 		4
v 47.934 		22.227 		3.49
v 48.773 		22.143 		4
v 48.3 		22.438 		3.49
v 48.375 		21.886 		4
v 46.298 		22.026 		3.235
v -47.237 		-14.185 		1.45
v 47.954 		21.67 		4
v -60 		-36 		0
v -60 		-36 		4
v 44.828 		21.398 		4
v 44.487 		21.497 		4
v -49.052 		-12.362 		4
v -47.582 		-13.8 		1.96
v 56 		-40 		0
v 56 		-40 		4
v 43.833 		21.773 		4
v -43.924 		27.742 		1.96
v 43.227 		22.143 		4
v -42.948 		22.362 		4
v -43.325 		22.077 		4
v -44.828 		21.398 		4
v 43.807 		-15.836 		1.45
v -56 		-40 		4
v -56 		-40 		0
v -49.108 		-13.116 		3.49
v -44.066 		22.227 		3.49
v -44.451 		22.053 		3.49
v 47.239 		27.817 		1.45
v -44.156 		21.624 		4
v 59.797 		37.254 		0
v -47.115 		-13.53 		1.96
v 59.923 		36.78 		0
v 59.528 		37.886 		0
v 59.696 		37.531 		0
v 46.825 		21.322 		4
v 59.213 		38.383 		0
v 59.326 		38.222 		0
v -43.833 		21.773 		4
v 47.148 		21.918 		3.49
v 47.513 		21.497 		4
v -43.7 		22.438 		3.49
v 57.439 		39.731 		0
v 57.71 		39.616 		0
v 58.222 		39.326 		0
v 58.383 		39.213 		0
v 58.686 		38.964 		0
v 58.828 		38.828 		0
v 59.028 		38.612 		0
v 47.172 		21.398 		4
v 59.969 		36.489 		0
v 60 		36 		0
v 56.587 		39.957 		0
v 56.972 		39.88 		0
v 47.496 		27.612 		1.45
v 56 		40 		0
v 57.161 		39.828 		0
v 42.948 		22.362 		4
v 37 		36.2 		0
v 47.649 		27.455 		1.45
v 44.046 		21.67 		4
v 45.409 		21.287 		4
v 45.763 		21.257 		4
v 47.786 		27.284 		1.45
v -44.487 		21.497 		4
v 45.057 		21.866 		3.49
v 56.2 		24 		0
v 51.8 		24 		0
v 46.237 		21.257 		4
v 47.905 		27.1 		1.45
v 56.2 		8 		4
v 51.8 		8 		4
v 43.008 		28.672 		0
v 48.045 		26.803 		1.45
v 47.239 		27.817 		0
v 40.96 		15.4769 		4
v 40.981 		15.555 		4
v 41 		15.75 		4
v 47.496 		27.612 		0
v 47.649 		27.455 		0
v 47.786 		27.284 		0
v 47.905 		27.1 		0
v 47.982 		26.955 		0
v 40 		14.75 		4
v 48.067 		26.752 		0
v 40.1765 		14.7688 		4
v 40.36 		14.817 		4
v 40.493 		14.88 		4
v 40.689 		15.026 		4
v 40.87 		15.257 		4
v 40.949 		15.436 		4
v 48.102 		26.648 		0
v 45.196 		28.048 		0
v 43.869 		23.586 		2.47
v -48.015 		-15.121 		1.45
v 45.457 		28.131 		0
v 40.147 		14.761 		4
v 45.672 		28.175 		0
v 45.836 		28.194 		0
v 46.055 		28.199 		0
v -44.764 		28.412 		1.96
v 46.164 		28.194 		0
v 46.328 		28.175 		0
v 35 		15.75 		4
v 35.007 		15.64 		4
v 35.0816 		15.3615 		4
v 35.13 		15.257 		4
v 35.243 		15.097 		4
v 35.507 		14.88 		4
v 35.629 		14.822 		4
v 35.805 		14.769 		4
v 36 		14.75 		4
v 46.543 		28.131 		0
v 46.804 		28.048 		0
v 46.905 		28.005 		0
v -47.769 		-14.695 		1.45
v -47.905 		-14.9 		1.45
v 47.1 		27.905 		0
v 48.189 		25.781 		0
v 35.068 		15.391 		4
v 48.199 		25.945 		0
v 48.156 		25.564 		0
v 43.293 		-15.865 		1.96
v 48.102 		25.352 		0
v 43.32 		-15.596 		1.96
v 48.38 		27.296 		1.96
v 48.067 		25.248 		0
v 7.4 		31.8 		4
v 22.2 		31.8 		4
v 47.932 		24.948 		0
v 22.2 		36.2 		4
v 7.4 		36.2 		4
v 47.818 		24.761 		0
v 56.2 		-8 		4
v 44.974 		22.948 		2.47
v 50.747 		-15.882 		4
v 48.156 		26.436 		0
v 49.317 		-12.6 		4
v 49.639 		-12.947 		4
v 48.189 		26.219 		0
v 49.989 		-13.424 		4
v 43.898 		26.648 		0
v 50.172 		-13.728 		4
v -47.515 		-14.407 		1.45
v 50.676 		-15.175 		4
v 50.726 		-15.527 		4
v 43.933 		26.752 		0
v 50.377 		-14.155 		4
v 43.995 		26.905 		0
v 44.095 		27.1 		0
v 44.246 		27.328 		0
v 50.603 		-14.828 		4
v 50.539 		-14.6 		4
v 44.387 		27.496 		0
v 51.8 		-8 		4
v 44.544 		27.65 		0
v 51.5974 		-16.384 		4
v 44.628 		27.72 		0
v 44.761 		27.817 		0
v 45.046 		27.982 		0
v 45.882 		-11.251 		4
v 46.237 		-11.257 		4
v 45.645 		-11.263 		4
v 40.96 		28.0224 		0
v 40.966 		28.005 		0
v 41 		27.75 		0
v 46.591 		-11.287 		4
v 46.825 		-11.322 		4
v 47.172 		-11.398 		4
v 47.513 		-11.497 		4
v 44.182 		24.761 		0
v 44.068 		24.948 		0
v 43.933 		25.248 		0
v 46.328 		28.175 		1.45
v 47.954 		-11.67 		4
v 43.898 		25.352 		0
v 48.375 		-11.886 		4
v 43.844 		25.564 		0
v 48.773 		-12.143 		4
v 43.811 		25.781 		0
v 43.807 		-16.164 		0
v 46.622 		28.108 		1.45
v 43.801 		25.945 		0
v 43.811 		26.219 		0
v 43.325 		-12.077 		4
v 43.807 		-15.836 		0
v 43.625 		-11.886 		4
v 44.487 		-11.497 		4
v 43.844 		26.436 		0
v 44.973 		24.057 		1.45
v 44.828 		-11.398 		4
v 40.96 		-12.0371 		4
v -48.442 		-14.824 		1.96
v -48.16 		-14.364 		1.96
v 35.6161 		28.672 		0
v 35.64 		28.683 		0
v 36 		28.75 		0
v 40 		28.75 		0
v 40.195 		28.731 		0
v 40.3441 		28.6876 		0
v 49.052 		-12.362 		4
v 46.953 		27.979 		1.45
v 44.695 		24.231 		1.45
v 40.36 		28.683 		0
v 40.3839 		28.672 		0
v 41.58 		-14.265 		4
v 41.72 		-13.939 		4
v 37 		31.8 		0
v 42.214 		-13.132 		4
v 42.601 		-12.684 		4
v 35 		27.75 		0
v 35.034 		28.005 		0
v 35.082 		28.144 		0
v 35.183 		28.326 		0
v 35.277 		28.439 		0
v 35.395 		28.545 		0
v 42.011 		-13.424 		4
v 35.54 		28.637 		0
v 40.46 		28.637 		0
v 40.605 		28.545 		0
v 40.723 		28.439 		0
v 40.844 		28.284 		0
v 40.918 		28.144 		0
v 42.948 		-12.362 		4
v 41.253 		-16.118 		4
v -48.547 		-15.073 		1.96
v 41.256 		-15.763 		4
v 41.274 		-15.527 		4
v 41.324 		-15.175 		4
v 41.397 		-14.828 		4
v 41.461 		-14.6 		4
v 46.471 		28.669 		1.96
v 44.504 		24.388 		1.45
v 56.2 		-24 		4
v 51.8 		-24 		4
v 50.726 		-16.473 		4
v 47.649 		24.545 		0
v 50.539 		-17.4 		4
v 50.377 		-17.845 		4
v 47.496 		24.388 		0
v 50.676 		-16.825 		4
v 47.372 		24.28 		0
v 46.99 		28.523 		1.96
v -48.193 		-16.164 		1.45
v 49.989 		-18.576 		4
v 49.639 		-19.053 		4
v 47.194 		24.152 		0
v 50.172 		-18.272 		4
v 46.734 		28.609 		1.96
v 50.603 		-17.172 		4
v 46.954 		24.018 		0
v -48.197 		-15.918 		1.45
v 46.804 		23.952 		0
v 49.317 		-19.4 		4
v 46.701 		23.915 		0
v 44.351 		24.545 		1.45
v 46.49 		23.855 		0
v 46.164 		23.806 		0
v 46.055 		23.801 		0
v 45.836 		23.806 		0
v 49.052 		-19.638 		4
v 45.51 		23.855 		0
v 48.773 		-19.857 		4
v 48.375 		-20.114 		4
v -48.142 		-15.511 		1.45
v 47.954 		-20.33 		4
v 45.299 		23.915 		0
v 45.196 		23.952 		0
v 45.457 		28.131 		1.45
v 41.774 		-18.166 		4
v 41.397 		-17.172 		4
v 41.324 		-16.825 		4
v 41.623 		-17.845 		4
v 45.046 		24.018 		0
v 44.806 		24.152 		0
v 41.461 		-17.4 		4
v 45.672 		28.175 		1.45
v 44.628 		24.28 		0
v 44.504 		24.388 		0
v 41.274 		-16.473 		4
v 44.351 		24.545 		0
v 43.625 		-20.114 		4
v 43.227 		-19.857 		4
v 42.948 		-19.638 		4
v 44.046 		-20.33 		4
v 46 		28.197 		1.45
v -44.739 		27.801 		1.45
v 42.214 		-18.868 		4
v 42.011 		-18.576 		4
v 51.8 		8 		0
v 56.2 		8 		0
v 42.601 		-19.316 		4
v 60 		0 		0
v -44.108 		27.94 		1.96
v 47.513 		-20.503 		4
v 45.409 		-20.713 		4
v 44.828 		-20.602 		4
v 41 		15.75 		0
v 40.989 		15.603 		0
v 47.172 		-20.602 		4
v 46.825 		-20.678 		4
v 40.96 		15.4819 		0
v 45.763 		-20.743 		4
v 46.237 		-20.743 		4
v 40.9364 		15.4075 		0
v 40.87 		15.257 		0
v 40.787 		15.136 		0
v 40.689 		15.026 		0
v 40.493 		14.88 		0
v 40.36 		14.817 		0
v 40.207 		14.772 		0
v 40 		14.75 		0
v 44.487 		-20.503 		4
v 40.949 		15.436 		0
v 45.397 		28.642 		1.96
v -46.08 		22.781 		2.47
v 37 		-31.8 		4
v -44.446 		27.554 		1.45
v 37 		-36.2 		4
v 56.294 		-39.988 		4
v 56.587 		-39.957 		4
v 56.972 		-39.88 		4
v 57.531 		-39.696 		4
v 57.886 		-39.528 		4
v 58.383 		-39.213 		4
v 58.828 		-38.828 		4
v 59.213 		-38.383 		4
v 59.326 		-38.222 		4
v 59.616 		-37.71 		4
v 59.696 		-37.531 		4
v 59.902 		-36.876 		4
v 59.957 		-36.587 		4
v 60 		-36 		4
v 7.4 		-36.2 		4
v 36 		14.75 		0
v 35.769 		14.778 		0
v 35.59 		14.84 		0
v 35.4822 		14.9004 		0
v 35.243 		15.097 		0
v 35.13 		15.257 		0
v 44.418 		23.8 		1.96
v 35.068 		15.391 		0
v 22.2 		-36.2 		4
v 35.016 		15.585 		0
v 35 		15.75 		0
v 22.2 		-31.8 		4
v 7.4 		-31.8 		4
v -7.4 		36.2 		4
v -22.2 		36.2 		4
v -7.4 		31.8 		4
v 35.424 		14.933 		0
v 35.366 		14.977 		0
v 35.311 		15.026 		0
v -22.2 		28.8445 		4
v -22.361 		29.053 		4
v -22.77 		29.481 		4
v -23.038 		29.714 		4
v -23.906 		30.2607 		4
v -24.156 		30.376 		4
v -24.487 		30.503 		4
v -24.576 		30.5288 		4
v -23.4022 		29.9692 		4
v -23.833 		30.227 		4
v -23.325 		29.923 		4
v -45.353 		23.901 		1.45
v 7.4 		31.8 		0
v 22.2 		31.8 		0
v -45.781 		23.814 		1.45
v 7.4 		36.2 		0
v 22.2 		36.2 		0
v 56.2 		-8 		0
v 51.8 		-8 		0
v -22.2 		31.8 		4
v -22.0808 		28.672 		4
v -22.144 		28.772 		4
v 44.013 		24.157 		1.96
v 47.284 		-14.214 		0
v -44.217 		27.282 		1.45
v -21.2926 		26.624 		4
v -21.303 		26.708 		4
v 49.077 		25.051 		2.47
v -21.371 		27.057 		4
v -21.461 		27.4 		4
v -21.672 		27.953 		4
v -21.828 		28.272 		4
v 45.196 		-13.952 		0
v 45.457 		-13.869 		0
v -21.4702 		24.576 		4
v -21.461 		24.6 		4
v -21.371 		24.943 		4
v 45.618 		-13.833 		0
v -21.303 		25.292 		4
v -21.256 		25.763 		4
v -21.253 		26.118 		4
v -21.274 		26.473 		4
v 45.836 		-13.806 		0
v -43.998 		26.903 		1.45
v 46.055 		-13.801 		0
v -46.219 		23.814 		1.45
v 46.164 		-13.806 		0
v 46.382 		-13.833 		0
v 43.844 		-15.564 		0
v 46.701 		-13.915 		0
v 46.804 		-13.952 		0
v 47.004 		-14.042 		0
v 47.1 		-14.095 		0
v 48.175 		-16.328 		0
v 48.197 		-16.11 		0
v -25.5021 		30.72 		4
v -25.645 		30.737 		4
v -26.0483 		30.7474 		4
v -26.355 		30.737 		4
v -26.4904 		30.72 		4
v -26 		30.749 		4
v 47.496 		-14.388 		0
v 47.613 		-14.504 		0
v 47.754 		-14.672 		0
v 47.818 		-14.761 		0
v -24.6947 		30.5633 		4
v -25.292 		30.695 		4
v -26.624 		30.7032 		4
v 47.905 		-14.9 		0
v 48.005 		-15.095 		0
v 48.067 		-15.248 		0
v 48.198 		25.973 		1.45
v -24.828 		30.602 		4
v 48.102 		-15.352 		0
v 48.163 		25.619 		1.45
v 48.144 		-15.511 		0
v 48.189 		-15.781 		0
v 48.197 		-15.89 		0
v -46.543 		23.869 		1.45
v -26.825 		30.678 		4
v -27.172 		30.602 		4
v 44.761 		-14.183 		0
v -27.513 		30.503 		4
v -27.844 		30.376 		4
v -28.0355 		30.2877 		4
v -28.167 		30.227 		4
v -28.476 		30.052 		4
v 44.996 		-14.042 		0
v -48.707 		-16.135 		1.96
v -48.68 		-15.596 		1.96
v 48.163 		26.381 		1.45
v 43.868 		-15.457 		0
v 43.898 		-15.352 		0
v 43.933 		-15.248 		0
v -43.62 		27.296 		1.96
v 44.032 		-15.022 		0
v 44.153 		-14.807 		0
v 44.281 		-14.629 		0
v 48.697 		25.73 		1.96
v 51.8 		-24 		0
v 56.2 		-24 		0
v -43.503 		27.053 		1.96
v 48.156 		-16.436 		0
v 41.891 		-14.954 		3.49
v 48.102 		-16.648 		0
v -48.175 		-16.328 		0
v 41.765 		-16.211 		3.49
v 48.067 		-16.752 		0
v 48.005 		-16.905 		0
v -48.197 		-16.11 		0
v -43.41 		26.799 		1.96
v 48.656 		26.537 		1.96
v 47.905 		-17.1 		0
v 47.818 		-17.239 		0
v -48.193 		-15.836 		0
v 48.697 		26.27 		1.96
v -48.175 		-15.672 		0
v 47.754 		-17.328 		0
v 43.84 		24.364 		1.96
v 47.613 		-17.496 		0
v -48.156 		-15.564 		0
v -48.102 		-15.352 		0
v 47.434 		-17.666 		0
v 47.239 		-17.817 		0
v -48.047 		-15.196 		0
v -47.932 		-14.948 		0
v 46.954 		-17.982 		0
v -44.9 		27.905 		0
v 46.804 		-18.048 		0
v -47.877 		-14.853 		0
v 46.543 		-18.131 		0
v -44.628 		27.72 		0
v 46.382 		-18.167 		0
v -47.818 		-14.761 		0
v 46.164 		-18.194 		0
v -44.544 		27.65 		0
v 46.055 		-18.199 		0
v 48.085 		25.3 		1.45
v 45.945 		-18.199 		0
v -44.387 		27.496 		0
v 45.836 		-18.194 		0
v -47.685 		-14.586 		0
v -44.315 		27.414 		0
v 45.618 		-18.167 		0
v 45.457 		-18.131 		0
v -44.246 		27.328 		0
v -47.574 		-14.464 		0
v 45.196 		-18.048 		0
v -44.123 		27.147 		0
v 47.955 		24.998 		1.45
v -44.043 		27.003 		0
v -51.8 		-8 		0
v -51.8 		-8 		4
v -56.2 		-8 		4
v -56.2 		-8 		0
v -43.953 		26.804 		0
v -43.898 		26.648 		0
v 45.046 		-17.982 		0
v 41.765 		-15.789 		3.49
v 44.761 		-17.817 		0
v -51.8 		-16.384 		4
v 44.566 		-17.666 		0
v 47.786 		24.716 		1.45
v 44.387 		-17.496 		0
v -42.469 		25.286 		2.853
v -41.288 		25.41 		4
v -50.235 		-16.211 		3.49
v 44.246 		-17.328 		0
v 44.182 		-17.239 		0
v -41.461 		24.6 		4
v 44.123 		-17.147 		0
v -50.603 		-14.828 		4
v -50.676 		-15.175 		4
v 44.018 		-16.955 		0
v -41.76 		26 		3.49
v -50.747 		-16.118 		4
v -41.253 		25.882 		4
v 43.933 		-16.752 		0
v 43.898 		-16.648 		0
v -50.235 		-15.789 		3.49
v 43.856 		-16.489 		0
v -50.539 		-14.6 		4
v 42.016 		24.55 		3.49
v -50.744 		-15.763 		4
v -41.371 		24.943 		4
v -50.726 		-15.527 		4
v -42.923 		25.051 		2.47
v 42.892 		23.116 		3.49
v 42.683 		22.6 		4
v 37 		-31.8 		0
v 42.361 		22.947 		4
v 37 		-36.2 		0
v 42.214 		23.132 		4
v 60 		-36 		0
v 59.957 		-36.587 		0
v 59.88 		-36.972 		0
v 59.696 		-37.531 		0
v 59.616 		-37.71 		0
v 59.326 		-38.222 		0
v 59.213 		-38.383 		0
v 58.828 		-38.828 		0
v 58.383 		-39.213 		0
v 57.886 		-39.528 		0
v 57.531 		-39.696 		0
v 57.254 		-39.797 		0
v 56.972 		-39.88 		0
v 56.587 		-39.957 		0
v -41.265 		26.355 		4
v -49.786 		-13.132 		4
v 7.4 		-36.2 		0
v 22.2 		-36.2 		0
v -41.781 		26.422 		3.49
v -50.053 		-13.523 		4
v 7.4 		-31.8 		0
v 22.2 		-31.8 		0
v -50.377 		-14.155 		4
v -7.4 		36.2 		0
v -22.2 		36.2 		0
v -7.4 		31.8 		0
v 48.656 		25.463 		1.96
v -50.226 		-13.834 		4
v -42.78 		26 		2.47
v -22.2 		31.8 		0
v -49.56 		-12.858 		4
v -24.576 		27.6757 		0
v -24.4573 		27.5651 		0
v -24.315 		27.414 		0
v -24.153 		27.193 		0
v -24.018 		26.955 		0
v -23.898 		26.648 		0
v -23.8911 		26.624 		0
v -49.317 		-12.6 		4
v -24.426 		27.536 		0
v -41.623 		-17.845 		4
v -41.324 		-16.825 		4
v -41.274 		-16.473 		4
v 48.38 		24.704 		1.96
v -41.948 		-17.25 		3.49
v -41.828 		-18.272 		4
v -41.397 		-17.172 		4
v -23.868 		26.543 		0
v -23.8418 		26.4217 		0
v -42.923 		-16.949 		2.47
v -23.811 		26.219 		0
v -23.8 		26 		0
v -23.811 		25.781 		0
v -23.8333 		25.6343 		0
v -23.883 		25.404 		0
v -23.9485 		25.2154 		0
v -24.068 		24.948 		0
v -24.246 		24.672 		0
v -24.315 		24.586 		0
v -24.3243 		24.576 		0
v -23.844 		25.564 		0
v -23.973 		25.145 		0
v -24.018 		25.045 		0
v -41.461 		-17.4 		4
v 48.497 		24.947 		1.96
v -46.853 		23.976 		1.45
v -23.844 		26.436 		0
v 42.88 		-15.205 		2.47
v -43.752 		-18.305 		2.47
v -43.34 		-17.814 		2.47
v -26.624 		28.1062 		0
v -26.543 		28.131 		0
v -26.382 		28.167 		0
v -26.11 		28.197 		0
v -25.945 		28.199 		0
v -25.726 		28.183 		0
v -25.618 		28.167 		0
v -25.457 		28.131 		0
v -25.248 		28.067 		0
v -25.042 		27.9779 		0
v -24.9 		27.905 		0
v -24.716 		27.786 		0
v -24.586 		27.685 		0
v -24.996 		27.958 		0
v 43.252 		27.679 		2.47
v -28.1068 		26.624 		0
v -28.067 		26.752 		0
v -27.982 		26.955 		0
v -27.932 		27.052 		0
v -27.818 		27.239 		0
v -27.685 		27.414 		0
v -27.574 		27.536 		0
v -27.4519 		27.6497 		0
v -27.284 		27.786 		0
v -27.1 		27.905 		0
v -27.004 		27.958 		0
v -26.752 		28.067 		0
v -43.858 		-16.489 		1.45
v 43.869 		28.414 		2.47
v -43.985 		-16.879 		1.45
v -27.414 		27.685 		0
v 48.248 		-18.305 		2.47
v -44.095 		-17.1 		1.45
v -45.797 		23.298 		1.96
v -27.6697 		24.576 		0
v -27.701 		24.608 		0
v -27.847 		24.807 		0
v -27.932 		24.948 		0
v -28.036 		25.172 		0
v -28.117 		25.404 		0
v -28.166 		25.618 		0
v -28.189 		25.781 		0
v -28.2 		26 		0
v -28.189 		26.219 		0
v -28.156 		26.436 		0
v -28.132 		26.543 		0
v 49.077 		-16.949 		2.47
v -45.529 		23.331 		1.96
v 44.806 		27.848 		1.45
v 45.046 		27.982 		1.45
v 48.66 		-17.814 		2.47
v -45.196 		23.952 		0
v -24.464 		24.425 		0
v -24.576 		24.324 		0
v -45.457 		23.869 		0
v -45.618 		23.833 		0
v 44.418 		28.2 		1.96
v 44.013 		27.843 		1.96
v -45.89 		23.803 		0
v -46.055 		23.801 		0
v -46.274 		23.817 		0
v 44.645 		28.347 		1.96
v -46.382 		23.833 		0
v -24.586 		24.315 		0
v -24.806 		24.152 		0
v -25.046 		24.018 		0
v -25.248 		23.933 		0
v -25.457 		23.869 		0
v -25.672 		23.825 		0
v -25.89 		23.803 		0
v -26.11 		23.803 		0
v -26.192 		23.81 		0
v -26.436 		23.844 		0
v -26.624 		23.8969 		0
v -43.344 		-16.537 		1.96
v -46.701 		23.915 		0
v -46.954 		24.018 		0
v -47.1 		24.095 		0
v -43.818 		25.727 		1.45
v -43.62 		-17.296 		1.96
v -47.107 		22.706 		2.725
v -43.883 		26.596 		1.45
v 44.885 		28.47 		1.96
v -26.274 		23.817 		0
v -26.752 		23.933 		0
v -26.905 		23.995 		0
v -27.004 		24.042 		0
v -27.239 		24.183 		0
v -27.414 		24.315 		0
v -44.426 		-17.536 		1.45
v 44.032 		26.978 		1.45
v 43.915 		26.7 		1.45
v -43.831 		26.355 		1.45
v -44.608 		-17.701 		1.45
v -49.108 		23.116 		3.49
v -48.131 		23.586 		2.47
v -37 		36.2 		0
v -57.254 		39.797 		0
v -56.876 		39.902 		0
v -56.489 		39.969 		0
v -56.196 		39.995 		0
v -56 		40 		0
v -44.853 		-17.877 		1.45
v 44.123 		27.147 		1.45
v -59.995 		36.196 		0
v -59.969 		36.489 		0
v -59.923 		36.78 		0
v -59.88 		36.972 		0
v -59.797 		37.254 		0
v -59.696 		37.531 		0
v -59.431 		38.056 		0
v -59.092 		38.538 		0
v 48.114 		-16.595 		1.45
v -58.964 		38.686 		0
v -58.538 		39.092 		0
v -58.056 		39.431 		0
v -57.886 		39.528 		0
v -57.531 		39.696 		0
v -37 		31.8 		0
v 47.955 		-17.002 		1.45
v 44.351 		27.455 		1.45
v -48.748 		24.321 		2.47
v 49.22 		-16 		2.47
v 47.717 		-17.37 		1.45
v -43.834 		25.618 		0
v -43.883 		25.404 		0
v -43.953 		25.196 		0
v -44.043 		24.997 		0
v -44.153 		24.807 		0
v -44.281 		24.629 		0
v -43.924 		-17.742 		1.96
v -43.868 		26.543 		0
v -43.844 		26.436 		0
v 50.052 		-14.75 		3.49
v -43.811 		26.219 		0
v -43.803 		25.89 		0
v -43.8 		26 		0
v -43.803 		26.11 		0
v -43.761 		-17.527 		1.96
v -47.194 		24.152 		0
v -47.237 		24.185 		1.45
v 43.453 		26.927 		1.96
v -44.764 		-18.412 		1.96
v -47.372 		24.28 		0
v -47.496 		24.388 		0
v -47.496 		24.388 		1.45
v -44.31 		-18.119 		1.96
v 45.473 		-11.793 		3.49
v 45.113 		-12.115 		3.235
v -43.344 		26.537 		1.96
v 46.736 		-11.824 		3.49
v -43.303 		26.27 		1.96
v -47.1 		27.905 		0
v -46.905 		28.005 		0
v -46.804 		28.048 		0
v -46.543 		28.131 		0
v -46.382 		28.167 		0
v -28.773 		29.857 		4
v -28.962 		29.714 		4
v -29.143 		29.561 		4
v -29.482 		29.231 		4
v -29.786 		28.868 		4
v -29.9223 		28.672 		4
v -46.11 		28.197 		0
v -45.945 		28.199 		0
v -45.618 		28.167 		0
v -45.196 		28.048 		0
v -48.102 		26.648 		0
v -48.027 		26.855 		0
v -43.844 		-16.436 		0
v -47.932 		27.052 		0
v 47.549 		-12.053 		3.49
v -43.898 		-16.648 		0
v -47.847 		27.193 		0
v -43.953 		-16.804 		0
v -47.719 		27.371 		0
v -44.068 		-17.052 		0
v -47.496 		27.612 		0
v -47.582 		23.8 		1.96
v -47.328 		27.753 		0
v -44.315 		-17.414 		0
v -44.182 		-17.239 		0
v -44.246 		-17.328 		0
v -29.989 		28.576 		4
v -30.172 		28.272 		4
v -30.328 		27.953 		4
v -30.464 		27.625 		4
v -30.5571 		27.3209 		4
v -30.697 		26.708 		4
v 47.934 		-12.227 		3.49
v -30.7054 		26.624 		4
v -47.685 		24.586 		0
v -44.426 		-17.536 		0
v -30.539 		27.4 		4
v -47.754 		24.672 		0
v -47.847 		24.807 		0
v -44.672 		-17.753 		0
v -44.806 		-17.848 		0
v -47.957 		24.997 		0
v -44.9 		-17.905 		0
v -48.047 		25.196 		0
v -48.102 		25.352 		0
v -48.132 		25.457 		0
v -48.16 		24.364 		1.96
v -45.046 		-17.982 		0
v -48.156 		25.564 		0
v -42.361 		-19.053 		4
v -48.189 		25.781 		0
v -30.744 		26.237 		4
v -30.7435 		25.8348 		4
v -30.712 		25.41 		4
v -30.629 		24.943 		4
v -30.5417 		24.6328 		4
v -30.5258 		24.576 		4
v -48.2 		26 		0
v -42.683 		-19.4 		4
v -48.189 		26.219 		0
v -42.011 		-18.576 		4
v -42.948 		-19.638 		4
v -48.156 		26.436 		0
v -30.747 		25.882 		4
v -48.132 		26.543 		0
v -44.156 		-20.376 		4
v -43.833 		-20.227 		4
v -43.227 		-19.857 		4
v -43.7 		-19.562 		3.49
v -44.504 		24.388 		0
v -32.768 		24.576 		4
v -47.355 		23.653 		1.96
v -44.672 		24.247 		0
v 47.176 		-13.003 		2.47
v -44.806 		24.152 		0
v -22.528 		22.7676 		4
v -22.44 		22.858 		4
v -22.214 		23.132 		4
v -45.046 		24.018 		0
v -22.0398 		23.3826 		4
v -21.828 		23.728 		4
v -21.672 		24.047 		4
v -43.625 		-20.114 		4
v -44.253 		-18.705 		2.47
v -22.011 		23.424 		4
v -47.793 		23.968 		1.96
v -22.7375 		22.5523 		4
v -22.7612 		22.528 		4
v 48.3 		-12.438 		3.49
v -24.576 		21.4827 		4
v -24.156 		21.624 		4
v -23.833 		21.773 		4
v -23.325 		22.077 		4
v -23.038 		22.286 		4
v -22.77 		22.519 		4
v -44.824 		-18.997 		2.47
v -45.01 		-18.523 		1.96
v -24.576 		16.384 		4
v -45.175 		21.322 		4
v -45.645 		21.263 		4
v -25.9983 		21.2511 		4
v -25.645 		21.263 		4
v -25.175 		21.322 		4
v -24.828 		21.398 		4
v -45.121 		-18.015 		1.45
v -51.8 		24 		0
v -56.2 		24 		0
v -56.2 		8 		0
v -51.8 		8 		0
v -26 		21.251 		4
v -45.431 		-18.123 		1.45
v -22.2 		-36.2 		0
v -7.4 		-36.2 		0
v -22.2 		-31.8 		0
v -7.4 		-31.8 		0
v -32.768 		-8.192 		0
v -28.672 		22.0818 		4
v -28.476 		21.948 		4
v -28.2927 		21.8442 		4
v -28.167 		21.773 		4
v -27.844 		21.624 		4
v -27.513 		21.497 		4
v -26.708 		21.305 		4
v -45.781 		-18.186 		1.45
v -27.172 		21.398 		4
v -43.898 		25.352 		1.45
v 41.303 		26.708 		4
v 41.774 		28.166 		4
v 41.371 		27.057 		4
v -43.953 		25.196 		1.45
v 41.947 		28.477 		4
v 42.823 		28.406 		3.235
v -30.501 		24.488 		4
v -30.328 		24.047 		4
v -29.989 		23.424 		4
v -29.786 		23.132 		4
v -29.56 		22.858 		4
v -29.23 		22.519 		4
v -28.867 		22.215 		4
v -44.043 		24.997 		1.45
v 41.461 		27.4 		4
v 42.016 		27.45 		3.49
v 41.58 		27.735 		4
v 48.656 		-16.537 		1.96
v 48.497 		-17.053 		1.96
v -44.169 		24.785 		1.45
v -37 		36.2 		4
v 48.66 		-14.186 		2.47
v -56 		40 		4
v -56.196 		39.995 		4
v -56.78 		39.923 		4
v -56.972 		39.88 		4
v 47.169 		-14.139 		1.45
v -57.531 		39.696 		4
v -57.798 		39.572 		4
v -58.056 		39.431 		4
v -58.303 		39.269 		4
v -58.538 		39.092 		4
v -58.757 		38.896 		4
v -58.964 		38.686 		4
v -59.092 		38.538 		4
v -59.431 		38.056 		4
v -59.696 		37.531 		4
v -59.88 		36.972 		4
v -59.923 		36.78 		4
v -59.995 		36.196 		4
v -46.192 		-18.19 		1.45
v -37 		31.8 		4
v -44.828 		30.602 		4
v -46.516 		-18.137 		1.45
v -43.833 		30.227 		4
v -43.325 		29.923 		4
v -44.487 		30.503 		4
v -42.948 		29.638 		4
v -44.156 		30.376 		4
v -45.046 		-14.018 		0
v -44.806 		-14.152 		0
v -44.672 		-14.247 		0
v 47.434 		-14.334 		1.45
v -42.601 		29.316 		4
v -42.361 		29.053 		4
v -42.214 		28.868 		4
v -46.853 		-18.024 		1.45
v -43.807 		-16.164 		0
v -43.803 		-15.918 		0
v -46 		30.749 		4
v -45.645 		30.737 		4
v -43.825 		-16.328 		0
v 43.837 		25.619 		1.45
v -46.355 		30.737 		4
v -44.426 		-14.464 		0
v -46.825 		30.678 		4
v -45.175 		30.678 		4
v -44.231 		-14.695 		0
v 43.802 		25.973 		1.45
v -44.095 		-14.9 		0
v -44.018 		-15.045 		0
v -47.844 		30.376 		4
v -47.513 		30.503 		4
v -47.172 		30.602 		4
v -43.898 		-15.352 		0
v -49.052 		29.638 		4
v -43.844 		-15.564 		0
v -48.773 		29.857 		4
v -43.825 		-15.672 		0
v -48.375 		30.114 		4
v 47.236 		-13.588 		1.96
v -48.167 		30.227 		4
v 43.837 		26.381 		1.45
v -46 		21.251 		4
v -47.744 		22.135 		3.49
v -41.623 		27.845 		4
v -41.461 		27.4 		4
v -47.513 		21.497 		4
v -47.172 		21.398 		4
v -47.1 		-14.095 		0
v -46.355 		21.263 		4
v -42.011 		28.576 		4
v -46.527 		21.793 		3.49
v -46.954 		-14.018 		0
v -41.828 		28.272 		4
v -46.701 		-13.915 		0
v -46.382 		-13.833 		0
v -46.11 		-13.803 		0
v 48.076 		-14.258 		1.96
v -45.945 		-13.801 		0
v -45.726 		-13.817 		0
v -46.825 		21.322 		4
v -45.618 		-13.833 		0
v -41.344 		26.941 		4
v -45.457 		-13.869 		0
v -45.196 		-13.952 		0
v 43.32 		26.404 		1.96
v -47.372 		-14.28 		0
v -48.375 		21.886 		4
v -47.194 		-14.152 		0
v -48.773 		22.143 		4
v -47.844 		21.624 		4
v -41.58 		24.265 		4
v 46.241 		-12.789 		2.47
v -41.774 		23.834 		4
v -42.287 		23.039 		4
v -42.601 		22.684 		4
v -43.62 		24.704 		1.96
v 44.045 		24.998 		1.45
v 44.214 		24.716 		1.45
v -45.299 		-18.085 		0
v -43.503 		24.947 		1.96
v 45.932 		-13.291 		1.96
v -45.618 		-18.167 		0
v -45.89 		-18.197 		0
v 43.915 		25.3 		1.45
v -46.055 		-18.199 		0
v -49.052 		22.362 		4
v -46.274 		-18.183 		0
v -46.382 		-18.167 		0
v -46.701 		-18.085 		0
v -50.629 		24.943 		4
v -50.697 		25.292 		4
v -50.539 		24.6 		4
v -47.1 		-17.905 		0
v -50.744 		26.237 		4
v -50.697 		26.708 		4
v -46.954 		-17.982 		0
v -50.629 		27.057 		4
v -50.48 		27.567 		4
v 47.496 		-17.612 		1.45
v -50.053 		28.477 		4
v -49.856 		28.772 		4
v -50.226 		28.166 		4
v -48.131 		-18.414 		2.47
v 47.239 		-17.817 		1.45
v -49.56 		29.142 		4
v -49.317 		22.6 		4
v -50.053 		23.523 		4
v -50.226 		23.834 		4
v -49.639 		22.947 		4
v -49.856 		23.228 		4
v -51.8 		24 		4
v -56.2 		24 		4
v -50.42 		24.265 		4
v 46.328 		-13.825 		1.45
v -51.8 		8 		4
v -56.2 		8 		4
v 46.647 		-13.901 		1.45
v -22.2 		-36.2 		4
v -7.4 		-36.2 		4
v -7.4 		-31.8 		4
v -22.2 		-31.8 		4
v 43.688 		24.587 		1.96
v -44.265 		-11.578 		4
v -43.833 		-11.773 		4
v -44.828 		-11.398 		4
v -43.524 		-11.948 		4
v 46.954 		-14.018 		1.45
v -48.773 		-12.143 		4
v -48.167 		-11.773 		4
v -47.844 		-11.624 		4
v -47.172 		-11.398 		4
v -47.513 		-11.497 		4
v -46 		-11.251 		4
v -45.645 		-11.263 		4
v -46.825 		-11.322 		4
v -46.355 		-11.263 		4
v -48.748 		-17.679 		2.47
v 46.471 		-13.331 		1.96
v -45.175 		-11.322 		4
v -45.808 		28.19 		1.45
v -47.194 		-17.848 		0
v -47.284 		-17.786 		0
v -45.564 		28.156 		1.45
v -47.905 		-17.1 		1.45
v -47.372 		-17.72 		0
v -47.574 		-17.536 		0
v -47.685 		-17.414 		0
v -47.754 		-17.328 		0
v -47.818 		-17.239 		0
v -47.932 		-17.052 		0
v -45.352 		28.102 		1.45
v -48.047 		-16.804 		0
v -48.102 		-16.648 		0
v -48.015 		-16.879 		1.45
v -48.156 		-16.436 		0
v -37 		-31.8 		0
v -56.2 		-24 		0
v -51.8 		-24 		0
v -37 		-36.2 		0
v -56.392 		-39.981 		0
v -56.78 		-39.923 		0
v -56.972 		-39.88 		0
v -48.142 		-16.489 		1.45
v -57.348 		-39.766 		0
v -57.531 		-39.696 		0
v -42.948 		-12.362 		4
v -42.361 		-12.947 		4
v -42.601 		-12.684 		4
v -41.828 		-13.728 		4
v -41.58 		-14.265 		4
v 46.734 		-13.391 		1.96
v -57.798 		-39.572 		0
v -58.222 		-39.326 		0
v -58.538 		-39.092 		0
v -58.757 		-38.896 		0
v -59.028 		-38.612 		0
v -59.213 		-38.383 		0
v -59.326 		-38.222 		0
v -59.479 		-37.971 		0
v -59.616 		-37.71 		0
v -59.766 		-37.348 		0
v -59.854 		-37.067 		0
v -59.923 		-36.78 		0
v -42.011 		-13.424 		4
v -59.957 		-36.587 		0
v -59.988 		-36.294 		0
v 60 		36 		4
v 48.076 		-17.742 		1.96
v 41.256 		26.237 		4
v -45.266 		28.609 		1.96
v 41.253 		25.882 		4
v 41.807 		25.368 		3.49
v 41.371 		24.943 		4
v 56 		40 		4
v 47.892 		-17.94 		1.96
v 41.461 		24.6 		4
v 58.303 		39.269 		4
v 57.71 		39.616 		4
v 57.531 		39.696 		4
v 59.981 		36.392 		4
v 59.94 		36.684 		4
v 59.88 		36.972 		4
v 59.797 		37.254 		4
v 59.656 		37.62 		4
v 59.528 		37.886 		4
v 59.326 		38.222 		4
v 59.092 		38.538 		4
v 58.896 		38.757 		4
v 58.612 		39.028 		4
v 56.876 		39.902 		4
v 57.254 		39.797 		4
v 47.236 		-18.412 		1.96
v 56.587 		39.957 		4
v 56.294 		39.988 		4
v 37 		36.2 		4
v 49.399 		29.316 		4
v 49.639 		29.053 		4
v -41.253 		-15.882 		4
v 41.303 		25.292 		4
v -41.324 		-15.175 		4
v -41.274 		-15.527 		4
v 41.274 		25.527 		4
v 49.786 		28.868 		4
v -41.461 		-14.6 		4
v -48.442 		-17.176 		1.96
v 50.747 		25.882 		4
v 50.726 		25.527 		4
v 50.629 		24.943 		4
v 50.539 		24.6 		4
v 37 		31.8 		4
v -48.68 		-16.404 		1.96
v 48.66 		24.186 		2.47
v 50.172 		28.272 		4
v 50.377 		27.845 		4
v 50.539 		27.4 		4
v 49.989 		28.576 		4
v 50.735 		26.355 		4
v 50.629 		27.057 		4
v 50.697 		26.708 		4
v -49.984 		27.45 		3.49
v 56.2 		24 		4
v 50.172 		23.728 		4
v 49.317 		22.6 		4
v 47.747 		23.295 		2.47
v 49.989 		23.424 		4
v 49.786 		23.132 		4
v 49.639 		22.947 		4
v 51.8 		24 		4
v 50.377 		24.155 		4
v -48.547 		-16.927 		1.96
v 45.763 		30.743 		4
v 46.237 		30.743 		4
v 47.172 		30.602 		4
v -47.574 		-17.536 		1.45
v 47.513 		30.503 		4
v 47.954 		30.33 		4
v 48.375 		30.114 		4
v 48.773 		29.857 		4
v 49.143 		29.561 		4
v 47.649 		24.545 		1.45
v -47.147 		-17.877 		1.45
v -49.984 		24.55 		3.49
v 45.175 		30.678 		4
v 47.496 		24.388 		1.45
v 45.409 		30.713 		4
v 46.591 		30.713 		4
v 46.825 		30.678 		4
v 47.305 		24.231 		1.45
v 42.214 		28.868 		4
v 43.625 		30.114 		4
v 44.046 		30.33 		4
v 44.487 		30.503 		4
v -47.844 		-20.376 		4
v -48.375 		-20.114 		4
v -44.852 		-11.918 		3.49
v -48.773 		-19.857 		4
v -49.052 		-19.638 		4
v 43.227 		29.857 		4
v -46.543 		28.131 		1.45
v 42.44 		29.142 		4
v 42.948 		29.638 		4
v -47.052 		27.931 		1.45
v 44.828 		30.602 		4
v -47.582 		-18.2 		1.96
v 41 		27.75 		4
v 40.984 		27.921 		4
v 40.96 		27.9961 		4
v -46.527 		-11.793 		3.49
v -46.219 		28.186 		1.45
v -45.645 		-20.737 		4
v -46 		-20.749 		4
v -45.175 		-20.678 		4
v 47.027 		-17.943 		1.45
v -44.487 		-20.503 		4
v -44.828 		-20.602 		4
v -45.721 		-12.28 		2.98
v 46.647 		-18.099 		1.45
v 45.353 		-13.901 		1.45
v -47.172 		-20.602 		4
v -47.513 		-20.503 		4
v -46.355 		-20.737 		4
v 46.328 		-18.175 		1.45
v -46.825 		-20.678 		4
v -37 		-31.8 		4
v 45.672 		-13.825 		1.45
v -51.8 		-24 		4
v -56.2 		-24 		4
v -48.16 		-17.636 		1.96
v -49.786 		-18.868 		4
v -50.053 		-18.477 		4
v 48.076 		24.258 		1.96
v -49.317 		-19.4 		4
v -47.793 		-18.032 		1.96
v -50.539 		-17.4 		4
v -50.603 		-17.172 		4
v -50.226 		-18.166 		4
v -50.676 		-16.825 		4
v -50.377 		-17.845 		4
v 40.3739 		28.672 		4
v 40.319 		28.696 		4
v 40.171 		28.735 		4
v 40 		28.75 		4
v 36 		28.75 		4
v 35.733 		28.713 		4
v -50.726 		-16.473 		4
v 47.69 		23.881 		1.96
v 35.6289 		28.672 		4
v -37 		-36.2 		4
v 46 		-13.803 		1.45
v -57.254 		-39.797 		4
v -56.876 		-39.902 		4
v -56.392 		-39.981 		4
v -57.886 		-39.528 		4
v -58.139 		-39.378 		4
v 47.236 		23.588 		1.96
v 35.183 		28.326 		4
v 35.082 		28.144 		4
v 35.034 		28.005 		4
v 35 		27.75 		4
v -58.538 		-39.092 		4
v 40.906 		28.165 		4
v -57.62 		-39.656 		4
v 40.817 		28.326 		4
v 40.689 		28.474 		4
v 40.493 		28.62 		4
v -59.957 		-36.587 		4
v -59.88 		-36.972 		4
v 35.4668 		28.5905 		4
v -59.797 		-37.254 		4
v 35.395 		28.545 		4
v -59.696 		-37.531 		4
v 35.277 		28.439 		4
v -59.616 		-37.71 		4
v -59.326 		-38.222 		4
v -59.213 		-38.383 		4
v -59.028 		-38.612 		4
v -58.757 		-38.896 		4
v -47.987 		-17.843 		1.96
v 35.54 		28.637 		4
v 49.052 		22.362 		4
v 45.137 		-13.431 		1.96
v 45.353 		-18.099 		1.45
v 45.672 		-18.175 		1.45
v -45.266 		-18.609 		1.96
v -45.463 		-19.046 		2.342
v -46.527 		-20.207 		3.49
v -49.12 		26.795 		2.47
v 46.559 		22.829 		2.47
v 45.92 		22.781 		2.47
v -43.356 		-12.685 		3.49
v -44.824 		-13.003 		2.47
v -48.748 		27.679 		2.47
v -49.108 		-18.884 		3.49
v -43.752 		-13.695 		2.47
v 49.077 		-15.051 		2.47
v 47.027 		24.057 		1.45
v 48.167 		-18.717 		2.725
v 46.647 		23.901 		1.45
v 46.328 		23.825 		1.45
v 47.934 		-19.773 		3.49
v -48.131 		28.414 		2.47
v 47.717 		-14.63 		1.45
v 49.906 		26.79 		3.235
v 47.955 		-14.998 		1.45
v 49.22 		26 		2.47
v 46 		23.803 		1.45
v 48.085 		-15.3 		1.45
v 45.672 		23.825 		1.45
v -47.261 		27.801 		1.45
v 49.248 		23.275 		3.49
v 45.353 		23.901 		1.45
v -43.34 		-14.186 		2.47
v 47.549 		-19.947 		3.49
v -47.987 		27.843 		1.96
v 48.497 		-14.947 		1.96
v -47.582 		28.2 		1.96
v -44.973 		-14.057 		1.45
v 46.298 		-19.974 		3.235
v -44.761 		-14.183 		1.45
v 48.184 		-16.246 		1.45
v 48.197 		-15.918 		1.45
v -47.793 		28.032 		1.96
v -44.566 		-14.334 		1.45
v 47.549 		29.947 		3.49
v 46.203 		23.298 		1.96
v 46.734 		23.391 		1.96
v 47.934 		29.773 		3.49
v 48.16 		-15.591 		1.45
v -47.115 		28.47 		1.96
v 45.663 		23.311 		1.96
v 48.644 		29.315 		3.49
v -47.355 		28.347 		1.96
v -44.764 		-13.588 		1.96
v 45.137 		23.431 		1.96
v 48.71 		-16 		1.96
v 48.697 		-16.27 		1.96
v -43.924 		-14.258 		1.96
v -48.002 		26.903 		1.45
v 48.167 		28.717 		2.725
v 48.656 		-15.463 		1.96
v -47.847 		27.193 		1.45
v 45.473 		30.207 		3.49
v 46.736 		30.176 		3.49
v -44.31 		-13.881 		1.96
v 45.663 		-18.689 		1.96
v -47.719 		27.371 		1.45
v -47.613 		27.496 		1.45
v -42.923 		-16.308 		2.342
v 45.137 		-18.569 		1.96
v 48.697 		-15.73 		1.96
v -42.923 		-15.051 		2.47
v -42.542 		-15.654 		2.725
v 46.203 		-18.702 		1.96
v 45.92 		-19.219 		2.47
v -41.948 		-14.75 		3.49
v -47.496 		27.612 		1.45
v -48.547 		26.927 		1.96
v 43.827 		-18.017 		2.215
v 43.252 		-14.321 		2.47
v -48.442 		27.176 		1.96
v 44.283 		-17.37 		1.45
v -48.16 		27.636 		1.96
v -44.387 		-14.504 		1.45
v 43.194 		-12.821 		3.49
v -44.281 		-14.629 		1.45
v 46.241 		29.211 		2.47
v 44.045 		-17.002 		1.45
v 45.932 		28.709 		1.96
v 43.915 		-16.7 		1.45
v -48.312 		27.413 		1.96
v 43.869 		-13.586 		2.47
v 42.892 		28.884 		3.49
v 43.194 		29.179 		3.49
v -44.098 		-14.902 		1.45
v 44.628 		-14.28 		1.45
v 44.831 		-14.139 		1.45
v 45.046 		-14.018 		1.45
v -43.953 		-15.196 		1.45
v 48.248 		28.305 		2.47
v 48.66 		27.814 		2.47
v 44.973 		-17.943 		1.45
v 44.418 		-13.8 		1.96
v 44.761 		-17.817 		1.45
v -43.503 		-14.947 		1.96
v -43.62 		-14.704 		1.96
v 44.504 		-17.612 		1.45
v 49.077 		26.949 		2.47
v -43.761 		-14.473 		1.96
v 44.645 		-13.653 		1.96
v 44.013 		-14.157 		1.96
v 44.645 		-18.347 		1.96
v -43.807 		-15.836 		1.45
v -43.807 		-16.164 		1.45
v 43.688 		-17.413 		1.96
v -43.858 		-15.511 		1.45
v -43.344 		-15.463 		1.96
v 42.016 		-17.45 		3.49
v 43.915 		-15.3 		1.45
v 44.032 		-15.022 		1.45
v 44.153 		-14.807 		1.45
v 44.299 		-14.608 		1.45
v 44.256 		-19.865 		3.49
v 44.65 		-20.019 		3.49
v 44.504 		-14.388 		1.45
v 42.892 		-18.884 		3.49
v 43.453 		-15.073 		1.96
v -49.12 		25.205 		2.47
v 43.84 		-14.364 		1.96
v 43.558 		-14.824 		1.96
v -48.169 		25.645 		1.45
v -48.198 		25.973 		1.45
v 43.837 		-16.381 		1.45
v 43.801 		-16.055 		1.45
v -48.169 		26.355 		1.45
v -48.117 		26.596 		1.45
v -44.451 		29.947 		3.49
v -44.824 		28.997 		2.47
v -45.441 		29.171 		2.47
v -46.527 		30.207 		3.49
v -47.026 		29.052 		2.47
v -48.68 		26.404 		1.96
v -48.002 		25.097 		1.45
v -47.847 		24.807 		1.45
v -46.068 		28.709 		1.96
v -45.797 		28.702 		1.96
v -49.108 		28.884 		3.49
v -48.806 		29.179 		3.49
v -48.117 		25.404 		1.45
v -48.12 		29.672 		3.49
v -48.312 		24.587 		1.96
v -42.947 		28.562 		3.235
v -48.442 		24.824 		1.96
v -48.547 		25.073 		1.96
v -48.68 		25.596 		1.96
v -41.844 		26.84 		3.49
v -42.923 		26.949 		2.47
v -44.948 		27.931 		1.45
v -43.34 		24.186 		2.47
v -44.253 		23.295 		2.47
v -44.824 		23.003 		2.47
v -43.039 		22.965 		3.49
v -43.752 		23.695 		2.47
v -43.924 		24.258 		1.96
v -44.351 		24.545 		1.45
v -44.504 		24.388 		1.45
v -44.672 		24.247 		1.45
v -44.949 		24.071 		1.45
v -44.31 		23.881 		1.96
v -44.53 		23.724 		1.96
v -44.764 		23.588 		1.96
v -46.068 		-13.291 		1.96
v -45.797 		-13.298 		1.96
v -45.781 		-13.814 		1.45
v -45.457 		-13.869 		1.45
v -45.248 		-13.933 		1.45
v -45.266 		-13.391 		1.96
v -46.853 		-13.976 		1.45
v -46.543 		-13.869 		1.45
v -46.219 		-13.814 		1.45
v -48.748 		-14.321 		2.47
# 1486 vertices

g group_0_11909273

usemtl color_11909273
s 0

f 6 	83 	5
f 8 	9 	10
f 2 	14 	1
f 15 	1 	14
f 6 	3 	83
f 13 	10 	7
f 20 	21 	30
f 4 	69 	75
f 21 	29 	30
f 32 	33 	35
f 56 	84 	38
f 40 	36 	84
f 43 	39 	84
f 44 	26 	32
f 25 	47 	26
f 45 	41 	55
f 52 	53 	84
f 53 	54 	84
f 54 	42 	84
f 42 	43 	84
f 39 	40 	84
f 36 	38 	84
f 57 	84 	56
f 26 	47 	32
f 32 	35 	44
f 62 	84 	59
f 48 	84 	62
f 59 	84 	58
f 58 	84 	61
f 46 	45 	55
f 65 	60 	84
f 22 	83 	66
f 24 	63 	83
f 52 	84 	51
f 51 	84 	50
f 83 	63 	547
f 547 	549 	83
f 551 	5 	83
f 11 	68 	74
f 17 	66 	83
f 22 	24 	83
f 75 	69 	87
f 50 	84 	49
f 82 	83 	109
f 11 	1315 	68
f 68 	1315 	67
f 64 	61 	78
f 41 	11 	74
f 82 	77 	83
f 118 	61 	119
f 96 	77 	81
f 82 	81 	77
f 96 	95 	77
f 86 	85 	57
f 85 	84 	57
f 87 	86 	57
f 89 	102 	109
f 109 	91 	92
f 109 	92 	93
f 109 	93 	94
f 109 	94 	95
f 109 	95 	96
f 109 	96 	81
f 81 	82 	109
f 88 	87 	57
f 90 	57 	97
f 90 	88 	57
f 93 	77 	94
f 94 	77 	95
f 190 	192 	102
f 229 	190 	102
f 91 	109 	102
f 89 	197 	102
f 98 	78 	101
f 33 	27 	70
f 193 	196 	102
f 197 	229 	102
f 101 	61 	103
f 104 	61 	105
f 103 	61 	104
f 110 	111 	109
f 111 	112 	109
f 112 	113 	109
f 113 	114 	109
f 114 	115 	109
f 115 	116 	109
f 117 	109 	116
f 89 	109 	117
f 116 	197 	117
f 4 	65 	69
f 107 	61 	108
f 105 	61 	107
f 115 	197 	116
f 108 	61 	118
f 114 	351 	115
f 89 	117 	197
f 113 	352 	114
f 111 	125 	352
f 80 	61 	84
f 120 	61 	123
f 123 	61 	80
f 119 	61 	120
f 125 	111 	110
f 133 	352 	125
f 449 	79 	97
f 110 	109 	133
f 126 	145 	73
f 134 	133 	109
f 125 	110 	133
f 111 	352 	112
f 136 	137 	134
f 137 	133 	134
f 4 	75 	131
f 136 	1140 	137
f 135 	132 	73
f 138 	135 	73
f 470 	1413 	79
f 97 	57 	142
f 145 	142 	57
f 146 	160 	144
f 79 	449 	470
f 144 	160 	143
f 127 	73 	129
f 132 	129 	73
f 72 	73 	57
f 124 	126 	73
f 57 	73 	145
f 127 	124 	73
f 148 	160 	146
f 79 	131 	75
f 153 	160 	148
f 1180 	131 	79
f 79 	1413 	1180
f 147 	171 	152
f 154 	152 	171
f 34 	207 	123
f 155 	154 	171
f 151 	162 	150
f 141 	162 	151
f 158 	157 	160
f 84 	85 	65
f 171 	78 	155
f 153 	158 	160
f 150 	162 	157
f 65 	85 	86
f 65 	86 	69
f 156 	155 	78
f 160 	139 	77
f 76 	77 	139
f 338 	1133 	139
f 69 	86 	87
f 161 	159 	78
f 159 	156 	78
f 88 	79 	75
f 75 	87 	88
f 551 	546 	477
f 79 	88 	90
f 166 	167 	77
f 49 	84 	48
f 164 	78 	165
f 165 	78 	98
f 79 	90 	97
f 167 	172 	77
f 171 	216 	170
f 172 	173 	77
f 170 	169 	78
f 173 	174 	77
f 160 	77 	174
f 171 	170 	78
f 61 	101 	78
f 164 	163 	78
f 163 	161 	78
f 198 	100 	122
f 130 	128 	28
f 175 	160 	174
f 180 	160 	175
f 177 	176 	303
f 182 	160 	180
f 303 	178 	177
f 303 	171 	181
f 184 	160 	182
f 184 	206 	160
f 168 	166 	92
f 188 	185 	171
f 91 	102 	168
f 194 	171 	147
f 194 	189 	171
f 189 	188 	171
f 93 	92 	166
f 198 	122 	199
f 77 	93 	166
f 92 	91 	168
f 196 	168 	102
f 202 	216 	201
f 203 	216 	202
f 205 	216 	204
f 203 	204 	216
f 209 	216 	205
f 202 	213 	203
f 143 	160 	206
f 199 	122 	121
f 199 	121 	149
f 78 	224 	64
f 209 	64 	210
f 201 	200 	213
f 202 	201 	213
f 204 	64 	205
f 209 	205 	64
f 204 	203 	64
f 64 	203 	213
f 212 	197 	211
f 222 	197 	212
f 31 	567 	149
f 214 	197 	222
f 217 	218 	216
f 218 	219 	216
f 216 	219 	220
f 216 	220 	221
f 216 	221 	223
f 216 	223 	200
f 200 	201 	216
f 209 	210 	216
f 216 	224 	225
f 216 	225 	226
f 216 	226 	227
f 216 	227 	228
f 216 	228 	169
f 169 	170 	216
f 215 	197 	214
f 224 	216 	210
f 31 	149 	18
f 192 	193 	102
f 215 	229 	197
f 574 	540 	198
f 210 	64 	224
f 225 	224 	78
f 100 	198 	231
f 187 	248 	254
f 232 	233 	351
f 225 	78 	226
f 227 	226 	78
f 169 	228 	78
f 228 	227 	78
f 197 	351 	236
f 231 	270 	100
f 540 	231 	198
f 211 	197 	236
f 217 	216 	372
f 235 	236 	351
f 218 	217 	372
f 218 	372 	219
f 213 	223 	372
f 234 	235 	351
f 237 	187 	254
f 239 	338 	139
f 200 	223 	213
f 221 	372 	223
f 237 	179 	187
f 246 	162 	241
f 187 	207 	248
f 73 	295 	242
f 245 	242 	295
f 244 	240 	243
f 256 	295 	258
f 252 	247 	295
f 256 	252 	295
f 247 	245 	295
f 242 	138 	73
f 255 	162 	246
f 243 	162 	255
f 160 	157 	162
f 241 	162 	141
f 257 	249 	468
f 259 	240 	251
f 253 	240 	244
f 250 	240 	253
f 251 	240 	250
f 162 	243 	240
f 162 	240 	160
f 258 	295 	260
f 1369 	237 	254
f 238 	284 	261
f 266 	240 	259
f 302 	322 	301
f 269 	240 	268
f 262 	295 	263
f 270 	257 	475
f 271 	240 	269
f 263 	295 	264
f 264 	295 	265
f 265 	303 	267
f 266 	268 	240
f 272 	267 	303
f 273 	272 	303
f 273 	303 	279
f 280 	279 	303
f 278 	351 	275
f 281 	351 	278
f 195 	140 	1360
f 276 	351 	281
f 270 	475 	479
f 283 	280 	303
f 285 	351 	277
f 447 	249 	257
f 277 	351 	276
f 285 	230 	351
f 230 	232 	351
f 233 	234 	351
f 284 	283 	303
f 183 	181 	171
f 178 	303 	181
f 284 	303 	286
f 286 	303 	176
f 185 	183 	171
f 480 	270 	479
f 315 	316 	307
f 171 	303 	216
f 216 	303 	350
f 288 	322 	287
f 216 	350 	372
f 297 	322 	289
f 57 	298 	72
f 296 	72 	298
f 275 	351 	294
f 294 	351 	293
f 293 	351 	297
f 300 	240 	271
f 296 	298 	295
f 314 	315 	307
f 260 	295 	262
f 33 	1466 	27
f 305 	306 	240
f 322 	240 	306
f 301 	322 	308
f 314 	313 	295
f 312 	311 	295
f 312 	295 	313
f 310 	295 	311
f 310 	319 	295
f 307 	304 	295
f 304 	303 	295
f 303 	265 	295
f 309 	322 	306
f 308 	322 	309
f 35 	33 	70
f 311 	312 	310
f 312 	313 	310
f 313 	314 	310
f 307 	319 	314
f 316 	317 	307
f 304 	307 	317
f 303 	304 	317
f 290 	322 	318
f 310 	314 	319
f 300 	305 	240
f 319 	307 	295
f 302 	318 	322
f 290 	287 	322
f 288 	289 	322
f 323 	494 	498
f 295 	377 	314
f 323 	498 	501
f 316 	315 	377
f 315 	314 	377
f 338 	239 	240
f 324 	21 	322
f 240 	322 	21
f 21 	325 	240
f 325 	326 	240
f 326 	327 	240
f 327 	328 	240
f 328 	329 	240
f 329 	330 	240
f 330 	331 	240
f 331 	332 	240
f 332 	333 	240
f 333 	334 	240
f 334 	335 	240
f 335 	336 	240
f 337 	240 	336
f 338 	240 	337
f 21 	339 	1065
f 274 	320 	704
f 324 	348 	21
f 320 	274 	282
f 340 	303 	317
f 341 	303 	340
f 342 	303 	341
f 343 	303 	342
f 356 	303 	343
f 345 	303 	344
f 347 	303 	345
f 349 	303 	347
f 350 	303 	349
f 351 	352 	348
f 352 	339 	348
f 21 	348 	339
f 317 	391 	340
f 322 	297 	351
f 197 	115 	351
f 112 	352 	113
f 355 	352 	133
f 237 	291 	179
f 195 	208 	346
f 353 	927 	354
f 137 	927 	353
f 340 	440 	341
f 353 	354 	355
f 351 	114 	352
f 291 	237 	1394
f 342 	341 	572
f 357 	303 	356
f 358 	303 	357
f 344 	303 	358
f 343 	342 	572
f 361 	880 	360
f 362 	880 	361
f 369 	880 	362
f 364 	880 	363
f 365 	880 	364
f 366 	880 	365
f 380 	359 	880
f 356 	343 	572
f 101 	274 	98
f 357 	356 	572
f 368 	880 	367
f 363 	880 	368
f 358 	357 	572
f 274 	101 	103
f 274 	103 	282
f 344 	358 	572
f 104 	282 	103
f 367 	880 	369
f 345 	344 	572
f 282 	104 	291
f 347 	345 	572
f 291 	104 	105
f 572 	350 	349
f 291 	105 	107
f 364 	378 	365
f 349 	347 	572
f 370 	673 	676
f 363 	378 	364
f 366 	365 	378
f 316 	392 	317
f 179 	107 	108
f 368 	378 	363
f 346 	22 	195
f 179 	291 	107
f 187 	179 	118
f 367 	378 	368
f 369 	378 	367
f 220 	372 	221
f 219 	372 	220
f 572 	372 	350
f 374 	375 	371
f 375 	372 	371
f 372 	572 	371
f 577 	371 	572
f 118 	179 	108
f 61 	64 	375
f 723 	61 	374
f 375 	374 	61
f 362 	378 	369
f 376 	298 	459
f 118 	119 	187
f 187 	119 	207
f 378 	362 	361
f 378 	361 	360
f 409 	408 	377
f 376 	377 	295
f 295 	298 	376
f 552 	459 	298
f 359 	360 	880
f 207 	119 	120
f 207 	120 	123
f 359 	355 	360
f 380 	355 	359
f 379 	355 	380
f 390 	355 	379
f 378 	360 	355
f 354 	378 	355
f 381 	208 	238
f 381 	99 	346
f 383 	323 	501
f 424 	880 	366
f 388 	389 	880
f 389 	390 	880
f 390 	379 	880
f 379 	380 	880
f 389 	355 	390
f 388 	355 	389
f 434 	432 	377
f 429 	428 	377
f 377 	428 	427
f 420 	382 	377
f 385 	355 	387
f 384 	355 	385
f 395 	398 	394
f 397 	398 	395
f 393 	394 	398
f 399 	860 	398
f 400 	860 	399
f 384 	858 	400
f 383 	507 	402
f 391 	317 	392
f 392 	316 	396
f 396 	316 	401
f 401 	316 	403
f 377 	406 	316
f 394 	355 	395
f 403 	316 	405
f 323 	299 	292
f 400 	355 	384
f 405 	316 	406
f 388 	387 	355
f 400 	399 	355
f 399 	398 	355
f 398 	397 	355
f 397 	395 	355
f 859 	352 	860
f 323 	23 	299
f 408 	406 	377
f 23 	323 	383
f 409 	377 	410
f 411 	410 	377
f 382 	411 	377
f 419 	880 	415
f 417 	880 	416
f 416 	880 	419
f 425 	378 	414
f 378 	425 	431
f 416 	378 	417
f 419 	378 	416
f 415 	378 	419
f 946 	417 	378
f 415 	414 	378
f 420 	377 	421
f 414 	880 	425
f 431 	880 	424
f 415 	880 	414
f 418 	880 	417
f 421 	377 	422
f 422 	377 	423
f 418 	417 	946
f 377 	427 	423
f 425 	880 	431
f 429 	377 	432
f 431 	424 	378
f 366 	378 	424
f 458 	436 	377
f 100 	270 	480
f 435 	377 	436
f 434 	377 	435
f 413 	436 	458
f 412 	413 	458
f 463 	461 	458
f 346 	208 	381
f 437 	404 	684
f 441 	442 	888
f 442 	443 	888
f 443 	444 	888
f 444 	445 	888
f 439 	441 	888
f 445 	779 	888
f 779 	780 	888
f 780 	781 	888
f 781 	782 	888
f 456 	455 	341
f 456 	341 	440
f 440 	340 	446
f 446 	340 	391
f 97 	142 	449
f 186 	573 	191
f 449 	142 	145
f 407 	573 	450
f 191 	573 	407
f 430 	449 	145
f 450 	573 	451
f 257 	538 	447
f 452 	451 	572
f 448 	538 	257
f 572 	341 	454
f 530 	531 	448
f 455 	454 	341
f 448 	540 	530
f 452 	454 	1425
f 23 	383 	453
f 448 	257 	270
f 454 	452 	572
f 453 	383 	402
f 231 	540 	448
f 458 	459 	552
f 433 	578 	457
f 469 	402 	703
f 456 	1426 	455
f 231 	448 	270
f 460 	453 	402
f 460 	402 	469
f 412 	458 	461
f 261 	477 	381
f 249 	464 	468
f 261 	381 	238
f 466 	463 	458
f 468 	473 	257
f 474 	470 	449
f 475 	257 	473
f 467 	466 	458
f 474 	457 	1331
f 471 	467 	458
f 430 	433 	457
f 472 	471 	458
f 478 	476 	458
f 476 	472 	458
f 480 	483 	100
f 481 	478 	458
f 484 	100 	483
f 482 	481 	458
f 485 	482 	458
f 100 	484 	122
f 487 	485 	458
f 474 	449 	430
f 121 	488 	492
f 474 	430 	457
f 489 	487 	458
f 484 	488 	122
f 491 	489 	458
f 122 	488 	121
f 493 	491 	458
f 500 	121 	492
f 121 	500 	149
f 195 	22 	66
f 383 	501 	504
f 505 	149 	500
f 499 	548 	502
f 195 	273 	279
f 383 	504 	507
f 149 	505 	1012
f 280 	195 	279
f 503 	548 	506
f 507 	509 	402
f 514 	402 	509
f 512 	513 	510
f 512 	510 	511
f 458 	548 	493
f 495 	493 	548
f 514 	515 	402
f 230 	465 	517
f 506 	548 	516
f 518 	516 	548
f 232 	230 	517
f 233 	232 	517
f 520 	518 	548
f 522 	520 	548
f 234 	233 	517
f 526 	522 	548
f 195 	280 	208
f 548 	573 	526
f 283 	208 	280
f 533 	524 	535
f 283 	284 	238
f 534 	525 	538
f 529 	527 	573
f 208 	283 	238
f 537 	573 	539
f 286 	261 	284
f 525 	447 	538
f 533 	580 	524
f 536 	532 	573
f 536 	573 	537
f 539 	573 	186
f 542 	534 	538
f 523 	528 	543
f 544 	542 	538
f 532 	529 	573
f 503 	502 	548
f 527 	526 	573
f 538 	531 	544
f 497 	495 	548
f 499 	497 	548
f 458 	552 	548
f 523 	545 	528
f 448 	531 	538
f 546 	99 	381
f 549 	547 	546
f 546 	551 	549
f 381 	477 	546
f 524 	523 	543
f 1068 	5 	551
f 550 	548 	552
f 553 	554 	550
f 552 	553 	550
f 554 	555 	550
f 555 	556 	550
f 556 	557 	550
f 557 	558 	550
f 558 	559 	550
f 559 	560 	550
f 560 	561 	550
f 561 	562 	550
f 562 	563 	550
f 563 	564 	550
f 564 	565 	550
f 20 	550 	565
f 572 	573 	568
f 573 	569 	568
f 20 	568 	569
f 569 	550 	20
f 551 	477 	1068
f 572 	451 	573
f 3 	6 	1068
f 575 	576 	723
f 374 	575 	723
f 570 	533 	566
f 577 	581 	575
f 198 	571 	579
f 616 	386 	578
f 1068 	6 	5
f 576 	575 	581
f 198 	579 	574
f 602 	600 	577
f 570 	580 	533
f 582 	567 	31
f 457 	578 	1174
f 16 	67 	71
f 585 	586 	588
f 591 	585 	588
f 584 	591 	588
f 583 	584 	588
f 583 	588 	589
f 533 	535 	566
f 16 	71 	17
f 587 	588 	586
f 582 	31 	590
f 140 	17 	71
f 591 	584 	581
f 24 	22 	346
f 616 	578 	433
f 585 	591 	581
f 99 	24 	346
f 99 	63 	24
f 581 	577 	585
f 195 	66 	17
f 586 	585 	577
f 587 	586 	577
f 588 	587 	577
f 17 	140 	195
f 598 	593 	596
f 546 	547 	63
f 605 	623 	604
f 603 	623 	602
f 600 	602 	623
f 618 	600 	623
f 599 	618 	623
f 612 	623 	605
f 607 	623 	606
f 613 	623 	607
f 609 	623 	608
f 610 	623 	609
f 611 	623 	610
f 674 	622 	611
f 63 	99 	546
f 296 	295 	77
f 296 	77 	76
f 72 	296 	76
f 77 	295 	73
f 603 	577 	604
f 606 	623 	612
f 374 	371 	133
f 374 	133 	137
f 213 	372 	134
f 136 	134 	372
f 136 	372 	375
f 1374 	593 	594
f 605 	577 	612
f 614 	623 	613
f 608 	623 	614
f 596 	601 	592
f 465 	128 	517
f 615 	598 	596
f 612 	577 	606
f 596 	592 	615
f 606 	577 	607
f 517 	128 	130
f 613 	572 	614
f 234 	517 	130
f 616 	508 	595
f 609 	572 	610
f 572 	611 	610
f 433 	496 	616
f 616 	496 	508
f 604 	623 	603
f 235 	234 	462
f 589 	588 	577
f 236 	235 	462
f 599 	589 	577
f 618 	599 	577
f 430 	126 	124
f 234 	619 	462
f 572 	609 	608
f 608 	614 	572
f 607 	577 	613
f 604 	577 	605
f 602 	577 	603
f 600 	618 	577
f 433 	430 	124
f 124 	127 	433
f 496 	433 	129
f 433 	127 	129
f 496 	129 	132
f 132 	135 	508
f 496 	132 	508
f 521 	508 	138
f 589 	599 	623
f 589 	623 	624
f 589 	624 	625
f 589 	625 	626
f 589 	626 	627
f 589 	627 	628
f 589 	628 	629
f 589 	629 	630
f 589 	630 	631
f 631 	635 	589
f 589 	632 	633
f 589 	633 	634
f 589 	634 	583
f 459 	458 	240
f 459 	240 	239
f 459 	239 	139
f 508 	135 	138
f 240 	458 	377
f 622 	740 	623
f 623 	740 	624
f 626 	625 	581
f 629 	628 	581
f 630 	629 	581
f 430 	145 	126
f 632 	589 	635
f 630 	581 	631
f 635 	631 	581
f 632 	635 	581
f 633 	632 	581
f 634 	633 	581
f 583 	634 	581
f 583 	581 	584
f 637 	638 	639
f 637 	639 	640
f 637 	640 	641
f 637 	641 	642
f 637 	642 	643
f 637 	643 	644
f 644 	652 	637
f 637 	645 	646
f 637 	646 	647
f 637 	647 	648
f 637 	648 	622
f 672 	251 	250
f 997 	321 	404
f 639 	638 	740
f 437 	997 	404
f 640 	639 	740
f 641 	640 	740
f 642 	641 	740
f 645 	637 	652
f 246 	241 	922
f 652 	740 	645
f 646 	740 	647
f 646 	645 	740
f 628 	627 	581
f 627 	626 	581
f 625 	624 	581
f 648 	740 	622
f 581 	624 	740
f 647 	740 	648
f 1323 	653 	1050
f 623 	611 	622
f 675 	685 	622
f 669 	370 	373
f 658 	622 	657
f 659 	622 	658
f 660 	622 	659
f 661 	622 	660
f 662 	622 	661
f 663 	622 	662
f 664 	622 	663
f 665 	622 	664
f 666 	622 	665
f 667 	622 	666
f 637 	622 	667
f 656 	657 	622
f 404 	321 	655
f 655 	373 	404
f 243 	668 	244
f 894 	750 	657
f 657 	750 	658
f 373 	655 	669
f 653 	259 	251
f 658 	750 	659
f 659 	749 	660
f 660 	748 	661
f 661 	747 	662
f 747 	746 	662
f 321 	878 	655
f 757 	758 	664
f 637 	667 	740
f 637 	740 	638
f 437 	993 	997
f 654 	803 	804
f 652 	644 	740
f 643 	642 	740
f 664 	663 	757
f 644 	643 	740
f 746 	757 	663
f 572 	613 	577
f 675 	622 	674
f 683 	670 	671
f 677 	373 	370
f 98 	274 	671
f 677 	370 	676
f 696 	649 	651
f 678 	650 	679
f 680 	373 	677
f 675 	674 	572
f 674 	611 	572
f 681 	373 	680
f 651 	592 	601
f 373 	681 	404
f 404 	681 	682
f 404 	682 	684
f 1398 	910 	679
f 687 	622 	686
f 688 	622 	687
f 689 	622 	688
f 690 	622 	689
f 691 	622 	690
f 692 	622 	691
f 685 	686 	622
f 693 	622 	692
f 705 	622 	693
f 695 	706 	622
f 694 	622 	705
f 684 	697 	437
f 437 	697 	617
f 696 	651 	601
f 572 	685 	675
f 617 	697 	698
f 679 	650 	1398
f 685 	572 	686
f 699 	617 	698
f 593 	1374 	696
f 696 	601 	596
f 572 	893 	686
f 593 	696 	596
f 687 	686 	893
f 651 	654 	701
f 893 	894 	688
f 688 	687 	893
f 650 	678 	1224
f 695 	694 	894
f 689 	688 	894
f 515 	703 	402
f 695 	622 	694
f 690 	689 	894
f 691 	690 	894
f 692 	691 	894
f 704 	671 	274
f 701 	592 	651
f 703 	753 	714
f 597 	592 	701
f 706 	695 	894
f 705 	693 	894
f 693 	692 	894
f 701 	621 	597
f 706 	707 	622
f 707 	708 	622
f 708 	709 	622
f 710 	622 	709
f 622 	710 	656
f 678 	683 	1224
f 703 	714 	771
f 683 	678 	670
f 706 	894 	707
f 704 	683 	671
f 657 	656 	894
f 708 	707 	894
f 709 	708 	894
f 758 	700 	759
f 710 	709 	894
f 663 	662 	746
f 710 	894 	656
f 694 	705 	894
f 753 	754 	714
f 712 	713 	152
f 576 	718 	723
f 718 	786 	723
f 653 	1141 	1050
f 728 	797 	727
f 729 	797 	728
f 730 	797 	729
f 731 	797 	730
f 732 	797 	731
f 733 	797 	732
f 735 	797 	733
f 736 	797 	735
f 737 	797 	736
f 726 	727 	797
f 738 	739 	797
f 719 	720 	797
f 739 	719 	797
f 738 	797 	737
f 717 	716 	1032
f 778 	777 	723
f 785 	723 	786
f 466 	741 	734
f 742 	725 	156
f 715 	768 	711
f 715 	724 	764
f 486 	788 	718
f 136 	375 	64
f 490 	486 	740
f 718 	740 	486
f 376 	459 	139
f 494 	490 	740
f 787 	786 	718
f 160 	240 	377
f 501 	498 	740
f 498 	494 	740
f 504 	501 	740
f 509 	507 	740
f 507 	504 	740
f 515 	514 	740
f 514 	509 	740
f 744 	241 	141
f 745 	741 	472
f 665 	664 	759
f 747 	661 	748
f 750 	894 	751
f 753 	515 	740
f 667 	666 	740
f 768 	752 	711
f 151 	744 	141
f 749 	659 	750
f 748 	660 	749
f 759 	756 	665
f 621 	752 	828
f 701 	760 	621
f 701 	654 	760
f 760 	654 	752
f 755 	150 	157
f 699 	761 	762
f 725 	742 	636
f 752 	621 	760
f 762 	617 	699
f 153 	1321 	755
f 762 	761 	765
f 524 	580 	700
f 712 	906 	763
f 700 	523 	524
f 755 	1321 	150
f 765 	766 	767
f 906 	712 	725
f 767 	762 	765
f 158 	153 	755
f 755 	157 	158
f 752 	768 	620
f 160 	377 	376
f 160 	376 	139
f 469 	703 	771
f 768 	715 	764
f 763 	713 	712
f 679 	742 	678
f 773 	771 	714
f 742 	910 	636
f 769 	166 	168
f 756 	754 	666
f 753 	740 	666
f 754 	753 	666
f 666 	665 	756
f 654 	711 	752
f 442 	946 	443
f 444 	946 	445
f 443 	946 	444
f 439 	946 	441
f 845 	764 	874
f 438 	426 	946
f 441 	946 	442
f 167 	772 	172
f 426 	418 	946
f 439 	438 	946
f 801 	799 	723
f 764 	875 	874
f 783 	784 	888
f 782 	783 	888
f 784 	805 	888
f 900 	903 	805
f 167 	166 	1018
f 784 	783 	946
f 782 	946 	783
f 781 	946 	782
f 779 	946 	780
f 768 	862 	847
f 167 	1018 	772
f 780 	946 	781
f 788 	787 	718
f 445 	946 	779
f 173 	172 	772
f 772 	174 	173
f 649 	966 	791
f 387 	388 	880
f 175 	174 	793
f 649 	791 	794
f 794 	796 	651
f 649 	794 	651
f 796 	798 	651
f 617 	762 	850
f 901 	888 	805
f 651 	798 	654
f 795 	792 	2
f 438 	439 	888
f 711 	654 	802
f 722 	723 	797
f 721 	722 	797
f 798 	803 	654
f 180 	175 	793
f 679 	910 	742
f 778 	723 	785
f 777 	776 	723
f 776 	775 	723
f 774 	801 	723
f 775 	774 	723
f 799 	797 	723
f 654 	804 	802
f 180 	793 	811
f 807 	808 	900
f 806 	807 	900
f 808 	815 	900
f 815 	809 	900
f 810 	812 	900
f 812 	830 	900
f 805 	806 	900
f 670 	678 	742
f 711 	802 	814
f 809 	810 	900
f 711 	814 	715
f 713 	987 	147
f 715 	814 	818
f 815 	808 	946
f 819 	715 	818
f 819 	724 	715
f 807 	946 	808
f 809 	815 	946
f 180 	811 	182
f 821 	724 	819
f 806 	946 	807
f 816 	884 	817
f 717 	825 	716
f 820 	817 	884
f 946 	806 	805
f 946 	805 	784
f 767 	825 	864
f 810 	809 	946
f 825 	717 	864
f 828 	752 	620
f 842 	900 	830
f 832 	900 	831
f 833 	900 	832
f 834 	900 	833
f 864 	762 	767
f 620 	837 	828
f 839 	597 	621
f 827 	884 	829
f 1397 	190 	1390
f 831 	900 	842
f 836 	884 	838
f 830 	849 	842
f 839 	621 	828
f 832 	849 	833
f 833 	849 	834
f 843 	841 	2
f 841 	838 	2
f 831 	849 	832
f 846 	840 	847
f 792 	790 	2
f 790 	789 	2
f 789 	843 	2
f 829 	884 	836
f 620 	768 	840
f 758 	759 	664
f 812 	946 	830
f 810 	946 	812
f 196 	770 	769
f 168 	196 	769
f 894 	848 	751
f 831 	842 	849
f 946 	991 	849
f 620 	840 	837
f 762 	800 	850
f 793 	174 	852
f 840 	768 	847
f 856 	384 	855
f 385 	865 	384
f 384 	856 	858
f 863 	400 	858
f 860 	400 	859
f 393 	398 	860
f 847 	845 	861
f 860 	352 	393
f 393 	352 	394
f 853 	851 	894
f 851 	848 	894
f 859 	863 	352
f 1013 	850 	800
f 852 	811 	793
f 859 	400 	863
f 863 	858 	352
f 887 	680 	894
f 857 	894 	673
f 853 	894 	857
f 800 	717 	1015
f 858 	856 	352
f 862 	768 	764
f 854 	865 	352
f 855 	854 	352
f 856 	855 	352
f 673 	894 	676
f 854 	384 	865
f 855 	384 	854
f 866 	865 	385
f 800 	762 	864
f 847 	862 	845
f 800 	864 	717
f 676 	894 	677
f 1055 	716 	825
f 764 	845 	862
f 677 	894 	680
f 865 	866 	352
f 866 	873 	352
f 846 	847 	861
f 681 	680 	887
f 682 	681 	887
f 684 	682 	887
f 182 	811 	867
f 697 	684 	887
f 1456 	743 	825
f 870 	385 	869
f 871 	385 	870
f 872 	385 	871
f 873 	385 	872
f 698 	697 	887
f 876 	352 	871
f 866 	385 	873
f 845 	874 	844
f 867 	206 	184
f 873 	872 	352
f 870 	876 	871
f 872 	871 	352
f 699 	698 	887
f 1055 	825 	1056
f 761 	699 	887
f 869 	876 	870
f 152 	154 	712
f 27 	1466 	370
f 868 	876 	869
f 882 	876 	868
f 765 	761 	887
f 766 	765 	887
f 370 	669 	27
f 713 	147 	152
f 385 	387 	880
f 418 	426 	880
f 895 	896 	835
f 916 	917 	835
f 155 	712 	154
f 655 	878 	877
f 712 	155 	725
f 27 	669 	877
f 813 	766 	887
f 824 	884 	827
f 823 	884 	824
f 822 	884 	823
f 822 	820 	884
f 816 	813 	884
f 887 	884 	813
f 880 	881 	385
f 881 	882 	385
f 882 	868 	385
f 868 	869 	385
f 724 	821 	883
f 811 	985 	867
f 721 	797 	720
f 795 	2 	797
f 985 	811 	852
f 2 	838 	884
f 883 	764 	724
f 880 	876 	881
f 881 	876 	882
f 2 	726 	797
f 2 	884 	885
f 879 	880 	426
f 2 	885 	886
f 879 	876 	880
f 20 	891 	568
f 156 	725 	155
f 892 	893 	890
f 893 	891 	890
f 30 	890 	891
f 30 	891 	20
f 879 	888 	876
f 892 	894 	893
f 182 	867 	184
f 742 	164 	670
f 897 	835 	896
f 899 	835 	898
f 897 	898 	835
f 900 	835 	899
f 903 	901 	805
f 888 	879 	426
f 426 	438 	888
f 834 	835 	900
f 773 	714 	700
f 742 	156 	159
f 580 	570 	773
f 742 	159 	161
f 742 	161 	163
f 700 	580 	773
f 164 	742 	163
f 901 	876 	888
f 165 	670 	164
f 670 	165 	671
f 901 	903 	876
f 899 	876 	900
f 671 	165 	98
f 898 	876 	899
f 923 	734 	741
f 896 	1021 	897
f 903 	900 	876
f 897 	876 	898
f 908 	904 	748
f 895 	917 	1021
f 906 	636 	909
f 636 	910 	909
f 912 	913 	911
f 835 	911 	913
f 835 	913 	914
f 835 	914 	915
f 835 	915 	916
f 917 	895 	835
f 919 	907 	920
f 917 	916 	1021
f 907 	763 	920
f 915 	914 	1020
f 849 	1020 	914
f 921 	919 	920
f 920 	906 	921
f 913 	849 	914
f 916 	915 	1021
f 912 	849 	913
f 906 	725 	636
f 875 	764 	883
f 911 	849 	912
f 922 	734 	923
f 835 	849 	911
f 835 	834 	849
f 920 	763 	906
f 1020 	1021 	915
f 889 	875 	883
f 1066 	352 	876
f 354 	927 	925
f 146 	144 	926
f 930 	982 	929
f 929 	982 	928
f 894 	510 	887
f 935 	982 	934
f 934 	982 	933
f 936 	982 	935
f 937 	982 	936
f 938 	982 	937
f 939 	982 	938
f 940 	982 	939
f 941 	982 	940
f 942 	982 	941
f 943 	982 	942
f 944 	982 	943
f 933 	982 	932
f 902 	1031 	945
f 244 	668 	923
f 849 	830 	946
f 950 	925 	949
f 953 	925 	951
f 949 	925 	953
f 952 	925 	950
f 958 	946 	952
f 954 	894 	955
f 957 	931 	382
f 956 	955 	894
f 960 	946 	959
f 927 	965 	925
f 981 	979 	894
f 979 	975 	894
f 974 	972 	894
f 959 	946 	958
f 420 	957 	382
f 965 	927 	964
f 971 	925 	965
f 968 	927 	970
f 964 	927 	968
f 928 	982 	927
f 894 	969 	956
f 973 	967 	185
f 947 	925 	971
f 951 	925 	947
f 969 	894 	972
f 975 	974 	894
f 984 	927 	982
f 976 	927 	986
f 932 	982 	930
f 877 	669 	655
f 986 	927 	984
f 963 	894 	962
f 983 	894 	963
f 966 	962 	894
f 978 	927 	977
f 206 	867 	931
f 957 	206 	931
f 970 	927 	978
f 977 	927 	976
f 989 	617 	850
f 981 	894 	983
f 995 	988 	997
f 994 	510 	998
f 931 	867 	985
f 1000 	998 	510
f 999 	946 	996
f 996 	946 	960
f 321 	988 	878
f 988 	321 	997
f 991 	946 	990
f 990 	946 	999
f 1001 	1000 	510
f 1006 	995 	997
f 1330 	1003 	1328
f 1008 	849 	991
f 1002 	510 	1004
f 997 	993 	1006
f 566 	849 	1008
f 925 	952 	946
f 144 	957 	1003
f 1005 	510 	1007
f 987 	1011 	1135
f 1009 	1007 	894
f 1010 	1009 	894
f 1010 	894 	954
f 144 	143 	957
f 702 	992 	993
f 926 	144 	1003
f 850 	1013 	989
f 957 	143 	206
f 800 	1015 	1013
f 1014 	1012 	510
f 566 	535 	849
f 524 	849 	535
f 543 	849 	524
f 987 	1135 	973
f 44 	876 	26
f 1026 	904 	908
f 973 	1135 	1137
f 1312 	945 	948
f 1017 	849 	528
f 1019 	849 	1017
f 1020 	849 	1019
f 543 	528 	849
f 876 	897 	1021
f 35 	876 	44
f 987 	713 	763
f 1117 	852 	174
f 26 	876 	25
f 763 	1011 	987
f 545 	700 	904
f 896 	895 	1021
f 25 	876 	1021
f 523 	700 	545
f 70 	1061 	35
f 904 	1026 	545
f 1018 	166 	1027
f 1016 	992 	989
f 1219 	948 	961
f 988 	1061 	878
f 876 	35 	1061
f 821 	826 	883
f 877 	1061 	27
f 176 	1023 	1024
f 826 	1025 	883
f 918 	1022 	1026
f 1022 	918 	924
f 883 	1025 	889
f 995 	1061 	988
f 878 	1061 	877
f 1028 	902 	889
f 993 	1061 	1006
f 1028 	889 	1025
f 992 	1061 	993
f 902 	1028 	1029
f 1006 	1061 	995
f 1026 	908 	918
f 902 	1029 	1031
f 1030 	1023 	178
f 1017 	1026 	1022
f 1032 	1061 	1015
f 166 	769 	1027
f 1015 	1061 	1013
f 1016 	1061 	992
f 904 	700 	746
f 253 	244 	923
f 945 	1031 	1033
f 1034 	948 	945
f 746 	747 	904
f 923 	741 	253
f 1034 	945 	1033
f 1004 	510 	1005
f 894 	1007 	510
f 1002 	1001 	510
f 994 	1014 	510
f 27 	1061 	70
f 1013 	1061 	1016
f 1035 	948 	1034
f 922 	243 	255
f 1030 	178 	181
f 922 	923 	668
f 948 	1035 	961
f 477 	261 	1024
f 922 	668 	243
f 1037 	1057 	1036
f 246 	922 	255
f 250 	253 	741
f 1038 	1036 	1057
f 464 	1104 	468
f 1035 	1042 	961
f 473 	468 	510
f 1042 	1039 	961
f 250 	741 	672
f 181 	967 	1030
f 748 	904 	747
f 475 	473 	510
f 510 	479 	475
f 1040 	1058 	1037
f 918 	908 	748
f 918 	748 	749
f 1048 	1 	1044
f 749 	750 	918
f 1047 	1 	1046
f 1044 	1 	1043
f 924 	918 	750
f 1051 	1 	1047
f 1050 	1045 	482
f 750 	751 	924
f 488 	484 	510
f 484 	483 	510
f 480 	510 	483
f 980 	1 	1051
f 982 	1 	980
f 1 	982 	944
f 492 	510 	500
f 500 	510 	505
f 1055 	1061 	1052
f 1032 	1052 	1061
f 1084 	772 	1018
f 505 	510 	1012
f 703 	515 	753
f 2 	886 	513
f 1056 	1061 	1055
f 1057 	1061 	1053
f 174 	772 	1117
f 1054 	1057 	1053
f 886 	887 	510
f 510 	513 	886
f 1056 	1053 	1061
f 1059 	1057 	1054
f 756 	714 	754
f 492 	488 	510
f 510 	480 	479
f 1038 	1057 	1059
f 714 	756 	700
f 700 	758 	757
f 2 	513 	14
f 700 	757 	746
f 1057 	1037 	1058
f 1040 	1041 	1058
f 1 	1058 	1041
f 1 	1041 	1043
f 1046 	1 	1048
f 894 	892 	1102
f 756 	759 	700
f 814 	802 	1102
f 798 	796 	1102
f 1058 	1 	1062
f 15 	512 	1
f 1064 	29 	1065
f 794 	791 	894
f 1066 	1067 	1065
f 1067 	1064 	1065
f 1067 	1066 	876
f 355 	394 	352
f 966 	894 	791
f 511 	1077 	1061
f 894 	1102 	794
f 796 	794 	1102
f 1069 	876 	1071
f 1070 	876 	1069
f 702 	437 	989
f 1072 	876 	1070
f 437 	617 	989
f 1085 	1071 	876
f 1072 	1112 	876
f 1113 	1130 	876
f 803 	798 	1102
f 409 	410 	1073
f 993 	437 	702
f 802 	804 	1102
f 804 	803 	1102
f 1073 	1063 	409
f 477 	1024 	1068
f 814 	1102 	818
f 819 	818 	1102
f 821 	819 	1102
f 1068 	1024 	1023
f 989 	992 	702
f 821 	1102 	826
f 1078 	511 	1076
f 985 	1063 	1073
f 1117 	1063 	985
f 826 	1102 	1025
f 1045 	481 	482
f 410 	931 	1073
f 1028 	1025 	1102
f 1082 	1061 	1081
f 1077 	511 	1078
f 1084 	1275 	1060
f 1029 	1028 	1102
f 1031 	1029 	1102
f 1085 	1061 	1080
f 1018 	1027 	1084
f 1045 	1141 	745
f 1104 	1033 	1102
f 1031 	1102 	1033
f 541 	1030 	1139
f 1034 	1033 	1104
f 1042 	1035 	1104
f 1039 	1042 	1104
f 1134 	741 	745
f 1030 	1138 	1139
f 1087 	1039 	1104
f 1134 	672 	741
f 717 	1032 	1015
f 1088 	1087 	1104
f 989 	1013 	1016
f 1091 	1088 	1104
f 1024 	261 	286
f 716 	1052 	1032
f 1136 	1086 	1089
f 1092 	1091 	1104
f 1023 	176 	177
f 1024 	286 	176
f 1094 	1104 	1095
f 1096 	1095 	1104
f 1100 	1090 	1096
f 1023 	177 	178
f 510 	468 	1104
f 183 	967 	181
f 1098 	1104 	1099
f 1099 	1104 	1101
f 1101 	1104 	464
f 967 	183 	185
f 1035 	1034 	1104
f 1098 	1096 	1104
f 1094 	1093 	1104
f 1093 	1092 	1104
f 185 	188 	973
f 189 	973 	188
f 30 	1104 	1102
f 973 	189 	987
f 30 	1102 	1105
f 194 	987 	189
f 1136 	1089 	1097
f 987 	194 	147
f 14 	513 	1103
f 1103 	1104 	14
f 30 	1105 	890
f 3 	1068 	1023
f 1108 	1104 	1107
f 30 	1106 	1104
f 1110 	1104 	1108
f 1107 	1104 	1106
f 1080 	1061 	1079
f 1027 	1275 	1084
f 1109 	1100 	1099
f 1114 	876 	1112
f 1045 	1050 	1141
f 1117 	1084 	1063
f 1110 	1111 	1104
f 1111 	1118 	1104
f 1118 	1119 	1104
f 1119 	1120 	1104
f 1120 	1121 	1104
f 1121 	1122 	1104
f 1122 	1123 	1104
f 1123 	1124 	1104
f 1124 	1125 	1104
f 1125 	1126 	1104
f 1126 	1127 	1104
f 1127 	1128 	1104
f 1128 	1129 	1104
f 1129 	1131 	1104
f 1132 	1104 	1131
f 14 	1104 	1132
f 876 	1114 	1113
f 338 	298 	1133
f 57 	1133 	298
f 298 	338 	552
f 251 	672 	1134
f 251 	1134 	653
f 723 	927 	61
f 1140 	61 	927
f 1011 	905 	1135
f 1142 	3 	541
f 1142 	541 	1139
f 1134 	745 	1141
f 1030 	541 	3
f 1134 	1141 	653
f 1023 	1030 	3
f 1147 	1148 	1204
f 1148 	1149 	1204
f 1149 	1150 	1204
f 1150 	1151 	1204
f 1151 	1152 	1204
f 1152 	1153 	1204
f 1153 	1154 	1204
f 1154 	1155 	1204
f 1155 	1143 	1204
f 1143 	1144 	1204
f 1144 	1145 	1204
f 1136 	1443 	1442
f 1198 	1212 	1140
f 1212 	1213 	1140
f 1197 	1198 	1140
f 1161 	1197 	1140
f 1116 	876 	1115
f 1115 	876 	1130
f 1138 	1030 	967
f 1199 	1201 	1140
f 1161 	1140 	136
f 1213 	1199 	1140
f 927 	137 	1140
f 1011 	763 	907
f 1145 	1157 	1204
f 1011 	907 	905
f 1165 	1139 	1138
f 1163 	1133 	1162
f 1168 	1165 	1138
f 1169 	1133 	1163
f 1138 	1137 	1168
f 1254 	1304 	1090
f 1146 	1147 	1204
f 1138 	967 	973
f 1167 	1067 	1166
f 1164 	1067 	1167
f 1166 	876 	1170
f 1116 	1170 	876
f 1138 	973 	1137
f 134 	1176 	213
f 64 	213 	1176
f 1177 	447 	525
f 249 	447 	1177
f 876 	1061 	1085
f 1061 	1062 	512
f 1041 	1313 	1043
f 511 	1061 	512
f 1062 	1 	512
f 249 	1177 	1109
f 1180 	1133 	1179
f 1179 	1133 	1182
f 1169 	1182 	1133
f 1074 	511 	18
f 1074 	1075 	511
f 1075 	1076 	511
f 1081 	1061 	1077
f 1079 	1061 	1082
f 1174 	1194 	1173
f 511 	519 	530
f 1184 	1133 	1181
f 1180 	1181 	1133
f 542 	519 	534
f 1183 	1172 	1133
f 1172 	1173 	1133
f 544 	519 	542
f 595 	1257 	1178
f 1184 	1185 	1133
f 1133 	1185 	1183
f 1044 	1043 	1186
f 531 	519 	544
f 76 	139 	1133
f 1187 	76 	1133
f 1043 	1313 	1186
f 1051 	1047 	1452
f 1171 	1090 	1100
f 77 	1194 	1191
f 540 	511 	530
f 1192 	77 	1191
f 1193 	77 	1192
f 1047 	1340 	1452
f 579 	511 	574
f 571 	511 	579
f 540 	574 	511
f 531 	530 	519
f 1051 	1452 	1453
f 567 	511 	571
f 1188 	1191 	1194
f 1189 	77 	1193
f 10 	13 	77
f 1264 	1262 	1171
f 980 	1051 	1453
f 582 	511 	567
f 1171 	1260 	1264
f 884 	887 	1057
f 582 	590 	511
f 18 	511 	590
f 1196 	1171 	1100
f 15 	1253 	512
f 1053 	743 	1054
f 1195 	1188 	1194
f 1175 	1195 	1194
f 1174 	1175 	1194
f 1133 	1173 	1194
f 1133 	1194 	1187
f 9 	1190 	7
f 1055 	1052 	716
f 1171 	1196 	1260
f 876 	1166 	1067
f 1281 	7 	1190
f 1201 	1202 	1140
f 1260 	1196 	1177
f 1053 	1056 	825
f 1196 	1100 	1109
f 825 	743 	1053
f 594 	1067 	1164
f 1203 	1204 	1140
f 1160 	1140 	1204
f 1159 	1160 	1204
f 1156 	1159 	1204
f 1196 	1109 	1177
f 1059 	1054 	1208
f 1281 	45 	46
f 593 	1067 	594
f 598 	1067 	593
f 615 	1067 	598
f 1058 	885 	884
f 1058 	884 	1057
f 1133 	1146 	1204
f 592 	597 	1067
f 597 	839 	1067
f 1204 	1205 	1133
f 1157 	1156 	1204
f 1205 	1162 	1133
f 837 	1250 	828
f 1211 	1161 	1209
f 1197 	1161 	1211
f 1250 	1067 	828
f 839 	828 	1067
f 1087 	1200 	1207
f 1208 	1038 	1059
f 1038 	1208 	1036
f 840 	1250 	837
f 846 	1250 	840
f 845 	1250 	861
f 1433 	1036 	1208
f 887 	886 	1062
f 887 	1062 	1061
f 887 	1061 	1057
f 592 	1067 	615
f 861 	1250 	846
f 1058 	1062 	886
f 1058 	886 	885
f 1117 	985 	852
f 892 	890 	1064
f 892 	1064 	1067
f 568 	891 	1065
f 844 	1250 	845
f 1065 	891 	893
f 1065 	893 	1066
f 892 	1067 	1250
f 893 	572 	1066
f 352 	1066 	572
f 947 	1444 	1136
f 931 	985 	1073
f 1222 	1252 	1220
f 1084 	1060 	1063
f 1221 	1071 	1242
f 1223 	1252 	1222
f 1221 	1069 	1071
f 1227 	1176 	1226
f 1072 	1070 	1316
f 1224 	1161 	1227
f 463 	734 	461
f 1216 	1161 	1224
f 1217 	1161 	1216
f 1176 	1266 	1226
f 734 	463 	466
f 1218 	1161 	1217
f 1229 	1161 	1218
f 466 	467 	741
f 1209 	1161 	1229
f 1176 	1227 	1161
f 1202 	1203 	1140
f 1232 	1282 	1231
f 1233 	1282 	1232
f 471 	741 	467
f 1207 	1200 	1230
f 1074 	19 	1075
f 741 	471 	472
f 1231 	921 	1232
f 1076 	1075 	37
f 745 	472 	476
f 1207 	1219 	961
f 907 	1231 	905
f 745 	476 	478
f 909 	1289 	906
f 1233 	906 	1287
f 745 	478 	1045
f 919 	1231 	907
f 921 	1231 	919
f 1081 	1077 	1234
f 1045 	478 	481
f 1233 	1232 	906
f 906 	1232 	921
f 1215 	1290 	909
f 1230 	1220 	1207
f 1226 	1291 	1215
f 1234 	1079 	1082
f 1239 	1050 	482
f 1090 	1304 	1200
f 1242 	1080 	1079
f 1084 	1117 	772
f 1081 	1234 	1082
f 1085 	1080 	1242
f 1071 	1085 	1242
f 1240 	1250 	844
f 1241 	1250 	1240
f 1238 	1250 	1241
f 1210 	1214 	1272
f 1247 	1249 	1250
f 491 	1243 	489
f 1236 	1237 	1250
f 1238 	1236 	1250
f 1252 	1250 	1249
f 1446 	1225 	978
f 1245 	1252 	1249
f 1237 	1247 	1250
f 1219 	1252 	1246
f 1245 	1246 	1252
f 1219 	1220 	1252
f 1139 	83 	1142
f 15 	1292 	1252
f 1256 	1252 	1255
f 1257 	508 	521
f 1231 	1135 	905
f 1165 	83 	1139
f 3 	1142 	83
f 1255 	1252 	1258
f 1223 	1258 	1252
f 1168 	83 	1165
f 1259 	1049 	1230
f 1137 	83 	1168
f 595 	508 	1257
f 1262 	1252 	1256
f 1135 	1231 	1137
f 83 	1137 	1231
f 1264 	1252 	1262
f 1268 	1282 	1267
f 1266 	1267 	1282
f 1269 	1294 	1268
f 1270 	1273 	1269
f 1260 	1252 	1264
f 1261 	519 	1260
f 1263 	519 	1261
f 1259 	1230 	1200
f 521 	1206 	1257
f 1271 	519 	1263
f 1277 	1278 	1252
f 1266 	1176 	1267
f 1304 	1259 	1200
f 1252 	1260 	519
f 534 	519 	1271
f 1265 	1226 	1266
f 1291 	1226 	1265
f 1290 	1215 	1291
f 1289 	909 	1290
f 1287 	906 	1289
f 1274 	29 	1064
f 21 	1065 	29
f 1270 	1176 	1273
f 1278 	29 	1252
f 1269 	1176 	1270
f 1296 	1294 	134
f 1250 	1252 	29
f 1253 	15 	1252
f 1274 	1250 	29
f 1269 	1268 	1176
f 1268 	1267 	1176
f 1272 	1322 	1281
f 1285 	1231 	1284
f 1283 	1284 	1231
f 83 	1231 	109
f 1282 	1283 	1231
f 1282 	1233 	1287
f 1282 	1287 	1289
f 1282 	1289 	1290
f 1282 	1290 	1291
f 1282 	1291 	1265
f 1294 	1296 	1268
f 1296 	1298 	1268
f 1298 	1282 	1268
f 1265 	1266 	1282
f 1158 	1239 	1243
f 1288 	1252 	1279
f 1276 	1252 	1288
f 1279 	1252 	1280
f 1292 	1293 	1252
f 1293 	1295 	1252
f 1277 	1252 	1276
f 1295 	1297 	1252
f 1297 	1299 	1252
f 1299 	1300 	1252
f 1280 	1252 	1286
f 1300 	1301 	1252
f 1301 	1302 	1252
f 1303 	1252 	1302
f 1286 	1252 	1303
f 1339 	1243 	300
f 57 	1146 	1133
f 1243 	306 	305
f 57 	56 	1146
f 1090 	1171 	1254
f 56 	1147 	1146
f 1254 	1171 	1083
f 300 	1243 	305
f 1275 	401 	403
f 56 	38 	1147
f 38 	1148 	1147
f 38 	36 	1149
f 1049 	1259 	1304
f 38 	1149 	1148
f 1284 	134 	1285
f 1285 	134 	109
f 1283 	134 	1284
f 1149 	40 	1150
f 1282 	134 	1283
f 1149 	36 	40
f 1298 	134 	1282
f 40 	39 	1151
f 39 	43 	1151
f 1294 	1305 	134
f 40 	1151 	1150
f 1294 	1269 	1273
f 1305 	1294 	1273
f 43 	1152 	1151
f 1176 	134 	1305
f 1243 	1339 	1158
f 43 	42 	1153
f 1273 	1176 	1305
f 1296 	134 	1298
f 42 	54 	1153
f 43 	1153 	1152
f 1254 	1083 	1255
f 54 	1154 	1153
f 54 	53 	1154
f 53 	52 	1154
f 8 	77 	1306
f 77 	1189 	1306
f 52 	1155 	1154
f 52 	51 	1155
f 51 	1143 	1155
f 1087 	1088 	1200
f 51 	50 	1143
f 46 	55 	77
f 1091 	1200 	1088
f 306 	1243 	1248
f 50 	1144 	1143
f 50 	49 	1144
f 1039 	1087 	1207
f 55 	41 	77
f 41 	74 	77
f 77 	8 	10
f 1207 	961 	1039
f 1251 	1027 	769
f 1281 	1190 	1272
f 1272 	1214 	1322
f 1200 	1091 	1092
f 74 	68 	77
f 68 	67 	77
f 1200 	1092 	1093
f 405 	1060 	1275
f 83 	77 	67
f 13 	46 	77
f 1090 	1200 	1093
f 16 	83 	67
f 17 	83 	16
f 1285 	109 	1231
f 1093 	1094 	1090
f 1251 	769 	770
f 1094 	1095 	1090
f 193 	1403 	1307
f 1206 	1210 	1257
f 551 	83 	549
f 1251 	1275 	1027
f 1090 	1095 	1096
f 7 	1281 	13
f 770 	1307 	1251
f 1096 	1098 	1100
f 1235 	786 	1086
f 1403 	1244 	1307
f 1100 	1098 	1099
f 1109 	1099 	1101
f 464 	1109 	1101
f 1109 	464 	249
f 502 	1308 	1309
f 1311 	889 	902
f 1307 	770 	196
f 902 	1236 	1311
f 1307 	1244 	1251
f 193 	1307 	196
f 1308 	1375 	1309
f 1240 	844 	1310
f 1403 	391 	1244
f 875 	889 	1310
f 392 	1244 	391
f 1244 	396 	1251
f 874 	875 	1310
f 844 	874 	1310
f 776 	1225 	775
f 396 	1244 	392
f 396 	401 	1251
f 1228 	774 	775
f 1251 	401 	1275
f 1310 	889 	1311
f 1228 	775 	1225
f 1225 	776 	777
f 1275 	403 	405
f 1225 	777 	778
f 1060 	405 	406
f 1225 	778 	1235
f 1240 	1310 	1241
f 1235 	778 	785
f 1060 	406 	1063
f 786 	1235 	785
f 1063 	406 	408
f 409 	1063 	408
f 1089 	1086 	787
f 787 	1086 	786
f 1089 	787 	1097
f 13 	1281 	46
f 788 	1097 	787
f 410 	411 	931
f 931 	411 	382
f 521 	138 	242
f 48 	1145 	49
f 242 	1206 	521
f 1145 	1144 	49
f 1206 	242 	245
f 1206 	245 	1210
f 247 	1214 	1210
f 1312 	948 	1245
f 247 	1210 	245
f 1239 	482 	485
f 247 	252 	1214
f 487 	1239 	485
f 1239 	487 	1243
f 1243 	487 	489
f 1338 	1115 	1130
f 1157 	1145 	48
f 1309 	493 	495
f 1207 	1220 	1219
f 41 	45 	1314
f 59 	1156 	1157
f 1157 	62 	59
f 48 	62 	1157
f 59 	58 	1159
f 45 	1352 	1314
f 59 	1159 	1156
f 58 	1160 	1159
f 1314 	11 	41
f 1049 	1223 	1222
f 1160 	61 	1140
f 1160 	58 	61
f 64 	1176 	1161
f 136 	64 	1161
f 1069 	1221 	1317
f 1248 	1243 	491
f 493 	1309 	1248
f 1230 	1222 	1220
f 1248 	491 	493
f 1309 	495 	497
f 1406 	1169 	1163
f 499 	1309 	497
f 1356 	67 	1315
f 1222 	1230 	1049
f 1163 	4 	1406
f 1308 	502 	503
f 1049 	1319 	1223
f 1356 	71 	67
f 1309 	499 	502
f 1319 	1254 	1255
f 1308 	503 	506
f 1049 	1304 	1319
f 1319 	1304 	1254
f 1331 	1173 	1172
f 1322 	1214 	252
f 1331 	457 	1173
f 1236 	902 	1237
f 1173 	457 	1174
f 1311 	1236 	1238
f 1322 	252 	256
f 386 	1175 	1174
f 1238 	1241 	1310
f 386 	1174 	578
f 1310 	1311 	1238
f 1195 	386 	616
f 1195 	1175 	386
f 1246 	1245 	948
f 1219 	1246 	948
f 1247 	1237 	1312
f 1318 	1047 	1046
f 945 	1312 	1237
f 148 	1341 	153
f 1237 	902 	945
f 1249 	1247 	1312
f 1249 	1312 	1245
f 1105 	1102 	1274
f 1250 	1274 	1102
f 1250 	1102 	892
f 1104 	1103 	1253
f 1104 	1253 	1252
f 1366 	150 	1321
f 1252 	519 	1104
f 511 	510 	519
f 510 	1104 	519
f 1323 	1326 	269
f 1083 	1256 	1255
f 1352 	1281 	1324
f 1258 	1223 	1319
f 1255 	1258 	1319
f 1328 	957 	421
f 1181 	1329 	1184
f 1171 	1262 	1256
f 1256 	1083 	1171
f 1322 	1324 	1281
f 1327 	1342 	982
f 1330 	1328 	423
f 1329 	1183 	1185
f 1271 	1263 	525
f 1003 	957 	1328
f 1329 	474 	1183
f 1260 	1177 	1261
f 1172 	1183 	474
f 1177 	1263 	1261
f 1263 	1177 	525
f 534 	1271 	525
f 263 	1332 	1325
f 512 	1253 	1103
f 512 	1103 	513
f 474 	1331 	1172
f 1274 	1064 	1105
f 890 	1105 	1064
f 1184 	1329 	1185
f 1332 	263 	264
f 72 	76 	1187
f 1194 	77 	73
f 1110 	1108 	1276
f 1108 	1277 	1276
f 1108 	1107 	1277
f 1107 	1278 	1277
f 1107 	1106 	1278
f 1106 	30 	29
f 1106 	29 	1278
f 1210 	1272 	1189
f 1132 	15 	14
f 1317 	1070 	1069
f 1257 	1210 	1189
f 266 	259 	1323
f 1192 	1191 	1336
f 653 	1323 	259
f 1188 	1178 	1191
f 1323 	269 	268
f 595 	1178 	1188
f 1178 	1257 	1336
f 1191 	1178 	1336
f 1193 	1192 	1336
f 1193 	1336 	1189
f 1341 	1330 	1333
f 1323 	1050 	1239
f 1336 	1257 	1189
f 1194 	73 	72
f 1194 	72 	1187
f 1316 	1320 	1112
f 1195 	595 	1188
f 1320 	1316 	1370
f 1195 	616 	595
f 1072 	1316 	1112
f 1320 	1113 	1114
f 266 	1323 	268
f 1228 	1335 	774
f 1326 	1339 	271
f 1320 	1370 	1363
f 1323 	1239 	1158
f 1320 	1363 	1113
f 1323 	1158 	1326
f 1326 	1158 	1339
f 1114 	1112 	1320
f 269 	1326 	271
f 1366 	1321 	1341
f 271 	1339 	300
f 195 	1337 	273
f 1113 	1338 	1130
f 148 	146 	1330
f 926 	1003 	1330
f 1340 	1388 	1372
f 146 	926 	1330
f 148 	1330 	1341
f 1343 	954 	955
f 1388 	1340 	1047
f 1337 	195 	1360
f 1345 	1343 	955
f 1341 	1321 	153
f 71 	1334 	140
f 1392 	1198 	1197
f 1348 	1340 	1382
f 1360 	140 	1334
f 1345 	955 	956
f 1352 	45 	1281
f 1327 	1340 	1348
f 1201 	1199 	1350
f 1351 	1324 	1325
f 1349 	1345 	956
f 1327 	1348 	1342
f 1199 	248 	1350
f 461 	734 	1346
f 1351 	1352 	1324
f 1362 	1361 	1346
f 1351 	1314 	1352
f 1350 	1353 	1202
f 1346 	1361 	1347
f 1355 	976 	1358
f 1201 	1350 	1202
f 1355 	1358 	1228
f 1356 	1351 	1332
f 1355 	1228 	1225
f 1202 	1353 	1203
f 1356 	1315 	1351
f 1225 	1446 	1355
f 1347 	1354 	435
f 1314 	1351 	11
f 1370 	1345 	1349
f 1342 	1455 	982
f 1347 	435 	436
f 1357 	1162 	1205
f 1351 	1325 	1332
f 1351 	1315 	11
f 1342 	1348 	1335
f 1358 	1455 	1342
f 1358 	1342 	1335
f 1359 	1482 	1343
f 1358 	1335 	1228
f 1360 	1334 	1337
f 1070 	1317 	1359
f 1346 	922 	1362
f 744 	1361 	1362
f 34 	1365 	1357
f 1346 	734 	922
f 1357 	1365 	1162
f 241 	744 	1362
f 1356 	1332 	1334
f 1362 	922 	241
f 1356 	1334 	71
f 1204 	1357 	1205
f 1366 	1341 	1354
f 1359 	1316 	1070
f 258 	1322 	256
f 258 	260 	1324
f 1359 	1343 	1345
f 1132 	1292 	15
f 1132 	1131 	1292
f 1292 	1129 	1293
f 1209 	1229 	1368
f 1131 	1129 	1292
f 1129 	1128 	1293
f 1128 	1295 	1293
f 1368 	282 	291
f 1128 	1127 	1295
f 291 	1394 	1368
f 1127 	1297 	1295
f 1359 	1345 	1316
f 1368 	1394 	1197
f 1127 	1126 	1297
f 1126 	1299 	1297
f 1229 	704 	320
f 1126 	1125 	1299
f 1125 	1300 	1299
f 1229 	320 	1368
f 1371 	301 	1380
f 1125 	1124 	1300
f 1124 	1123 	1301
f 1124 	1301 	1300
f 1345 	1370 	1316
f 1123 	1122 	1302
f 1123 	1302 	1301
f 1338 	1113 	1363
f 1391 	1414 	1363
f 1122 	1121 	1303
f 1122 	1303 	1302
f 1199 	254 	248
f 1414 	1338 	1363
f 1211 	1209 	1368
f 1121 	1120 	1286
f 1121 	1286 	1303
f 1368 	320 	282
f 1286 	1119 	1280
f 1286 	1120 	1119
f 1118 	1279 	1280
f 1197 	1211 	1368
f 1198 	1369 	1212
f 1119 	1118 	1280
f 1118 	1288 	1279
f 1111 	1288 	1118
f 1309 	1375 	1429
f 1288 	1111 	1110
f 1164 	1374 	594
f 1288 	1110 	1276
f 1341 	1333 	1354
f 151 	150 	1376
f 744 	151 	1376
f 1248 	1309 	1379
f 1371 	1379 	1309
f 744 	1376 	1361
f 1376 	1354 	1347
f 1371 	1380 	1379
f 1376 	1347 	1361
f 306 	1248 	1379
f 1379 	1380 	1344
f 1366 	1376 	150
f 1388 	1367 	1372
f 1116 	1377 	1381
f 1354 	1376 	1366
f 1381 	1377 	1166
f 1167 	1166 	1378
f 1164 	1167 	1378
f 1346 	1347 	413
f 1346 	413 	412
f 412 	461 	1346
f 1381 	1166 	1170
f 1116 	1381 	1170
f 421 	957 	420
f 421 	422 	1328
f 1328 	422 	423
f 423 	427 	1330
f 1340 	1372 	1373
f 1330 	427 	428
f 1382 	1340 	1373
f 429 	1330 	428
f 429 	1333 	1330
f 1335 	1348 	1382
f 1411 	1115 	1338
f 432 	1333 	429
f 432 	1354 	1333
f 432 	434 	1354
f 1354 	434 	435
f 1322 	258 	1324
f 1186 	1313 	1383
f 262 	1324 	260
f 1347 	436 	413
f 1324 	262 	1325
f 1422 	1166 	1377
f 1386 	1383 	1364
f 262 	263 	1325
f 265 	1332 	264
f 1386 	1186 	1383
f 265 	267 	1334
f 1332 	265 	1334
f 1334 	267 	1337
f 969 	1389 	1349
f 1337 	267 	272
f 273 	1337 	272
f 1391 	1389 	972
f 237 	1392 	1394
f 1189 	1272 	1306
f 8 	1306 	9
f 1318 	1388 	1047
f 1190 	9 	1306
f 1394 	1392 	1197
f 1306 	1272 	1190
f 9 	7 	10
f 1392 	237 	1369
f 1386 	1046 	1048
f 1198 	1392 	1369
f 1396 	1364 	1367
f 1386 	1364 	1396
f 1386 	1396 	1318
f 1199 	1369 	254
f 1367 	1388 	1396
f 248 	1353 	1350
f 1396 	1388 	1318
f 1212 	1369 	1213
f 1318 	1046 	1386
f 1213 	1369 	1199
f 1044 	1386 	1048
f 190 	1397 	1408
f 650 	1399 	1398
f 1215 	909 	910
f 1400 	1391 	972
f 1415 	192 	190
f 1217 	1216 	683
f 1398 	1215 	910
f 1218 	1217 	704
f 1224 	683 	1216
f 1227 	1398 	1399
f 1226 	1215 	1398
f 1227 	1226 	1398
f 1402 	1401 	440
f 1229 	1218 	704
f 704 	1217 	683
f 1402 	440 	446
f 1399 	1224 	1227
f 1389 	1370 	1349
f 1403 	1402 	446
f 1224 	1399 	650
f 1363 	1389 	1391
f 975 	1404 	1400
f 1370 	1389 	1363
f 391 	1403 	446
f 275 	1393 	1395
f 1410 	1400 	1404
f 1438 	277 	1395
f 1162 	1365 	1405
f 34 	1203 	1353
f 1353 	248 	207
f 207 	34 	1353
f 1405 	1163 	1162
f 1308 	506 	1407
f 1416 	1430 	1408
f 4 	1163 	1405
f 1408 	1430 	1401
f 1357 	1204 	34
f 1414 	1391 	1400
f 1397 	1416 	1408
f 34 	1204 	1203
f 1400 	1410 	1411
f 1413 	470 	1329
f 1408 	1401 	1402
f 1414 	1400 	1411
f 1338 	1414 	1411
f 1422 	1410 	1421
f 4 	131 	1406
f 1422 	1377 	1410
f 1410 	1404 	1421
f 1411 	1410 	1115
f 474 	1329 	470
f 1417 	1428 	1407
f 1410 	1116 	1115
f 1181 	1180 	1413
f 1397 	215 	1416
f 1116 	1410 	1377
f 1406 	1179 	1182
f 190 	1408 	1415
f 1179 	1406 	131
f 1409 	1417 	1407
f 1180 	1179 	131
f 1169 	1406 	1182
f 1413 	1329 	1181
f 1408 	1402 	1415
f 1420 	1393 	275
f 1415 	1402 	1403
f 34 	123 	80
f 60 	34 	84
f 193 	1415 	1403
f 192 	1415 	193
f 34 	80 	84
f 1404 	979 	1421
f 462 	211 	236
f 1420 	1384 	1387
f 4 	34 	60
f 619 	211 	462
f 1384 	1412 	1387
f 1365 	34 	1405
f 1420 	1387 	1393
f 60 	65 	4
f 1405 	34 	4
f 1434 	215 	214
f 215 	1434 	1416
f 506 	516 	1407
f 215 	1397 	1390
f 518 	1407 	516
f 222 	212 	1385
f 1407 	518 	1409
f 214 	222 	1385
f 1409 	518 	1412
f 518 	520 	1412
f 1421 	983 	1418
f 1390 	190 	229
f 1412 	522 	1387
f 229 	215 	1390
f 649 	696 	1374
f 522 	1412 	520
f 1419 	649 	1374
f 1387 	522 	526
f 527 	1387 	526
f 1419 	1374 	1164
f 527 	529 	1393
f 1387 	527 	1393
f 532 	1393 	529
f 1393 	536 	1395
f 1418 	1422 	1421
f 536 	1393 	532
f 1422 	1418 	1378
f 537 	1395 	536
f 1422 	1378 	1166
f 539 	1438 	537
f 539 	186 	1438
f 1419 	1164 	1378
f 130 	619 	234
f 1418 	1419 	1378
f 1435 	212 	211
f 963 	962 	1418
f 962 	1419 	1418
f 278 	275 	1423
f 649 	1419 	966
f 28 	451 	1424
f 966 	1419 	962
f 1395 	1423 	275
f 1424 	451 	452
f 281 	278 	1423
f 452 	1425 	1424
f 1423 	276 	281
f 956 	969 	1349
f 1423 	1395 	276
f 285 	277 	465
f 1389 	969 	972
f 1426 	1425 	454
f 1426 	454 	455
f 1395 	277 	276
f 972 	974 	1400
f 1400 	974 	975
f 285 	465 	230
f 1371 	1309 	302
f 979 	1404 	975
f 1427 	1426 	456
f 1428 	1308 	1407
f 979 	981 	1421
f 1421 	981 	983
f 288 	1417 	1409
f 1418 	983 	963
f 1309 	1429 	302
f 289 	288 	1409
f 1430 	1427 	456
f 1428 	1375 	1308
f 1429 	1375 	1428
f 1317 	1221 	1482
f 1428 	287 	290
f 1428 	1417 	287
f 1044 	1186 	1386
f 1430 	456 	440
f 1432 	28 	1424
f 28 	1432 	130
f 1417 	288 	287
f 790 	1364 	789
f 294 	293 	1420
f 792 	1364 	790
f 1420 	275 	294
f 1425 	1426 	1434
f 1420 	293 	1431
f 1364 	792 	1367
f 1367 	792 	795
f 297 	289 	1431
f 797 	1372 	795
f 1367 	795 	1372
f 1372 	797 	1373
f 289 	1409 	1412
f 797 	799 	1373
f 1384 	289 	1412
f 1373 	799 	1382
f 1431 	289 	1384
f 1335 	1382 	799
f 1420 	1431 	1384
f 1401 	1430 	440
f 1335 	799 	801
f 1431 	293 	297
f 1335 	801 	774
f 1379 	1344 	306
f 743 	1456 	1458
f 619 	130 	1432
f 1458 	1054 	743
f 1432 	1424 	1425
f 211 	619 	1432
f 301 	308 	1380
f 1371 	302 	301
f 1435 	1434 	1385
f 306 	1344 	309
f 1435 	1432 	1425
f 1435 	1425 	1434
f 1432 	1435 	211
f 1344 	308 	309
f 1344 	1380 	308
f 1037 	1036 	1433
f 1429 	318 	302
f 318 	1429 	1428
f 1416 	1427 	1430
f 290 	318 	1428
f 548 	550 	324
f 548 	324 	322
f 565 	325 	20
f 214 	1385 	1434
f 325 	21 	20
f 565 	326 	325
f 1434 	1426 	1427
f 565 	564 	327
f 565 	327 	326
f 327 	563 	328
f 327 	564 	563
f 563 	562 	328
f 562 	561 	329
f 562 	329 	328
f 1435 	1385 	212
f 561 	560 	330
f 561 	330 	329
f 560 	559 	331
f 560 	331 	330
f 559 	558 	332
f 559 	332 	331
f 558 	557 	333
f 558 	333 	332
f 557 	556 	334
f 557 	334 	333
f 1416 	1434 	1427
f 556 	555 	335
f 556 	335 	334
f 555 	554 	335
f 554 	336 	335
f 1436 	829 	1437
f 554 	553 	336
f 553 	337 	336
f 1438 	1395 	537
f 553 	552 	338
f 553 	338 	337
f 1065 	339 	568
f 572 	568 	339
f 572 	339 	352
f 348 	324 	569
f 550 	569 	324
f 348 	569 	573
f 348 	573 	351
f 573 	548 	351
f 322 	351 	548
f 576 	581 	354
f 1439 	1438 	186
f 575 	374 	353
f 137 	353 	374
f 371 	577 	355
f 371 	355 	133
f 577 	575 	355
f 353 	355 	575
f 581 	378 	354
f 581 	946 	378
f 186 	28 	1439
f 581 	740 	946
f 718 	576 	925
f 354 	925 	576
f 838 	1440 	1437
f 723 	722 	928
f 723 	928 	927
f 28 	186 	191
f 722 	721 	928
f 721 	929 	928
f 721 	720 	929
f 720 	930 	929
f 930 	719 	932
f 277 	1438 	465
f 720 	719 	930
f 932 	719 	739
f 739 	933 	932
f 407 	28 	191
f 739 	738 	933
f 738 	934 	933
f 465 	1438 	1439
f 738 	737 	934
f 737 	935 	934
f 935 	736 	936
f 737 	736 	935
f 28 	407 	450
f 736 	937 	936
f 736 	735 	937
f 735 	938 	937
f 735 	733 	939
f 735 	939 	938
f 28 	128 	1439
f 733 	732 	940
f 733 	940 	939
f 732 	731 	941
f 732 	941 	940
f 843 	1441 	1440
f 128 	465 	1439
f 731 	730 	941
f 730 	942 	941
f 450 	451 	28
f 730 	729 	942
f 729 	728 	943
f 729 	943 	942
f 1436 	1437 	1460
f 943 	727 	944
f 728 	727 	943
f 727 	726 	944
f 726 	2 	1
f 726 	1 	944
f 925 	946 	740
f 925 	740 	718
f 951 	947 	1442
f 1442 	949 	953
f 1442 	1443 	949
f 951 	1442 	953
f 789 	1364 	1441
f 1440 	1441 	1383
f 1445 	964 	968
f 1364 	1383 	1441
f 1136 	106 	1443
f 1460 	1437 	1040
f 1040 	1437 	1041
f 1446 	976 	1355
f 1313 	1447 	1383
f 1447 	1437 	1440
f 978 	977 	1446
f 1447 	1440 	1383
f 1225 	1445 	978
f 1447 	1041 	1437
f 1313 	1041 	1447
f 965 	1444 	971
f 1445 	1225 	1235
f 1450 	1445 	1235
f 1450 	1235 	1086
f 1450 	1086 	1451
f 1449 	825 	767
f 1136 	1444 	1451
f 1449 	1456 	825
f 964 	1445 	1450
f 964 	1450 	1451
f 1451 	965 	964
f 1454 	1448 	823
f 1444 	965 	1451
f 1451 	1086 	1136
f 968 	970 	1445
f 971 	1444 	947
f 1456 	1449 	1448
f 947 	1136 	1442
f 1452 	1327 	1453
f 1452 	1340 	1327
f 1453 	982 	980
f 1453 	1327 	982
f 984 	982 	1455
f 1454 	823 	824
f 986 	984 	1455
f 1455 	976 	986
f 1458 	1456 	1448
f 1454 	1459 	1448
f 1455 	1358 	976
f 970 	978 	1445
f 1446 	977 	976
f 1436 	1454 	824
f 959 	958 	1457
f 990 	999 	453
f 1459 	1458 	1448
f 1457 	996 	960
f 1436 	1459 	1454
f 453 	999 	996
f 959 	1457 	960
f 1460 	1459 	1436
f 1008 	991 	1461
f 1460 	1433 	1459
f 1462 	771 	1461
f 991 	990 	1462
f 1458 	1459 	1208
f 991 	1462 	1461
f 1054 	1458 	1208
f 1461 	566 	1008
f 773 	570 	1461
f 1459 	1433 	1208
f 773 	1461 	771
f 1461 	570 	566
f 1433 	1460 	1037
f 949 	1443 	106
f 1460 	1040 	1037
f 950 	949 	106
f 767 	766 	813
f 816 	767 	813
f 767 	816 	817
f 767 	817 	1449
f 952 	950 	292
f 996 	1457 	23
f 1448 	817 	820
f 952 	292 	958
f 1449 	817 	1448
f 292 	299 	958
f 822 	1448 	820
f 1457 	958 	299
f 453 	996 	23
f 1448 	822 	823
f 1462 	469 	771
f 1436 	824 	827
f 460 	1462 	990
f 460 	469 	1462
f 1436 	827 	829
f 829 	836 	1437
f 460 	990 	453
f 1437 	836 	838
f 841 	1440 	838
f 1463 	1097 	788
f 843 	1440 	841
f 1463 	788 	486
f 1441 	843 	789
f 292 	1463 	486
f 1017 	528 	545
f 292 	486 	490
f 106 	1097 	1463
f 1017 	545 	1026
f 292 	490 	494
f 106 	1463 	292
f 292 	494 	323
f 1020 	1467 	1021
f 25 	1021 	1467
f 1136 	1097 	106
f 1022 	1464 	1019
f 106 	292 	950
f 1019 	1017 	1022
f 1457 	299 	23
f 1468 	1467 	1020
f 47 	1465 	32
f 1465 	1475 	1476
f 1465 	1476 	32
f 33 	32 	1466
f 1464 	1022 	1469
f 1469 	1019 	1464
f 1469 	1020 	1019
f 1020 	1469 	1468
f 1470 	924 	751
f 1472 	1473 	1475
f 1469 	1022 	924
f 924 	1470 	1469
f 1469 	1470 	1471
f 1472 	1474 	1471
f 1472 	1475 	1474
f 1469 	1471 	1474
f 1474 	1468 	1469
f 1475 	1465 	1474
f 1473 	1476 	1475
f 370 	1476 	1473
f 25 	1468 	1474
f 1474 	1465 	47
f 25 	1474 	47
f 1476 	370 	1466
f 1476 	1466 	32
f 1470 	751 	848
f 1470 	848 	1471
f 851 	1472 	848
f 1471 	848 	1472
f 853 	1473 	1472
f 853 	1472 	851
f 1473 	853 	857
f 673 	1473 	857
f 673 	370 	1473
f 1468 	25 	1467
f 1079 	1234 	1477
f 1079 	1477 	1242
f 1477 	1478 	1242
f 1480 	1479 	1007
f 1480 	1478 	1479
f 1481 	1009 	1010
f 1479 	1478 	1477
f 1482 	1480 	1481
f 1481 	1343 	1482
f 1359 	1317 	1482
f 1242 	1478 	1480
f 1242 	1480 	1482
f 1221 	1242 	1482
f 1483 	998 	1000
f 1484 	1483 	1000
f 1485 	1002 	1004
f 1078 	1076 	1484
f 1479 	1485 	1004
f 1234 	1077 	1484
f 1485 	1477 	1234
f 1479 	1477 	1485
f 1078 	1484 	1077
f 1485 	1234 	1484
f 1076 	37 	1484
f 37 	1483 	1484
f 1483 	994 	998
f 1484 	1000 	1001
f 1484 	1001 	1485
f 1485 	1001 	1002
f 1004 	1005 	1479
f 1479 	1005 	1007
f 1480 	1007 	1009
f 1480 	1009 	1481
f 1343 	1481 	1010
f 1010 	954 	1343
f 12 	149 	1012
f 12 	1012 	1014
f 12 	1014 	994
f 12 	18 	149
f 12 	994 	1483
f 199 	567 	1486
f 1075 	12 	37
f 1483 	37 	12
f 1486 	198 	199
f 1486 	571 	198
f 1486 	567 	571
f 12 	1075 	19
f 18 	19 	1074
f 31 	18 	590
f 18 	12 	19
f 199 	149 	567
# 3024 faces

 #end of obj_0

