# Object Export From Tinkercad Server 2015

mtllib obj.mtl

o obj_0
v -43.303 		-23.73 		1.96
v -43.807 		-23.836 		1.45
v -43.807 		-24.164 		0
v -43.803 		-23.918 		0
v -43.825 		-24.328 		0
v -43.844 		-24.436 		0
v -44.281 		-22.629 		0
v -44.095 		-22.9 		0
v -48.175 		-24.328 		0
v -48.156 		-24.436 		0
v -43.985 		-23.121 		0
v -48.197 		-24.11 		0
v -43.898 		-23.352 		0
v -48.193 		-23.836 		0
v -48.175 		-23.672 		0
v -43.844 		-23.564 		0
v -48.156 		-23.564 		0
v -43.825 		-23.672 		0
v -48.102 		-23.352 		0
v -48.047 		-23.197 		0
v -47.932 		-22.948 		0
v -46.369 		-21.058 		2.215
v -47.877 		-22.853 		0
v -46.08 		-20.781 		2.47
v -47.818 		-22.761 		0
v -47.685 		-22.586 		0
v -43.898 		-24.648 		0
v -44.095 		-25.1 		0
v -44.281 		-25.371 		0
v -44.426 		-25.536 		0
v -44.672 		-25.753 		0
v -44.853 		-25.877 		0
v -45.046 		-25.982 		0
v -45.397 		-20.578 		2.725
v -45.248 		-26.067 		0
v -45.457 		-26.131 		0
v -45.672 		-26.175 		0
v -45.89 		-26.197 		0
v -46.11 		-26.197 		0
v -46.328 		-26.175 		0
v -46.543 		-26.131 		0
v -46.854 		-26.027 		0
v -47.052 		-25.931 		0
v -47.284 		-25.786 		0
v -47.372 		-25.72 		0
v -47.574 		-25.536 		0
v -47.685 		-25.414 		0
v -47.818 		-25.239 		0
v -47.877 		-25.147 		0
v -47.932 		-25.052 		0
v -48.047 		-24.804 		0
v -60 		28 		4
v -60 		28 		0
v -48.102 		-24.648 		0
v 46 		20.197 		1.45
v -45.266 		-21.391 		1.96
v -36.74 		43.084 		4
v -36.663 		43.209 		4
v -36.984 		42.343 		4
v -36.898 		42.725 		4
v -35 		44.098 		4
v -35.342 		44.068 		4
v -35.533 		44.025 		4
v -35.787 		43.935 		4
v -36.068 		43.785 		4
v -36.36 		43.562 		4
v -37 		42.098 		4
v 45.196 		20.048 		0
v -37 		23.8 		4
v 45.299 		20.085 		0
v -45.781 		-21.814 		1.45
v 45.51 		20.145 		0
v -44.828 		22.602 		4
v -43.833 		22.227 		4
v -43.325 		21.923 		4
v 45.836 		20.194 		0
v 45.945 		20.199 		0
v -45.457 		-21.869 		1.45
v -44.487 		22.503 		4
v 46.164 		20.194 		0
v -44.156 		22.376 		4
v 46.49 		20.145 		0
v -42.361 		21.053 		4
v -42.075 		20.676 		4
v -42.601 		21.316 		4
v 46.701 		20.085 		0
v -42.948 		21.638 		4
v 46.804 		20.048 		0
v 47.027 		19.943 		0
v -47.172 		22.602 		4
v -45.175 		22.678 		4
v -45.645 		22.737 		4
v -46.825 		22.678 		4
v -46.355 		22.737 		4
v -46 		22.749 		4
v -48.773 		21.857 		4
v -48.375 		22.114 		4
v -49.052 		21.638 		4
v -60 		-44 		0
v -60 		-44 		4
v 36.951 		42.536 		0
v 36.984 		42.343 		0
v 36.606 		43.289 		0
v 36.727 		43.104 		0
v 35.342 		44.068 		0
v 35.533 		44.025 		0
v 35 		44.098 		0
v 35.855 		43.906 		0
v 36.07 		43.787 		0
v 36.23 		43.674 		0
v 36.379 		43.546 		0
v 50.377 		-25.845 		4
v 36.828 		42.908 		0
v 37 		42.098 		0
v 49.989 		-26.576 		4
v -46.853 		-21.976 		1.45
v 50.172 		-26.272 		4
v 50.539 		-25.4 		4
v 50.676 		-24.825 		4
v 49.639 		-27.053 		4
v 57.531 		31.696 		0
v 57.71 		31.616 		0
v 57.971 		31.479 		0
v 58.303 		31.269 		0
v 58.612 		31.028 		0
v 58.828 		30.828 		0
v 59.028 		30.612 		0
v 59.213 		30.383 		0
v 59.528 		29.886 		0
v 59.616 		29.71 		0
v 59.854 		29.067 		0
v 59.957 		28.587 		0
v 59.981 		28.392 		0
v 60 		28 		0
v -46.543 		-21.869 		1.45
v 56.587 		31.957 		0
v 56.972 		31.88 		0
v 50.603 		-25.172 		4
v 51.8 		31 		0
v 51.809 		31.122 		0
v 51.852 		31.313 		0
v 51.931 		31.492 		0
v 52.12 		31.732 		0
v 52.351 		31.893 		0
v 52.593 		31.978 		0
v 52.8 		32 		0
v 56 		32 		0
v 56.294 		31.988 		0
v -46.219 		-21.814 		1.45
v 49.399 		-27.316 		4
v 51.8 		23.8 		0
v 51.8 		-32 		4
v 51.8 		-32 		0
v 56.2 		-32 		0
v 56.2 		-32 		4
v 47.239 		19.817 		0
v 47.434 		19.666 		0
v 47.613 		19.496 		0
v 47.754 		19.328 		0
v 47.818 		19.239 		0
v 47.877 		19.147 		0
v 47.982 		18.955 		0
v 48.198 		17.973 		1.45
v -47.844 		22.376 		4
v -47.513 		22.503 		4
v 48.163 		17.619 		1.45
v -41.72 		20.061 		4
v -41.58 		19.735 		4
v -41.828 		20.272 		4
v -41.461 		19.4 		4
v 48.085 		18.7 		0
v 48.132 		18.543 		0
v 48.163 		18.381 		1.45
v 48.656 		17.463 		1.96
v 48.189 		17.781 		0
v 48.199 		17.945 		0
v 48.175 		17.672 		0
v 48.132 		17.457 		0
v -47.1 		-22.095 		0
v 48.085 		17.3 		0
v -46.954 		-22.018 		0
v 47.982 		17.045 		0
v 48.697 		18.27 		1.96
v -46.701 		-21.915 		0
v 47.877 		16.853 		0
v 47.818 		16.761 		0
v -46.382 		-21.833 		0
v 47.754 		16.672 		0
v -46.11 		-21.803 		0
v 47.613 		16.504 		0
v 47.496 		16.388 		0
v -45.945 		-21.801 		0
v -45.726 		-21.817 		0
v 48.175 		18.328 		0
v -45.618 		-21.833 		0
v 48.189 		18.219 		0
v -45.378 		-21.892 		0
v 48.056 		17.222 		1.45
v -45.146 		-21.973 		0
v 43.868 		18.543 		0
v 43.915 		18.7 		0
v -47.902 		19.098 		1.45
v 44.018 		18.955 		0
v 44.123 		19.147 		0
v 44.182 		19.239 		0
v 44.246 		19.328 		0
v 44.387 		19.496 		0
v -47.666 		19.434 		1.45
v -48.748 		-22.321 		2.47
v -41.324 		18.825 		4
v -41.288 		17.41 		4
v -41.371 		16.943 		4
v -41.461 		16.6 		4
v -41.253 		17.882 		4
v -49.108 		-21.116 		3.49
v -41.265 		18.355 		4
v -51.956 		31.534 		4
v -51.868 		31.359 		4
v 45.6 		-27.195 		2.47
v -51.8 		31 		4
v -51.811 		31.147 		4
v -51.825 		31.219 		4
v -52.043 		31.653 		4
v -52.111 		31.724 		4
v -52.225 		31.816 		4
v -52.329 		31.882 		4
v -52.533 		31.963 		4
v -52.8 		32 		4
v -56 		32 		4
v -56.392 		31.981 		4
v -56.684 		31.94 		4
v -56.972 		31.88 		4
v -57.254 		31.797 		4
v -59.731 		29.439 		4
v -59.616 		29.71 		4
v -57.62 		31.656 		4
v -58.056 		31.431 		4
v -58.538 		31.092 		4
v -59.028 		30.612 		4
v -59.326 		30.222 		4
v -59.854 		29.067 		4
v -59.94 		28.684 		4
v -49.856 		20.772 		4
v -49.639 		21.053 		4
v -49.317 		21.4 		4
v -51.8 		23.8 		4
v 45.397 		-26.642 		1.96
v -50.712 		18.59 		4
v -50.629 		19.057 		4
v -50.501 		19.512 		4
v -50.377 		19.845 		4
v -50.28 		20.061 		4
v -47.515 		-22.407 		1.45
v -50.053 		20.477 		4
v -50.712 		17.41 		4
v -47.574 		-22.464 		0
v -50.744 		17.763 		4
v -50.539 		16.6 		4
v -47.372 		-22.28 		0
v -50.744 		18.237 		4
v -47.237 		-22.185 		1.45
v -50.656 		17.059 		4
v -47.194 		-22.152 		0
v -41.58 		16.265 		4
v -41.774 		15.834 		4
v -42.011 		15.424 		4
v -42.683 		14.6 		4
v -42.948 		14.362 		4
v -42.44 		14.858 		4
v 46.317 		-28.228 		3.49
v -43.325 		14.077 		4
v -43.94 		13.722 		4
v -44.265 		13.578 		4
v 44.566 		19.666 		0
v -47.582 		-21.8 		1.96
v 44.761 		19.817 		0
v -48.16 		-22.364 		1.96
v 44.973 		19.943 		0
v 44.351 		16.545 		0
v 44.214 		16.716 		0
v 43.869 		-26.414 		2.47
v 43.252 		-25.679 		2.47
v 44.123 		16.853 		0
v 44.043 		16.997 		0
v 43.973 		17.145 		0
v 43.915 		17.3 		0
v -47.115 		-21.53 		1.96
v 43.844 		17.564 		0
v 43.811 		17.781 		0
v 43.801 		17.945 		0
v 43.811 		18.219 		0
v 43.825 		18.328 		0
v 37 		23.8 		0
v 51.8 		16 		0
v 56.2 		16 		0
v 51.8 		0 		0
v 56.2 		0 		0
v 47.284 		16.214 		0
v 47.147 		16.123 		0
v 46.954 		16.018 		0
v 46.752 		15.933 		0
v 44.351 		-25.455 		1.45
v 46.543 		15.869 		0
v 44.214 		-25.284 		1.45
v 46.328 		15.825 		0
v 46.11 		15.803 		0
v 45.89 		15.803 		0
v -49.12 		-23.205 		2.47
v 45.672 		15.825 		0
v 45.431 		15.877 		0
v 44.123 		-25.147 		1.45
v 45.196 		15.952 		0
v 44.973 		16.057 		0
v 44.043 		-25.003 		1.45
v 44.761 		16.183 		0
v 44.525 		16.37 		0
v -48.142 		-23.511 		1.45
v 43.915 		-24.7 		1.45
v -48.015 		-23.121 		1.45
v 45.292 		-19.305 		4
v 45.882 		-19.251 		4
v 46.237 		-19.257 		4
v 48.375 		-19.886 		4
v 47.954 		-19.67 		4
v 47.549 		-20.053 		3.49
v 47.172 		-19.398 		4
v 46.736 		-19.824 		3.49
v 46.591 		-19.287 		4
v 46.825 		-19.322 		4
v 47.513 		-19.497 		4
v -56.2 		-32 		0
v -51.8 		-32 		0
v -47.769 		-22.695 		1.45
v -37 		-39.8 		0
v -37 		-44.2 		0
v -47.905 		-22.9 		1.45
v 43.558 		-25.176 		1.96
v 47.917 		16.925 		1.45
v 48.773 		-20.143 		4
v 49.052 		-20.362 		4
v 42.948 		-20.362 		4
v 44.046 		-19.67 		4
v 43.729 		-19.83 		4
v 44.943 		-19.369 		4
v 44.376 		-19.538 		4
v 47.717 		16.63 		1.45
v 47.176 		-21.003 		2.47
v -44.6 		13.462 		4
v -49.052 		14.362 		4
v -45.763 		13.257 		4
v -46.118 		13.251 		4
v -45.292 		13.305 		4
v -46.473 		13.275 		4
v 44.948 		-25.931 		1.45
v 44.761 		-25.817 		1.45
v 44.504 		-25.612 		1.45
v 48.66 		-22.186 		2.47
v 44.885 		-26.47 		1.96
v 44.418 		-26.2 		1.96
v 47.239 		-22.183 		0
v 47.239 		-22.183 		1.45
v 47.434 		-22.334 		1.45
v 47.434 		-22.334 		0
v 23.786 		44.053 		0
v 24.2 		44.098 		0
v 23.368 		43.915 		0
v 23.573 		43.996 		0
v 22.565 		43.249 		0
v 22.97 		43.674 		0
v 22.295 		42.702 		0
v 22.416 		42.996 		0
v 47.613 		-22.504 		0
v 22.215 		42.306 		0
v 22.2 		42.098 		0
v -48.626 		18.669 		1.96
v 7.325 		42.631 		0
v 7.391 		42.269 		0
v 7.006 		43.289 		0
v 7.127 		43.104 		0
v 5.4 		44.098 		0
v 5.742 		44.068 		0
v 5.933 		44.025 		0
v 6.12 		43.963 		0
v 6.384 		43.836 		0
v 6.63 		43.674 		0
v 6.779 		43.546 		0
v -48.442 		19.176 		1.96
v 7.4 		42.098 		0
v 7.4 		23.8 		0
v 22.2 		23.8 		0
v 51.8 		-16 		0
v 56.2 		-16 		0
v 45.196 		-21.952 		0
v -47.624 		13.538 		4
v -47.954 		13.67 		4
v 45.457 		-21.869 		0
v -48.476 		13.948 		4
v -56.972 		-47.88 		0
v -57.254 		-47.797 		0
v -47.172 		13.398 		4
v 45.618 		-21.833 		0
v -56 		-48 		0
v -56.196 		-47.995 		0
v -56.78 		-47.923 		0
v 45.836 		-21.806 		0
v 45.945 		-21.801 		0
v -59.479 		-45.971 		0
v -59.696 		-45.531 		0
v -59.028 		-46.612 		0
v -48.132 		18.543 		0
v 46.164 		-21.806 		0
v 46.382 		-21.833 		0
v -48.047 		18.803 		0
v 46.543 		-21.869 		0
v -47.982 		18.955 		0
v 46.804 		-21.952 		0
v 46.954 		-22.018 		0
v -47.932 		19.052 		0
v -47.818 		19.239 		0
v -47.719 		19.371 		0
v 48.197 		-24.11 		0
v 48.2 		-24 		0
v 47.236 		-21.588 		1.96
v 48.175 		-24.328 		0
v 48.156 		-24.436 		0
v -47.496 		19.612 		0
v -47.372 		19.72 		0
v 47.754 		-22.672 		0
v 47.818 		-22.761 		0
v -47.194 		19.848 		0
v 47.905 		-22.9 		0
v 48.005 		-23.095 		0
v 48.067 		-23.248 		0
v 48.076 		-22.258 		1.96
v 48.102 		-23.352 		0
v 48.144 		-23.511 		0
v 48.189 		-23.781 		0
v -49.026 		16.899 		2.47
v 47.69 		-21.881 		1.96
v 44.504 		-22.388 		0
v 44.739 		-22.199 		0
v 43.856 		-24.489 		0
v 43.818 		-24.273 		0
v 43.801 		-24.055 		0
v 43.807 		-23.836 		0
v 43.834 		-23.618 		0
v 43.908 		-23.326 		0
v 43.995 		-23.095 		0
v 44.095 		-22.9 		0
v -48.18 		17.727 		1.45
v 44.214 		-22.716 		0
v 44.351 		-22.545 		0
v 48.102 		-24.648 		0
v -48.197 		18.082 		1.45
v 48.067 		-24.752 		0
v 48.005 		-24.905 		0
v 47.905 		-25.1 		0
v 47.818 		-25.239 		0
v 45.568 		-20.552 		2.725
v 47.754 		-25.328 		0
v 47.613 		-25.496 		0
v 47.496 		-25.612 		0
v -48.166 		18.382 		1.45
v 47.284 		-25.786 		0
v 47.147 		-25.877 		0
v 46.954 		-25.982 		0
v 46.752 		-26.067 		0
v 46.543 		-26.131 		0
v 46.328 		-26.175 		0
v 46.11 		-26.197 		0
v 45.89 		-26.197 		0
v 45.672 		-26.175 		0
v 45.397 		-21.358 		1.96
v -48.707 		17.865 		1.96
v 45.457 		-26.131 		0
v 45.146 		-26.027 		0
v -48.68 		18.404 		1.96
v 45.932 		-21.291 		1.96
v 46.471 		-21.331 		1.96
v -47.496 		16.388 		1.45
v -47.666 		16.566 		1.45
v -48.442 		-22.824 		1.96
v 46.328 		-21.825 		1.45
v -48.547 		-23.073 		1.96
v -59.213 		-46.383 		0
v -57.531 		-47.696 		0
v -57.886 		-47.528 		0
v -58.383 		-47.213 		0
v -58.538 		-47.092 		0
v -58.757 		-46.896 		0
v -59.326 		-46.222 		0
v -59.797 		-45.254 		0
v -59.88 		-44.972 		0
v -59.957 		-44.587 		0
v 60 		28 		4
v 60 		-44 		4
v 60 		-44 		0
v -47.902 		16.902 		1.45
v 35 		44.098 		4
v 24.2 		44.098 		4
v 5.4 		44.098 		4
v -5.4 		44.098 		0
v -5.4 		44.098 		4
v -24.2 		44.098 		4
v -24.2 		44.098 		0
v -35 		44.098 		0
v 35.984 		43.836 		4
v 36.367 		43.552 		4
v 37 		42.098 		4
v 36.991 		42.269 		4
v 36.951 		42.536 		4
v 36.828 		42.908 		4
v 36.727 		43.104 		4
v 36.576 		43.328 		4
v 35.72 		43.963 		4
v 35.269 		44.078 		4
v 57.62 		31.656 		4
v 58.222 		31.326 		4
v 59.988 		28.294 		4
v 59.94 		28.684 		4
v 59.88 		28.972 		4
v 59.828 		29.161 		4
v 59.616 		29.71 		4
v 59.528 		29.886 		4
v 59.213 		30.383 		4
v 58.828 		30.828 		4
v 58.383 		31.213 		4
v 52.185 		31.788 		4
v 52.308 		31.869 		4
v 52.012 		31.615 		4
v 51.955 		31.535 		4
v 52.085 		31.698 		4
v 57.254 		31.797 		4
v 56.876 		31.902 		4
v 56.587 		31.957 		4
v 56 		32 		4
v 52.8 		32 		4
v 52.593 		31.978 		4
v 52.452 		31.937 		4
v 51.876 		31.383 		4
v 51.822 		31.207 		4
v 51.8 		31 		4
v 49.925 		20.676 		4
v 49.399 		21.316 		4
v 49.639 		21.053 		4
v 44.013 		-25.843 		1.96
v 51.8 		23.8 		4
v 43.84 		-25.636 		1.96
v 50.539 		16.6 		4
v 50.735 		17.645 		4
v 50.656 		17.059 		4
v 43.252 		19.679 		2.47
v 50.172 		20.272 		4
v 50.377 		19.845 		4
v 50.501 		19.512 		4
v 50.656 		18.941 		4
v 50.712 		18.59 		4
v 43.869 		20.414 		2.47
v 50.744 		18.237 		4
v 50.75 		18 		4
v 45.409 		22.713 		4
v 45.763 		22.743 		4
v 44.948 		-25.931 		0
v 46.825 		22.678 		4
v 47.172 		22.602 		4
v 44.761 		-25.817 		0
v 44.504 		-25.612 		0
v 46.237 		22.743 		4
v 44.351 		-25.455 		0
v 44.214 		-25.284 		0
v 47.513 		22.503 		4
v 44.123 		-25.147 		0
v 47.954 		22.33 		4
v 48.375 		22.114 		4
v 48.675 		21.923 		4
v 43.915 		-24.7 		0
v 49.052 		21.638 		4
v 44.008 		-24.929 		0
v 43.227 		21.857 		4
v 43.625 		22.114 		4
v 42.601 		21.316 		4
v 42.857 		21.561 		4
v 42.075 		20.676 		4
v 44.504 		19.612 		1.45
v 42.361 		21.053 		4
v 41.774 		-26.166 		4
v 41.947 		-26.477 		4
v 44.672 		19.753 		1.45
v 44.046 		22.33 		4
v 41.807 		-24.632 		3.49
v 44.828 		22.602 		4
v 42.255 		-25.363 		3.235
v 41.429 		-25.286 		4
v 44.487 		22.503 		4
v 41.58 		-25.735 		4
v 41.303 		18.708 		4
v 44.949 		19.929 		1.45
v 41.58 		19.735 		4
v 41.72 		20.061 		4
v 41.397 		19.172 		4
v 41.461 		19.4 		4
v 41.324 		-24.825 		4
v 42.88 		-24.795 		2.47
v 41.828 		20.272 		4
v -48.773 		14.143 		4
v 41.288 		17.41 		4
v 41.256 		17.763 		4
v 41.265 		18.355 		4
v 41.344 		17.059 		4
v 44.731 		-27.777 		3.235
v 44.828 		-28.602 		4
v 37 		23.8 		4
v 50.172 		15.728 		4
v 49.639 		14.947 		4
v 49.399 		14.684 		4
v 49.989 		15.424 		4
v 44.071 		-27.341 		3.108
v 44.156 		-28.376 		4
v 44.418 		20.2 		1.96
v 51.8 		16 		4
v 44.487 		-28.503 		4
v 56.2 		16 		4
v 50.42 		16.265 		4
v 44.645 		20.347 		1.96
v 44.885 		20.47 		1.96
v -48.142 		-24.489 		1.45
v -48.193 		-24.164 		1.45
v -48.082 		17.3 		1.45
v -48.197 		-23.918 		1.45
v 43.84 		19.636 		1.96
v 46.647 		-21.901 		1.45
v 47.027 		-22.057 		1.45
v -48.442 		16.824 		1.96
v -48.626 		17.331 		1.96
v -48.68 		-24.404 		1.96
v -48.707 		-24.135 		1.96
v -48.68 		-23.596 		1.96
v 44.013 		19.843 		1.96
v -47.496 		16.388 		0
v -47.719 		16.629 		0
v 44.974 		-27.052 		2.47
v 43.944 		18.778 		1.45
v -47.818 		16.761 		0
v 43.325 		-27.923 		4
v -47.932 		16.948 		0
v 42.948 		-27.638 		4
v -47.982 		17.045 		0
v -48.047 		17.196 		0
v 44.083 		19.075 		1.45
v 43.729 		-28.17 		4
v -48.132 		17.457 		0
v -48.166 		17.618 		0
v -48.197 		17.89 		0
v -48.193 		18.164 		0
v -48.166 		18.382 		0
v 42.892 		-26.884 		3.49
v 42.287 		-26.961 		4
v 42.601 		-27.316 		4
v -56 		32 		0
v -56.489 		31.969 		0
v -56.78 		31.923 		0
v -57.254 		31.797 		0
v 44.283 		19.37 		1.45
v -52.8 		32 		0
v 46.708 		-28.695 		4
v -51.8 		31 		0
v -51.815 		31.171 		0
v 45.292 		-28.695 		4
v -51.868 		31.359 		0
v 45.763 		-28.743 		4
v -52.02 		31.624 		0
v -56.2 		16 		4
v -52.148 		31.756 		0
v -49.786 		15.132 		4
v -50.053 		15.523 		4
v 46.237 		-28.743 		4
v -49.56 		14.858 		4
v -50.28 		15.939 		4
v -52.265 		31.845 		0
v 56 		-48 		4
v 56 		-48 		0
v 56.587 		-47.957 		0
v 56.587 		-47.957 		4
v -52.441 		31.932 		0
v 56.876 		-47.902 		0
v 56.972 		-47.88 		4
v -51.8 		16 		4
v -50.42 		16.265 		4
v 57.254 		-47.797 		0
v 57.531 		-47.696 		4
v 57.62 		-47.656 		0
v -57.531 		31.696 		0
v 57.71 		-47.616 		4
v 57.971 		-47.479 		4
v -57.71 		31.616 		0
v 58.139 		-47.378 		0
v 58.222 		-47.326 		4
v -58.056 		31.431 		0
v 58.383 		-47.213 		0
v 58.383 		-47.213 		4
v -58.303 		31.269 		0
v -58.538 		31.092 		0
v 58.612 		-47.028 		4
v 58.828 		-46.828 		0
v 58.828 		-46.828 		4
v -58.964 		30.686 		0
v -59.092 		30.538 		0
v -59.326 		30.222 		0
v 59.213 		-46.383 		0
v -59.616 		29.71 		0
v 59.028 		-46.612 		4
v -59.766 		29.348 		0
v 59.269 		-46.303 		4
v 59.326 		-46.222 		0
v 59.616 		-45.71 		4
v 43.453 		18.927 		1.96
v -59.923 		28.78 		0
v 59.616 		-45.71 		0
v 43.558 		19.176 		1.96
v 59.766 		-45.348 		0
v 59.797 		-45.254 		4
v 59.902 		-44.876 		0
v 43.688 		19.413 		1.96
v 59.88 		-44.972 		4
v 59.957 		-44.587 		4
v 59.957 		-44.587 		0
v 59.988 		-44.294 		4
v -56.2 		0 		4
v 37 		-44.2 		0
v 37 		-44.2 		4
v 37 		-39.8 		0
v 37 		-39.8 		4
v 22.2 		-39.8 		4
v 22.2 		-39.8 		0
v 22.2 		-44.2 		4
v 22.2 		-44.2 		0
v 7.4 		-44.2 		0
v -59.957 		28.587 		0
v -59.988 		28.294 		0
v -51.8 		23.8 		0
v 51.8 		0 		4
v 56.2 		0 		4
v 49.052 		14.362 		4
v 48.06 		13.722 		4
v 47.624 		13.538 		4
v 48.675 		14.077 		4
v 48.375 		13.886 		4
v 47.172 		13.398 		4
v 46.708 		13.305 		4
v 46.237 		13.257 		4
v 45.527 		13.275 		4
v 45.059 		13.346 		4
v 42.948 		14.362 		4
v 42.601 		14.684 		4
v 42.011 		15.424 		4
v 41.72 		15.939 		4
v 45.353 		-21.901 		1.45
v 42.287 		15.039 		4
v 41.58 		16.265 		4
v 45.672 		-21.825 		1.45
v 44.046 		13.67 		4
v 43.729 		13.83 		4
v 43.325 		14.077 		4
v 46 		-21.803 		1.45
v -41.623 		-25.845 		4
v -41.461 		-25.4 		4
v -41.324 		-24.825 		4
v -41.774 		-26.166 		4
v -41.397 		-25.172 		4
v -42.923 		-24.949 		2.47
v -51.8 		0 		4
v -22.2 		-44.2 		4
v -7.4 		-44.2 		4
v -7.4 		-39.8 		4
v -22.2 		-39.8 		4
v -56.2 		-16 		4
v -51.8 		-16 		4
v -44.828 		-19.398 		4
v -44.156 		-19.624 		4
v -43.833 		-19.773 		4
v -43.325 		-20.077 		4
v -42.948 		-20.362 		4
v -49.052 		-20.362 		4
v -48.773 		-20.143 		4
v -48.167 		-19.773 		4
v -47.172 		-19.398 		4
v -47.844 		-19.624 		4
v -47.513 		-19.497 		4
v -46.825 		-19.322 		4
v -45.645 		-19.263 		4
v -45.292 		-19.305 		4
v -46.591 		-19.287 		4
v -46 		-19.251 		4
v -42.601 		-20.684 		4
v -42.361 		-20.947 		4
v -41.828 		-21.728 		4
v -41.58 		-22.265 		4
v -42.011 		-21.424 		4
v -41.274 		-24.473 		4
v -41.461 		-22.6 		4
v -41.324 		-23.175 		4
v -41.274 		-23.527 		4
v -41.253 		-23.882 		4
v -42.011 		-26.576 		4
v -42.287 		-26.961 		4
v -42.601 		-27.316 		4
v -42.948 		-27.638 		4
v -43.325 		-27.923 		4
v -43.729 		-28.17 		4
v -44.265 		-28.422 		4
v -44.6 		-28.538 		4
v -47.172 		-28.602 		4
v -48.476 		-28.052 		4
v -48.773 		-27.857 		4
v -50.109 		19.046 		3.49
v -49.82 		19.84 		3.49
v -49.216 		18.161 		2.47
v -50.109 		16.954 		3.49
v -43.023 		-26.029 		2.853
v 49.077 		-23.051 		2.47
v -47.624 		-28.462 		4
v -47.954 		-28.33 		4
v -49.143 		-27.561 		4
v -43.953 		-24.804 		1.45
v -44.057 		-25.027 		1.45
v -44.182 		-25.239 		1.45
v -45.763 		-28.743 		4
v -46.118 		-28.749 		4
v -44.387 		-25.496 		1.45
v -45.292 		-28.695 		4
v -46.473 		-28.725 		4
v -43.503 		-25.053 		1.96
v -50.726 		-24.473 		4
v -50.747 		-24.118 		4
v -50.744 		-23.763 		4
v -50.726 		-23.527 		4
v -50.676 		-23.175 		4
v -50.539 		-22.6 		4
v -50.053 		-21.523 		4
v -49.786 		-21.132 		4
v -50.377 		-22.155 		4
v -50.226 		-21.834 		4
v -51.8 		-24.576 		4
v -49.56 		-20.858 		4
v -49.317 		-20.6 		4
v -49.399 		-27.316 		4
v -49.786 		-26.868 		4
v -50.053 		-26.477 		4
v -50.539 		-25.4 		4
v -50.603 		-25.172 		4
v -50.226 		-26.166 		4
v -50.676 		-24.825 		4
v -44.525 		-25.63 		1.45
v -50.377 		-25.845 		4
v -44.853 		-25.877 		1.45
v -44.716 		-25.786 		1.45
v 41.891 		19.046 		3.49
v -56.2 		-32 		4
v -51.8 		-32 		4
v 42.88 		18.795 		2.47
v -45.046 		-25.982 		1.45
v 47.649 		-22.545 		1.45
v 42.382 		20.211 		3.49
v 47.955 		-22.998 		1.45
v 48.085 		-23.3 		1.45
v -44.764 		-26.412 		1.96
v 48.497 		-22.947 		1.96
v 48.656 		-23.463 		1.96
v -43.356 		-27.315 		3.49
v -44.066 		-27.773 		3.49
v -49.436 		17.482 		2.725
v -44.852 		-28.082 		3.49
v -44.824 		-26.997 		2.47
v -42.707 		15.755 		3.235
v -42.276 		15.972 		3.49
v -45.248 		-26.067 		1.45
v -45.457 		-26.131 		1.45
v -42.752 		15.275 		3.49
v -45.672 		-26.175 		1.45
v -45.89 		-26.197 		1.45
v 48.71 		-24 		1.96
v 48.656 		-24.537 		1.96
v -45.266 		-26.609 		1.96
v 48.697 		-24.27 		1.96
v 48.697 		-23.73 		1.96
v -46.11 		-26.197 		1.45
v -46.328 		-26.175 		1.45
v -46.543 		-26.131 		1.45
v 48.184 		-24.246 		1.45
v 48.197 		-23.918 		1.45
v -46.854 		-26.027 		1.45
v -47.075 		-25.917 		1.45
v -43.34 		16.186 		2.47
v -43.752 		15.695 		2.47
v -44.824 		15.003 		2.47
v -43.7 		14.438 		3.49
v 48.16 		-23.591 		1.45
v -48.131 		-26.414 		2.47
v 7.4 		-44.2 		4
v 7.4 		-39.8 		0
v 7.4 		-39.8 		4
v -7.4 		42.098 		4
v -7.4 		42.098 		0
v -5.693 		44.076 		0
v -5.742 		44.068 		4
v -5.909 		44.03 		0
v -47.515 		-25.593 		1.45
v -6.299 		43.884 		0
v -6.209 		43.924 		4
v -6.428 		43.813 		4
v -6.63 		43.674 		4
v -6.704 		43.61 		0
v -6.914 		43.404 		0
v -6.914 		43.404 		4
v -7.035 		43.249 		4
v -47.769 		-25.305 		1.45
v -7.14 		43.084 		0
v -7.164 		43.041 		4
v -7.255 		42.84 		0
v -7.283 		42.772 		4
v -7.344 		42.56 		0
v -7.351 		42.536 		4
v -7.391 		42.269 		0
v -7.384 		42.343 		4
v -47.905 		-25.1 		1.45
v -44.586 		16.315 		1.45
v -22.2 		42.098 		4
v -22.2 		42.098 		0
v -22.216 		42.343 		0
v -22.216 		42.343 		4
v -22.302 		42.725 		0
v -22.345 		42.84 		4
v -22.372 		42.908 		0
v -22.46 		43.084 		0
v -22.64 		43.347 		4
v -22.686 		43.404 		0
v -22.821 		43.546 		0
v -22.876 		43.595 		4
v -23.049 		43.733 		0
v -23.215 		43.838 		4
v -23.215 		43.838 		0
v -23.458 		43.953 		0
v -23.413 		43.935 		4
v -23.691 		44.03 		0
v -23.858 		44.068 		4
v -48.015 		-24.879 		1.45
v -23.907 		44.076 		0
v -24.053 		44.092 		4
v -7.4 		23.8 		4
v -7.4 		23.8 		0
v -22.2 		23.8 		0
v -22.2 		23.8 		4
v -37 		42.098 		0
v -35.22 		44.084 		0
v -35.581 		44.012 		0
v -35.855 		43.906 		0
v -36.151 		43.733 		0
v -36.36 		43.562 		0
v -36.514 		43.404 		0
v -36.635 		43.249 		0
v -36.774 		43.018 		0
v -36.865 		42.818 		0
v -36.944 		42.56 		0
v -36.984 		42.343 		0
v -37 		23.8 		0
v -44.253 		20.705 		2.47
v -48.442 		-25.176 		1.96
v -43.515 		21.116 		3.235
v -44.451 		21.947 		3.49
v -45.01 		20.523 		1.96
v -48.547 		-24.927 		1.96
v -47.328 		-25.753 		1.45
v -47.115 		-26.47 		1.96
v -47.355 		-26.347 		1.96
v -47.582 		-26.2 		1.96
v -47.987 		-25.843 		1.96
v 24.004 		44.088 		4
v 23.786 		44.053 		4
v 23.573 		43.996 		4
v 23.301 		43.884 		4
v 22.97 		43.674 		4
v 22.718 		43.441 		4
v 22.654 		43.367 		4
v 22.485 		43.126 		4
v 22.372 		42.908 		4
v 22.317 		42.772 		4
v 22.273 		42.631 		4
v 22.238 		42.488 		4
v 22.216 		42.343 		4
v 22.2 		42.098 		4
v -44.695 		16.231 		0
v 7.4 		42.098 		4
v 7.391 		42.269 		4
v 7.351 		42.536 		4
v 7.228 		42.908 		4
v 7.035 		43.249 		4
v 6.779 		43.546 		4
v 6.511 		43.761 		4
v 6.21 		43.926 		4
v 6.004 		44.003 		4
v 5.693 		44.076 		4
v -44.761 		16.183 		1.45
v 22.2 		23.8 		4
v 7.4 		23.8 		4
v 43.818 		17.727 		1.45
v 51.8 		-16 		4
v 56.2 		-16 		4
v 50.747 		-24.118 		4
v 50.726 		-24.473 		4
v 43.802 		17.973 		1.45
v 49.317 		-20.6 		4
v 49.639 		-20.947 		4
v 49.989 		-21.424 		4
v 50.172 		-21.728 		4
v 50.676 		-23.175 		4
v 50.726 		-23.527 		4
v 50.377 		-22.155 		4
v 43.837 		18.381 		1.45
v 50.603 		-22.828 		4
v 50.539 		-22.6 		4
v 51.8 		-24.576 		4
v -37 		-44.2 		4
v -37 		-39.8 		4
v 44.504 		16.388 		1.45
v 44.351 		16.545 		1.45
v 44.246 		16.672 		1.45
v 41.58 		-22.265 		4
v 41.774 		-21.834 		4
v 41.947 		-21.523 		4
v 42.287 		-21.039 		4
v 42.601 		-20.684 		4
v 41.256 		-24.237 		4
v 41.253 		-23.882 		4
v 41.397 		-22.828 		4
v 43.886 		17.405 		1.45
v 43.995 		17.095 		1.45
v 41.324 		-23.175 		4
v 49.052 		-27.638 		4
v 48.675 		-27.923 		4
v 48.167 		-28.227 		4
v 47.844 		-28.376 		4
v 47.172 		-28.602 		4
v -56.876 		-47.902 		4
v -56.489 		-47.969 		4
v -56.196 		-47.995 		4
v -56 		-48 		4
v -59.988 		-44.294 		4
v -58.383 		-47.213 		4
v -58.139 		-47.378 		4
v -57.886 		-47.528 		4
v -57.531 		-47.696 		4
v -59.94 		-44.684 		4
v -59.828 		-45.161 		4
v -59.731 		-45.439 		4
v -59.616 		-45.71 		4
v -59.479 		-45.971 		4
v -59.326 		-46.222 		4
v -59.213 		-46.383 		4
v -58.964 		-46.686 		4
v -58.828 		-46.828 		4
v -58.612 		-47.028 		4
v 43.558 		16.824 		1.96
v 43.079 		-21.29 		3.235
v -44.9 		16.095 		1.45
v 44.974 		-20.948 		2.47
v 43.252 		-22.321 		2.47
v 43.688 		16.587 		1.96
v -48.16 		-25.636 		1.96
v -46.527 		22.207 		3.49
v -46.717 		21.139 		2.47
v 44.407 		-22.485 		1.45
v -45.759 		21.211 		2.47
v 44.544 		-22.35 		1.45
v 44.672 		-22.247 		1.45
v -46.863 		20.569 		1.96
v -46.068 		20.709 		1.96
v -45.529 		20.669 		1.96
v 45.046 		-22.018 		1.45
v 42.375 		16.681 		3.108
v 41.891 		16.954 		3.49
v -46.603 		20.642 		1.96
v -45.264 		-28.176 		3.49
v 42.88 		17.205 		2.47
v -47.026 		-27.052 		2.47
v -46.337 		20.689 		1.96
v -46.527 		-28.207 		3.49
v -46.943 		-28.134 		3.49
v -47.61 		20.789 		2.47
v -46.08 		-27.219 		2.47
v -49.108 		20.884 		3.49
v 43.84 		-22.364 		1.96
v 44.645 		-21.653 		1.96
v 48.45 		16.33 		2.215
v 44.885 		-21.53 		1.96
v -45.529 		-26.669 		1.96
v -45.797 		-26.702 		1.96
v -46.337 		-26.689 		1.96
v -42.276 		20.028 		3.49
v -41.948 		19.25 		3.49
v 48.248 		15.695 		2.47
v -42.923 		18.949 		2.47
v 48.3 		14.438 		3.49
v -46.603 		-26.642 		1.96
v -41.844 		18.84 		3.49
v 42.6 		-21.922 		3.235
v -43.752 		20.305 		2.47
v -43.34 		19.814 		2.47
v -47.482 		-27.284 		2.853
v -49.108 		-26.884 		3.49
v -44.695 		19.769 		1.45
v -44.446 		19.554 		1.45
v -50.235 		-24.211 		3.49
v -49.216 		-23.839 		2.47
v -44.996 		19.958 		0
v -44.9 		19.905 		0
v -44.806 		19.848 		0
v -44.628 		19.72 		0
v -44.544 		19.65 		0
v -44.387 		19.496 		0
v -44.315 		19.414 		0
v -44.764 		20.412 		1.96
v -44.182 		19.239 		0
v -44.123 		19.147 		0
v -44.31 		20.119 		1.96
v -43.924 		19.742 		1.96
v -44.018 		18.955 		0
v -43.953 		18.803 		0
v -43.844 		18.436 		0
v -43.883 		18.596 		0
v -43.811 		17.781 		0
v -43.803 		17.89 		0
v -43.844 		17.564 		0
v -43.883 		17.404 		0
v -43.953 		17.196 		0
v -44.043 		16.997 		0
v -44.153 		16.807 		0
v -44.281 		16.629 		0
v -44.446 		16.446 		0
v -43.825 		18.328 		0
v -43.803 		18.11 		0
v -49.38 		-26.56 		3.49
v -44.217 		19.282 		1.45
v -46.954 		19.982 		0
v -46.804 		20.048 		0
v -46.543 		20.131 		0
v -46.382 		20.167 		0
v -46.11 		20.197 		0
v -44.043 		19.003 		1.45
v -45.945 		20.199 		0
v -45.726 		20.183 		0
v -45.618 		20.167 		0
v -45.457 		20.131 		0
v -45.196 		20.048 		0
v -43.918 		18.7 		1.45
v -44.948 		16.069 		0
v -45.146 		15.973 		0
v -45.378 		15.892 		0
v -45.672 		15.825 		0
v -45.89 		15.803 		0
v -46.11 		15.803 		0
v -46.436 		15.844 		0
v -46.648 		15.898 		0
v -46.879 		15.985 		0
v 50.156 		17.16 		3.49
v 50.24 		18 		3.49
v 49.965 		17.603 		3.235
v 47.549 		21.947 		3.49
v 47.934 		21.773 		3.49
v 48.3 		21.562 		3.49
v 47.469 		20.865 		2.47
v 47.885 		20.919 		2.725
v 45.6 		21.195 		2.47
v -45.046 		16.018 		1.45
v 46.471 		20.669 		1.96
v 45.397 		20.642 		1.96
v -43.924 		16.258 		1.96
v -44.31 		15.881 		1.96
v -44.764 		15.588 		1.96
v 43.868 		-23.457 		1.45
v 43.915 		-23.3 		1.45
v 43.995 		-23.095 		1.45
v -44.066 		14.227 		3.49
v 47.434 		16.334 		1.45
v 47.169 		16.139 		1.45
v -43.62 		19.296 		1.96
v 44.095 		-22.9 		1.45
v -43.344 		18.537 		1.96
v -47.1 		16.095 		0
v -43.503 		19.053 		1.96
v -47.305 		16.231 		0
v 48.076 		16.258 		1.96
v 47.69 		15.881 		1.96
v 47.892 		16.06 		1.96
v 47.236 		15.588 		1.96
v -44.852 		13.918 		3.49
v 47.004 		16.042 		1.45
v 46.752 		15.933 		1.45
v 46.543 		15.869 		1.45
v 46.328 		15.825 		1.45
v 46.11 		15.803 		1.45
v 46.734 		15.391 		1.96
v 44.214 		-22.716 		1.45
v 45.89 		15.803 		1.45
v 45.645 		15.831 		1.45
v 43.558 		-22.824 		1.96
v 45.352 		15.898 		1.45
v 45.196 		15.952 		1.45
v -42.594 		17.311 		2.725
v 43.856 		-24.489 		1.45
v -41.76 		18 		3.49
v 43.818 		-24.273 		1.45
v -42.78 		18 		2.47
v 43.801 		-24.055 		1.45
v 45.137 		15.431 		1.96
v 43.807 		-23.836 		1.45
v 43.825 		-23.672 		1.45
v 46.203 		15.298 		1.96
v 45.397 		15.358 		1.96
v -45.457 		15.869 		1.45
v 45.663 		15.311 		1.96
v -45.672 		15.825 		1.45
v 46.99 		20.523 		1.96
v -45.89 		15.803 		1.45
v 46.317 		22.228 		3.49
v -46.055 		15.801 		1.45
v 46.241 		21.211 		2.47
v 45.932 		20.709 		1.96
v -45.266 		15.391 		1.96
v 47.148 		13.918 		3.49
v 45.057 		13.866 		3.49
v -46.274 		15.817 		1.45
v -46.436 		15.844 		1.45
v 43.293 		-23.865 		1.96
v -46.648 		15.898 		1.45
v 43.32 		-24.404 		1.96
v 44.676 		15.065 		2.47
v 43.32 		-23.596 		1.96
v -46.854 		15.973 		1.45
v 42.62 		20.56 		3.49
v -47.052 		16.069 		1.45
v 44.65 		22.019 		3.49
v 43.194 		14.821 		3.49
v 43.869 		15.586 		2.47
v -46.863 		15.431 		1.96
v 43.252 		16.321 		2.47
v 48.45 		19.67 		2.215
v -45.529 		15.331 		1.96
v -45.797 		15.298 		1.96
v -46.337 		15.311 		1.96
v -43.82 		17.727 		1.45
v -43.834 		18.382 		1.45
v -43.803 		18.082 		1.45
v -43.303 		17.73 		1.96
v 41.807 		-23.368 		3.49
v 41.765 		-23.789 		3.49
v -43.303 		18.27 		1.96
v 42.784 		-24.161 		2.47
v -43.29 		18 		1.96
v -47.324 		15.065 		2.47
v -48.806 		14.821 		3.49
v -49.108 		15.116 		3.49
v -43.883 		17.404 		1.45
v -43.953 		17.196 		1.45
v -48.748 		16.321 		2.47
v -43.503 		16.947 		1.96
v -43.62 		16.704 		1.96
v -47.305 		16.231 		1.45
v -47.355 		15.653 		1.96
v -44.043 		16.997 		1.45
v -56.2 		16 		0
v -44.153 		16.807 		1.45
v -51.8 		16 		0
v -44.281 		16.629 		1.45
v -56.2 		0 		0
v -51.8 		0 		0
v -22.2 		-44.2 		0
v -7.4 		-39.8 		0
v -7.4 		-44.2 		0
v -22.2 		-39.8 		0
v -44.426 		16.464 		1.45
v -48.16 		16.364 		1.96
v -47.987 		16.157 		1.96
v 48.66 		-25.814 		2.47
v -45.264 		13.824 		3.49
v 48.248 		-26.305 		2.47
v -46.943 		13.866 		3.49
v -46.527 		13.793 		3.49
v 49.077 		-24.949 		2.47
v -45.781 		20.186 		1.45
v -45.457 		20.131 		1.45
v -45.248 		20.067 		1.45
v 48.114 		-24.595 		1.45
v 47.955 		-25.002 		1.45
v 47.717 		-25.37 		1.45
v -56.2 		-16 		0
v -51.8 		-16 		0
v -44.451 		-20.053 		3.49
v -43.7 		-20.438 		3.49
v 48.497 		-25.053 		1.96
v -44.852 		-19.918 		3.49
v 47.496 		-25.612 		1.45
v -46.527 		-19.793 		3.49
v -46.106 		-19.761 		3.49
v 47.47 		-26.276 		1.96
v -44.948 		-22.069 		0
v -44.739 		-22.199 		0
v -44.426 		-22.464 		0
v 48.076 		-25.742 		1.96
v 47.892 		-25.94 		1.96
v -44.824 		-21.003 		2.47
v -44.253 		-21.295 		2.47
v -43.218 		-21.147 		3.235
v 47.1 		-25.905 		1.45
v 48.248 		20.305 		2.47
v 46.804 		-26.048 		1.45
v 46.569 		-26.123 		1.45
v -43.34 		-22.186 		2.47
v 46.328 		-26.175 		1.45
v 44.672 		16.247 		1.45
v 45.046 		16.018 		1.45
v -45.046 		-22.018 		1.45
v -44.672 		-22.247 		1.45
v 46.11 		-26.197 		1.45
v -44.446 		-22.446 		1.45
v 44.013 		16.157 		1.96
v 44.418 		15.8 		1.96
v 43.84 		16.364 		1.96
v -44.764 		-21.588 		1.96
v -44.31 		-21.881 		1.96
v 44.645 		15.653 		1.96
v -43.924 		-22.258 		1.96
v 45.89 		-26.197 		1.45
v 45.672 		-26.175 		1.45
v 45.431 		-26.123 		1.45
v -43.761 		-22.473 		1.96
v -41.76 		-24 		3.49
v 42.62 		15.44 		3.49
v -42.923 		-23.051 		2.47
v 45.146 		-26.027 		1.45
v 44.65 		13.981 		3.49
v -44.281 		-22.629 		1.45
v -44.043 		-22.997 		1.45
v -43.953 		-23.197 		1.45
v 48.093 		-27.24 		3.108
v 47.549 		-27.947 		3.49
v 47.148 		-28.082 		3.49
v -43.858 		-23.511 		1.45
v 48.167 		-26.717 		2.725
v 49.22 		-24 		2.47
v 47.328 		19.753 		1.45
v 47.496 		19.612 		1.45
v -43.62 		-22.704 		1.96
v -43.503 		-22.947 		1.96
v -43.344 		-23.463 		1.96
v 47.69 		20.119 		1.96
v 48.076 		19.742 		1.96
v -47.027 		19.943 		1.45
v -46.752 		20.067 		1.45
v -43.807 		-24.164 		1.45
v -43.858 		-24.489 		1.45
v -46.543 		20.131 		1.45
v 47.892 		19.94 		1.96
v -46.219 		20.186 		1.45
v 47.717 		19.37 		1.45
v 47.917 		19.075 		1.45
v 48.056 		18.778 		1.45
v -43.344 		-24.537 		1.96
v 50.052 		-22.75 		3.49
v 46.328 		20.175 		1.45
v -49.026 		19.101 		2.47
v 46.647 		20.099 		1.45
v 47.051 		19.929 		1.45
v -48.131 		20.414 		2.47
v -47.496 		19.612 		1.45
v -47.305 		19.769 		1.45
v 45.353 		20.099 		1.45
v 45.672 		20.175 		1.45
v -48.16 		19.636 		1.96
v -47.582 		20.2 		1.96
v -47.355 		20.347 		1.96
v -47.115 		20.47 		1.96
v -47.987 		19.843 		1.96
v -48.082 		18.7 		1.45
# 1383 vertices

g group_0_15506754

usemtl color_15506754
s 0

f 10 	332 	9
f 9 	332 	12
f 14 	12 	1296
f 15 	14 	1296
f 17 	15 	1296
f 19 	17 	1296
f 20 	19 	1296
f 21 	20 	1296
f 23 	21 	1296
f 31 	334 	32
f 30 	29 	334
f 27 	1279 	28
f 28 	1279 	29
f 30 	334 	31
f 32 	334 	33
f 35 	33 	334
f 36 	35 	334
f 41 	332 	42
f 42 	332 	43
f 43 	332 	44
f 45 	44 	332
f 46 	45 	332
f 47 	46 	332
f 48 	47 	332
f 49 	48 	332
f 50 	49 	332
f 99 	52 	53
f 51 	50 	332
f 61 	62 	63
f 61 	63 	64
f 61 	64 	65
f 61 	65 	66
f 61 	66 	58
f 58 	57 	61
f 61 	57 	60
f 60 	59 	61
f 61 	59 	67
f 78 	56 	34
f 71 	193 	195
f 79 	69 	73
f 78 	71 	195
f 81 	69 	79
f 74 	69 	81
f 75 	69 	74
f 87 	85 	69
f 83 	69 	85
f 87 	69 	75
f 84 	69 	83
f 22 	71 	24
f 73 	69 	91
f 94 	246 	93
f 93 	246 	90
f 92 	91 	69
f 92 	69 	95
f 69 	246 	95
f 94 	95 	246
f 790 	24 	71
f 96 	246 	98
f 790 	71 	78
f 97 	246 	96
f 52 	99 	100
f 104 	374 	103
f 106 	374 	105
f 108 	374 	106
f 109 	374 	108
f 110 	374 	109
f 111 	374 	110
f 103 	374 	111
f 113 	374 	104
f 101 	374 	113
f 102 	374 	101
f 114 	374 	102
f 116 	179 	181
f 116 	181 	184
f 124 	125 	151
f 125 	126 	151
f 126 	127 	151
f 127 	128 	151
f 128 	129 	151
f 129 	130 	151
f 130 	131 	151
f 132 	151 	131
f 133 	151 	132
f 134 	151 	133
f 135 	116 	184
f 137 	151 	136
f 112 	118 	1288
f 143 	144 	142
f 144 	145 	142
f 145 	146 	142
f 141 	142 	146
f 140 	141 	146
f 139 	140 	146
f 139 	146 	147
f 148 	151 	147
f 136 	151 	148
f 122 	151 	121
f 121 	151 	137
f 123 	124 	151
f 122 	123 	151
f 139 	147 	151
f 134 	295 	151
f 161 	160 	151
f 154 	153 	152
f 154 	152 	155
f 149 	187 	189
f 158 	157 	151
f 164 	246 	97
f 90 	246 	165
f 287 	116 	135
f 167 	168 	69
f 167 	69 	169
f 69 	84 	169
f 160 	159 	151
f 159 	158 	151
f 161 	151 	162
f 171 	162 	151
f 172 	171 	151
f 173 	194 	196
f 68 	293 	70
f 70 	293 	72
f 163 	173 	196
f 173 	163 	183
f 77 	76 	151
f 22 	135 	149
f 72 	293 	76
f 151 	76 	293
f 80 	77 	151
f 71 	22 	149
f 80 	151 	82
f 82 	151 	86
f 196 	176 	163
f 157 	156 	151
f 156 	89 	151
f 89 	88 	151
f 88 	86 	151
f 176 	196 	294
f 174 	163 	166
f 178 	294 	180
f 163 	1165 	183
f 182 	180 	294
f 135 	184 	187
f 135 	187 	149
f 185 	294 	186
f 192 	149 	189
f 188 	294 	190
f 149 	192 	71
f 294 	296 	190
f 71 	192 	193
f 172 	151 	194
f 151 	294 	194
f 78 	195 	197
f 78 	197 	199
f 188 	186 	294
f 185 	182 	294
f 178 	177 	294
f 177 	175 	294
f 175 	176 	294
f 196 	194 	294
f 201 	200 	293
f 203 	201 	293
f 204 	203 	293
f 170 	69 	168
f 210 	69 	170
f 208 	202 	419
f 840 	839 	209
f 213 	774 	212
f 216 	69 	210
f 214 	69 	216
f 211 	774 	214
f 212 	774 	211
f 221 	222 	220
f 222 	218 	220
f 218 	217 	220
f 220 	217 	223
f 220 	223 	224
f 220 	224 	225
f 220 	225 	226
f 220 	226 	227
f 220 	227 	228
f 220 	228 	229
f 230 	246 	229
f 231 	246 	230
f 232 	246 	231
f 233 	246 	232
f 236 	246 	233
f 238 	239 	246
f 237 	238 	246
f 239 	240 	246
f 240 	235 	246
f 235 	234 	246
f 234 	241 	246
f 241 	242 	246
f 52 	246 	242
f 244 	246 	243
f 244 	245 	246
f 98 	246 	245
f 164 	165 	246
f 220 	229 	246
f 236 	237 	246
f 1296 	12 	332
f 51 	332 	54
f 54 	332 	10
f 250 	251 	52
f 246 	52 	251
f 252 	246 	251
f 254 	246 	252
f 249 	250 	52
f 254 	243 	246
f 253 	26 	256
f 253 	256 	259
f 261 	253 	259
f 687 	262 	255
f 262 	687 	258
f 257 	672 	255
f 260 	672 	257
f 248 	672 	260
f 52 	672 	248
f 261 	259 	263
f 248 	249 	52
f 219 	247 	611
f 611 	247 	610
f 247 	641 	610
f 261 	263 	179
f 247 	1334 	1339
f 266 	774 	265
f 265 	774 	264
f 269 	774 	266
f 783 	215 	253
f 268 	774 	267
f 179 	116 	261
f 205 	204 	293
f 261 	275 	783
f 274 	207 	293
f 276 	274 	293
f 276 	293 	278
f 68 	278 	293
f 206 	205 	293
f 207 	206 	293
f 783 	253 	261
f 279 	316 	390
f 280 	279 	390
f 261 	116 	287
f 283 	280 	390
f 261 	287 	785
f 284 	283 	390
f 285 	284 	390
f 261 	785 	275
f 286 	390 	288
f 135 	787 	287
f 200 	292 	293
f 292 	291 	293
f 290 	293 	291
f 290 	289 	293
f 295 	134 	297
f 294 	151 	295
f 298 	191 	296
f 191 	190 	296
f 586 	282 	337
f 299 	298 	296
f 305 	296 	306
f 306 	296 	307
f 309 	307 	296
f 310 	296 	312
f 304 	570 	311
f 312 	296 	313
f 313 	296 	315
f 315 	296 	316
f 288 	390 	289
f 285 	390 	286
f 316 	296 	390
f 317 	19 	319
f 301 	300 	296
f 328 	322 	327
f 329 	328 	327
f 327 	326 	329
f 330 	326 	325
f 325 	326 	347
f 1296 	26 	25
f 25 	23 	1296
f 40 	332 	41
f 1295 	99 	1274
f 1276 	402 	335
f 548 	314 	337
f 337 	282 	548
f 479 	326 	327
f 325 	324 	330
f 338 	198 	182
f 40 	39 	332
f 38 	334 	39
f 38 	37 	334
f 37 	36 	334
f 174 	166 	198
f 345 	342 	1065
f 325 	347 	423
f 273 	779 	272
f 305 	303 	296
f 272 	780 	271
f 303 	301 	296
f 348 	779 	273
f 268 	271 	774
f 300 	299 	296
f 391 	412 	390
f 351 	771 	350
f 337 	314 	318
f 335 	402 	334
f 423 	323 	324
f 296 	391 	390
f 356 	355 	567
f 439 	340 	339
f 567 	569 	356
f 310 	309 	296
f 359 	617 	358
f 359 	358 	354
f 293 	289 	390
f 362 	361 	360
f 362 	360 	363
f 359 	355 	356
f 367 	365 	366
f 369 	365 	368
f 371 	365 	370
f 362 	363 	372
f 373 	365 	374
f 107 	105 	374
f 370 	365 	373
f 368 	365 	371
f 366 	365 	369
f 364 	365 	367
f 107 	374 	365
f 376 	380 	379
f 380 	381 	382
f 380 	382 	383
f 380 	383 	384
f 380 	384 	385
f 380 	385 	386
f 380 	386 	378
f 378 	379 	380
f 376 	377 	380
f 380 	377 	388
f 114 	293 	374
f 390 	374 	293
f 332 	39 	334
f 402 	332 	334
f 392 	391 	296
f 296 	297 	392
f 134 	392 	297
f 387 	202 	1378
f 134 	497 	392
f 154 	497 	153
f 154 	392 	497
f 417 	416 	391
f 433 	432 	391
f 428 	372 	391
f 363 	391 	372
f 363 	360 	391
f 331 	332 	402
f 331 	99 	1295
f 397 	771 	395
f 486 	331 	399
f 400 	771 	353
f 393 	441 	390
f 398 	331 	404
f 403 	404 	331
f 398 	399 	331
f 402 	403 	331
f 408 	492 	331
f 396 	393 	390
f 405 	401 	390
f 406 	405 	390
f 414 	412 	391
f 411 	390 	412
f 415 	418 	202
f 202 	418 	419
f 391 	360 	417
f 416 	414 	391
f 208 	419 	420
f 208 	420 	426
f 324 	325 	423
f 428 	391 	429
f 431 	429 	391
f 432 	431 	391
f 433 	391 	435
f 436 	435 	391
f 437 	436 	391
f 1011 	439 	434
f 437 	391 	422
f 421 	422 	153
f 391 	153 	422
f 424 	421 	153
f 440 	452 	390
f 411 	406 	390
f 401 	396 	390
f 441 	440 	390
f 339 	323 	439
f 442 	576 	734
f 323 	423 	632
f 361 	323 	632
f 439 	323 	361
f 444 	734 	445
f 439 	361 	362
f 449 	448 	389
f 450 	651 	652
f 451 	449 	389
f 452 	451 	389
f 389 	390 	452
f 448 	447 	389
f 447 	446 	389
f 450 	652 	653
f 454 	450 	653
f 425 	153 	453
f 424 	153 	425
f 478 	321 	320
f 455 	453 	153
f 320 	344 	459
f 457 	456 	153
f 456 	455 	153
f 460 	458 	153
f 458 	457 	153
f 344 	473 	459
f 460 	153 	461
f 462 	153 	464
f 461 	153 	462
f 459 	478 	320
f 454 	474 	450
f 468 	467 	153
f 153 	465 	464
f 322 	321 	478
f 465 	153 	466
f 655 	410 	463
f 467 	466 	153
f 634 	450 	474
f 477 	474 	454
f 817 	474 	477
f 319 	484 	317
f 477 	454 	463
f 477 	463 	375
f 479 	322 	478
f 333 	26 	253
f 481 	480 	639
f 322 	479 	327
f 277 	209 	482
f 277 	333 	253
f 1164 	198 	549
f 174 	198 	1164
f 482 	484 	319
f 838 	308 	484
f 482 	838 	484
f 485 	491 	331
f 486 	487 	331
f 487 	488 	331
f 488 	489 	331
f 489 	490 	331
f 490 	409 	331
f 409 	485 	331
f 491 	407 	331
f 407 	408 	331
f 492 	493 	331
f 493 	494 	331
f 99 	331 	494
f 346 	1093 	338
f 496 	497 	495
f 134 	495 	497
f 499 	107 	500
f 500 	107 	365
f 163 	176 	175
f 175 	177 	166
f 502 	503 	380
f 501 	380 	503
f 163 	175 	166
f 166 	177 	178
f 504 	505 	506
f 504 	506 	61
f 198 	166 	178
f 178 	180 	198
f 198 	180 	182
f 500 	977 	509
f 510 	499 	509
f 511 	499 	510
f 512 	499 	511
f 513 	499 	512
f 514 	516 	513
f 508 	516 	514
f 507 	516 	508
f 515 	516 	507
f 499 	513 	516
f 500 	509 	499
f 358 	617 	618
f 338 	182 	185
f 338 	185 	186
f 346 	338 	186
f 1339 	354 	358
f 186 	188 	346
f 356 	546 	359
f 520 	521 	519
f 495 	519 	521
f 495 	521 	522
f 495 	522 	523
f 495 	523 	524
f 495 	524 	525
f 495 	525 	526
f 495 	526 	527
f 495 	527 	518
f 518 	517 	495
f 517 	533 	495
f 528 	532 	495
f 188 	190 	346
f 546 	281 	359
f 531 	495 	530
f 546 	356 	302
f 533 	534 	495
f 534 	535 	495
f 535 	536 	495
f 536 	537 	495
f 537 	538 	495
f 539 	495 	538
f 529 	495 	539
f 528 	495 	529
f 530 	495 	532
f 540 	495 	531
f 541 	495 	540
f 542 	495 	541
f 173 	172 	194
f 542 	547 	495
f 354 	355 	359
f 553 	547 	543
f 545 	543 	547
f 544 	545 	547
f 548 	304 	311
f 314 	548 	311
f 546 	646 	281
f 555 	495 	554
f 656 	546 	548
f 556 	495 	555
f 557 	622 	556
f 495 	547 	554
f 559 	622 	557
f 553 	554 	547
f 551 	620 	550
f 549 	620 	551
f 546 	302 	548
f 560 	622 	559
f 550 	622 	560
f 548 	302 	304
f 562 	612 	561
f 354 	1339 	563
f 354 	563 	566
f 354 	566 	355
f 355 	566 	567
f 302 	356 	569
f 564 	547 	568
f 565 	547 	564
f 568 	547 	562
f 302 	569 	570
f 302 	570 	304
f 612 	562 	547
f 547 	565 	571
f 571 	573 	547
f 311 	578 	314
f 572 	311 	570
f 574 	547 	573
f 572 	578 	311
f 314 	576 	318
f 547 	574 	575
f 577 	547 	575
f 544 	547 	577
f 576 	314 	578
f 282 	586 	587
f 585 	612 	583
f 581 	612 	585
f 582 	612 	581
f 579 	612 	582
f 580 	612 	579
f 591 	612 	594
f 595 	586 	592
f 337 	318 	592
f 561 	612 	591
f 589 	594 	612
f 597 	588 	276
f 337 	592 	586
f 600 	612 	596
f 592 	593 	595
f 601 	612 	600
f 602 	593 	590
f 592 	603 	593
f 598 	612 	601
f 599 	612 	598
f 583 	612 	604
f 599 	604 	612
f 605 	771 	397
f 394 	771 	400
f 395 	771 	394
f 603 	592 	318
f 612 	1003 	596
f 608 	596 	1003
f 353 	771 	351
f 687 	771 	675
f 607 	608 	1003
f 350 	771 	352
f 606 	607 	1003
f 352 	771 	348
f 589 	612 	580
f 509 	1003 	612
f 668 	219 	611
f 616 	620 	613
f 614 	741 	616
f 269 	267 	774
f 621 	611 	610
f 615 	741 	614
f 615 	743 	741
f 482 	839 	842
f 619 	584 	588
f 482 	319 	336
f 482 	336 	277
f 549 	623 	620
f 622 	550 	620
f 495 	556 	622
f 623 	613 	620
f 277 	336 	333
f 624 	619 	597
f 209 	839 	482
f 624 	597 	625
f 841 	482 	842
f 264 	774 	213
f 580 	579 	624
f 626 	9 	627
f 619 	588 	597
f 620 	616 	741
f 579 	619 	624
f 498 	647 	628
f 764 	483 	479
f 1281 	481 	498
f 626 	627 	635
f 15 	317 	629
f 651 	450 	628
f 416 	632 	631
f 633 	1281 	498
f 631 	347 	326
f 636 	627 	629
f 634 	633 	628
f 633 	634 	438
f 632 	417 	360
f 633 	498 	628
f 723 	630 	552
f 638 	630 	663
f 634 	628 	450
f 818 	438 	634
f 638 	619 	558
f 635 	627 	636
f 638 	663 	584
f 610 	618 	621
f 638 	584 	619
f 639 	640 	481
f 498 	481 	643
f 643 	481 	640
f 498 	643 	645
f 498 	645 	647
f 644 	617 	359
f 628 	647 	648
f 650 	618 	617
f 651 	628 	648
f 641 	358 	610
f 653 	654 	454
f 654 	655 	463
f 610 	358 	618
f 617 	644 	650
f 454 	654 	463
f 658 	646 	656
f 229 	659 	230
f 644 	281 	646
f 659 	660 	230
f 644 	359 	281
f 660 	231 	230
f 605 	349 	771
f 660 	661 	231
f 656 	646 	546
f 661 	232 	231
f 661 	662 	233
f 656 	657 	658
f 661 	233 	232
f 282 	587 	657
f 663 	649 	205
f 657 	656 	548
f 282 	657 	548
f 229 	228 	664
f 229 	664 	659
f 220 	666 	221
f 666 	667 	221
f 667 	222 	221
f 667 	669 	222
f 669 	218 	222
f 663 	723 	649
f 671 	217 	218
f 663 	205 	206
f 669 	671 	218
f 671 	223 	217
f 673 	224 	671
f 270 	670 	676
f 224 	223 	671
f 673 	225 	224
f 673 	679 	225
f 270 	676 	665
f 679 	226 	225
f 678 	687 	675
f 680 	681 	682
f 680 	682 	683
f 679 	684 	226
f 682 	685 	686
f 684 	227 	226
f 688 	687 	678
f 227 	664 	228
f 682 	686 	683
f 663 	206 	207
f 684 	664 	227
f 685 	689 	686
f 689 	690 	686
f 258 	687 	688
f 687 	255 	672
f 689 	691 	690
f 233 	692 	236
f 716 	860 	1018
f 691 	693 	690
f 233 	662 	692
f 691 	694 	693
f 692 	695 	236
f 691 	696 	694
f 695 	237 	236
f 696 	697 	694
f 695 	698 	237
f 697 	699 	700
f 698 	701 	237
f 719 	642 	649
f 697 	696 	699
f 701 	238 	237
f 701 	702 	238
f 699 	703 	700
f 702 	706 	238
f 706 	239 	238
f 703 	704 	705
f 706 	707 	239
f 584 	663 	207
f 707 	240 	239
f 699 	704 	703
f 707 	708 	240
f 705 	704 	709
f 708 	710 	235
f 708 	235 	240
f 705 	709 	711
f 712 	234 	235
f 709 	713 	711
f 710 	712 	235
f 713 	714 	715
f 712 	241 	234
f 713 	709 	714
f 712 	717 	241
f 1018 	642 	716
f 714 	718 	715
f 642 	719 	716
f 153 	731 	470
f 718 	720 	715
f 720 	721 	715
f 721 	720 	722
f 719 	723 	552
f 721 	722 	724
f 569 	567 	731
f 674 	675 	771
f 349 	677 	771
f 722 	725 	724
f 649 	723 	719
f 725 	726 	727
f 728 	672 	52
f 725 	722 	726
f 727 	497 	496
f 570 	569 	731
f 727 	726 	497
f 723 	663 	630
f 731 	729 	730
f 731 	730 	732
f 852 	850 	635
f 732 	734 	731
f 731 	734 	570
f 735 	730 	736
f 729 	736 	730
f 732 	733 	734
f 736 	734 	735
f 733 	735 	734
f 836 	835 	637
f 636 	629 	637
f 636 	637 	1113
f 717 	242 	241
f 642 	200 	201
f 471 	470 	731
f 717 	738 	242
f 738 	739 	242
f 739 	52 	242
f 203 	642 	201
f 739 	53 	52
f 642 	203 	649
f 649 	203 	204
f 835 	1113 	637
f 205 	649 	204
f 637 	838 	837
f 484 	308 	637
f 637 	629 	317
f 207 	274 	584
f 637 	317 	484
f 584 	274 	588
f 637 	308 	838
f 588 	274 	276
f 836 	637 	837
f 276 	278 	597
f 622 	742 	495
f 742 	1007 	495
f 472 	471 	731
f 746 	741 	743
f 423 	347 	631
f 632 	360 	361
f 326 	479 	631
f 631 	479 	483
f 423 	631 	632
f 747 	741 	746
f 744 	745 	741
f 748 	741 	745
f 682 	731 	685
f 794 	795 	271
f 750 	741 	749
f 10 	626 	54
f 749 	741 	748
f 626 	10 	9
f 677 	674 	771
f 9 	12 	627
f 747 	744 	741
f 627 	12 	629
f 629 	12 	14
f 15 	629 	14
f 15 	17 	317
f 759 	609 	1003
f 755 	756 	1003
f 317 	17 	19
f 609 	606 	1003
f 319 	19 	20
f 21 	319 	20
f 319 	21 	336
f 333 	23 	25
f 343 	342 	761
f 762 	343 	761
f 21 	23 	336
f 336 	23 	333
f 763 	343 	762
f 1003 	343 	755
f 753 	343 	763
f 26 	333 	25
f 760 	473 	757
f 764 	406 	411
f 720 	718 	731
f 714 	731 	718
f 709 	731 	714
f 704 	731 	709
f 699 	731 	704
f 696 	731 	699
f 691 	731 	696
f 689 	731 	691
f 685 	731 	689
f 681 	731 	682
f 773 	774 	775
f 773 	775 	772
f 772 	1046 	773
f 780 	272 	779
f 788 	786 	777
f 791 	778 	771
f 776 	777 	771
f 771 	728 	776
f 52 	776 	728
f 779 	771 	778
f 781 	271 	780
f 794 	271 	782
f 782 	271 	781
f 785 	777 	784
f 788 	777 	787
f 783 	784 	777
f 469 	468 	153
f 771 	777 	786
f 790 	771 	793
f 754 	758 	343
f 756 	759 	1003
f 793 	771 	792
f 791 	771 	790
f 774 	271 	798
f 796 	797 	774
f 800 	801 	774
f 795 	798 	271
f 779 	348 	771
f 774 	798 	796
f 799 	775 	803
f 731 	153 	497
f 470 	469 	153
f 802 	775 	801
f 800 	774 	797
f 803 	775 	802
f 720 	731 	722
f 722 	731 	726
f 765 	775 	766
f 769 	775 	767
f 766 	775 	769
f 767 	775 	799
f 768 	775 	765
f 804 	775 	768
f 806 	775 	805
f 758 	755 	343
f 753 	754 	343
f 473 	760 	459
f 805 	775 	804
f 774 	801 	775
f 766 	770 	765
f 475 	472 	731
f 483 	764 	411
f 740 	666 	246
f 220 	246 	666
f 476 	475 	731
f 249 	248 	815
f 760 	764 	478
f 760 	478 	459
f 815 	250 	249
f 764 	479 	478
f 251 	250 	816
f 566 	563 	731
f 731 	567 	566
f 563 	476 	731
f 815 	1370 	250
f 1078 	393 	757
f 757 	393 	396
f 757 	401 	760
f 250 	1370 	816
f 497 	726 	731
f 401 	757 	396
f 252 	251 	816
f 405 	760 	401
f 816 	254 	252
f 405 	406 	764
f 760 	405 	764
f 729 	731 	681
f 483 	411 	412
f 243 	254 	1378
f 445 	734 	446
f 483 	412 	631
f 412 	414 	631
f 631 	414 	416
f 416 	417 	632
f 438 	818 	688
f 260 	257 	817
f 765 	770 	832
f 832 	768 	765
f 804 	768 	819
f 572 	570 	734
f 814 	859 	813
f 859 	814 	823
f 443 	734 	444
f 830 	1023 	811
f 809 	1023 	808
f 811 	1023 	810
f 810 	1023 	809
f 808 	1023 	807
f 807 	1023 	806
f 827 	1023 	830
f 578 	572 	734
f 576 	578 	734
f 828 	1023 	827
f 831 	1023 	828
f 812 	1022 	831
f 832 	1360 	824
f 52 	100 	776
f 843 	838 	777
f 783 	777 	845
f 777 	785 	787
f 789 	771 	786
f 792 	771 	789
f 1367 	832 	770
f 835 	843 	834
f 836 	843 	835
f 837 	843 	836
f 833 	834 	843
f 841 	777 	838
f 838 	843 	837
f 839 	777 	842
f 840 	777 	839
f 832 	819 	768
f 832 	824 	825
f 842 	777 	841
f 832 	825 	819
f 844 	777 	840
f 845 	777 	844
f 819 	825 	826
f 847 	859 	846
f 846 	859 	823
f 848 	859 	847
f 597 	278 	68
f 851 	859 	848
f 852 	843 	850
f 854 	859 	851
f 849 	843 	854
f 850 	843 	849
f 859 	854 	843
f 833 	843 	852
f 596 	860 	857
f 600 	596 	857
f 601 	600 	857
f 857 	598 	601
f 598 	857 	860
f 372 	862 	362
f 604 	599 	863
f 598 	719 	599
f 719 	552 	599
f 599 	552 	863
f 598 	860 	716
f 862 	439 	362
f 598 	716 	719
f 439 	862 	434
f 864 	434 	862
f 805 	819 	829
f 1239 	863 	552
f 819 	826 	829
f 1239 	552 	630
f 638 	1239 	630
f 863 	583 	604
f 866 	855 	861
f 806 	805 	829
f 806 	829 	869
f 829 	853 	869
f 853 	856 	869
f 867 	864 	865
f 870 	866 	873
f 28 	824 	27
f 824 	28 	825
f 825 	28 	826
f 29 	826 	28
f 826 	29 	829
f 829 	29 	30
f 853 	829 	30
f 30 	31 	853
f 32 	855 	856
f 853 	31 	856
f 31 	32 	856
f 33 	861 	32
f 855 	32 	861
f 868 	820 	867
f 819 	805 	804
f 357 	434 	864
f 807 	806 	869
f 1013 	357 	864
f 856 	855 	869
f 1014 	864 	867
f 1017 	1014 	867
f 867 	820 	1017
f 869 	808 	807
f 809 	808 	870
f 869 	855 	808
f 818 	255 	262
f 866 	808 	855
f 871 	818 	634
f 871 	634 	474
f 866 	870 	808
f 255 	818 	871
f 255 	871 	257
f 257 	871 	474
f 257 	474 	817
f 870 	810 	809
f 258 	818 	262
f 811 	810 	872
f 817 	248 	260
f 817 	477 	248
f 873 	810 	870
f 810 	873 	872
f 265 	264 	875
f 811 	872 	1082
f 875 	874 	266
f 35 	876 	861
f 877 	876 	35
f 265 	875 	266
f 268 	267 	894
f 874 	269 	266
f 874 	878 	269
f 878 	267 	269
f 883 	876 	877
f 883 	866 	861
f 883 	873 	866
f 883 	877 	1095
f 883 	872 	873
f 861 	876 	883
f 886 	880 	39
f 887 	886 	39
f 890 	881 	885
f 874 	875 	893
f 878 	874 	893
f 267 	878 	894
f 1103 	887 	888
f 882 	884 	889
f 861 	33 	35
f 435 	436 	897
f 35 	36 	877
f 867 	865 	897
f 37 	879 	36
f 877 	36 	879
f 38 	880 	37
f 879 	37 	880
f 880 	38 	39
f 39 	40 	887
f 41 	888 	40
f 887 	40 	888
f 888 	41 	42
f 888 	42 	891
f 868 	897 	885
f 43 	892 	891
f 885 	897 	890
f 43 	891 	42
f 889 	884 	881
f 897 	868 	867
f 889 	881 	890
f 421 	889 	890
f 421 	890 	422
f 889 	421 	424
f 889 	424 	425
f 862 	372 	428
f 429 	862 	428
f 862 	429 	864
f 864 	429 	431
f 431 	432 	864
f 737 	773 	899
f 900 	737 	899
f 900 	899 	901
f 902 	903 	950
f 502 	904 	503
f 904 	905 	503
f 268 	896 	271
f 904 	906 	905
f 908 	909 	905
f 908 	910 	909
f 906 	908 	905
f 911 	910 	908
f 912 	911 	908
f 913 	914 	911
f 912 	913 	911
f 913 	915 	914
f 913 	917 	915
f 917 	918 	915
f 917 	919 	918
f 919 	920 	918
f 919 	921 	920
f 921 	922 	920
f 923 	924 	922
f 921 	923 	922
f 49 	916 	48
f 923 	902 	924
f 923 	903 	902
f 925 	916 	49
f 927 	928 	929
f 927 	929 	930
f 929 	931 	930
f 931 	932 	930
f 931 	933 	932
f 933 	934 	935
f 933 	935 	932
f 934 	936 	935
f 935 	937 	938
f 935 	936 	937
f 937 	939 	940
f 939 	941 	940
f 937 	940 	938
f 729 	681 	736
f 942 	943 	940
f 941 	942 	940
f 942 	944 	945
f 942 	945 	943
f 945 	947 	948
f 944 	947 	945
f 948 	505 	504
f 947 	505 	948
f 950 	949 	902
f 900 	389 	734
f 927 	951 	928
f 952 	949 	951
f 950 	951 	949
f 927 	952 	951
f 446 	734 	389
f 506 	954 	61
f 954 	62 	61
f 954 	955 	62
f 955 	63 	62
f 955 	64 	63
f 955 	956 	64
f 956 	65 	64
f 956 	957 	65
f 957 	66 	65
f 957 	958 	66
f 66 	959 	58
f 958 	959 	66
f 959 	960 	58
f 961 	57 	58
f 960 	961 	58
f 967 	916 	925
f 961 	962 	60
f 961 	60 	57
f 962 	963 	60
f 964 	59 	60
f 963 	964 	60
f 59 	964 	67
f 953 	67 	964
f 69 	67 	965
f 953 	965 	67
f 443 	442 	734
f 946 	54 	626
f 681 	737 	736
f 734 	736 	737
f 900 	734 	737
f 75 	74 	966
f 1068 	976 	916
f 967 	1068 	916
f 388 	950 	903
f 388 	903 	923
f 388 	923 	921
f 388 	921 	919
f 388 	919 	917
f 388 	917 	913
f 388 	913 	912
f 388 	912 	908
f 388 	908 	906
f 388 	906 	904
f 388 	904 	502
f 388 	502 	380
f 968 	75 	966
f 933 	505 	934
f 967 	848 	1068
f 937 	505 	939
f 79 	73 	969
f 505 	947 	944
f 505 	944 	942
f 505 	942 	941
f 941 	939 	505
f 505 	937 	936
f 505 	936 	934
f 505 	933 	931
f 971 	946 	626
f 388 	389 	950
f 971 	626 	635
f 851 	848 	967
f 81 	79 	969
f 969 	74 	81
f 955 	954 	928
f 967 	925 	946
f 854 	851 	967
f 389 	900 	950
f 967 	849 	854
f 971 	967 	946
f 849 	967 	971
f 969 	73 	970
f 970 	1121 	969
f 892 	43 	972
f 43 	44 	972
f 1106 	83 	85
f 45 	907 	972
f 83 	1106 	1125
f 968 	85 	87
f 974 	892 	975
f 975 	892 	972
f 46 	907 	45
f 973 	888 	891
f 892 	974 	973
f 892 	973 	891
f 976 	898 	975
f 741 	750 	751
f 342 	345 	761
f 752 	761 	345
f 953 	951 	965
f 978 	509 	977
f 979 	509 	978
f 980 	509 	979
f 981 	509 	980
f 982 	509 	981
f 983 	509 	982
f 984 	509 	983
f 985 	509 	984
f 986 	509 	985
f 987 	509 	986
f 988 	509 	987
f 989 	509 	988
f 990 	509 	989
f 1003 	509 	990
f 926 	1138 	991
f 501 	992 	993
f 501 	993 	994
f 501 	994 	995
f 501 	995 	996
f 501 	996 	997
f 501 	997 	998
f 501 	998 	999
f 501 	999 	1000
f 1001 	501 	1000
f 75 	968 	87
f 992 	949 	1004
f 433 	864 	432
f 433 	865 	864
f 1007 	155 	496
f 865 	433 	435
f 965 	740 	69
f 246 	69 	740
f 741 	1007 	742
f 322 	328 	741
f 1007 	741 	1006
f 496 	495 	1007
f 435 	897 	865
f 1021 	1009 	119
f 437 	897 	436
f 1012 	1006 	1011
f 897 	437 	890
f 890 	437 	422
f 1010 	290 	291
f 1013 	1006 	1012
f 1014 	1006 	1013
f 1018 	1010 	291
f 1021 	1008 	1009
f 974 	975 	813
f 1016 	1008 	1021
f 1020 	1019 	1006
f 1017 	1006 	1014
f 1017 	1020 	1006
f 1021 	1006 	1019
f 1021 	1019 	1015
f 1015 	1016 	1021
f 822 	813 	859
f 1022 	1046 	772
f 117 	152 	112
f 118 	1021 	138
f 119 	138 	1021
f 150 	152 	120
f 152 	1021 	112
f 115 	152 	117
f 120 	152 	115
f 118 	112 	1021
f 1039 	152 	1038
f 1018 	596 	1010
f 1018 	200 	642
f 1010 	607 	606
f 150 	1038 	152
f 1005 	1010 	606
f 821 	859 	812
f 1018 	860 	596
f 775 	806 	1023
f 323 	1006 	324
f 328 	329 	741
f 1006 	741 	326
f 330 	1006 	326
f 324 	1006 	330
f 340 	1006 	339
f 339 	1006 	323
f 340 	1011 	1006
f 1031 	341 	1003
f 343 	1003 	341
f 751 	752 	741
f 741 	752 	345
f 344 	741 	345
f 320 	741 	344
f 321 	741 	320
f 329 	326 	741
f 321 	322 	741
f 1023 	831 	1022
f 1030 	1003 	1029
f 1031 	1003 	1030
f 1037 	1034 	733
f 1032 	1033 	733
f 1027 	1003 	1034
f 1028 	1003 	1027
f 1003 	733 	1034
f 1003 	1028 	1029
f 1026 	1327 	1025
f 1041 	152 	1040
f 1022 	812 	859
f 1035 	286 	288
f 1062 	1026 	1036
f 644 	732 	650
f 646 	732 	644
f 288 	1005 	1035
f 658 	732 	646
f 1043 	1044 	859
f 657 	733 	658
f 618 	650 	732
f 587 	733 	657
f 586 	733 	587
f 821 	822 	859
f 1041 	1042 	152
f 100 	1047 	859
f 858 	100 	859
f 1045 	859 	1044
f 1039 	1040 	152
f 1022 	859 	1046
f 1050 	1051 	859
f 1050 	859 	1049
f 100 	858 	776
f 1046 	859 	1045
f 676 	732 	665
f 670 	668 	732
f 1043 	859 	1051
f 1047 	1052 	859
f 1053 	1054 	859
f 1052 	1053 	859
f 1049 	859 	1048
f 1054 	1055 	859
f 1055 	1056 	859
f 1056 	1057 	859
f 1057 	1058 	859
f 1058 	1059 	859
f 1059 	1060 	859
f 1060 	1061 	859
f 1048 	859 	1061
f 509 	114 	510
f 114 	102 	510
f 510 	102 	101
f 670 	732 	676
f 732 	152 	665
f 510 	101 	511
f 101 	113 	512
f 101 	512 	511
f 113 	104 	513
f 113 	513 	512
f 104 	103 	514
f 103 	111 	514
f 104 	514 	513
f 111 	508 	514
f 111 	110 	508
f 109 	507 	508
f 110 	109 	508
f 109 	108 	507
f 108 	515 	507
f 108 	106 	515
f 106 	105 	515
f 515 	105 	516
f 516 	107 	499
f 105 	107 	516
f 134 	519 	495
f 134 	133 	519
f 132 	520 	519
f 132 	519 	133
f 132 	521 	520
f 132 	131 	521
f 131 	522 	521
f 621 	732 	611
f 668 	611 	732
f 618 	732 	621
f 131 	130 	522
f 130 	523 	522
f 130 	129 	524
f 130 	524 	523
f 129 	128 	525
f 129 	525 	524
f 525 	127 	526
f 525 	128 	127
f 1002 	926 	991
f 93 	90 	1069
f 94 	93 	1069
f 1035 	1083 	1036
f 1005 	606 	1035
f 595 	733 	586
f 1072 	91 	92
f 606 	1083 	1035
f 1067 	1327 	1026
f 1327 	1067 	1245
f 1031 	1030 	1063
f 1062 	1245 	1067
f 1062 	1067 	1026
f 916 	976 	907
f 976 	975 	907
f 1065 	473 	344
f 907 	975 	972
f 1025 	1024 	279
f 1024 	316 	279
f 473 	1065 	1094
f 1069 	90 	1070
f 279 	280 	1026
f 342 	343 	1094
f 1025 	279 	1026
f 1094 	1065 	342
f 343 	1092 	1094
f 1065 	344 	345
f 1141 	976 	1068
f 283 	1026 	280
f 1026 	283 	284
f 1035 	285 	286
f 1068 	848 	1141
f 1036 	1026 	284
f 284 	285 	1036
f 1036 	285 	1035
f 44 	45 	972
f 1071 	452 	440
f 1073 	1071 	440
f 289 	1005 	288
f 1005 	289 	1010
f 47 	907 	46
f 1010 	289 	290
f 907 	47 	916
f 916 	47 	48
f 291 	292 	1018
f 50 	925 	49
f 1018 	292 	200
f 925 	50 	946
f 1079 	1036 	1083
f 946 	50 	51
f 946 	51 	54
f 1062 	1036 	1079
f 1070 	1075 	1081
f 596 	608 	1010
f 609 	1079 	1080
f 1085 	1070 	1081
f 756 	1062 	1079
f 1082 	872 	1095
f 1080 	606 	609
f 73 	91 	1077
f 1072 	1077 	91
f 393 	1078 	1074
f 1077 	970 	73
f 1074 	1073 	441
f 1073 	440 	441
f 1079 	1083 	1080
f 1069 	1076 	94
f 1010 	608 	607
f 1076 	1069 	1085
f 1074 	441 	393
f 1070 	1085 	1069
f 1083 	606 	1080
f 1076 	92 	95
f 1082 	830 	811
f 1076 	1077 	1072
f 509 	612 	293
f 509 	293 	114
f 1076 	1072 	92
f 94 	1076 	95
f 97 	96 	1088
f 1378 	244 	243
f 1073 	341 	1063
f 245 	244 	1090
f 1090 	98 	245
f 98 	1090 	1373
f 295 	622 	620
f 295 	620 	294
f 98 	1373 	96
f 812 	831 	1087
f 1073 	1074 	341
f 1092 	341 	1074
f 1103 	973 	1084
f 620 	741 	294
f 1073 	1063 	1091
f 295 	297 	622
f 741 	296 	294
f 297 	742 	622
f 1103 	1087 	1086
f 1103 	1084 	1087
f 1092 	1074 	1078
f 1088 	164 	97
f 1084 	1108 	821
f 165 	164 	1075
f 757 	473 	1094
f 614 	616 	1191
f 1094 	1078 	757
f 1070 	165 	1075
f 165 	1070 	90
f 1096 	1095 	879
f 1029 	1105 	1091
f 1096 	879 	880
f 1093 	613 	338
f 616 	613 	1093
f 1097 	1096 	886
f 1105 	1066 	1091
f 1096 	1097 	1089
f 886 	887 	1097
f 614 	1191 	1100
f 1089 	827 	1096
f 1098 	168 	167
f 1100 	615 	614
f 1096 	880 	886
f 1091 	1063 	1030
f 1091 	1071 	1073
f 1029 	1091 	1030
f 872 	883 	1095
f 343 	341 	1092
f 168 	1101 	1099
f 743 	1102 	746
f 877 	879 	1095
f 1104 	1099 	1101
f 888 	973 	1103
f 1092 	1078 	1094
f 169 	84 	1098
f 1098 	167 	169
f 1089 	1097 	1086
f 170 	168 	1099
f 1099 	210 	170
f 827 	1095 	1096
f 1099 	1104 	210
f 1095 	827 	1082
f 1029 	1028 	1105
f 1097 	1103 	1086
f 966 	1124 	968
f 1097 	887 	1103
f 968 	1124 	1106
f 812 	1087 	1084
f 975 	814 	813
f 84 	83 	1107
f 821 	812 	1084
f 822 	821 	1108
f 83 	1125 	1107
f 85 	968 	1106
f 814 	975 	898
f 814 	898 	823
f 1106 	1124 	1125
f 1108 	1084 	973
f 1108 	813 	822
f 1108 	973 	974
f 1108 	974 	813
f 951 	950 	900
f 84 	1107 	1098
f 1109 	898 	976
f 1107 	1185 	1098
f 1104 	1101 	1187
f 823 	898 	1109
f 827 	830 	1082
f 828 	1086 	831
f 827 	1089 	828
f 828 	1089 	1086
f 831 	1086 	1087
f 1296 	332 	843
f 965 	951 	900
f 777 	1296 	843
f 960 	928 	961
f 963 	928 	964
f 962 	928 	963
f 961 	928 	962
f 959 	928 	960
f 958 	928 	959
f 957 	928 	958
f 956 	928 	957
f 954 	506 	928
f 506 	505 	928
f 929 	928 	505
f 931 	929 	505
f 955 	928 	956
f 635 	1112 	852
f 928 	951 	953
f 953 	964 	928
f 834 	833 	1112
f 1112 	835 	834
f 1112 	635 	636
f 1116 	1115 	965
f 900 	1131 	965
f 1133 	1132 	900
f 1112 	636 	1113
f 835 	1112 	1113
f 965 	1115 	1114
f 840 	209 	277
f 1117 	1116 	965
f 1291 	966 	1121
f 1119 	1118 	965
f 1117 	965 	1118
f 1120 	1119 	965
f 1123 	1122 	965
f 1120 	965 	1122
f 482 	841 	838
f 1124 	1111 	1125
f 1127 	1126 	965
f 1126 	1123 	965
f 1129 	1127 	965
f 966 	1110 	1124
f 1140 	965 	1131
f 1124 	1110 	1111
f 74 	969 	1121
f 844 	840 	215
f 1130 	900 	1132
f 1133 	900 	1134
f 253 	840 	277
f 253 	215 	840
f 1134 	900 	1135
f 1111 	1142 	1125
f 845 	844 	215
f 1136 	900 	1137
f 845 	215 	783
f 331 	1295 	776
f 1137 	900 	1138
f 1121 	966 	74
f 859 	843 	332
f 1129 	965 	1128
f 1136 	1135 	900
f 1130 	1131 	900
f 1139 	965 	1140
f 1128 	965 	1139
f 847 	846 	1141
f 1109 	976 	1141
f 1142 	1120 	1122
f 1144 	1143 	740
f 823 	1109 	846
f 846 	1109 	1141
f 1144 	740 	1145
f 1141 	848 	847
f 1149 	740 	1150
f 1146 	740 	1147
f 1147 	740 	1149
f 1151 	1150 	965
f 1151 	965 	1152
f 1153 	1152 	965
f 852 	1112 	833
f 849 	635 	850
f 1153 	965 	1114
f 971 	635 	849
f 776 	858 	331
f 413 	410 	740
f 332 	331 	858
f 332 	858 	859
f 1023 	1022 	335
f 1023 	335 	334
f 1276 	335 	1022
f 1276 	1022 	772
f 775 	1023 	334
f 415 	413 	740
f 1043 	486 	399
f 399 	398 	1043
f 418 	415 	740
f 420 	419 	740
f 419 	418 	740
f 398 	404 	1043
f 404 	1044 	1043
f 427 	426 	740
f 426 	420 	740
f 404 	403 	1044
f 403 	1045 	1044
f 403 	402 	1046
f 403 	1046 	1045
f 494 	1047 	100
f 965 	1150 	740
f 1146 	1145 	740
f 1143 	430 	740
f 427 	740 	430
f 494 	100 	99
f 494 	1052 	1047
f 494 	493 	1052
f 493 	1053 	1052
f 493 	492 	1053
f 492 	1054 	1053
f 492 	408 	1054
f 643 	640 	1272
f 408 	1055 	1054
f 408 	407 	1056
f 407 	491 	1056
f 408 	1056 	1055
f 645 	643 	1272
f 491 	1057 	1056
f 648 	647 	1272
f 647 	645 	1272
f 491 	485 	1058
f 491 	1058 	1057
f 485 	409 	1059
f 1064 	1002 	991
f 652 	651 	1272
f 651 	648 	1272
f 991 	1155 	1064
f 652 	1272 	653
f 740 	655 	1272
f 654 	1272 	655
f 655 	740 	410
f 653 	1272 	654
f 660 	740 	661
f 684 	679 	664
f 679 	673 	664
f 673 	671 	664
f 671 	669 	664
f 669 	667 	664
f 667 	666 	664
f 659 	664 	666
f 666 	740 	659
f 683 	155 	680
f 710 	740 	712
f 708 	740 	710
f 707 	740 	708
f 712 	740 	717
f 717 	740 	738
f 738 	740 	739
f 706 	740 	707
f 702 	740 	706
f 701 	740 	702
f 698 	740 	701
f 695 	740 	698
f 692 	740 	695
f 690 	155 	686
f 686 	155 	683
f 692 	662 	740
f 662 	661 	740
f 660 	659 	740
f 1272 	1270 	740
f 155 	152 	680
f 690 	693 	155
f 693 	694 	155
f 694 	697 	155
f 697 	700 	155
f 700 	703 	155
f 703 	705 	155
f 727 	496 	705
f 711 	727 	705
f 713 	727 	711
f 715 	727 	713
f 721 	727 	715
f 724 	727 	721
f 725 	727 	724
f 155 	705 	496
f 1155 	900 	1156
f 1156 	900 	1157
f 1157 	900 	1158
f 1159 	1158 	1275
f 1160 	1159 	1275
f 127 	126 	526
f 526 	125 	527
f 126 	125 	526
f 125 	124 	527
f 124 	518 	527
f 124 	123 	518
f 122 	517 	518
f 123 	122 	518
f 122 	121 	517
f 536 	147 	146
f 536 	146 	537
f 146 	145 	538
f 146 	538 	537
f 145 	539 	538
f 145 	144 	539
f 144 	529 	539
f 143 	528 	529
f 144 	143 	529
f 143 	532 	528
f 142 	530 	532
f 142 	531 	530
f 143 	142 	532
f 142 	540 	531
f 142 	141 	540
f 141 	541 	540
f 141 	140 	541
f 140 	542 	541
f 140 	139 	542
f 121 	533 	517
f 121 	137 	533
f 137 	534 	533
f 535 	136 	148
f 137 	136 	535
f 137 	535 	534
f 148 	536 	535
f 148 	147 	536
f 547 	542 	151
f 139 	151 	542
f 198 	623 	549
f 1042 	665 	152
f 550 	1165 	1166
f 163 	174 	1166
f 623 	338 	613
f 198 	338 	623
f 551 	550 	1164
f 174 	1164 	1166
f 1166 	1164 	550
f 551 	1164 	549
f 1246 	553 	543
f 730 	680 	732
f 152 	732 	680
f 1004 	949 	774
f 1033 	1037 	733
f 557 	1165 	559
f 163 	1166 	1165
f 556 	183 	557
f 557 	183 	1165
f 1165 	550 	560
f 559 	1165 	560
f 612 	547 	151
f 568 	562 	1224
f 1224 	564 	568
f 602 	733 	593
f 1167 	571 	565
f 1167 	1168 	573
f 774 	901 	1004
f 1167 	1170 	1168
f 571 	1167 	573
f 1168 	1169 	574
f 1168 	1171 	1169
f 1170 	1171 	1168
f 573 	1168 	574
f 574 	1169 	575
f 1032 	733 	602
f 593 	733 	595
f 1173 	1064 	1155
f 1227 	1172 	1175
f 1031 	1063 	341
f 1176 	1177 	894
f 1177 	1280 	926
f 878 	893 	1176
f 680 	730 	735
f 1176 	894 	878
f 1176 	1280 	1177
f 1178 	1064 	1173
f 733 	1003 	901
f 1182 	896 	1178
f 268 	894 	1177
f 1066 	1105 	1205
f 1105 	1028 	1205
f 1177 	926 	1002
f 1177 	1002 	268
f 896 	268 	1002
f 1178 	895 	1182
f 1002 	1178 	896
f 1002 	1064 	1178
f 190 	191 	1183
f 732 	658 	733
f 1183 	346 	190
f 1183 	191 	298
f 1184 	1183 	298
f 1185 	1125 	1142
f 1125 	1185 	1107
f 1185 	1142 	1148
f 1186 	1181 	449
f 1004 	901 	1003
f 1187 	1189 	1154
f 1046 	680 	773
f 899 	773 	680
f 733 	901 	735
f 680 	735 	899
f 901 	899 	735
f 910 	992 	909
f 1184 	298 	299
f 1161 	1160 	1275
f 1162 	1161 	1275
f 1163 	1162 	1275
f 1185 	168 	1098
f 909 	992 	905
f 911 	992 	910
f 914 	992 	911
f 915 	992 	914
f 918 	992 	915
f 920 	992 	918
f 922 	992 	920
f 924 	992 	922
f 902 	992 	924
f 503 	905 	992
f 503 	992 	501
f 1189 	168 	1185
f 1189 	1185 	1148
f 1154 	1189 	1148
f 927 	930 	67
f 504 	61 	67
f 930 	932 	67
f 504 	67 	932
f 935 	948 	932
f 938 	948 	935
f 940 	948 	938
f 943 	948 	940
f 945 	948 	943
f 504 	932 	948
f 346 	1191 	1093
f 992 	902 	949
f 1189 	1101 	168
f 1188 	1163 	1275
f 639 	1275 	640
f 1101 	1189 	1187
f 409 	490 	1059
f 485 	1059 	1058
f 1191 	616 	1093
f 490 	1060 	1059
f 1187 	1154 	1251
f 490 	1061 	1060
f 1187 	1251 	1256
f 490 	489 	1061
f 489 	1048 	1061
f 489 	488 	1048
f 488 	1049 	1048
f 1049 	487 	1050
f 743 	615 	1192
f 1049 	488 	487
f 487 	486 	1051
f 487 	1051 	1050
f 1191 	1193 	1100
f 1191 	346 	1193
f 1116 	1117 	1110
f 1043 	1051 	486
f 1183 	1192 	1193
f 1117 	1118 	1110
f 1110 	1118 	1111
f 1192 	1100 	1193
f 1111 	1118 	1119
f 1183 	1193 	346
f 1119 	1120 	1111
f 1192 	1183 	1184
f 1111 	1120 	1142
f 1192 	615 	1100
f 991 	900 	1155
f 1123 	1142 	1122
f 1142 	1123 	1148
f 1192 	1194 	1102
f 1148 	1123 	1126
f 1192 	1184 	1194
f 1148 	1126 	1154
f 1275 	1158 	900
f 1126 	1127 	1154
f 1184 	1196 	1194
f 1129 	1154 	1127
f 743 	1192 	1102
f 927 	67 	952
f 1190 	1188 	1275
f 1138 	900 	991
f 1279 	13 	1277
f 1194 	1196 	1197
f 1197 	1201 	1194
f 67 	69 	952
f 1199 	1217 	1198
f 1217 	1201 	1198
f 1197 	1198 	1201
f 1217 	1199 	1200
f 1202 	1186 	449
f 1203 	1200 	307
f 1091 	1186 	1202
f 451 	1071 	1202
f 1182 	273 	272
f 271 	1182 	272
f 271 	896 	1182
f 69 	214 	774
f 348 	273 	1195
f 1066 	1205 	1091
f 273 	1182 	895
f 273 	895 	1195
f 1205 	1181 	1186
f 1186 	1091 	1205
f 1203 	1204 	1220
f 1071 	1091 	1202
f 1154 	1129 	1128
f 212 	211 	1208
f 1208 	213 	212
f 1209 	318 	442
f 318 	576 	442
f 213 	1265 	264
f 1210 	211 	214
f 1218 	1204 	1206
f 1212 	1210 	216
f 1104 	216 	210
f 1104 	1187 	216
f 1214 	1206 	1207
f 1187 	1256 	216
f 1214 	1207 	1320
f 69 	774 	952
f 774 	949 	952
f 745 	1194 	1201
f 1217 	749 	1201
f 1200 	1203 	1217
f 1172 	562 	561
f 1228 	1173 	1219
f 1222 	1372 	1170
f 1218 	1220 	1204
f 1214 	1218 	1206
f 1184 	300 	1196
f 1228 	1178 	1173
f 1184 	299 	300
f 300 	301 	1197
f 1196 	300 	1197
f 1247 	1219 	1221
f 303 	1198 	301
f 1197 	301 	1198
f 1198 	303 	305
f 1198 	305 	1199
f 306 	1200 	305
f 1199 	305 	1200
f 1200 	306 	307
f 562 	1172 	1227
f 309 	1204 	1203
f 1203 	307 	309
f 1226 	1174 	564
f 310 	1204 	309
f 1204 	310 	1206
f 1226 	1224 	562
f 312 	1206 	310
f 1206 	312 	1207
f 603 	318 	1209
f 1207 	312 	313
f 744 	1194 	745
f 1201 	1229 	745
f 1102 	744 	747
f 1248 	1221 	1223
f 1102 	1194 	744
f 1102 	747 	746
f 1227 	1175 	55
f 895 	1228 	1195
f 745 	1229 	748
f 1174 	1226 	1227
f 1217 	750 	749
f 1229 	749 	748
f 562 	1227 	1226
f 1224 	1226 	564
f 1228 	1247 	1195
f 1229 	1201 	749
f 1228 	1219 	1247
f 1217 	751 	750
f 1217 	1203 	751
f 1167 	1222 	1170
f 751 	1230 	752
f 1161 	1231 	1225
f 751 	1203 	1220
f 1220 	1218 	1230
f 1179 	1216 	446
f 751 	1220 	1230
f 752 	1230 	1340
f 1233 	1235 	1211
f 752 	1340 	761
f 1162 	1234 	1232
f 1340 	1214 	1236
f 1179 	1237 	1216
f 151 	293 	612
f 1238 	1234 	1162
f 1340 	1218 	1214
f 625 	589 	624
f 863 	1239 	583
f 1239 	581 	585
f 581 	1239 	638
f 582 	581 	558
f 558 	581 	638
f 579 	582 	558
f 579 	558 	619
f 583 	1239 	585
f 1326 	1243 	1242
f 624 	589 	580
f 763 	1326 	1242
f 1172 	561 	591
f 594 	589 	1241
f 625 	1241 	589
f 1241 	591 	594
f 591 	1241 	1175
f 591 	1175 	1172
f 1233 	1211 	1213
f 1233 	1213 	1215
f 1244 	1232 	1234
f 216 	1256 	1212
f 1244 	1234 	1238
f 1210 	214 	216
f 1228 	895 	1178
f 1266 	1176 	893
f 13 	11 	1277
f 11 	8 	1277
f 1253 	1208 	211
f 1247 	1221 	1248
f 603 	1209 	1235
f 875 	1266 	893
f 1237 	1254 	1233
f 1250 	1252 	1131
f 1237 	1233 	1215
f 1237 	1215 	1216
f 1235 	1209 	1211
f 1248 	351 	350
f 1225 	1249 	351
f 1262 	1250 	1132
f 1250 	1253 	1258
f 1225 	351 	1248
f 1223 	1225 	1248
f 1209 	442 	443
f 1209 	443 	1211
f 1250 	1258 	1252
f 444 	1213 	443
f 1211 	443 	1213
f 445 	1215 	444
f 1213 	444 	1215
f 1244 	1286 	1249
f 1232 	1244 	1249
f 1215 	445 	1216
f 1225 	1231 	1249
f 446 	1216 	445
f 1250 	1262 	1253
f 1232 	1249 	1231
f 1179 	446 	447
f 1154 	1128 	1251
f 1179 	447 	1180
f 1155 	1156 	1173
f 1181 	1180 	448
f 1173 	1156 	1219
f 448 	1180 	447
f 1219 	1156 	1157
f 1181 	448 	449
f 1158 	1221 	1219
f 1158 	1219 	1157
f 1071 	451 	452
f 1159 	1223 	1158
f 1221 	1158 	1223
f 1202 	449 	451
f 1256 	1251 	1252
f 1159 	1160 	1225
f 1223 	1159 	1225
f 1225 	1160 	1161
f 593 	1235 	590
f 593 	603 	1235
f 1231 	1161 	1232
f 1232 	1161 	1162
f 1258 	1253 	1212
f 1210 	1212 	1253
f 1238 	1162 	1163
f 1235 	1257 	590
f 211 	1210 	1253
f 1238 	1163 	1240
f 1027 	1181 	1205
f 1240 	1163 	1188
f 590 	1032 	602
f 1033 	1032 	1255
f 1235 	1233 	1257
f 1032 	590 	1257
f 1257 	1255 	1032
f 1256 	1258 	1212
f 1256 	1252 	1258
f 1133 	1263 	1262
f 1262 	1263 	1265
f 349 	605 	1260
f 605 	1267 	1260
f 1260 	1261 	677
f 349 	1260 	677
f 1208 	1253 	1262
f 213 	1208 	1262
f 1262 	1265 	213
f 1190 	1267 	1188
f 1267 	1240 	1188
f 875 	1265 	1266
f 1267 	1190 	480
f 264 	1265 	875
f 639 	480 	1190
f 1268 	1244 	1238
f 1268 	1259 	1244
f 1268 	1238 	1240
f 1269 	1263 	1135
f 1271 	1269 	1135
f 1190 	1275 	639
f 1265 	1263 	1269
f 1270 	53 	740
f 1267 	1268 	1240
f 1266 	1265 	1269
f 99 	53 	1274
f 1272 	640 	1275
f 1260 	1282 	1261
f 739 	740 	53
f 1270 	1274 	53
f 1266 	1269 	1271
f 480 	1282 	1260
f 1277 	1278 	1276
f 1277 	1276 	1279
f 402 	1276 	1278
f 737 	681 	1278
f 402 	1278 	681
f 1273 	1176 	1271
f 1137 	1138 	1280
f 1257 	1233 	1255
f 480 	1260 	1267
f 1280 	1273 	1137
f 1254 	1255 	1233
f 1280 	1176 	1273
f 1034 	1179 	1027
f 926 	1280 	1138
f 1180 	1027 	1179
f 1181 	1027 	1180
f 1271 	1176 	1266
f 1033 	1255 	1254
f 1254 	1034 	1037
f 1237 	1034 	1254
f 1281 	633 	1264
f 1237 	1179 	1034
f 1261 	1281 	674
f 1033 	1254 	1037
f 1027 	1205 	1028
f 1250 	1131 	1130
f 481 	1281 	1282
f 1132 	1250 	1130
f 1281 	1261 	1282
f 1262 	1132 	1133
f 481 	1282 	480
f 1263 	1133 	1134
f 115 	117 	1283
f 1135 	1263 	1134
f 674 	1281 	1264
f 1271 	1135 	1136
f 1136 	1137 	1271
f 1273 	1271 	1137
f 120 	115 	1283
f 1195 	1284 	348
f 1284 	350 	352
f 1195 	1247 	1284
f 1284 	1247 	1248
f 1128 	1139 	1251
f 1284 	1248 	350
f 1140 	1251 	1139
f 882 	118 	138
f 348 	1284 	352
f 1140 	1252 	1251
f 1252 	1140 	1131
f 353 	351 	1287
f 118 	882 	1288
f 351 	1249 	1287
f 1287 	1249 	1286
f 882 	138 	119
f 353 	1287 	1286
f 1285 	120 	1308
f 1285 	150 	120
f 397 	1259 	1268
f 1291 	1290 	1152
f 394 	1259 	395
f 1259 	397 	395
f 400 	353 	1286
f 400 	1286 	394
f 1285 	1348 	150
f 1286 	1244 	394
f 394 	1244 	1259
f 1291 	1152 	1153
f 397 	1268 	605
f 1268 	1267 	605
f 1292 	889 	425
f 1292 	425 	453
f 674 	1264 	675
f 677 	1261 	674
f 1110 	1291 	1116
f 1291 	1153 	1114
f 1272 	687 	672
f 1272 	672 	1270
f 675 	1264 	678
f 438 	688 	678
f 678 	633 	438
f 688 	818 	258
f 678 	1264 	633
f 1294 	1293 	458
f 672 	1274 	1270
f 882 	889 	1292
f 672 	728 	1274
f 771 	687 	1275
f 1275 	687 	1272
f 771 	1275 	1274
f 771 	1274 	728
f 681 	680 	402
f 1279 	1276 	772
f 1279 	772 	775
f 774 	773 	1278
f 774 	1278 	1277
f 737 	1278 	773
f 1279 	775 	334
f 1277 	900 	774
f 901 	774 	900
f 776 	1295 	1296
f 776 	1296 	777
f 1299 	1292 	1293
f 1297 	780 	779
f 1293 	1283 	117
f 779 	778 	1297
f 1299 	1288 	882
f 882 	1292 	1299
f 778 	791 	1300
f 112 	1288 	1299
f 778 	1300 	1297
f 1298 	782 	781
f 117 	112 	1299
f 780 	1298 	781
f 1293 	117 	1299
f 461 	462 	1301
f 783 	275 	784
f 1301 	1294 	461
f 785 	784 	275
f 462 	464 	1301
f 1301 	1304 	1309
f 787 	785 	287
f 187 	1296 	189
f 24 	1303 	1302
f 1275 	1296 	1274
f 1296 	1295 	1274
f 1293 	1308 	1283
f 135 	788 	787
f 1309 	1304 	1285
f 78 	34 	790
f 789 	786 	1302
f 1294 	1301 	1309
f 788 	135 	786
f 1306 	1305 	1275
f 1308 	1293 	1294
f 786 	135 	22
f 786 	22 	1302
f 1309 	1308 	1294
f 7 	1307 	900
f 1275 	900 	1307
f 1307 	1306 	1275
f 1302 	22 	24
f 1308 	120 	1283
f 334 	29 	1279
f 4 	18 	1279
f 5 	1279 	6
f 4 	1279 	3
f 793 	1302 	1303
f 3 	1279 	5
f 792 	789 	1302
f 793 	792 	1302
f 1303 	790 	793
f 790 	1303 	24
f 1308 	1309 	1285
f 900 	1277 	7
f 8 	7 	1277
f 791 	790 	34
f 18 	16 	1279
f 56 	1300 	34
f 1304 	1301 	1313
f 16 	13 	1279
f 6 	1279 	27
f 1300 	791 	34
f 1312 	794 	782
f 181 	1296 	184
f 455 	1292 	453
f 184 	1296 	187
f 455 	456 	1293
f 1292 	455 	1293
f 457 	1293 	456
f 195 	193 	1275
f 795 	1317 	798
f 1293 	457 	458
f 197 	195 	1275
f 199 	197 	1275
f 1275 	1305 	199
f 1294 	458 	460
f 1294 	460 	461
f 1296 	256 	26
f 1310 	1300 	56
f 263 	259 	1296
f 259 	256 	1296
f 1300 	1310 	1297
f 1310 	780 	1297
f 1301 	465 	1313
f 189 	1296 	192
f 192 	1275 	193
f 1275 	192 	1296
f 181 	179 	1296
f 179 	263 	1296
f 1301 	464 	465
f 545 	1246 	543
f 1298 	780 	1311
f 1246 	545 	1356
f 1311 	782 	1298
f 1311 	1329 	782
f 1314 	545 	544
f 782 	1329 	1312
f 794 	1312 	795
f 1312 	1329 	1324
f 795 	1312 	1331
f 1331 	1312 	1324
f 1317 	796 	798
f 1318 	1316 	468
f 796 	1317 	1352
f 1317 	1331 	1335
f 1319 	313 	315
f 1317 	1335 	1352
f 1207 	313 	1320
f 1319 	1320 	313
f 1321 	78 	199
f 1319 	315 	316
f 1321 	199 	1305
f 56 	78 	1321
f 1322 	1321 	1305
f 316 	1024 	1319
f 1304 	1313 	1315
f 1322 	1305 	1306
f 1322 	1306 	1307
f 1324 	1322 	1307
f 1325 	1319 	1024
f 1319 	1326 	1330
f 1326 	1325 	1243
f 1326 	1319 	1325
f 1325 	1025 	1327
f 1323 	470 	1332
f 1325 	1024 	1025
f 1328 	56 	1321
f 1040 	1304 	1315
f 56 	1328 	1310
f 1329 	1328 	1322
f 1315 	1316 	1345
f 1329 	1311 	1328
f 1315 	1345 	1040
f 1236 	1214 	1330
f 1329 	1322 	1324
f 780 	1310 	1328
f 1316 	1318 	1346
f 1328 	1321 	1322
f 1214 	1320 	1330
f 270 	1318 	1323
f 1320 	1319 	1330
f 1328 	1311 	780
f 1332 	219 	668
f 1317 	795 	1331
f 475 	1334 	1333
f 1327 	1245 	1337
f 754 	1242 	1243
f 754 	1243 	1325
f 763 	1242 	753
f 1333 	219 	1332
f 753 	1242 	754
f 1062 	756 	755
f 1245 	1062 	755
f 755 	1337 	1245
f 758 	754 	1337
f 1327 	754 	1325
f 1327 	1337 	754
f 801 	800 	1338
f 797 	1338 	800
f 1337 	755 	758
f 803 	802 	1336
f 759 	756 	1079
f 1339 	1334 	476
f 759 	1079 	609
f 1236 	761 	1340
f 1336 	799 	803
f 761 	1236 	762
f 1340 	1230 	1218
f 670 	270 	1332
f 670 	1332 	668
f 1330 	1326 	762
f 1236 	1330 	762
f 476 	563 	1339
f 763 	762 	1326
f 247 	219 	1333
f 1003 	990 	374
f 365 	977 	500
f 365 	364 	978
f 365 	978 	977
f 247 	1333 	1334
f 364 	367 	979
f 364 	979 	978
f 367 	366 	980
f 1 	801 	1354
f 367 	980 	979
f 366 	369 	980
f 797 	1353 	1338
f 1339 	358 	247
f 369 	981 	980
f 369 	982 	981
f 983 	368 	984
f 369 	368 	983
f 368 	371 	984
f 270 	1323 	1332
f 802 	801 	1
f 369 	983 	982
f 802 	1 	1336
f 371 	985 	984
f 986 	370 	987
f 1341 	1324 	1307
f 371 	370 	986
f 371 	986 	985
f 1307 	7 	1341
f 466 	1313 	465
f 370 	373 	987
f 1341 	7 	8
f 987 	373 	988
f 466 	467 	1315
f 373 	989 	988
f 1315 	467 	1316
f 373 	374 	990
f 1342 	1341 	8
f 373 	990 	989
f 1313 	466 	1315
f 1316 	467 	468
f 992 	388 	377
f 992 	377 	993
f 993 	377 	376
f 993 	376 	994
f 376 	995 	994
f 468 	469 	1318
f 376 	379 	996
f 470 	1323 	469
f 1318 	469 	1323
f 379 	378 	996
f 1342 	8 	11
f 471 	1332 	470
f 376 	996 	995
f 1332 	471 	472
f 1332 	472 	1333
f 378 	997 	996
f 997 	378 	386
f 386 	385 	997
f 1333 	472 	475
f 385 	998 	997
f 385 	384 	998
f 476 	1334 	475
f 384 	999 	998
f 384 	383 	999
f 1343 	1342 	11
f 383 	1000 	999
f 383 	382 	1000
f 382 	1001 	1000
f 382 	381 	1001
f 381 	380 	1001
f 380 	501 	1001
f 1003 	390 	389
f 1003 	389 	1004
f 374 	390 	1003
f 992 	1004 	389
f 992 	389 	388
f 742 	297 	296
f 742 	296 	741
f 13 	1347 	1343
f 150 	1348 	1038
f 1343 	11 	13
f 1046 	402 	680
f 1039 	1038 	1344
f 1285 	1304 	1348
f 1341 	1331 	1324
f 1006 	391 	392
f 1006 	392 	1007
f 1344 	1348 	1304
f 152 	153 	1021
f 391 	1021 	153
f 1006 	1021 	391
f 1304 	1040 	1344
f 1349 	1009 	1008
f 1349 	881 	884
f 1349 	884 	1009
f 1038 	1348 	1344
f 1344 	1040 	1039
f 882 	119 	1009
f 1041 	1040 	1345
f 1347 	13 	16
f 1009 	884 	882
f 1041 	1345 	1346
f 1335 	1331 	1341
f 1012 	1011 	434
f 1012 	434 	357
f 1041 	1346 	1042
f 1345 	1316 	1346
f 18 	1347 	16
f 1335 	1341 	1352
f 665 	1318 	270
f 247 	358 	641
f 1346 	665 	1042
f 1171 	1350 	1355
f 1352 	1341 	1342
f 1346 	1318 	665
f 1355 	1350 	1351
f 1342 	1343 	1353
f 1291 	1114 	1115
f 1289 	1290 	1077
f 1353 	1343 	1347
f 1291 	1115 	1116
f 1076 	1289 	1077
f 970 	1077 	1290
f 1354 	1353 	1347
f 1354 	1338 	1353
f 1 	1354 	1347
f 796 	1352 	1353
f 1290 	1291 	970
f 1352 	1342 	1353
f 1110 	966 	1291
f 1353 	797 	796
f 1291 	1121 	970
f 545 	1314 	1356
f 1314 	1362 	1356
f 575 	1169 	1355
f 1338 	1354 	801
f 3 	2 	4
f 1359 	2 	3
f 1169 	1171 	1355
f 1350 	1171 	1170
f 5 	1360 	1359
f 1359 	3 	5
f 1355 	544 	577
f 1355 	1362 	1314
f 1360 	5 	6
f 1362 	1355 	1351
f 1355 	1314 	544
f 575 	1355 	577
f 158 	1364 	1351
f 1360 	6 	27
f 1075 	1358 	1361
f 27 	824 	1360
f 1365 	1364 	160
f 18 	4 	2
f 1359 	1360 	1367
f 1362 	1351 	1364
f 1359 	1367 	799
f 1 	2 	1359
f 1075 	1361 	1081
f 1363 	1081 	1361
f 1356 	1362 	1364
f 2 	1347 	18
f 1289 	1363 	1149
f 1357 	1358 	1381
f 1363 	1085 	1081
f 1356 	1364 	1246
f 1360 	832 	1367
f 1359 	799 	1336
f 1076 	1085 	1363
f 767 	799 	1367
f 1367 	766 	769
f 1076 	1363 	1289
f 1381 	1358 	1075
f 1246 	1364 	1365
f 1367 	770 	766
f 553 	1246 	1365
f 767 	1367 	769
f 1347 	2 	1
f 1143 	1357 	430
f 1357 	1144 	1358
f 1336 	1 	1359
f 556 	555 	173
f 1144 	1357 	1143
f 1366 	173 	555
f 1361 	1358 	1145
f 554 	553 	1366
f 1365 	1366 	553
f 1145 	1358 	1144
f 1366 	555 	554
f 1145 	1146 	1361
f 556 	173 	183
f 1361 	1146 	1363
f 1363 	1146 	1147
f 1013 	1012 	357
f 1149 	1363 	1147
f 157 	1350 	156
f 439 	1011 	340
f 1350 	157 	1351
f 1014 	1013 	864
f 1149 	1150 	1289
f 158 	1351 	157
f 1150 	1151 	1289
f 1364 	158 	159
f 1151 	1152 	1290
f 1364 	159 	160
f 1289 	1151 	1290
f 881 	1349 	885
f 160 	161 	1365
f 162 	1365 	161
f 1365 	162 	1366
f 1366 	162 	171
f 172 	173 	1366
f 172 	1366 	171
f 1016 	1349 	1008
f 80 	82 	1369
f 1368 	1015 	1019
f 375 	815 	477
f 1016 	1015 	885
f 1349 	1016 	885
f 1371 	1369 	82
f 1017 	820 	1368
f 254 	387 	1378
f 1368 	820 	1015
f 1371 	82 	86
f 820 	868 	1015
f 375 	387 	1370
f 885 	1015 	868
f 1020 	1017 	1368
f 375 	1370 	815
f 1368 	1019 	1020
f 1371 	86 	88
f 155 	1007 	154
f 392 	154 	1007
f 387 	816 	1370
f 1372 	88 	89
f 1372 	1371 	88
f 477 	815 	248
f 387 	254 	816
f 1227 	55 	1174
f 1372 	1222 	1371
f 1371 	1222 	1167
f 1372 	89 	156
f 1373 	1379 	96
f 1350 	1372 	156
f 426 	1374 	208
f 55 	1369 	1174
f 426 	1375 	1374
f 1369 	1371 	1174
f 426 	427 	1375
f 1174 	1371 	564
f 1371 	565 	564
f 1350 	1170 	1372
f 430 	1375 	427
f 1371 	1167 	565
f 597 	68 	1376
f 1376 	68 	70
f 1376 	70 	72
f 1357 	1375 	430
f 1376 	72 	1377
f 1377 	72 	76
f 625 	597 	1376
f 1175 	1376 	1377
f 1373 	1382 	1379
f 1379 	1374 	1375
f 55 	76 	77
f 55 	1377 	76
f 1379 	1380 	1088
f 1380 	1379 	1375
f 1357 	1380 	1375
f 1380 	1381 	1088
f 55 	77 	80
f 1357 	1381 	1380
f 625 	1376 	1241
f 1175 	1241 	1376
f 1369 	55 	80
f 164 	1088 	1381
f 1378 	1090 	244
f 1378 	202 	208
f 1382 	1378 	208
f 1175 	1377 	55
f 1378 	1382 	1090
f 1382 	208 	1374
f 1379 	1382 	1374
f 1090 	1382 	1373
f 96 	1379 	1088
f 1075 	164 	1381
f 463 	410 	1383
f 1383 	410 	413
f 375 	463 	1383
f 1383 	413 	415
f 202 	1383 	415
f 387 	375 	1383
f 202 	387 	1383
# 2806 faces

 #end of obj_0

