# Created by FreeCAD <https://www.freecad.org>
v 116.099998 -8.000000 0.100000
v 116.099998 -4.000000 0.100000
v 119.900002 -8.000000 0.100000
v 119.900002 -4.000000 0.100000
v 119.900002 -8.000000 14.900000
v 119.900002 -4.000000 14.900000
v 111.699997 -8.000000 14.900000
v 111.699997 -4.000000 14.900000
v 111.699997 -4.000000 29.700001
v 111.699997 -8.000000 29.700001
v 116.099998 -4.000000 29.700001
v 116.099998 -8.000000 29.700001
v 116.099998 -4.000000 22.299999
v 116.099998 -8.000000 22.299999
v 119.900002 -8.000000 22.299999
v 119.900002 -4.000000 22.299999
v 119.900002 -8.000000 37.099998
v 119.900002 -4.000000 37.099998
v 96.699997 -4.000000 37.099998
v 96.699997 -8.000000 37.099998
v 96.699997 -4.000000 41.099998
v 96.699997 -8.000000 41.099998
v 82.300003 -4.000000 41.099998
v 82.300003 -8.000000 41.099998
v 82.300003 -4.000000 37.099998
v 82.300003 -8.000000 37.099998
v 67.099998 -4.000000 37.099998
v 67.099998 -8.000000 37.099998
v 67.099998 -4.000000 41.099998
v 67.099998 -8.000000 41.099998
v 52.700005 -4.000000 41.099998
v 52.700005 -4.000000 37.099998
v 52.700005 -8.000000 37.099998
v 37.500000 -4.000000 37.099998
v 37.500000 -8.000000 37.099998
v 37.500000 -4.000000 41.099998
v 23.099997 -4.000000 41.099998
v 23.099997 -8.000000 41.099998
v 23.099997 -4.000000 37.099998
v 23.099997 -8.000000 37.099998
v -0.100000 -4.000000 37.099998
v -0.100000 -8.000000 37.099998
v -0.100000 -4.000000 22.299999
v -0.100000 -8.000000 22.299999
v 3.700003 -8.000000 22.299999
v 3.700003 -4.000000 22.299999
v 3.700003 -4.000000 29.700001
v 3.700003 -8.000000 29.700001
v 8.099997 -4.000000 29.700001
v 8.099997 -8.000000 29.700001
v 8.099997 -4.000000 14.900000
v 8.099997 -8.000000 14.900000
v -0.100000 -8.000000 14.900000
v -0.100000 -4.000000 14.900000
v -0.100000 -8.000000 0.100000
v -0.100000 -4.000000 0.100000
v 3.700003 -4.000000 0.100000
v 3.700003 -8.000000 0.100000
v 3.700003 -8.000000 7.500000
v 3.700003 -4.000000 7.500000
v 8.099997 -4.000000 7.500000
v 8.099997 -8.000000 7.500000
v 8.099997 -4.000000 0.100000
v 8.099997 -8.000000 0.100000
v 116.099998 -8.000000 7.500000
v 116.099998 -4.000000 7.500000
v 111.699997 -4.000000 0.100000
v 111.699997 -8.000000 7.500000
v 111.699997 -8.000000 0.100000
v 111.699997 -4.000000 7.500000
v 96.699997 -4.000000 0.100000
v 82.300003 -4.000000 0.100000
v 96.699997 -4.000000 -3.900000
v 64.298309 -4.000000 16.181036
v 64.089424 -4.000000 16.395201
v 63.870117 -4.000000 16.598688
v 64.496269 -4.000000 15.956726
v 63.640942 -4.000000 16.790989
v 64.682793 -4.000000 15.722826
v 63.402462 -4.000000 16.971628
v 64.857430 -4.000000 15.479921
v 63.155277 -4.000000 17.140156
v 65.019745 -4.000000 15.228611
v 62.900002 -4.000000 17.296152
v 65.169327 -4.000000 14.969524
v 62.637264 -4.000000 17.439232
v 65.305809 -4.000000 14.703302
v 62.367725 -4.000000 17.569035
v 65.428856 -4.000000 14.430609
v 62.092049 -4.000000 17.685244
v 65.538155 -4.000000 14.152121
v 61.810921 -4.000000 17.787565
v 65.633438 -4.000000 13.868532
v 61.525043 -4.000000 17.875746
v 65.714462 -4.000000 13.580545
v 61.235126 -4.000000 17.949568
v 65.781036 -4.000000 13.288877
v 60.941891 -4.000000 18.008846
v 65.832985 -4.000000 12.994253
v 60.646065 -4.000000 18.053436
v 65.870186 -4.000000 12.697407
v 60.348381 -4.000000 18.083223
v 82.300003 -4.000000 -3.900000
v 65.892540 -4.000000 12.399076
v 60.049587 -4.000000 18.098135
v 65.900002 -4.000000 12.100000
v 59.750416 -4.000000 18.098135
v 65.892540 -4.000000 11.800924
v 59.451622 -4.000000 18.083223
v 65.870186 -4.000000 11.502594
v 59.153938 -4.000000 18.053436
v 65.832985 -4.000000 11.205748
v 58.858112 -4.000000 18.008846
v 65.781036 -4.000000 10.911123
v 58.564877 -4.000000 17.949568
v 65.714462 -4.000000 10.619455
v 58.274960 -4.000000 17.875746
v 65.633438 -4.000000 10.331469
v 57.989082 -4.000000 17.787565
v 65.538155 -4.000000 10.047880
v 57.707954 -4.000000 17.685244
v 57.432278 -4.000000 17.569035
v 57.162739 -4.000000 17.439232
v 56.900002 -4.000000 17.296152
v 56.644726 -4.000000 17.140156
v 56.397541 -4.000000 16.971628
v 56.159061 -4.000000 16.790989
v 55.929886 -4.000000 16.598688
v 55.710579 -4.000000 16.395201
v 55.501694 -4.000000 16.181036
v 55.303734 -4.000000 15.956726
v 55.117203 -4.000000 15.722826
v 54.942566 -4.000000 15.479921
v 54.780258 -4.000000 15.228611
v 54.630669 -4.000000 14.969524
v 54.494186 -4.000000 14.703302
v 54.371147 -4.000000 14.430609
v 54.261848 -4.000000 14.152121
v 54.166565 -4.000000 13.868532
v 54.085541 -4.000000 13.580545
v 67.099998 -4.000000 0.100000
v 65.019745 -4.000000 8.971390
v 65.169327 -4.000000 9.230476
v 65.305809 -4.000000 9.496698
v 65.428856 -4.000000 9.769392
v 61.235126 -4.000000 6.250432
v 61.525043 -4.000000 6.324255
v 61.810921 -4.000000 6.412435
v 62.092049 -4.000000 6.514757
v 62.367725 -4.000000 6.630966
v 62.637264 -4.000000 6.760768
v 62.900002 -4.000000 6.903848
v 63.155277 -4.000000 7.059844
v 63.402462 -4.000000 7.228372
v 63.640942 -4.000000 7.409011
v 63.870117 -4.000000 7.601312
v 64.089424 -4.000000 7.804800
v 64.298309 -4.000000 8.018965
v 64.496269 -4.000000 8.243275
v 64.682793 -4.000000 8.477175
v 64.857430 -4.000000 8.720079
v 60.941891 -4.000000 6.191154
v 60.646065 -4.000000 6.146564
v 60.348381 -4.000000 6.116777
v 60.049587 -4.000000 6.101865
v 52.700005 -4.000000 0.100000
v 67.099998 -4.000000 -3.900000
v 54.261848 -4.000000 10.047880
v 54.371147 -4.000000 9.769392
v 54.494186 -4.000000 9.496698
v 54.630669 -4.000000 9.230476
v 54.780258 -4.000000 8.971390
v 54.942566 -4.000000 8.720079
v 55.117203 -4.000000 8.477175
v 55.303734 -4.000000 8.243275
v 55.501694 -4.000000 8.018965
v 55.710579 -4.000000 7.804800
v 55.929886 -4.000000 7.601312
v 56.159061 -4.000000 7.409011
v 56.397541 -4.000000 7.228372
v 56.644726 -4.000000 7.059844
v 56.900002 -4.000000 6.903848
v 57.162739 -4.000000 6.760768
v 57.432278 -4.000000 6.630966
v 57.707954 -4.000000 6.514757
v 57.989082 -4.000000 6.412435
v 58.274960 -4.000000 6.324255
v 58.564877 -4.000000 6.250432
v 58.858112 -4.000000 6.191154
v 59.153938 -4.000000 6.146564
v 59.451622 -4.000000 6.116777
v 59.750416 -4.000000 6.101865
v 52.700005 -4.000000 -3.900000
v 37.500000 -4.000000 0.100000
v 53.900002 -4.000000 12.100000
v 53.907463 -4.000000 11.800924
v 53.929817 -4.000000 11.502594
v 53.967018 -4.000000 11.205748
v 54.018967 -4.000000 10.911123
v 54.085541 -4.000000 10.619455
v 54.166565 -4.000000 10.331469
v 54.018967 -4.000000 13.288877
v 53.967018 -4.000000 12.994253
v 53.929817 -4.000000 12.697407
v 53.907463 -4.000000 12.399076
v 23.099997 -4.000000 0.100000
v 23.099997 -4.000000 -3.900000
v 37.500000 -4.000000 -3.900000
v 23.099997 -8.000000 -3.900000
v 23.099997 -8.000000 0.100000
v 37.500000 -8.000000 -3.900000
v 37.500000 -8.000000 0.100000
v 52.700005 -8.000000 -3.900000
v 52.700005 -8.000000 0.100000
v 67.099998 -8.000000 -3.900000
v 67.099998 -8.000000 0.100000
v 82.300003 -8.000000 -3.900000
v 82.300003 -8.000000 0.100000
v 96.699997 -8.000000 -3.900000
v 96.699997 -8.000000 0.100000
v 53.900002 -8.000000 12.100000
v 53.907463 -8.000000 11.800924
v 53.929817 -8.000000 11.502594
v 53.967018 -8.000000 11.205748
v 54.018967 -8.000000 10.911123
v 54.085541 -8.000000 10.619455
v 54.166565 -8.000000 10.331469
v 54.261848 -8.000000 10.047880
v 54.371147 -8.000000 9.769392
v 54.494186 -8.000000 9.496698
v 54.630669 -8.000000 9.230476
v 54.780258 -8.000000 8.971390
v 54.942566 -8.000000 8.720079
v 55.117203 -8.000000 8.477175
v 55.303734 -8.000000 8.243275
v 55.501694 -8.000000 8.018965
v 55.710579 -8.000000 7.804800
v 55.929886 -8.000000 7.601312
v 56.159061 -8.000000 7.409011
v 56.397541 -8.000000 7.228372
v 56.644726 -8.000000 7.059844
v 56.900002 -8.000000 6.903848
v 57.162739 -8.000000 6.760768
v 57.432278 -8.000000 6.630966
v 57.707954 -8.000000 6.514757
v 57.989082 -8.000000 6.412435
v 58.274960 -8.000000 6.324255
v 58.564877 -8.000000 6.250432
v 58.858112 -8.000000 6.191154
v 59.153938 -8.000000 6.146564
v 59.451622 -8.000000 6.116777
v 59.750416 -8.000000 6.101865
v 60.049587 -8.000000 6.101865
v 60.348381 -8.000000 6.116777
v 60.646065 -8.000000 6.146564
v 60.941891 -8.000000 6.191154
v 61.235126 -8.000000 6.250432
v 61.525043 -8.000000 6.324255
v 61.810921 -8.000000 6.412435
v 62.092049 -8.000000 6.514757
v 62.367725 -8.000000 6.630966
v 62.637264 -8.000000 6.760768
v 62.900002 -8.000000 6.903848
v 63.155277 -8.000000 7.059844
v 63.402462 -8.000000 7.228372
v 63.640942 -8.000000 7.409011
v 63.870117 -8.000000 7.601312
v 64.089424 -8.000000 7.804800
v 64.298309 -8.000000 8.018965
v 64.496269 -8.000000 8.243275
v 64.682793 -8.000000 8.477175
v 64.857430 -8.000000 8.720079
v 65.019745 -8.000000 8.971390
v 65.169327 -8.000000 9.230476
v 65.305809 -8.000000 9.496698
v 65.428856 -8.000000 9.769392
v 65.538155 -8.000000 10.047880
v 65.633438 -8.000000 10.331469
v 65.714462 -8.000000 10.619455
v 65.781036 -8.000000 10.911123
v 65.832985 -8.000000 11.205748
v 65.870186 -8.000000 11.502594
v 65.892540 -8.000000 11.800924
v 65.900002 -8.000000 12.100000
v 65.892540 -8.000000 12.399076
v 65.870186 -8.000000 12.697407
v 65.832985 -8.000000 12.994253
v 65.781036 -8.000000 13.288877
v 65.714462 -8.000000 13.580545
v 65.633438 -8.000000 13.868532
v 65.538155 -8.000000 14.152121
v 65.428856 -8.000000 14.430609
v 65.305809 -8.000000 14.703302
v 65.169327 -8.000000 14.969524
v 65.019745 -8.000000 15.228611
v 64.857430 -8.000000 15.479921
v 64.682793 -8.000000 15.722826
v 64.496269 -8.000000 15.956726
v 64.298309 -8.000000 16.181036
v 64.089424 -8.000000 16.395201
v 63.870117 -8.000000 16.598688
v 63.640942 -8.000000 16.790989
v 63.402462 -8.000000 16.971628
v 63.155277 -8.000000 17.140156
v 62.900002 -8.000000 17.296152
v 62.637264 -8.000000 17.439232
v 62.367725 -8.000000 17.569035
v 62.092049 -8.000000 17.685244
v 61.810921 -8.000000 17.787565
v 61.525043 -8.000000 17.875746
v 61.235126 -8.000000 17.949568
v 60.941891 -8.000000 18.008846
v 60.646065 -8.000000 18.053436
v 60.348381 -8.000000 18.083223
v 60.049587 -8.000000 18.098135
v 59.750416 -8.000000 18.098135
v 59.451622 -8.000000 18.083223
v 59.153938 -8.000000 18.053436
v 58.858112 -8.000000 18.008846
v 58.564877 -8.000000 17.949568
v 58.274960 -8.000000 17.875746
v 57.989082 -8.000000 17.787565
v 57.707954 -8.000000 17.685244
v 57.432278 -8.000000 17.569035
v 57.162739 -8.000000 17.439232
v 56.900002 -8.000000 17.296152
v 56.644726 -8.000000 17.140156
v 56.397541 -8.000000 16.971628
v 56.159061 -8.000000 16.790989
v 55.929886 -8.000000 16.598688
v 55.710579 -8.000000 16.395201
v 55.501694 -8.000000 16.181036
v 55.303734 -8.000000 15.956726
v 55.117203 -8.000000 15.722826
v 54.942566 -8.000000 15.479921
v 54.780258 -8.000000 15.228611
v 54.630669 -8.000000 14.969524
v 54.494186 -8.000000 14.703302
v 54.371147 -8.000000 14.430609
v 54.261848 -8.000000 14.152121
v 54.166565 -8.000000 13.868532
v 54.085541 -8.000000 13.580545
v 54.018967 -8.000000 13.288877
v 53.967018 -8.000000 12.994253
v 53.929817 -8.000000 12.697407
v 53.907463 -8.000000 12.399076
v 52.700005 -8.000000 41.099998
v 37.500000 -8.000000 41.099998
vn 0.000000 0.000000 -1.000000
vn 0.000000 0.000000 -1.000000
vn 1.000000 0.000000 0.000000
vn 1.000000 0.000000 -0.000000
vn 0.000000 0.000000 1.000000
vn 0.000000 0.000000 1.000000
vn 1.000000 0.000000 -0.000000
vn 1.000000 0.000000 0.000000
vn 0.000000 0.000000 -1.000000
vn 0.000000 0.000000 -1.000000
vn -1.000000 0.000000 -0.000000
vn -1.000000 -0.000000 0.000000
vn 0.000000 0.000000 -1.000000
vn 0.000000 0.000000 -1.000000
vn 1.000000 0.000000 0.000000
vn 1.000000 0.000000 -0.000000
vn 0.000000 0.000000 1.000000
vn 0.000000 0.000000 1.000000
vn 1.000000 0.000000 -0.000000
vn 1.000000 0.000000 0.000000
vn 0.000000 0.000000 1.000000
vn 0.000000 0.000000 1.000000
vn -1.000000 -0.000000 -0.000000
vn -1.000000 0.000000 0.000000
vn 0.000000 0.000000 1.000000
vn 0.000000 0.000000 1.000000
vn 1.000000 0.000000 -0.000000
vn 1.000000 0.000000 0.000000
vn 0.000000 0.000000 1.000000
vn 0.000000 0.000000 1.000000
vn -1.000000 -0.000000 -0.000000
vn -1.000000 0.000000 0.000000
vn 0.000000 0.000000 1.000000
vn 0.000000 0.000000 1.000000
vn 1.000000 0.000000 -0.000000
vn 1.000000 0.000000 0.000000
vn 0.000000 0.000000 1.000000
vn 0.000000 0.000000 1.000000
vn -1.000000 -0.000000 -0.000000
vn -1.000000 0.000000 0.000000
vn 0.000000 0.000000 1.000000
vn 0.000000 0.000000 1.000000
vn -1.000000 -0.000000 -0.000000
vn -1.000000 0.000000 0.000000
vn 0.000000 0.000000 -1.000000
vn 0.000000 0.000000 -1.000000
vn 1.000000 0.000000 -0.000000
vn 1.000000 0.000000 0.000000
vn 0.000000 0.000000 -1.000000
vn 0.000000 0.000000 -1.000000
vn -1.000000 -0.000000 -0.000000
vn -1.000000 0.000000 0.000000
vn 0.000000 0.000000 1.000000
vn 0.000000 0.000000 1.000000
vn -1.000000 -0.000000 0.000000
vn -1.000000 0.000000 -0.000000
vn 0.000000 -0.000000 -1.000000
vn 0.000000 0.000000 -1.000000
vn 1.000000 0.000000 0.000000
vn 1.000000 0.000000 -0.000000
vn 0.000000 0.000000 -1.000000
vn 0.000000 0.000000 -1.000000
vn -1.000000 0.000000 0.000000
vn -1.000000 -0.000000 -0.000000
vn -1.000000 0.000000 0.000000
vn -1.000000 -0.000000 -0.000000
vn 1.000000 0.000000 0.000000
vn 1.000000 0.000000 -0.000000
vn 0.000000 0.000000 -1.000000
vn 0.000000 0.000000 -1.000000
vn 0.000000 1.000000 -0.000000
vn 0.000000 1.000000 0.000000
vn 0.000000 1.000000 0.000000
vn 0.000000 1.000000 -0.000000
vn 0.000000 1.000000 -0.000000
vn 0.000000 1.000000 -0.000000
vn 0.000000 1.000000 0.000000
vn 0.000000 1.000000 0.000000
vn 0.000000 1.000000 0.000000
vn 0.000000 1.000000 0.000000
vn 0.000000 1.000000 0.000000
vn 0.000000 1.000000 0.000000
vn 0.000000 1.000000 -0.000000
vn 0.000000 1.000000 0.000000
vn -0.000000 1.000000 0.000000
vn 0.000000 1.000000 0.000000
vn 0.000000 1.000000 0.000000
vn -0.000000 1.000000 0.000000
vn 0.000000 1.000000 -0.000000
vn 0.000000 1.000000 0.000000
vn -0.000000 1.000000 0.000000
vn 0.000000 1.000000 -0.000000
vn -0.000000 1.000000 0.000000
vn 0.000000 1.000000 -0.000000
vn -0.000000 1.000000 0.000000
vn 0.000000 1.000000 -0.000000
vn -0.000000 1.000000 0.000000
vn 0.000000 1.000000 -0.000000
vn -0.000000 1.000000 0.000000
vn 0.000000 1.000000 -0.000000
vn -0.000000 1.000000 0.000000
vn 0.000000 1.000000 -0.000000
vn -0.000000 1.000000 0.000000
vn 0.000000 1.000000 -0.000000
vn -0.000000 1.000000 0.000000
vn 0.000000 1.000000 -0.000000
vn -0.000000 1.000000 0.000000
vn 0.000000 1.000000 -0.000000
vn -0.000000 1.000000 0.000000
vn -0.000000 1.000000 0.000000
vn 0.000000 1.000000 -0.000000
vn -0.000000 1.000000 0.000000
vn -0.000000 1.000000 -0.000000
vn -0.000000 1.000000 0.000000
vn -0.000000 1.000000 -0.000000
vn -0.000000 1.000000 0.000000
vn -0.000000 1.000000 -0.000000
vn -0.000000 1.000000 0.000000
vn 0.000000 1.000000 0.000000
vn -0.000000 1.000000 -0.000000
vn 0.000000 1.000000 -0.000000
vn -0.000000 1.000000 0.000000
vn -0.000000 1.000000 -0.000000
vn 0.000000 1.000000 -0.000000
vn -0.000000 1.000000 0.000000
vn 0.000000 1.000000 -0.000000
vn -0.000000 1.000000 0.000000
vn 0.000000 1.000000 -0.000000
vn -0.000000 1.000000 0.000000
vn 0.000000 1.000000 -0.000000
vn -0.000000 1.000000 0.000000
vn 0.000000 1.000000 -0.000000
vn -0.000000 1.000000 0.000000
vn 0.000000 1.000000 -0.000000
vn -0.000000 1.000000 0.000000
vn 0.000000 1.000000 -0.000000
vn -0.000000 1.000000 0.000000
vn 0.000000 1.000000 -0.000000
vn 0.000000 1.000000 -0.000000
vn 0.000000 1.000000 -0.000000
vn 0.000000 1.000000 -0.000000
vn 0.000000 1.000000 -0.000000
vn 0.000000 1.000000 -0.000000
vn 0.000000 1.000000 -0.000000
vn 0.000000 1.000000 -0.000000
vn 0.000000 1.000000 -0.000000
vn 0.000000 1.000000 0.000000
vn 0.000000 1.000000 -0.000000
vn 0.000000 1.000000 -0.000000
vn 0.000000 1.000000 -0.000000
vn 0.000000 1.000000 -0.000000
vn 0.000000 1.000000 -0.000000
vn 0.000000 1.000000 -0.000000
vn 0.000000 1.000000 -0.000000
vn 0.000000 1.000000 -0.000000
vn 0.000000 1.000000 -0.000000
vn 0.000000 1.000000 -0.000000
vn 0.000000 1.000000 -0.000000
vn 0.000000 1.000000 0.000000
vn 0.000000 1.000000 0.000000
vn 0.000000 1.000000 0.000000
vn 0.000000 1.000000 0.000000
vn 0.000000 1.000000 0.000000
vn 0.000000 1.000000 0.000000
vn 0.000000 1.000000 0.000000
vn 0.000000 1.000000 0.000000
vn 0.000000 1.000000 0.000000
vn 0.000000 1.000000 0.000000
vn 0.000000 1.000000 -0.000000
vn 0.000000 1.000000 0.000000
vn 0.000000 1.000000 0.000000
vn 0.000000 1.000000 0.000000
vn 0.000000 1.000000 0.000000
vn 0.000000 1.000000 0.000000
vn 0.000000 1.000000 0.000000
vn 0.000000 1.000000 0.000000
vn 0.000000 1.000000 0.000000
vn 0.000000 1.000000 0.000000
vn 0.000000 1.000000 0.000000
vn -0.000000 1.000000 0.000000
vn -0.000000 1.000000 0.000000
vn -0.000000 1.000000 0.000000
vn -0.000000 1.000000 0.000000
vn 0.000000 1.000000 0.000000
vn 0.000000 1.000000 0.000000
vn -0.000000 1.000000 0.000000
vn 0.000000 1.000000 0.000000
vn 0.000000 1.000000 0.000000
vn 0.000000 1.000000 0.000000
vn 0.000000 1.000000 0.000000
vn 0.000000 1.000000 0.000000
vn 0.000000 1.000000 0.000000
vn 0.000000 1.000000 0.000000
vn 0.000000 1.000000 0.000000
vn 0.000000 1.000000 0.000000
vn 0.000000 1.000000 0.000000
vn 0.000000 1.000000 0.000000
vn 0.000000 1.000000 0.000000
vn 0.000000 1.000000 0.000000
vn 0.000000 1.000000 0.000000
vn 0.000000 1.000000 0.000000
vn 0.000000 1.000000 0.000000
vn 0.000000 1.000000 0.000000
vn 0.000000 1.000000 0.000000
vn 0.000000 1.000000 0.000000
vn 0.000000 1.000000 0.000000
vn 0.000000 1.000000 0.000000
vn 0.000000 1.000000 0.000000
vn 0.000000 1.000000 0.000000
vn 0.000000 1.000000 0.000000
vn 0.000000 1.000000 0.000000
vn 0.000000 1.000000 0.000000
vn 0.000000 1.000000 0.000000
vn 0.000000 1.000000 0.000000
vn 0.000000 1.000000 0.000000
vn 0.000000 1.000000 0.000000
vn 0.000000 1.000000 0.000000
vn 0.000000 1.000000 0.000000
vn 0.000000 1.000000 0.000000
vn 0.000000 1.000000 0.000000
vn 0.000000 1.000000 0.000000
vn 0.000000 1.000000 0.000000
vn 0.000000 1.000000 0.000000
vn 0.000000 1.000000 0.000000
vn 0.000000 1.000000 0.000000
vn 0.000000 1.000000 0.000000
vn 0.000000 1.000000 0.000000
vn 0.000000 1.000000 -0.000000
vn 0.000000 1.000000 0.000000
vn 0.000000 1.000000 0.000000
vn 0.000000 1.000000 0.000000
vn -0.000000 1.000000 0.000000
vn 0.000000 1.000000 0.000000
vn 0.000000 1.000000 0.000000
vn 0.000000 1.000000 0.000000
vn 0.000000 1.000000 0.000000
vn -0.000000 1.000000 0.000000
vn 0.000000 1.000000 0.000000
vn 0.000000 1.000000 -0.000000
vn 0.000000 1.000000 0.000000
vn 0.000000 1.000000 0.000000
vn 0.000000 1.000000 0.000000
vn -0.000000 1.000000 0.000000
vn -0.000000 1.000000 0.000000
vn -1.000000 -0.000000 0.000000
vn -1.000000 0.000000 -0.000000
vn 0.000000 0.000000 -1.000000
vn 0.000000 0.000000 -1.000000
vn 1.000000 0.000000 0.000000
vn 1.000000 0.000000 -0.000000
vn -1.000000 -0.000000 0.000000
vn -1.000000 0.000000 -0.000000
vn 0.000000 0.000000 -1.000000
vn 0.000000 0.000000 -1.000000
vn 1.000000 0.000000 0.000000
vn 1.000000 0.000000 -0.000000
vn -1.000000 -0.000000 0.000000
vn -1.000000 0.000000 -0.000000
vn 0.000000 0.000000 -1.000000
vn 0.000000 0.000000 -1.000000
vn 1.000000 0.000000 0.000000
vn 1.000000 0.000000 -0.000000
vn 0.999689 0.000000 0.024941
vn 0.999689 0.000000 0.024941
vn 0.997204 0.000000 0.074721
vn 0.997204 0.000000 0.074721
vn 0.992239 0.000000 0.124348
vn 0.992239 0.000000 0.124348
vn 0.984809 0.000000 0.173643
vn 0.984809 0.000000 0.173643
vn 0.974926 0.000000 0.222530
vn 0.974926 0.000000 0.222530
vn 0.962627 0.000000 0.270832
vn 0.947924 0.000000 0.318495
vn 0.962627 0.000000 0.270832
vn 0.947924 0.000000 0.318495
vn 0.930874 0.000000 0.365341
vn 0.911512 0.000000 0.411274
vn 0.930874 0.000000 0.365341
vn 0.911512 0.000000 0.411274
vn 0.889874 0.000000 0.456206
vn 0.889874 0.000000 0.456206
vn 0.866017 0.000000 0.500015
vn 0.866017 0.000000 0.500015
vn 0.840035 0.000000 0.542533
vn 0.840035 0.000000 0.542533
vn 0.811938 0.000000 0.583744
vn 0.811938 0.000000 0.583744
vn 0.781828 0.000000 0.623494
vn 0.781828 0.000000 0.623494
vn 0.749773 0.000000 0.661696
vn 0.749773 0.000000 0.661696
vn 0.715876 0.000000 0.698227
vn 0.715876 0.000000 0.698227
vn 0.680173 0.000000 0.733051
vn 0.680173 0.000000 0.733051
vn 0.642787 0.000000 0.766045
vn 0.642787 0.000000 0.766045
vn 0.603800 0.000000 0.797136
vn 0.603800 0.000000 0.797136
vn 0.563320 0.000000 0.826239
vn 0.521437 0.000000 0.853290
vn 0.563320 0.000000 0.826239
vn 0.521437 0.000000 0.853290
vn 0.478256 0.000000 0.878221
vn 0.478256 0.000000 0.878221
vn 0.433883 0.000000 0.900969
vn 0.388439 0.000000 0.921474
vn 0.433883 0.000000 0.900969
vn 0.388439 0.000000 0.921474
vn 0.342018 0.000000 0.939693
vn 0.342018 0.000000 0.939693
vn 0.294752 0.000000 0.955574
vn 0.294752 0.000000 0.955574
vn 0.246758 0.000000 0.969077
vn 0.246758 0.000000 0.969077
vn 0.198145 0.000000 0.980173
vn 0.198145 0.000000 0.980173
vn 0.149047 0.000000 0.988830
vn 0.149047 0.000000 0.988830
vn 0.099566 0.000000 0.995031
vn 0.099566 0.000000 0.995031
vn 0.049844 0.000000 0.998757
vn 0.049844 0.000000 0.998757
vn 0.000000 0.000000 1.000000
vn 0.000000 0.000000 1.000000
vn -0.049844 0.000000 0.998757
vn -0.049844 0.000000 0.998757
vn -0.099566 0.000000 0.995031
vn -0.099566 0.000000 0.995031
vn -0.149047 0.000000 0.988830
vn -0.149047 0.000000 0.988830
vn -0.198145 0.000000 0.980173
vn -0.198145 0.000000 0.980173
vn -0.246758 0.000000 0.969077
vn -0.246758 0.000000 0.969077
vn -0.294752 0.000000 0.955574
vn -0.294752 0.000000 0.955574
vn -0.342018 0.000000 0.939693
vn -0.342018 0.000000 0.939693
vn -0.388439 0.000000 0.921474
vn -0.388439 0.000000 0.921474
vn -0.433883 0.000000 0.900969
vn -0.433883 0.000000 0.900969
vn -0.478256 0.000000 0.878221
vn -0.478256 0.000000 0.878221
vn -0.521437 0.000000 0.853290
vn -0.521437 0.000000 0.853290
vn -0.563320 0.000000 0.826239
vn -0.563320 0.000000 0.826239
vn -0.603800 0.000000 0.797136
vn -0.603800 0.000000 0.797136
vn -0.642787 0.000000 0.766045
vn -0.642787 0.000000 0.766045
vn -0.680173 0.000000 0.733051
vn -0.680173 0.000000 0.733051
vn -0.715876 0.000000 0.698227
vn -0.715876 0.000000 0.698227
vn -0.749773 0.000000 0.661696
vn -0.749773 0.000000 0.661696
vn -0.781841 0.000000 0.623478
vn -0.781841 0.000000 0.623478
vn -0.811938 0.000000 0.583744
vn -0.811938 0.000000 0.583744
vn -0.840023 0.000000 0.542551
vn -0.866028 0.000000 0.499995
vn -0.840023 0.000000 0.542551
vn -0.866028 0.000000 0.499995
vn -0.889874 0.000000 0.456206
vn -0.889874 0.000000 0.456206
vn -0.911502 0.000000 0.411295
vn -0.911502 0.000000 0.411295
vn -0.930874 0.000000 0.365341
vn -0.930874 0.000000 0.365341
vn -0.947924 0.000000 0.318495
vn -0.947924 0.000000 0.318495
vn -0.962627 0.000000 0.270832
vn -0.962627 0.000000 0.270832
vn -0.974926 0.000000 0.222530
vn -0.974926 0.000000 0.222530
vn -0.984809 0.000000 0.173643
vn -0.984809 0.000000 0.173643
vn -0.992239 0.000000 0.124348
vn -0.992239 0.000000 0.124348
vn -0.997204 0.000000 0.074721
vn -0.997204 0.000000 0.074721
vn -0.999689 0.000000 0.024941
vn -0.999689 0.000000 0.024941
vn -0.999689 0.000000 -0.024941
vn -0.999689 -0.000000 -0.024941
vn -0.997204 0.000000 -0.074721
vn -0.997204 -0.000000 -0.074721
vn -0.992239 0.000000 -0.124348
vn -0.992239 -0.000000 -0.124348
vn -0.984809 0.000000 -0.173643
vn -0.984809 -0.000000 -0.173643
vn -0.974926 0.000000 -0.222530
vn -0.974926 -0.000000 -0.222530
vn -0.962627 0.000000 -0.270832
vn -0.962627 -0.000000 -0.270832
vn -0.947924 0.000000 -0.318495
vn -0.947924 -0.000000 -0.318495
vn -0.930874 0.000000 -0.365341
vn -0.930874 -0.000000 -0.365341
vn -0.911502 0.000000 -0.411295
vn -0.911502 -0.000000 -0.411295
vn -0.889874 0.000000 -0.456206
vn -0.889874 -0.000000 -0.456206
vn -0.866028 0.000000 -0.499995
vn -0.866028 -0.000000 -0.499995
vn -0.840023 0.000000 -0.542551
vn -0.840023 -0.000000 -0.542551
vn -0.811938 0.000000 -0.583744
vn -0.811938 -0.000000 -0.583744
vn -0.781841 0.000000 -0.623478
vn -0.781841 -0.000000 -0.623478
vn -0.749773 0.000000 -0.661696
vn -0.749773 -0.000000 -0.661696
vn -0.715876 0.000000 -0.698228
vn -0.715876 -0.000000 -0.698228
vn -0.680173 0.000000 -0.733051
vn -0.680173 -0.000000 -0.733051
vn -0.642787 0.000000 -0.766045
vn -0.642787 -0.000000 -0.766045
vn -0.603800 0.000000 -0.797136
vn -0.603800 -0.000000 -0.797136
vn -0.563320 -0.000000 -0.826239
vn -0.563320 0.000000 -0.826239
vn -0.521437 -0.000000 -0.853290
vn -0.521437 0.000000 -0.853290
vn -0.478256 -0.000000 -0.878221
vn -0.478256 0.000000 -0.878221
vn -0.433883 -0.000000 -0.900969
vn -0.433883 0.000000 -0.900969
vn -0.388439 -0.000000 -0.921474
vn -0.388439 0.000000 -0.921474
vn -0.342018 0.000000 -0.939693
vn -0.342018 -0.000000 -0.939693
vn -0.294752 0.000000 -0.955574
vn -0.294752 -0.000000 -0.955574
vn -0.246758 -0.000000 -0.969077
vn -0.246758 -0.000000 -0.969077
vn -0.198145 0.000000 -0.980173
vn -0.198145 -0.000000 -0.980173
vn -0.149047 0.000000 -0.988830
vn -0.149047 -0.000000 -0.988830
vn -0.099566 0.000000 -0.995031
vn -0.099566 -0.000000 -0.995031
vn -0.049844 0.000000 -0.998757
vn -0.049844 -0.000000 -0.998757
vn 0.000000 0.000000 -1.000000
vn 0.000000 0.000000 -1.000000
vn 0.049844 0.000000 -0.998757
vn 0.049844 0.000000 -0.998757
vn 0.099566 0.000000 -0.995031
vn 0.099566 0.000000 -0.995031
vn 0.149047 0.000000 -0.988830
vn 0.149047 0.000000 -0.988830
vn 0.198145 0.000000 -0.980173
vn 0.198145 0.000000 -0.980173
vn 0.246758 0.000000 -0.969077
vn 0.246758 0.000000 -0.969077
vn 0.294752 0.000000 -0.955574
vn 0.294752 0.000000 -0.955574
vn 0.342018 0.000000 -0.939693
vn 0.342018 0.000000 -0.939693
vn 0.388439 0.000000 -0.921474
vn 0.388439 0.000000 -0.921474
vn 0.433883 0.000000 -0.900969
vn 0.433883 0.000000 -0.900969
vn 0.478256 0.000000 -0.878221
vn 0.478256 0.000000 -0.878221
vn 0.521437 0.000000 -0.853290
vn 0.521437 0.000000 -0.853290
vn 0.563320 0.000000 -0.826239
vn 0.563320 0.000000 -0.826239
vn 0.603800 0.000000 -0.797136
vn 0.603800 0.000000 -0.797136
vn 0.642787 0.000000 -0.766045
vn 0.642787 0.000000 -0.766045
vn 0.680173 0.000000 -0.733051
vn 0.680173 0.000000 -0.733051
vn 0.715876 0.000000 -0.698228
vn 0.715876 0.000000 -0.698228
vn 0.749773 0.000000 -0.661696
vn 0.749773 0.000000 -0.661696
vn 0.781828 0.000000 -0.623494
vn 0.781828 0.000000 -0.623494
vn 0.811938 0.000000 -0.583744
vn 0.811938 0.000000 -0.583744
vn 0.840035 0.000000 -0.542533
vn 0.840035 0.000000 -0.542533
vn 0.866017 0.000000 -0.500015
vn 0.866017 0.000000 -0.500015
vn 0.889874 0.000000 -0.456206
vn 0.889874 0.000000 -0.456206
vn 0.911512 0.000000 -0.411274
vn 0.911512 0.000000 -0.411274
vn 0.930874 0.000000 -0.365341
vn 0.930874 0.000000 -0.365341
vn 0.947924 0.000000 -0.318495
vn 0.947924 0.000000 -0.318495
vn 0.962627 0.000000 -0.270832
vn 0.962627 0.000000 -0.270832
vn 0.974926 0.000000 -0.222530
vn 0.974926 0.000000 -0.222530
vn 0.984809 0.000000 -0.173643
vn 0.984809 0.000000 -0.173643
vn 0.992239 0.000000 -0.124348
vn 0.992239 0.000000 -0.124348
vn 0.997204 0.000000 -0.074721
vn 0.999689 0.000000 -0.024941
vn 0.997204 0.000000 -0.074721
vn 0.999689 0.000000 -0.024941
vn 0.000000 -1.000000 0.000000
vn 0.000000 -1.000000 0.000000
vn 0.000000 -1.000000 0.000000
vn 0.000000 -1.000000 0.000000
vn 0.000000 -1.000000 0.000000
vn 0.000000 -1.000000 0.000000
vn 0.000000 -1.000000 0.000000
vn 0.000000 -1.000000 -0.000000
vn 0.000000 -1.000000 0.000000
vn 0.000000 -1.000000 0.000000
vn 0.000000 -1.000000 -0.000000
vn 0.000000 -1.000000 -0.000000
vn 0.000000 -1.000000 0.000000
vn 0.000000 -1.000000 0.000000
vn -0.000000 -1.000000 -0.000000
vn 0.000000 -1.000000 0.000000
vn 0.000000 -1.000000 0.000000
vn -0.000000 -1.000000 -0.000000
vn 0.000000 -1.000000 0.000000
vn 0.000000 -1.000000 -0.000000
vn 0.000000 -1.000000 0.000000
vn 0.000000 -1.000000 0.000000
vn 0.000000 -1.000000 0.000000
vn 0.000000 -1.000000 0.000000
vn 0.000000 -1.000000 0.000000
vn 0.000000 -1.000000 0.000000
vn 0.000000 -1.000000 0.000000
vn 0.000000 -1.000000 0.000000
vn 0.000000 -1.000000 0.000000
vn 0.000000 -1.000000 0.000000
vn 0.000000 -1.000000 0.000000
vn 0.000000 -1.000000 0.000000
vn 0.000000 -1.000000 0.000000
vn 0.000000 -1.000000 0.000000
vn 0.000000 -1.000000 0.000000
vn 0.000000 -1.000000 0.000000
vn 0.000000 -1.000000 0.000000
vn 0.000000 -1.000000 0.000000
vn 0.000000 -1.000000 0.000000
vn 0.000000 -1.000000 -0.000000
vn 0.000000 -1.000000 0.000000
vn 0.000000 -1.000000 0.000000
vn 0.000000 -1.000000 0.000000
vn 0.000000 -1.000000 0.000000
vn 0.000000 -1.000000 0.000000
vn 0.000000 -1.000000 0.000000
vn 0.000000 -1.000000 0.000000
vn 0.000000 -1.000000 0.000000
vn 0.000000 -1.000000 0.000000
vn 0.000000 -1.000000 0.000000
vn 0.000000 -1.000000 0.000000
vn 0.000000 -1.000000 0.000000
vn 0.000000 -1.000000 0.000000
vn 0.000000 -1.000000 0.000000
vn 0.000000 -1.000000 -0.000000
vn 0.000000 -1.000000 0.000000
vn 0.000000 -1.000000 -0.000000
vn 0.000000 -1.000000 0.000000
vn 0.000000 -1.000000 -0.000000
vn 0.000000 -1.000000 0.000000
vn 0.000000 -1.000000 -0.000000
vn 0.000000 -1.000000 0.000000
vn 0.000000 -1.000000 -0.000000
vn 0.000000 -1.000000 0.000000
vn 0.000000 -1.000000 -0.000000
vn 0.000000 -1.000000 0.000000
vn 0.000000 -1.000000 -0.000000
vn 0.000000 -1.000000 0.000000
vn 0.000000 -1.000000 0.000000
vn 0.000000 -1.000000 0.000000
vn 0.000000 -1.000000 0.000000
vn 0.000000 -1.000000 0.000000
vn 0.000000 -1.000000 0.000000
vn 0.000000 -1.000000 0.000000
vn 0.000000 -1.000000 0.000000
vn 0.000000 -1.000000 0.000000
vn 0.000000 -1.000000 0.000000
vn 0.000000 -1.000000 0.000000
vn 0.000000 -1.000000 0.000000
vn 0.000000 -1.000000 0.000000
vn 0.000000 -1.000000 0.000000
vn 0.000000 -1.000000 0.000000
vn 0.000000 -1.000000 0.000000
vn 0.000000 -1.000000 0.000000
vn 0.000000 -1.000000 0.000000
vn 0.000000 -1.000000 0.000000
vn 0.000000 -1.000000 0.000000
vn 0.000000 -1.000000 0.000000
vn 0.000000 -1.000000 0.000000
vn 0.000000 -1.000000 0.000000
vn 0.000000 -1.000000 0.000000
vn 0.000000 -1.000000 0.000000
vn 0.000000 -1.000000 0.000000
vn 0.000000 -1.000000 0.000000
vn 0.000000 -1.000000 0.000000
vn 0.000000 -1.000000 0.000000
vn 0.000000 -1.000000 0.000000
vn 0.000000 -1.000000 0.000000
vn 0.000000 -1.000000 0.000000
vn 0.000000 -1.000000 0.000000
vn 0.000000 -1.000000 0.000000
vn 0.000000 -1.000000 0.000000
vn 0.000000 -1.000000 0.000000
vn 0.000000 -1.000000 0.000000
vn 0.000000 -1.000000 0.000000
vn 0.000000 -1.000000 0.000000
vn 0.000000 -1.000000 0.000000
vn 0.000000 -1.000000 0.000000
vn 0.000000 -1.000000 0.000000
vn 0.000000 -1.000000 -0.000000
vn 0.000000 -1.000000 -0.000000
vn 0.000000 -1.000000 -0.000000
vn 0.000000 -1.000000 -0.000000
vn -0.000000 -1.000000 -0.000000
vn 0.000000 -1.000000 0.000000
vn 0.000000 -1.000000 -0.000000
vn -0.000000 -1.000000 -0.000000
vn 0.000000 -1.000000 -0.000000
vn 0.000000 -1.000000 -0.000000
vn 0.000000 -1.000000 -0.000000
vn 0.000000 -1.000000 -0.000000
vn 0.000000 -1.000000 -0.000000
vn 0.000000 -1.000000 -0.000000
vn 0.000000 -1.000000 -0.000000
vn 0.000000 -1.000000 -0.000000
vn 0.000000 -1.000000 -0.000000
vn 0.000000 -1.000000 -0.000000
vn 0.000000 -1.000000 -0.000000
vn 0.000000 -1.000000 -0.000000
vn 0.000000 -1.000000 -0.000000
vn 0.000000 -1.000000 -0.000000
vn 0.000000 -1.000000 -0.000000
vn 0.000000 -1.000000 -0.000000
vn 0.000000 -1.000000 -0.000000
vn 0.000000 -1.000000 -0.000000
vn 0.000000 -1.000000 -0.000000
vn 0.000000 -1.000000 -0.000000
vn 0.000000 -1.000000 -0.000000
vn 0.000000 -1.000000 -0.000000
vn 0.000000 -1.000000 -0.000000
vn 0.000000 -1.000000 -0.000000
vn 0.000000 -1.000000 -0.000000
vn 0.000000 -1.000000 0.000000
vn 0.000000 -1.000000 0.000000
vn 0.000000 -1.000000 -0.000000
vn 0.000000 -1.000000 -0.000000
vn 0.000000 -1.000000 -0.000000
vn 0.000000 -1.000000 -0.000000
vn 0.000000 -1.000000 -0.000000
vn 0.000000 -1.000000 -0.000000
vn 0.000000 -1.000000 -0.000000
vn 0.000000 -1.000000 0.000000
vn 0.000000 -1.000000 0.000000
vn 0.000000 -1.000000 0.000000
vn 0.000000 -1.000000 0.000000
vn 0.000000 -1.000000 0.000000
vn 0.000000 -1.000000 0.000000
vn 0.000000 -1.000000 0.000000
vn 0.000000 -1.000000 -0.000000
vn 0.000000 -1.000000 0.000000
vn 0.000000 -1.000000 -0.000000
vn 0.000000 -1.000000 0.000000
vn 0.000000 -1.000000 0.000000
vn 0.000000 -1.000000 -0.000000
vn 0.000000 -1.000000 -0.000000
vn 0.000000 -1.000000 0.000000
vn 0.000000 -1.000000 0.000000
vn 0.000000 -1.000000 -0.000000
vn 0.000000 -1.000000 0.000000
vn 0.000000 -1.000000 0.000000
vn 0.000000 -1.000000 0.000000
vn 0.000000 -1.000000 -0.000000
vn -0.000000 -1.000000 0.000000
vn -0.000000 -1.000000 0.000000
vn 0.000000 0.000000 -1.000000
vn 0.000000 0.000000 -1.000000
vn 0.000000 0.000000 -1.000000
vn 0.000000 0.000000 -1.000000
vn 0.000000 0.000000 -1.000000
vn 0.000000 0.000000 -1.000000
vn 0.000000 0.000000 -1.000000
vn 0.000000 0.000000 -1.000000
f 1//1 2//1 3//1
f 2//2 4//2 3//2
f 4//3 5//3 3//3
f 4//4 6//4 5//4
f 6//5 7//5 5//5
f 6//6 8//6 7//6
f 8//7 9//7 10//7
f 8//8 10//8 7//8
f 9//9 11//9 12//9
f 9//10 12//10 10//10
f 11//11 13//11 14//11
f 11//12 14//12 12//12
f 14//13 13//13 15//13
f 13//14 16//14 15//14
f 16//15 17//15 15//15
f 16//16 18//16 17//16
f 18//17 19//17 17//17
f 17//18 19//18 20//18
f 19//19 21//19 20//19
f 20//20 21//20 22//20
f 21//21 23//21 22//21
f 22//22 23//22 24//22
f 23//23 25//23 24//23
f 24//24 25//24 26//24
f 25//25 27//25 26//25
f 26//26 27//26 28//26
f 27//27 29//27 28//27
f 28//28 29//28 30//28
f 29//29 31//29 30//29
f 30//30 31//30 347//30
f 31//31 32//31 347//31
f 347//32 32//32 33//32
f 32//33 34//33 33//33
f 33//34 34//34 35//34
f 34//35 36//35 35//35
f 35//36 36//36 348//36
f 36//37 37//37 348//37
f 348//38 37//38 38//38
f 37//39 39//39 38//39
f 38//40 39//40 40//40
f 39//41 41//41 40//41
f 40//42 41//42 42//42
f 41//43 43//43 42//43
f 42//44 43//44 44//44
f 44//45 43//45 45//45
f 43//46 46//46 45//46
f 46//47 47//47 45//47
f 45//48 47//48 48//48
f 47//49 49//49 48//49
f 48//50 49//50 50//50
f 49//51 51//51 50//51
f 50//52 51//52 52//52
f 51//53 53//53 52//53
f 51//54 54//54 53//54
f 54//55 55//55 53//55
f 54//56 56//56 55//56
f 57//57 58//57 55//57
f 56//58 57//58 55//58
f 57//59 59//59 58//59
f 57//60 60//60 59//60
f 59//61 61//61 62//61
f 60//62 61//62 59//62
f 62//63 63//63 64//63
f 61//64 63//64 62//64
f 65//65 2//65 1//65
f 66//66 2//66 65//66
f 67//67 68//67 69//67
f 67//68 70//68 68//68
f 68//69 66//69 65//69
f 70//70 66//70 68//70
f 16//71 11//71 18//71
f 9//72 18//72 11//72
f 13//73 11//73 16//73
f 8//74 19//74 9//74
f 66//75 8//75 6//75
f 4//76 66//76 6//76
f 25//77 23//77 21//77
f 25//78 21//78 19//78
f 70//79 8//79 66//79
f 2//80 66//80 4//80
f 71//81 70//81 67//81
f 71//82 8//82 70//82
f 71//83 25//83 19//83
f 71//84 19//84 8//84
f 31//85 29//85 27//85
f 32//86 31//86 27//86
f 72//87 25//87 71//87
f 72//88 71//88 73//88
f 74//89 75//89 27//89
f 74//90 27//90 25//90
f 76//91 27//91 75//91
f 77//92 74//92 25//92
f 78//93 27//93 76//93
f 79//94 77//94 25//94
f 80//95 27//95 78//95
f 81//96 79//96 25//96
f 82//97 27//97 80//97
f 83//98 81//98 25//98
f 84//99 27//99 82//99
f 85//100 83//100 25//100
f 86//101 27//101 84//101
f 87//102 85//102 25//102
f 88//103 27//103 86//103
f 89//104 87//104 25//104
f 90//105 27//105 88//105
f 91//106 89//106 25//106
f 92//107 27//107 90//107
f 93//108 91//108 25//108
f 94//109 27//109 92//109
f 95//110 25//110 72//110
f 95//111 93//111 25//111
f 96//112 27//112 94//112
f 97//113 95//113 72//113
f 98//114 27//114 96//114
f 99//115 97//115 72//115
f 100//116 27//116 98//116
f 101//117 99//117 72//117
f 102//118 27//118 100//118
f 103//119 72//119 73//119
f 104//120 101//120 72//120
f 105//121 32//121 27//121
f 105//122 27//122 102//122
f 106//123 104//123 72//123
f 107//124 32//124 105//124
f 108//125 106//125 72//125
f 109//126 32//126 107//126
f 110//127 108//127 72//127
f 111//128 32//128 109//128
f 112//129 110//129 72//129
f 113//130 32//130 111//130
f 114//131 112//131 72//131
f 115//132 32//132 113//132
f 116//133 114//133 72//133
f 117//134 32//134 115//134
f 118//135 116//135 72//135
f 119//136 32//136 117//136
f 120//137 118//137 72//137
f 121//138 32//138 119//138
f 122//139 32//139 121//139
f 123//140 32//140 122//140
f 124//141 32//141 123//141
f 125//142 32//142 124//142
f 126//143 32//143 125//143
f 127//144 32//144 126//144
f 128//145 32//145 127//145
f 129//146 32//146 128//146
f 130//147 34//147 32//147
f 130//148 32//148 129//148
f 131//149 34//149 130//149
f 132//150 34//150 131//150
f 133//151 34//151 132//151
f 134//152 34//152 133//152
f 135//153 34//153 134//153
f 136//154 34//154 135//154
f 137//155 34//155 136//155
f 138//156 34//156 137//156
f 139//157 34//157 138//157
f 140//158 34//158 139//158
f 141//159 142//159 143//159
f 141//160 143//160 144//160
f 141//161 144//161 145//161
f 141//162 145//162 120//162
f 141//163 146//163 147//163
f 141//164 147//164 148//164
f 141//165 148//165 149//165
f 141//166 149//166 150//166
f 141//167 150//167 151//167
f 141//168 151//168 152//168
f 141//169 120//169 72//169
f 141//170 152//170 153//170
f 141//171 153//171 154//171
f 141//172 154//172 155//172
f 141//173 155//173 156//173
f 141//174 156//174 157//174
f 141//175 157//175 158//175
f 141//176 158//176 159//176
f 141//177 159//177 160//177
f 141//178 160//178 161//178
f 141//179 161//179 142//179
f 162//180 146//180 141//180
f 163//181 162//181 141//181
f 164//182 163//182 141//182
f 165//183 164//183 141//183
f 39//184 37//184 36//184
f 39//185 36//185 34//185
f 166//186 141//186 167//186
f 166//187 168//187 169//187
f 166//188 169//188 170//188
f 166//189 170//189 171//189
f 166//190 171//190 172//190
f 166//191 172//191 173//191
f 166//192 173//192 174//192
f 166//193 174//193 175//193
f 166//194 175//194 176//194
f 166//195 176//195 177//195
f 166//196 177//196 178//196
f 166//197 178//197 179//197
f 166//198 179//198 180//198
f 166//199 180//199 181//199
f 166//200 181//200 182//200
f 166//201 182//201 183//201
f 166//202 183//202 184//202
f 166//203 184//203 185//203
f 166//204 185//204 186//204
f 166//205 186//205 187//205
f 166//206 187//206 188//206
f 166//207 188//207 189//207
f 166//208 189//208 190//208
f 166//209 190//209 191//209
f 166//210 191//210 192//210
f 166//211 192//211 165//211
f 166//212 165//212 141//212
f 193//213 166//213 167//213
f 194//214 168//214 166//214
f 194//215 195//215 196//215
f 194//216 196//216 197//216
f 194//217 197//217 198//217
f 194//218 198//218 199//218
f 194//219 199//219 200//219
f 194//220 200//220 201//220
f 194//221 201//221 168//221
f 194//222 140//222 202//222
f 194//223 202//223 203//223
f 194//224 203//224 204//224
f 194//225 204//225 205//225
f 194//226 205//226 195//226
f 194//227 34//227 140//227
f 47//228 41//228 49//228
f 206//229 39//229 34//229
f 206//230 34//230 194//230
f 51//231 49//231 39//231
f 51//232 39//232 206//232
f 43//233 41//233 47//233
f 43//234 47//234 46//234
f 207//235 206//235 194//235
f 207//236 194//236 208//236
f 61//237 51//237 206//237
f 60//238 51//238 61//238
f 60//239 54//239 51//239
f 63//240 61//240 206//240
f 56//241 54//241 60//241
f 56//242 60//242 57//242
f 41//243 39//243 49//243
f 19//244 18//244 9//244
f 206//245 209//245 210//245
f 206//246 207//246 209//246
f 209//247 208//247 211//247
f 207//248 208//248 209//248
f 208//249 212//249 211//249
f 208//250 194//250 212//250
f 166//251 213//251 214//251
f 166//252 193//252 213//252
f 213//253 167//253 215//253
f 193//254 167//254 213//254
f 167//255 216//255 215//255
f 167//256 141//256 216//256
f 72//257 217//257 218//257
f 72//258 103//258 217//258
f 217//259 73//259 219//259
f 103//260 73//260 217//260
f 73//261 220//261 219//261
f 73//262 71//262 220//262
f 196//263 195//263 221//263
f 196//264 221//264 222//264
f 197//265 222//265 223//265
f 197//266 196//266 222//266
f 198//267 223//267 224//267
f 198//268 197//268 223//268
f 199//269 224//269 225//269
f 199//270 198//270 224//270
f 200//271 225//271 226//271
f 200//272 199//272 225//272
f 201//273 226//273 227//273
f 201//274 227//274 228//274
f 201//275 200//275 226//275
f 168//276 201//276 228//276
f 169//277 228//277 229//277
f 169//278 229//278 230//278
f 169//279 168//279 228//279
f 170//280 169//280 230//280
f 171//281 230//281 231//281
f 171//282 170//282 230//282
f 172//283 171//283 231//283
f 172//284 231//284 232//284
f 173//285 172//285 232//285
f 173//286 232//286 233//286
f 174//287 173//287 233//287
f 174//288 233//288 234//288
f 174//289 234//289 235//289
f 175//290 174//290 235//290
f 176//291 235//291 236//291
f 176//292 175//292 235//292
f 177//293 236//293 237//293
f 177//294 176//294 236//294
f 178//295 237//295 238//295
f 178//296 177//296 237//296
f 179//297 238//297 239//297
f 179//298 178//298 238//298
f 180//299 239//299 240//299
f 180//300 179//300 239//300
f 181//301 240//301 241//301
f 181//302 241//302 242//302
f 181//303 180//303 240//303
f 182//304 181//304 242//304
f 183//305 242//305 243//305
f 183//306 182//306 242//306
f 184//307 243//307 244//307
f 184//308 244//308 245//308
f 184//309 183//309 243//309
f 185//310 184//310 245//310
f 186//311 245//311 246//311
f 186//312 185//312 245//312
f 187//313 246//313 247//313
f 187//314 186//314 246//314
f 188//315 247//315 248//315
f 188//316 187//316 247//316
f 189//317 248//317 249//317
f 189//318 188//318 248//318
f 190//319 249//319 250//319
f 190//320 189//320 249//320
f 191//321 250//321 251//321
f 191//322 190//322 250//322
f 192//323 251//323 252//323
f 192//324 191//324 251//324
f 165//325 252//325 253//325
f 165//326 192//326 252//326
f 164//327 253//327 254//327
f 164//328 165//328 253//328
f 163//329 254//329 255//329
f 163//330 164//330 254//330
f 162//331 255//331 256//331
f 162//332 163//332 255//332
f 146//333 256//333 257//333
f 146//334 162//334 256//334
f 147//335 257//335 258//335
f 147//336 146//336 257//336
f 148//337 147//337 258//337
f 148//338 258//338 259//338
f 149//339 148//339 259//339
f 149//340 259//340 260//340
f 150//341 149//341 260//341
f 150//342 260//342 261//342
f 151//343 150//343 261//343
f 151//344 261//344 262//344
f 152//345 151//345 262//345
f 152//346 262//346 263//346
f 153//347 152//347 263//347
f 153//348 263//348 264//348
f 154//349 153//349 264//349
f 154//350 264//350 265//350
f 155//351 154//351 265//351
f 155//352 265//352 266//352
f 156//353 155//353 266//353
f 156//354 266//354 267//354
f 157//355 156//355 267//355
f 157//356 267//356 268//356
f 158//357 268//357 269//357
f 158//358 157//358 268//358
f 159//359 269//359 270//359
f 159//360 158//360 269//360
f 160//361 270//361 271//361
f 160//362 159//362 270//362
f 161//363 271//363 272//363
f 161//364 160//364 271//364
f 142//365 272//365 273//365
f 142//366 273//366 274//366
f 142//367 161//367 272//367
f 143//368 142//368 274//368
f 144//369 274//369 275//369
f 144//370 143//370 274//370
f 145//371 275//371 276//371
f 145//372 144//372 275//372
f 120//373 276//373 277//373
f 120//374 145//374 276//374
f 118//375 277//375 278//375
f 118//376 120//376 277//376
f 116//377 278//377 279//377
f 116//378 118//378 278//378
f 114//379 279//379 280//379
f 114//380 116//380 279//380
f 112//381 280//381 281//381
f 112//382 114//382 280//382
f 110//383 281//383 282//383
f 110//384 112//384 281//384
f 108//385 110//385 282//385
f 108//386 282//386 283//386
f 106//387 108//387 283//387
f 106//388 283//388 284//388
f 104//389 106//389 284//389
f 104//390 284//390 285//390
f 101//391 104//391 285//391
f 101//392 285//392 286//392
f 99//393 101//393 286//393
f 99//394 286//394 287//394
f 97//395 99//395 287//395
f 97//396 287//396 288//396
f 95//397 97//397 288//397
f 95//398 288//398 289//398
f 93//399 95//399 289//399
f 93//400 289//400 290//400
f 91//401 93//401 290//401
f 91//402 290//402 291//402
f 89//403 91//403 291//403
f 89//404 291//404 292//404
f 87//405 89//405 292//405
f 87//406 292//406 293//406
f 85//407 87//407 293//407
f 85//408 293//408 294//408
f 83//409 85//409 294//409
f 83//410 294//410 295//410
f 81//411 83//411 295//411
f 81//412 295//412 296//412
f 79//413 81//413 296//413
f 79//414 296//414 297//414
f 77//415 79//415 297//415
f 77//416 297//416 298//416
f 74//417 77//417 298//417
f 74//418 298//418 299//418
f 75//419 74//419 299//419
f 75//420 299//420 300//420
f 76//421 75//421 300//421
f 76//422 300//422 301//422
f 78//423 76//423 301//423
f 78//424 301//424 302//424
f 80//425 78//425 302//425
f 80//426 302//426 303//426
f 82//427 303//427 304//427
f 82//428 80//428 303//428
f 84//429 304//429 305//429
f 84//430 82//430 304//430
f 86//431 305//431 306//431
f 86//432 84//432 305//432
f 88//433 306//433 307//433
f 88//434 86//434 306//434
f 90//435 307//435 308//435
f 90//436 88//436 307//436
f 92//437 90//437 308//437
f 92//438 308//438 309//438
f 94//439 92//439 309//439
f 94//440 309//440 310//440
f 94//441 310//441 311//441
f 96//442 94//442 311//442
f 98//443 96//443 311//443
f 98//444 311//444 312//444
f 100//445 98//445 312//445
f 100//446 312//446 313//446
f 102//447 100//447 313//447
f 102//448 313//448 314//448
f 105//449 102//449 314//449
f 105//450 314//450 315//450
f 107//451 105//451 315//451
f 107//452 315//452 316//452
f 109//453 107//453 316//453
f 109//454 316//454 317//454
f 111//455 109//455 317//455
f 111//456 317//456 318//456
f 113//457 111//457 318//457
f 113//458 318//458 319//458
f 115//459 113//459 319//459
f 115//460 319//460 320//460
f 117//461 320//461 321//461
f 117//462 115//462 320//462
f 119//463 321//463 322//463
f 119//464 117//464 321//464
f 121//465 322//465 323//465
f 121//466 119//466 322//466
f 122//467 323//467 324//467
f 122//468 121//468 323//468
f 123//469 324//469 325//469
f 123//470 122//470 324//470
f 124//471 325//471 326//471
f 124//472 123//472 325//472
f 125//473 326//473 327//473
f 125//474 124//474 326//474
f 126//475 327//475 328//475
f 126//476 125//476 327//476
f 127//477 328//477 329//477
f 127//478 126//478 328//478
f 128//479 329//479 330//479
f 128//480 127//480 329//480
f 129//481 330//481 331//481
f 129//482 128//482 330//482
f 130//483 331//483 332//483
f 130//484 129//484 331//484
f 131//485 332//485 333//485
f 131//486 130//486 332//486
f 132//487 131//487 333//487
f 132//488 333//488 334//488
f 133//489 132//489 334//489
f 133//490 334//490 335//490
f 134//491 133//491 335//491
f 134//492 335//492 336//492
f 135//493 134//493 336//493
f 135//494 336//494 337//494
f 136//495 337//495 338//495
f 136//496 135//496 337//496
f 137//497 338//497 339//497
f 137//498 136//498 338//498
f 138//499 339//499 340//499
f 138//500 137//500 339//500
f 139//501 340//501 341//501
f 139//502 138//502 340//502
f 140//503 341//503 342//503
f 140//504 139//504 341//504
f 202//505 342//505 343//505
f 202//506 140//506 342//506
f 203//507 343//507 344//507
f 203//508 202//508 343//508
f 204//509 344//509 345//509
f 204//510 203//510 344//510
f 205//511 345//511 346//511
f 205//512 346//512 221//512
f 205//513 204//513 345//513
f 195//514 205//514 221//514
f 12//515 15//515 17//515
f 17//516 10//516 12//516
f 12//517 14//517 15//517
f 20//518 7//518 10//518
f 7//519 65//519 5//519
f 65//520 3//520 5//520
f 24//521 26//521 22//521
f 22//522 26//522 20//522
f 7//523 68//523 65//523
f 65//524 1//524 3//524
f 68//525 220//525 69//525
f 7//526 220//526 68//526
f 26//527 220//527 20//527
f 20//528 220//528 7//528
f 30//529 347//529 28//529
f 347//530 33//530 28//530
f 26//531 218//531 220//531
f 220//532 218//532 219//532
f 300//533 299//533 28//533
f 28//534 299//534 26//534
f 28//535 301//535 300//535
f 299//536 298//536 26//536
f 28//537 302//537 301//537
f 298//538 297//538 26//538
f 28//539 303//539 302//539
f 297//540 296//540 26//540
f 28//541 304//541 303//541
f 296//542 295//542 26//542
f 28//543 305//543 304//543
f 295//544 294//544 26//544
f 28//545 306//545 305//545
f 294//546 293//546 26//546
f 28//547 307//547 306//547
f 293//548 292//548 26//548
f 28//549 308//549 307//549
f 292//550 291//550 26//550
f 28//551 309//551 308//551
f 291//552 290//552 26//552
f 28//553 310//553 309//553
f 26//554 289//554 218//554
f 290//555 289//555 26//555
f 28//556 311//556 310//556
f 289//557 288//557 218//557
f 28//558 312//558 311//558
f 288//559 287//559 218//559
f 28//560 313//560 312//560
f 287//561 286//561 218//561
f 28//562 314//562 313//562
f 218//563 217//563 219//563
f 286//564 285//564 218//564
f 28//565 315//565 314//565
f 285//566 284//566 218//566
f 33//567 316//567 28//567
f 28//568 316//568 315//568
f 284//569 283//569 218//569
f 33//570 317//570 316//570
f 283//571 282//571 218//571
f 33//572 318//572 317//572
f 282//573 281//573 218//573
f 33//574 319//574 318//574
f 281//575 280//575 218//575
f 33//576 320//576 319//576
f 280//577 279//577 218//577
f 33//578 321//578 320//578
f 279//579 278//579 218//579
f 33//580 322//580 321//580
f 278//581 277//581 218//581
f 33//582 323//582 322//582
f 33//583 324//583 323//583
f 33//584 325//584 324//584
f 33//585 326//585 325//585
f 33//586 327//586 326//586
f 33//587 328//587 327//587
f 33//588 329//588 328//588
f 33//589 330//589 329//589
f 33//590 331//590 330//590
f 35//591 332//591 33//591
f 33//592 332//592 331//592
f 35//593 333//593 332//593
f 35//594 334//594 333//594
f 35//595 335//595 334//595
f 35//596 336//596 335//596
f 35//597 337//597 336//597
f 35//598 338//598 337//598
f 35//599 339//599 338//599
f 35//600 340//600 339//600
f 35//601 341//601 340//601
f 35//602 342//602 341//602
f 273//603 216//603 274//603
f 274//604 216//604 275//604
f 275//605 216//605 276//605
f 276//606 216//606 277//606
f 277//607 216//607 218//607
f 257//608 216//608 258//608
f 258//609 216//609 259//609
f 259//610 216//610 260//610
f 260//611 216//611 261//611
f 261//612 216//612 262//612
f 262//613 216//613 263//613
f 263//614 216//614 264//614
f 264//615 216//615 265//615
f 265//616 216//616 266//616
f 266//617 216//617 267//617
f 267//618 216//618 268//618
f 268//619 216//619 269//619
f 269//620 216//620 270//620
f 270//621 216//621 271//621
f 271//622 216//622 272//622
f 272//623 216//623 273//623
f 257//624 256//624 216//624
f 256//625 255//625 216//625
f 255//626 254//626 216//626
f 254//627 253//627 216//627
f 253//628 252//628 216//628
f 38//629 40//629 348//629
f 348//630 40//630 35//630
f 216//631 214//631 215//631
f 252//632 214//632 216//632
f 228//633 214//633 229//633
f 229//634 214//634 230//634
f 230//635 214//635 231//635
f 231//636 214//636 232//636
f 232//637 214//637 233//637
f 233//638 214//638 234//638
f 234//639 214//639 235//639
f 235//640 214//640 236//640
f 236//641 214//641 237//641
f 237//642 214//642 238//642
f 238//643 214//643 239//643
f 239//644 214//644 240//644
f 240//645 214//645 241//645
f 241//646 214//646 242//646
f 242//647 214//647 243//647
f 243//648 214//648 244//648
f 244//649 214//649 245//649
f 245//650 214//650 246//650
f 246//651 214//651 247//651
f 247//652 214//652 248//652
f 248//653 214//653 249//653
f 249//654 214//654 250//654
f 250//655 214//655 251//655
f 251//656 214//656 252//656
f 214//657 213//657 215//657
f 228//658 212//658 214//658
f 221//659 212//659 222//659
f 222//660 212//660 223//660
f 223//661 212//661 224//661
f 224//662 212//662 225//662
f 225//663 212//663 226//663
f 226//664 212//664 227//664
f 227//665 212//665 228//665
f 342//666 212//666 343//666
f 343//667 212//667 344//667
f 344//668 212//668 345//668
f 345//669 212//669 346//669
f 346//670 212//670 221//670
f 35//671 212//671 342//671
f 42//672 48//672 50//672
f 35//673 210//673 212//673
f 40//674 210//674 35//674
f 40//675 52//675 210//675
f 50//676 52//676 40//676
f 42//677 44//677 48//677
f 48//678 44//678 45//678
f 212//679 209//679 211//679
f 210//680 209//680 212//680
f 52//681 62//681 210//681
f 52//682 59//682 62//682
f 53//683 59//683 52//683
f 62//684 64//684 210//684
f 53//685 55//685 59//685
f 59//686 55//686 58//686
f 40//687 42//687 50//687
f 17//688 20//688 10//688
f 64//689 63//689 206//689
f 64//690 206//690 210//690
f 212//691 194//691 166//691
f 212//692 166//692 214//692
f 216//693 141//693 72//693
f 216//694 72//694 218//694
f 220//695 71//695 67//695
f 220//696 67//696 69//696
