# Object Export From Tinkercad Server 2015

mtllib obj.mtl

o obj_0
v -53 		83 		4
v -53 		83 		0
v -53 		68.2 		0
v -53 		68.2 		4
v -53 		46 		0
v -53 		46 		4
v -53 		60.8 		4
v -53 		60.8 		0
v 46.119 		50.156 		4
v 46.199 		50.061 		4
v 46.298 		49.983 		4
v 46.445 		49.925 		4
v 46.687 		49.9 		4
v 46.85 		49.903 		4
v 47.033 		49.966 		4
v 51.746 		52.29 		4
v 51.631 		52.232 		4
v 13.915 		52.916 		4
v 46.938 		49.277 		4
v 45.984 		49.338 		4
v 51.307 		52.292 		2.998
v 45.843 		49.419 		4
v 51.307 		52.292 		4
v 15.0089 		51.9973 		3.328
v 40.455 		52.061 		2.998
v 15.009 		51.994 		3.249
v 40.455 		52.061 		4
v 40.27 		52.187 		4
v 40.27 		52.187 		2.998
v 43.8 		87 		0
v 40.868 		51.512 		4
v 40.757 		51.723 		4
v 40.757 		51.723 		2.998
v 45.705 		49.522 		4
v 40.868 		51.512 		2.998
v 29.4 		87 		0
v 14.125 		53.161 		4
v 14.138 		53.11 		4
v 40.955 		51.242 		2.998
v 14.218 		53.022 		4
v 52.855 		52.277 		2.998
v 45.61 		49.613 		4
v 52.248 		52.386 		2.998
v 51.991 		52.36 		2.998
v 14.2 		87 		0
v 40.955 		51.242 		4
v 45.448 		49.809 		4
v 52.658 		52.349 		2.998
v -0.2 		87 		0
v 51.746 		52.29 		2.998
v -15.4 		87 		0
v 45.351 		49.969 		4
v -29.8 		87 		0
v 45.274 		50.139 		4
v 39.985 		51.521 		2.998
v 67 		60.8 		0
v 67 		46 		0
v 53.048 		52.15 		4
v 40.619 		51.906 		2.998
v 16.072 		51.17 		4
v 16.001 		51.148 		4
v 67 		83 		0
v 67 		68.2 		0
v 15.391 		50.537 		4
v 63.2 		75.6 		0
v 53.129 		52.074 		4
v 58.8 		75.6 		0
v 43.078 		52.372 		4
v 43.244 		52.396 		4
v 63.2 		68.2 		0
v 43.412 		52.398 		4
v 43.8 		83 		0
v 40.125 		51.312 		2.998
v 43.581 		52.377 		4
v 58.8 		60.8 		0
v 53.23 		51.944 		4
v 43.923 		52.274 		4
v 63.2 		53.4 		0
v 15.347 		50.587 		4
v 39.862 		51.607 		2.998
v 58 		55.396 		0
v 9.737 		63.339 		4
v 39.907 		51.583 		4
v 58.8 		53.4 		0
v 52.248 		51.689 		4
v 39.711 		51.669 		4
v 15.0288 		50.5261 		4
v 15.024 		50.5368 		4
v 39.28 		51.672 		4
v 39.28 		51.672 		2.998
v 15.027 		50.528 		4
v 39.146 		51.619 		2.998
v 39.146 		51.619 		4
v 39.592 		51.692 		4
v 39.592 		51.692 		2.998
v 15.035 		50.512 		4
v 39.471 		51.692 		2.998
v 39.471 		51.692 		4
v 15.004 		50.595 		4
v 15.007 		50.655 		4
v 52.411 		51.624 		4
v 52.482 		51.564 		4
v 39.021 		51.538 		4
v 9.192 		63.585 		4
v 9.051 		63.636 		0
v 15.001 		50.651 		4
v 38.985 		51.501 		2.998
v 45.056 		53.248 		4
v 44.517 		51.303 		4
v 8.48 		63.813 		0
v 44.467 		51.567 		4
v 44.154 		52.126 		4
v 44.263 		52.009 		4
v 52.657 		51.221 		4
v 8.625 		63.776 		4
v 52.613 		51.349 		4
v 44.349 		51.872 		4
v 52.545 		51.484 		4
v 12.406 		60.603 		0
v 12.529 		60.331 		0
v 15.0249 		52.0712 		3.2
v 12.529 		60.331 		4
v 15.025 		52.0714 		3.2068
v 11.957 		61.38 		4
v 15.0207 		52.0654 		3.2
v 53.164 		52.032 		2.998
v 12.195 		60.999 		0
v 63.2 		46 		0
v 53.003 		52.184 		2.998
v 58.8 		46 		0
v 58 		46.901 		0
v 12.269 		60.87 		4
v 43.718 		51.305 		4
v 43.632 		51.475 		4
v 38.903 		52.276 		4
v 43.521 		51.584 		4
v 43.45 		51.626 		4
v 15.003 		50.584 		4
v 43.321 		51.675 		4
v 43.185 		51.698 		4
v 43.046 		51.693 		4
v 44.024 		52.223 		4
v 42.752 		52.253 		4
v 38.072 		51.392 		4
v 38.193 		51.662 		2.998
v 38.156 		51.597 		4
v 42.398 		52.292 		4
v 38.049 		51.328 		2.998
v 13 		58 		0
v 12.996 		57.85 		4
v 12.993 		58.299 		4
v 41.736 		52.292 		4
v 38.094 		51.457 		2.998
v 12.97 		58.597 		0
v 52.482 		51.564 		2.998
v 52.411 		51.624 		2.998
v 42.914 		52.325 		4
v 12.814 		59.481 		0
v 15.0687 		52.1255 		3.2
v 12.907 		59.042 		0
v 52.333 		51.664 		2.998
v 12.933 		58.894 		4
v 42.398 		52.001 		4
v 42.536 		52.113 		4
v 12.848 		59.335 		4
v 38.273 		51.786 		4
v 52.613 		51.349 		2.998
v 42.912 		51.661 		4
v 42.787 		51.599 		4
v 42.678 		51.507 		4
v 42.592 		51.383 		4
v 12.686 		59.91 		0
v 42.533 		51.227 		4
v 38.41 		51.954 		4
v 38.464 		52.002 		2.998
v 15.0666 		52.1286 		3.2
v 15.0902 		52.1585 		3.2
v 38.315 		51.846 		2.998
v 12.733 		59.769 		4
v 52.545 		51.484 		2.998
v 38.635 		52.136 		4
v 38.764 		52.212 		4
v 38.764 		52.212 		2.998
v 12.97 		57.403 		4
v 44.542 		50.936 		4
v 15.0429 		52.096 		3.2
v 12.981 		57.552 		0
v 38.89 		51.375 		2.998
v 43.785 		50.48 		4
v 38.89 		51.375 		4
v 43.748 		51.192 		4
v 43.785 		49.296 		4
v 15.0261 		52.0745 		3.328
v 38.845 		51.27 		4
v 44.542 		49.296 		4
v 8.042 		63.909 		4
v 15.0544 		52.1103 		3.2
v 7.15 		63.998 		0
v 42.487 		49.318 		4
v 41.736 		49.318 		4
v 7.448 		63.983 		4
v 7.894 		63.931 		0
v 51.307 		51.994 		4
v 40.983 		50.501 		4
v 15.0507 		52.1054 		3.2
v 41.007 		50.928 		4
v 41.004 		50.663 		4
v 15.0436 		52.096 		3.2
v 6.85 		63.998 		0
v 6.552 		63.983 		4
v 6.403 		63.968 		0
v 5.958 		63.909 		4
v 5.665 		63.85 		4
v 5.52 		63.813 		0
v 5.958 		63.909 		0
v 5.089 		63.688 		4
v 37.37 		51.284 		2.998
v 4.808 		63.585 		4
v 4.67 		63.527 		0
v 5.089 		63.688 		0
v 37.374 		51.249 		4
v 36.934 		52.072 		2.998
v 37.024 		51.988 		4
v 37.064 		51.942 		2.998
v 4.263 		63.339 		4
v 37.138 		51.848 		4
v 4.263 		63.339 		0
v 43.8 		42 		0
v 52.061 		51.697 		4
v 43.8 		46 		0
v 37.172 		51.8 		2.998
v 42.497 		51.01 		4
v 42.488 		50.709 		4
v 4 		63.196 		4
v 37.231 		51.696 		2.998
v 37.322 		51.473 		2.998
v 51.491 		51.316 		4
v 40.96 		55.396 		4
v 3.872 		63.118 		0
v 37.322 		51.473 		4
v 3.498 		62.872 		4
v 51.659 		51.559 		4
v 29.4 		83 		0
v 15.126 		50.418 		4
v 51.744 		51.617 		4
v 14.2 		83 		0
v 3.259 		62.691 		4
v 15.132 		50.401 		4
v 3.144 		62.595 		0
v 39.14 		52.35 		4
v 3.498 		62.872 		0
v 51.844 		51.66 		4
v 39.383 		52.385 		4
v 15.0447 		52.096 		3.2
v 51.561 		51.448 		4
v 2.92 		62.397 		4
v 39.607 		52.383 		4
v 15.0153 		52.058 		3.2
v 2.811 		62.295 		0
v 39.842 		52.349 		4
v 2.602 		62.081 		4
v 15.0193 		52.096 		3.2
v 40.064 		52.283 		4
v 16.163 		49.47 		4
v 16.14 		49.494 		4
v 2.217 		61.623 		4
v 2.217 		61.623 		0
v 2.602 		62.081 		0
v 16.28 		49.409 		4
v 15.0439 		52.096 		3.1684
v 51.307 		51.994 		2.998
v 15.057 		52.113 		3.14
v 51.515 		52.151 		2.998
v 15.0824 		52.1465 		3.072
v 15.402 		50.158 		4
v 40.125 		51.312 		4
v 40.018 		51.484 		4
v 40.619 		51.906 		4
v 2.043 		61.38 		4
v 16.296 		49.71 		4
v 1.961 		61.254 		0
v 16.351 		49.698 		4
v 15.044 		52.096 		3.1718
v 1.731 		60.87 		4
v 1.731 		60.87 		0
v 1.594 		60.603 		4
v 1.533 		60.467 		0
v 1.362 		60.052 		4
v 1.362 		60.052 		0
v 1.267 		59.769 		4
v 1.226 		59.625 		0
v 37.256 		51.641 		4
v 1.152 		59.335 		4
v 1.004 		58.15 		4
v 1.03 		58.597 		0
v 1.119 		59.189 		0
v 1.03 		58.597 		4
v 52.011 		51.691 		2.998
v 52.203 		51.694 		2.998
v 1.019 		57.552 		0
v 1.007 		57.701 		4
v 1 		58 		0
v 40.22 		50.729 		4
v 13.862 		49.565 		4
v 13.879 		49.646 		4
v 13.9051 		55.353 		4
v 37.888 		51.8087 		4
v 13.9055 		55.353 		3.0569
v 13.935 		49.722 		4
v 14.1 		55.353 		2.998
v 14.0989 		55.353 		3.3686
v 13.504 		49.3454 		4
v 51.491 		51.316 		2.998
v 14.147 		55.326 		2.998
v 51.659 		51.559 		2.998
v 51.744 		51.617 		2.998
v 13.9046 		55.353 		2.998
v 51.844 		51.66 		2.998
v 13.875 		55.3 		2.998
v 14.1123 		55.353 		3.5501
v 14.1105 		55.353 		4
v 12.686 		56.089 		4
v 12.814 		56.519 		4
v 12.814 		56.519 		0
v 51.533 		51.407 		2.998
v 12.638 		55.948 		0
v 12.933 		57.106 		0
v 12.933 		57.106 		4
v 40.065 		50.2 		4
v 40.172 		50.431 		4
v 40.177 		51.157 		4
v 12.467 		55.533 		4
v 29.4 		42 		0
v 12.529 		55.669 		0
v 40.937 		50.29 		4
v 29.4 		46 		0
v 40.69 		49.795 		4
v 40.476 		49.562 		4
v 50.671 		52.292 		4
v 50.671 		52.292 		2.998
v 40.225 		49.389 		4
v 49.706 		52.292 		4
v 49.706 		52.292 		2.998
v 11.87 		61.501 		0
v 40.083 		49.326 		4
v 11.497 		61.969 		0
v 16.384 		53.268 		4
v 16.384 		53.268 		2.998
v 10.97 		62.499 		0
v 16.383 		53.275 		2.998
v 16.383 		53.275 		4
v 10.622 		62.781 		0
v 40.838 		50.033 		4
v 10.128 		63.118 		0
v 14.726 		54.803 		2.998
v 16.17 		53.494 		2.998
v 14.839 		54.697 		4
v 40 		50.114 		4
v 14.116 		49.289 		4
v 9.602 		63.404 		0
v 49.707 		52.737 		2.998
v 16.126 		53.536 		4
v 14.288 		49.662 		4
v 14.21 		49.582 		4
v 14.134 		49.441 		4
v 49.707 		52.737 		4
v 8.335 		52.15 		4
v 39.227 		49.24 		4
v 51.443 		51.087 		2.998
v 39.455 		49.223 		4
v 51.443 		51.087 		4
v 8.911 		52.312 		4
v 39.769 		49.246 		4
v 9.468 		52.531 		4
v 51.422 		49.312 		2.998
v 10 		52.804 		4
v 51.422 		50.447 		4
v 10.502 		53.128 		4
v 38.954 		50.152 		4
v 39.029 		50.08 		4
v 51.422 		49.312 		4
v 39.233 		49.972 		4
v 39.412 		49.925 		4
v 39.6 		49.921 		4
v 39.744 		49.951 		4
v 39.836 		49.989 		4
v 13.866 		55.257 		4
v 13.866 		55.257 		2.998
v 52.711 		50.903 		2.998
v 52.698 		51.021 		4
v 38.066 		50.208 		4
v 52.724 		50.365 		4
v 38.01 		50.411 		4
v 37.974 		50.676 		4
v 52.723 		50.478 		2.998
v 37.973 		50.873 		4
v 14.123 		54.943 		4
v 14.123 		54.943 		2.998
v 52.688 		51.088 		2.998
v 52.72 		49.298 		4
v 52.72 		49.298 		2.998
v 38.003 		51.134 		4
v 15.344 		52.038 		2.998
v 14.132 		54.976 		4
v 14.132 		54.976 		2.998
v 14.313 		55.185 		4
v 40.222 		50.789 		2.998
v 1.186 		56.519 		4
v 40.177 		51.157 		2.998
v 1.067 		57.106 		4
v 40.21 		50.609 		2.998
v 1.362 		55.948 		4
v 40.172 		50.431 		2.998
v 1.533 		55.533 		4
v 12.338 		55.264 		0
v 1.731 		55.13 		4
v 50.671 		49.312 		4
v 50.671 		49.312 		2.998
v 2.404 		54.143 		4
v 2.043 		54.62 		4
v 40.937 		50.29 		2.998
v 10.856 		53.405 		0
v 49.706 		49.318 		2.998
v 49.706 		49.318 		4
v 2.811 		53.705 		4
v 11.294 		53.812 		0
v 3.259 		53.309 		4
v 10.97 		53.501 		4
v 63.2 		46 		4
v 58.8 		46 		4
v 11.596 		54.143 		0
v 11.783 		54.377 		4
v 15.115 		52.189 		2.998
v 11.398 		53.919 		4
v 15.104 		52.1751 		3.0141
v 15.11 		52.183 		2.998
v 11.87 		54.499 		0
v 56.577 		48.145 		4
v 12.12 		54.871 		4
v 56.704 		48.246 		4
v 12.12 		54.871 		0
v 12.269 		55.13 		4
v 56.893 		48.498 		4
v 56.953 		48.649 		4
v 56.99 		48.817 		4
v 57.003 		49.003 		4
v 15.122 		52.199 		2.998
v 16.198 		53.164 		2.998
v 40.737 		49.864 		2.998
v 40.476 		49.562 		2.998
v 56.81 		48.364 		4
v 16.198 		53.164 		4
v 40.29 		49.428 		2.998
v 38.786 		51.028 		4
v 56.953 		48.649 		2.998
v 16.358 		52.95 		2.998
v 16.358 		52.95 		4
v 57.003 		49.003 		2.998
v 56.99 		48.817 		2.998
v 16.085 		53.078 		4
v 38.773 		50.743 		4
v 38.812 		50.471 		4
v 38.895 		50.24 		4
v 37.404 		50.601 		4
v 40 		50.114 		2.998
v 37.418 		50.714 		4
v 56.577 		48.145 		2.998
v -0.2 		46 		4
v -0.2 		42 		4
v -15.4 		42 		4
v -15.4 		46 		4
v -29.8 		46 		4
v -29.8 		42 		4
v 56.704 		48.246 		2.998
v 15.0375 		52.096 		2.998
v 56.893 		48.498 		2.998
v 38.587 		49.5 		4
v 38.476 		49.589 		4
v 38.332 		49.738 		4
v 56.81 		48.364 		2.998
v 38.177 		49.96 		4
v 38.862 		49.34 		4
v 7.746 		52.047 		4
v 7.15 		52.002 		4
v 3.745 		52.96 		4
v 56.259 		49.074 		4
v 56.22 		48.917 		4
v 4.808 		52.415 		4
v 4.263 		52.661 		4
v 37.094 		49.641 		4
v 36.97 		49.529 		4
v 56.177 		48.827 		4
v 37.205 		49.771 		4
v 56.096 		48.739 		4
v 5.375 		52.224 		4
v 55.988 		48.672 		4
v 6.552 		52.017 		4
v 37.301 		49.918 		4
v 55.583 		48.591 		4
v 55.452 		48.606 		4
v 5.958 		52.091 		4
v 37.384 		50.083 		4
v 15.0193 		52.096 		2.998
v 55.337 		48.641 		4
v 55.86 		48.624 		4
v 35.394 		52.272 		4
v 35.724 		52.363 		4
v 13.504 		55.396 		0
v 13.914 		47.251 		4
v 13.867 		47.35 		4
v 14.009 		47.216 		4
v 13.958 		47.219 		4
v 36.704 		52.226 		4
v 36.016 		52.389 		4
v 36.299 		52.366 		4
v 56.267 		49.128 		2.998
v 14.08 		47.245 		4
v 14.45 		47.57 		4
v 56.226 		48.935 		2.998
v 13.504 		46.901 		4
v 40.861 		50.083 		2.998
v 36.437 		52.334 		4
v 56.177 		48.827 		2.998
v 16.15 		53.144 		4
v 16.15 		53.144 		2.998
v 36.564 		51.479 		4
v 36.485 		51.588 		4
v 16.156 		53.141 		2.998
v 56.096 		48.739 		2.998
v 55.988 		48.672 		2.998
v 14.124 		47.729 		4
v 14.129 		47.629 		4
v 55.337 		48.641 		2.998
v 14.2 		46 		4
v 55.583 		48.591 		2.998
v 55.452 		48.606 		2.998
v 14.2 		42 		4
v 36.629 		51.307 		4
v 36.3 		51.708 		4
v 36.165 		51.744 		4
v 35.985 		51.756 		4
v 35.854 		51.738 		4
v 15.224 		52.292 		4
v 36.833 		52.148 		4
v 55.86 		48.624 		2.998
v 8.335 		52.15 		0
v 34.879 		51.893 		4
v 35.113 		52.115 		4
v 35.248 		52.202 		4
v 8.911 		52.312 		0
v 9.468 		52.531 		0
v 14.676 		52.246 		2.998
v 56.021 		47.923 		4
v 35.449 		51.499 		4
v 35.384 		51.385 		4
v 56.165 		47.96 		4
v 56.069 		47.934 		2.998
v 35.54 		51.594 		4
v 10 		52.804 		0
v 55.85 		47.895 		2.998
v 10.502 		53.128 		0
v 55.678 		47.879 		4
v 35.687 		51.682 		4
v 35.35 		51.29 		4
v 55.479 		47.885 		2.998
v 14.651 		52.637 		4
v 55.479 		47.885 		4
v 15.007 		51.973 		2.998
v -0.2 		83 		4
v -15.4 		83 		4
v 56.429 		48.06 		2.998
v 15.009 		51.994 		2.998
v 56.429 		48.06 		4
v 15.015 		52.055 		2.998
v 55.234 		47.927 		2.998
v 54.868 		48.074 		2.998
v 55.155 		47.947 		4
v 15.013 		52.036 		2.998
v 34.99 		52.012 		4
v 1.119 		56.811 		0
v 54.868 		48.074 		4
v 1.067 		57.106 		0
v 1.226 		56.375 		0
v 34.69 		51.61 		4
v 1.416 		55.809 		0
v 54.738 		48.163 		4
v 54.738 		48.163 		2.998
v 34.6 		51.401 		4
v 54.403 		48.525 		2.998
v 54.617 		48.267 		4
v 54.403 		48.525 		4
v 55.068 		48.839 		4
v 1.594 		55.397 		0
v 55.068 		48.839 		2.998
v 15.023 		52.066 		2.998
v 1.805 		55.001 		0
v 2.13 		54.499 		0
v 36.688 		50.283 		4
v 36.628 		50.258 		4
v 2.503 		54.031 		0
v 36.643 		51.163 		4
v 2.92 		53.603 		0
v 35.311 		50.601 		4
v 35.342 		50.409 		4
v 35.407 		50.262 		4
v 39.79 		49.97 		2.998
v 35.323 		51.152 		4
v 48.021 		53.311 		2.998
v 39.6 		49.921 		2.998
v 47.264 		53.311 		2.998
v 7.15 		52.002 		0
v 7.746 		52.047 		0
v 36.347 		49.251 		4
v 36.19 		49.227 		4
v 47.264 		53.311 		4
v 35.956 		49.219 		4
v 38.954 		50.152 		2.998
v 48.021 		53.311 		4
v 3.378 		53.219 		0
v 3.872 		52.882 		0
v 36.684 		49.356 		4
v 48.977 		53.396 		2.998
v 39.029 		50.08 		2.998
v 48.977 		53.396 		4
v 36.833 		49.434 		4
v 4.398 		52.596 		0
v 39.233 		49.972 		2.998
v 48.977 		52.737 		2.998
v 48.977 		52.737 		4
v 39.412 		49.925 		2.998
v 15.01 		51.966 		2.998
v 36.01 		49.921 		4
v 36.129 		49.93 		4
v 36.3 		49.979 		4
v 36.455 		50.065 		4
v 4.949 		52.364 		0
v 36.545 		50.147 		4
v 5.52 		52.187 		0
v 35.286 		49.394 		4
v 35.146 		49.478 		4
v 6.106 		52.069 		0
v 35.022 		49.57 		4
v 6.552 		52.017 		0
v 34.863 		49.725 		4
v 48.977 		52.292 		2.998
v 48.977 		52.292 		4
v 47.121 		52.287 		2.998
v 13.504 		46.901 		0
v 47.121 		52.287 		4
v 35.503 		49.301 		4
v 13.865 		53.04 		2.998
v 13.915 		52.916 		2.998
v 14.2 		46 		0
v 13.885 		52.96 		4
v 13.865 		53.04 		4
v 38.934 		49.314 		2.998
v 35.726 		49.241 		4
v 14.2 		42 		0
v 39.455 		49.223 		2.998
v 39.152 		49.251 		2.998
v 15.877 		51.4 		4
v 15.877 		51.4 		3.648
v -0.2 		83 		0
v 15.9815 		51.433 		3.584
v 15.986 		51.434 		3.608
v 14.125 		53.161 		2.998
v -15.4 		83 		0
v 15.987 		51.434 		3.584
v 35.5 		50.127 		4
v 35.669 		49.992 		4
v 35.772 		49.951 		4
v 15.962 		51.434 		4
v 34.557 		50.297 		4
v 14.138 		53.11 		2.998
v 34.526 		50.448 		4
v 15.9875 		51.434 		3.584
v 39.888 		49.274 		2.998
v 34.498 		50.748 		4
v 34.536 		51.187 		4
v 15.881 		51.402 		3.584
v 34.73 		49.896 		4
v 34.064 		49.318 		4
v 34.064 		50.008 		4
v 15.391 		50.537 		2.998
v 43.8 		42 		4
v 43.8 		46.901 		4
v 43.8 		46 		4
v 15.9792 		51.4323 		3.584
v 32.768 		46.901 		4
v 15.946 		51.104 		2.998
v 15.9887 		51.434 		3.584
v 16.021 		51.158 		2.998
v 16.072 		51.17 		2.998
v 16.002 		51.435 		4
v 16.17 		51.435 		4
v 29.4 		83 		4
v 14.2 		83 		4
v 37.975 		50.939 		2.998
v 38.821 		51.189 		2.998
v 38.781 		50.987 		2.998
v 38.77 		50.825 		2.998
v 16.026 		51.436 		4
v 15.006 		50.588 		3.678
v 37.999 		50.477 		2.998
v 15.004 		50.595 		3.737
v 38.044 		50.274 		2.998
v 38.78 		50.66 		2.998
v 15.977 		51.432 		3.56
v 38.895 		50.24 		2.998
v 15.966 		51.431 		3.328
v 38.812 		50.471 		2.998
v 15.988 		51.434 		3.553
v 15.988 		51.434 		3.553
v 37.402 		51.037 		2.998
v 37.404 		50.601 		2.998
v 15.9806 		51.4336 		3.328
v 37.421 		50.748 		2.998
v 15.9828 		51.434 		3.328
v 15.0271 		50.5279 		3.584
v 15.0242 		50.5361 		3.968
v 38.655 		49.455 		2.998
v 15.9887 		51.434 		3.5836
v 38.426 		49.637 		2.998
v 38.211 		49.901 		2.998
v 38.288 		49.79 		2.998
v 38.088 		50.143 		2.998
v 15.8993 		51.4103 		3.328
v -29.8 		83 		0
v 15.9881 		51.434 		3.328
v 37.094 		49.641 		2.998
v 36.97 		49.529 		2.998
v 15.988 		51.434 		3.553
v 15.988 		51.434 		3.553
v 15.9942 		51.434 		3.328
v 37.205 		49.771 		2.998
v 37.301 		49.918 		2.998
v 47.264 		52.205 		2.998
v 37.384 		50.083 		2.998
v 47.187 		51.521 		2.998
v 47.244 		51.444 		2.998
v 47.304 		51.317 		2.998
v 47.288 		51.36 		4
v 35.394 		52.272 		2.998
v 16.0034 		51.4348 		3.328
v 36.016 		52.389 		2.998
v 47.195 		51.508 		4
v 36.604 		52.269 		2.998
v 15.0268 		50.5285 		3.584
v 15.024 		50.5364 		3.9547
v 15.9732 		51.4332 		3.328
v 47.32 		51.273 		4
v 15.9376 		51.4279 		3.328
v 36.229 		52.375 		2.998
v 15.9313 		51.4272 		3.328
v 47.264 		52.205 		4
v 15.8793 		51.4011 		3.328
v 15.9297 		51.4263 		3.072
v 15.8775 		51.4003 		3.072
v 46.05 		52.299 		4
v 46.175 		52.338 		2.998
v 46.511 		52.386 		4
v 46.409 		52.379 		4
v 46.46 		52.382 		2.998
v 46.175 		52.338 		4
v 16 		51.4346 		3.072
v 15.9634 		51.4327 		3.072
v 16.0209 		51.4357 		3.072
v 46.737 		52.378 		2.998
v 46.712 		52.383 		4
v 15.9549 		51.4301 		3.072
v 15.99 		51.433 		3.072
v 46.911 		52.352 		4
v 46.96 		52.339 		2.998
v 15.9546 		51.43 		3.072
v 15.936 		51.4271 		3.0943
v 15.9355 		51.427 		3.072
v 47.091 		51.613 		4
v 47.014 		51.664 		4
v 15.917 		51.419 		3.072
v 15.903 		51.412 		3.277
v -0.2 		42 		0
v -0.2 		46 		0
v -29.8 		42 		0
v -29.8 		46 		0
v -15.4 		46 		0
v -15.4 		42 		0
v 15.005 		50.608 		3.456
v 15.005 		50.608 		3.457
v 15.9219 		51.4206 		3.1726
v 36.03 		51.755 		2.998
v 46.672 		51.733 		4
v 46.848 		51.724 		4
v 36.211 		51.734 		2.998
v 46.58 		51.721 		4
v 35.897 		51.747 		2.998
v 15.006 		50.588 		3.456
v -29.8 		83 		4
v 46.437 		51.686 		4
v 46.346 		51.648 		4
v 15.0081 		50.5912 		3.456
v 15.0075 		50.5838 		3.456
v 46.224 		51.56 		4
v 46.146 		51.463 		4
v -44.8 		75.6 		0
v 36.629 		51.307 		2.998
v 36.342 		51.692 		2.998
v 15.005 		50.6081 		3.456
v 46.717 		51.734 		2.998
v 36.452 		51.617 		2.998
v 46.848 		51.724 		2.998
v 36.541 		51.518 		2.998
v 15.9319 		51.424 		3.072
v -49.2 		75.6 		0
v -49.2 		68.2 		0
v 46.933 		51.701 		2.998
v -44.8 		60.8 		0
v -44.8 		46 		0
v -44.8 		53.4 		0
v 46.18 		51.508 		2.998
v -49.2 		53.4 		0
v -49.2 		46 		0
v 43.8 		87 		4
v 29.4 		87 		4
v 14.2 		87 		4
v 15.751 		51.308 		4
v -0.2 		87 		4
v -15.4 		87 		4
v 46.533 		51.71 		2.998
v -29.8 		87 		4
v 15.748 		51.305 		4
v 15.747 		51.305 		4
v 15.751 		51.307 		4
v 15.75 		51.307 		4
v 46.332 		51.636 		2.998
v 67 		60.8 		4
v 16 		51.4339 		3.072
v 67 		46 		4
v 67 		83 		4
v 67 		68.2 		4
v 58.8 		75.6 		4
v 63.2 		75.6 		4
v 15.872 		51.3975 		3.072
v 15.872 		51.4233 		3.072
v 63.2 		68.2 		4
v 43.8 		83 		4
v 58.8 		60.8 		4
v 15.0261 		50.5307 		3.456
v 63.2 		53.4 		4
v 15.027 		50.528 		3.563
v 15.9414 		51.4289 		3.072
v 58 		55.396 		4
v 58.8 		53.4 		4
v 49.707 		53.396 		4
v 15.034 		50.52 		3.51
v 45.222 		51.318 		2.998
v 55.302 		52.364 		4
v 45.222 		51.318 		4
v 55.686 		52.386 		4
v 55.875 		52.359 		4
v 45.358 		51.666 		2.998
v 55.495 		52.386 		4
v 45.538 		51.938 		2.998
v 45.499 		51.885 		4
v 45.358 		51.666 		4
v 45.28 		51.494 		4
v 45.28 		51.494 		2.998
v 15.024 		50.5368 		3.456
v 55.968 		52.333 		4
v 45.673 		52.073 		2.998
v 45.673 		52.073 		4
v 57.004 		52.294 		4
v 56.355 		52.294 		4
v 45.822 		52.187 		4
v 45.822 		52.187 		2.998
v 56.355 		52.136 		4
v 56.261 		51.341 		4
v 16 		51.444 		3.072
v 46.057 		51.311 		4
v 34.879 		51.893 		2.998
v 35.113 		52.115 		2.998
v 35.248 		52.202 		2.998
v 15.0314 		50.5241 		3.456
v 47.312 		50.344 		2.998
v 47.277 		50.25 		2.998
v 34.99 		52.012 		2.998
v 47.312 		50.344 		4
v 16.026 		51.436 		2.998
v 15.0377 		50.5159 		3.456
v 47.343 		50.483 		2.998
v 35.541 		51.593 		2.998
v 47.343 		50.483 		4
v 16 		51.4338 		3.0514
v 47.36 		50.669 		2.998
v 47.36 		50.669 		4
v 47.344 		51.135 		2.998
v 35.384 		51.385 		2.998
v 47.344 		51.135 		4
v 16 		51.4339 		3.0088
v 35.727 		51.701 		2.998
v 16 		51.4339 		3.008
v 48.977 		49.318 		4
v 48.977 		49.318 		2.998
v 16 		51.4447 		3.008
v 47.357 		49.445 		4
v 47.357 		49.445 		2.998
v 47.357 		49.317 		4
v 15.9991 		51.4339 		3.008
v 48.021 		49.317 		4
v 48.021 		49.317 		2.998
v 47.357 		49.317 		2.998
v 15.872 		51.3975 		3.008
v 15.8771 		51.4 		3.008
v 34.735 		51.684 		2.998
v 34.555 		51.258 		2.998
v 34.625 		51.471 		2.998
v 36.688 		50.283 		2.998
v 15.954 		51.43 		3.052
v 36.628 		50.258 		2.998
v 36.643 		51.163 		2.998
v 56.124 		51.555 		4
v 56.004 		51.652 		4
v 55.905 		51.695 		4
v 55.792 		51.72 		4
v 55.649 		51.727 		4
v 55.52 		51.715 		4
v 55.404 		51.684 		4
v 55.301 		51.636 		4
v 15.9817 		51.4324 		3.008
v 15.953 		51.4301 		3.008
v 54.996 		52.281 		4
v 15.9342 		51.4286 		3.008
v 15.872 		51.4235 		3.008
v 35.323 		51.152 		2.998
v 35.311 		50.601 		2.998
v 35.33 		50.458 		2.998
v 53.248 		53.1938 		4
v 35.407 		50.262 		2.998
v 54.346 		51.673 		4
v 47.231 		50.163 		4
v 54.427 		51.81 		4
v 15.936 		51.4287 		3.008
v 54.57 		51.987 		4
v 47.175 		50.086 		2.998
v 47.175 		50.086 		4
v 15.9883 		51.433 		3.008
v 54.736 		52.137 		4
v 55.069 		51.392 		4
v 55.212 		51.57 		4
v 53.379 		51.617 		4
v 53.442 		51.339 		4
v 53.312 		51.801 		4
v 46.099 		50.192 		2.998
v 56.303 		51.192 		4
v 15.0251 		50.5338 		3.328
v 56.269 		50.293 		4
v 56.3 		50.396 		4
v 15.025 		50.5341 		3.328
v 15.025 		50.5341 		3.328
v 45.175 		51.046 		4
v 56.331 		50.552 		4
v 56.348 		50.762 		4
v 56.336 		50.977 		4
v 15.936 		51.4295 		3.008
v 46.002 		51.17 		4
v 55.945 		49.281 		4
v 15.988 		51.433 		2.998
v 56.11 		49.34 		4
v 56.271 		49.194 		4
v 56.268 		49.412 		4
v 46.044 		50.307 		4
v 15.0464 		50.5061 		3.328
v 55.454 		49.215 		4
v 46.006 		50.43 		4
v 55.617 		49.217 		4
v 15.951 		51.43 		2.998
v 45.958 		50.673 		4
v 36.545 		50.147 		2.998
v 36.455 		50.065 		2.998
v 15.936 		51.4288 		2.998
v 36.3 		49.979 		2.998
v 55.375 		49.939 		4
v 36.07 		49.925 		2.998
v 55.554 		49.908 		4
v 55.802 		49.898 		4
v 55.887 		49.915 		4
v 56.008 		49.972 		4
v 56.118 		50.055 		4
v 56.206 		50.165 		4
v 54.955 		51.081 		4
v 15.936 		51.4295 		2.998
v 54.932 		50.929 		4
v 54.926 		50.775 		4
v 54.948 		50.568 		4
v 55.058 		50.225 		4
v 54.232 		50.215 		4
v 15.877 		51.4 		2.998
v 54.178 		50.443 		4
v 54.15 		51.031 		4
v 54.175 		51.195 		4
v 54.144 		50.697 		4
v 15.025 		50.534 		3.328
v 15.922 		51.422 		2.998
v 53.475 		50.913 		4
v 54.647 		49.557 		4
v 54.454 		49.769 		4
v 45.952 		50.873 		4
v 54.311 		50.013 		4
v 54.823 		49.422 		4
v 45.171 		50.672 		4
v 54.977 		49.336 		4
v 55.294 		49.233 		4
v 55.135 		49.273 		4
v 45.207 		50.386 		4
v 15.751 		51.308 		2.998
v 55.275 		49.985 		4
v 15.748 		51.305 		2.998
v 55.099 		50.154 		4
v 15.747 		51.305 		2.998
v 55.177 		50.061 		4
v 45.165 		50.954 		2.998
v 45.994 		50.472 		2.998
v 45.963 		50.647 		2.998
v 53.477 		49.298 		4
v 45.99 		51.121 		2.998
v 45.956 		50.923 		2.998
v 52.855 		52.277 		4
v 51.866 		52.334 		4
v 52.118 		52.381 		4
v 52.414 		52.384 		4
v 52.578 		52.366 		4
v 52.698 		52.339 		4
v 45.178 		50.578 		2.998
v 45.222 		50.323 		2.998
v 15.751 		51.307 		2.998
v 15.75 		51.307 		2.998
v 15.025 		50.534 		3.325
v 15.0242 		50.5367 		3.2
v 46.432 		49.221 		4
v 36.347 		49.251 		2.998
v 35.956 		49.219 		2.998
v 46.279 		49.24 		4
v 46.129 		49.279 		4
v 36.684 		49.356 		2.998
v 36.833 		49.434 		2.998
v 46.747 		49.237 		4
v 15.0552 		50.4964 		3.2
v -44.8 		75.6 		4
v 58 		46.901 		4
v 15.344 		52.038 		4
v 15.122 		52.199 		4
v 47.071 		49.993 		2.998
v 46.199 		50.061 		2.998
v 46.445 		49.925 		2.998
v 46.634 		49.902 		2.998
v 46.85 		49.903 		2.998
v 46.339 		49.963 		2.998
v 15.029 		52.083 		4
v 15.029 		52.083 		3.84
v 15.0235 		50.5394 		3.072
v 35.772 		49.951 		2.998
v 35.669 		49.992 		2.998
v 15.004 		52.009 		4
v 15.0051 		52.0058 		3.84
v 15.008 		52.021 		3.902
v 15.0081 		52.0184 		3.84
v 15.0639 		50.4866 		3.072
v 15.059 		50.493 		3.072
v 46.909 		49.269 		2.998
v 46.588 		49.22 		2.998
v 15.015 		52.055 		4
v 46.279 		49.24 		2.998
v 15.0104 		52.0281 		3.84
v 35.5 		50.127 		2.998
v 46.129 		49.279 		2.998
v 15.008 		52.021 		4
v 35.286 		49.394 		2.998
v 35.146 		49.478 		2.998
v 34.967 		49.62 		2.998
v 35.43 		49.327 		2.998
v 45.984 		49.338 		2.998
v 45.843 		49.419 		2.998
v 35.726 		49.241 		2.998
v 45.705 		49.522 		2.998
v 45.351 		49.969 		2.998
v 45.486 		49.759 		2.998
v 45.274 		50.139 		2.998
v 34.507 		50.598 		2.998
v 15.347 		50.587 		2.998
v 34.557 		50.297 		2.998
v 34.512 		51.042 		2.998
v 43.078 		52.372 		2.998
v 43.244 		52.396 		2.998
v 43.412 		52.398 		2.998
v 43.581 		52.377 		2.998
v 15.001 		50.651 		2.998
v 43.923 		52.274 		2.998
v 15.005 		50.608 		2.998
v 34.814 		49.779 		2.998
v 34.73 		49.896 		2.998
v 44.489 		51.472 		2.998
v 44.418 		51.722 		2.998
v 44.375 		51.824 		2.998
v 44.263 		52.009 		2.998
v 44.154 		52.126 		2.998
v 34.601 		50.155 		2.998
v 15.006 		50.588 		2.998
v 34.064 		49.318 		2.998
v 34.064 		50.008 		2.998
v 15.007 		50.655 		2.998
v -49.2 		68.2 		4
v -49.2 		75.6 		4
v -44.8 		60.8 		4
v -44.8 		53.4 		4
v -44.8 		46 		4
v -49.2 		53.4 		4
v -49.2 		46 		4
v 32.34 		53.309 		2.998
v 32.34 		53.309 		4
v 31.61 		53.309 		4
v 31.61 		53.309 		2.998
v 27.543 		53.309 		4
v 27.543 		53.309 		2.998
v 28.29 		53.309 		2.998
v 28.29 		53.309 		4
v 26.925 		53.31 		4
v 26.925 		53.31 		2.998
v 31.61 		49.318 		4
v 31.61 		49.318 		2.998
v 15.009 		50.558 		2.998
v 49.707 		53.396 		2.998
v 32.34 		50.008 		4
v 32.34 		50.008 		2.998
v 55.543 		52.384 		2.998
v 30.018 		49.312 		2.998
v 15.027 		50.528 		2.998
v 30.018 		49.312 		4
v 15.023 		50.541 		2.998
v 30.018 		50.008 		2.998
v 30.018 		50.008 		4
v 44.024 		52.223 		2.998
v 55.828 		52.367 		2.998
v 24.921 		52.599 		4
v 24.921 		52.599 		2.998
v 24.921 		49.317 		4
v 25.654 		49.317 		4
v 25.654 		49.317 		2.998
v 24.921 		49.317 		2.998
v 43.705 		51.342 		2.998
v 25.654 		52.625 		2.998
v 43.653 		51.443 		2.998
v 25.654 		52.625 		4
v 43.551 		51.558 		2.998
v 57.004 		52.294 		2.998
v 26.925 		52.625 		4
v 26.925 		52.625 		2.998
v 56.355 		52.294 		2.998
v 15.069 		50.481 		2.998
v 27.543 		49.312 		4
v 56.088 		52.281 		2.998
v 27.543 		49.312 		2.998
v 28.29 		50.008 		2.998
v 28.29 		50.008 		4
v 20.547 		53.311 		2.998
v 20.547 		53.311 		4
v 56.355 		52.136 		2.998
v 43.046 		51.693 		2.998
v 43.185 		51.698 		2.998
v 23.669 		53.31 		4
v 23.669 		53.31 		2.998
v 43.321 		51.675 		2.998
v 15.126 		50.418 		2.998
v 19.796 		53.311 		4
v 19.796 		53.311 		2.998
v 43.45 		51.626 		2.998
v 23.057 		53.312 		4
v 22.343 		53.316 		4
v 22.343 		53.316 		2.998
v 23.057 		53.312 		2.998
v 15.132 		50.401 		2.998
v 23.101 		53.247 		2.998
v 23.101 		53.247 		4
v 22.343 		51.676 		4
v 22.343 		51.676 		2.998
v 42.752 		52.253 		2.998
v 20.547 		51.676 		4
v 20.547 		51.676 		2.998
v 16.163 		49.47 		2.998
v 23.669 		52.599 		4
v 23.669 		52.599 		2.998
v 42.398 		52.292 		2.998
v 41.736 		52.292 		2.998
v 16.158 		49.476 		2.998
v 42.914 		52.325 		2.998
v 22.346 		49.317 		4
v 23.101 		49.317 		4
v 23.101 		49.317 		2.998
v 22.346 		49.317 		2.998
v 22.346 		50.951 		2.998
v 22.346 		50.951 		4
v 20.55 		50.951 		2.998
v 20.55 		50.951 		4
v 16.296 		49.71 		2.998
v 20.55 		49.317 		2.998
v 20.55 		49.317 		4
v 42.398 		52.001 		2.998
v 16.365 		49.699 		2.998
v 55.649 		51.727 		2.998
v 55.52 		51.715 		2.998
v 55.792 		51.72 		2.998
v 42.912 		51.661 		2.998
v 15.007 		51.973 		4
v 42.787 		51.599 		2.998
v 42.533 		51.227 		2.998
v 18.521 		51.29 		2.998
v 18.508 		51.349 		2.998
v 42.678 		51.507 		2.998
v 18.504 		51.245 		4
v 42.592 		51.383 		2.998
v 18.521 		51.29 		4
v 18.516 		51.334 		4
v 56.239 		51.387 		2.998
v 56.293 		51.243 		2.998
v 56.124 		51.555 		2.998
v 18.491 		51.228 		2.998
v 55.404 		51.684 		2.998
v 56.004 		51.652 		2.998
v 55.905 		51.695 		2.998
v 18.046 		51.442 		2.998
v 55.301 		51.636 		2.998
v 18.16 		51.697 		4
v 17.118 		52.634 		4
v 16.585 		53.12 		2.998
v 16.67 		53.049 		4
v 13.862 		49.565 		2.998
v 13.873 		49.627 		2.998
v 13.915 		49.702 		2.998
v 44.53 		51.181 		2.998
v 44.542 		50.936 		2.998
v 18.046 		51.442 		4
v 14.288 		49.662 		2.998
v 18.431 		51.433 		2.998
v 43.78 		50.722 		2.998
v 14.125 		49.381 		2.998
v 14.164 		49.517 		2.998
v 43.763 		51.074 		2.998
v 43.785 		49.296 		2.998
v 54.996 		52.281 		2.998
v 44.542 		49.296 		2.998
v 54.346 		51.673 		2.998
v 18.431 		51.433 		4
v 54.473 		51.871 		2.998
v 42.487 		49.318 		2.998
v 41.736 		49.318 		2.998
v 18.428 		51.44 		4
v 40.983 		50.501 		2.998
v 19.796 		49.317 		4
v 18.428 		51.44 		2.998
v 41.007 		50.741 		2.998
v 54.799 		52.176 		2.998
v 54.622 		52.042 		2.998
v 17.942 		51.171 		4
v 41 		50.992 		2.998
v 17.983 		51.132 		4
v 17.997 		51.168 		4
v 17.993 		51.176 		4
v 16.836 		49.718 		4
v 16.394 		49.354 		4
v 42.488 		50.709 		2.998
v 16.414 		49.715 		4
v 55.102 		51.44 		2.998
v 19.796 		49.317 		2.998
v 55.016 		51.281 		2.998
v 16.387 		49.353 		4
v 42.5 		51.028 		2.998
v 17.942 		51.171 		2.998
v 29.4 		42 		4
v 29.4 		46 		4
v 17.993 		51.176 		2.998
v 17.997 		51.168 		2.998
v 17.983 		51.132 		2.998
v 38.967 		52.299 		2.998
v 11.596 		61.857 		4
v 39.205 		52.364 		2.998
v 11.08 		62.397 		4
v 10.741 		62.691 		4
v 39.427 		52.388 		2.998
v 10.255 		63.04 		4
v 54.244 		51.436 		2.998
v 39.607 		52.383 		2.998
v 39.842 		52.349 		2.998
v 53.312 		51.801 		2.998
v 53.39 		51.586 		2.998
v 53.442 		51.339 		2.998
v 40.064 		52.283 		2.998
v 53.26 		51.899 		2.998
v 56.336 		50.977 		2.998
v 56.348 		50.762 		2.998
v 16.394 		49.354 		2.998
v 56.331 		50.552 		2.998
v 16.414 		49.715 		2.998
v 13.901 		47.267 		2.998
v 14.004 		47.216 		2.998
v 13.958 		47.217 		2.998
v 15.0135 		52.0416 		3.84
v 15.0137 		52.0434 		3.84
v 17.301 		50.146 		2.998
v 14.08 		47.245 		2.998
v 13.867 		47.35 		2.998
v 15.029 		52.083 		3.712
v 14.477 		47.594 		2.998
v 14.129 		47.629 		2.998
v 16.387 		49.353 		2.998
v 14.125 		47.707 		2.998
v 15.013 		52.036 		3.751
v 15.013 		52.036 		3.771
v 13.9768 		55.396 		4
v 13.95 		55.394 		4
v 13.908 		55.36 		4
v 14.084 		55.375 		4
v 14.0254 		55.396 		4
v 56.206 		50.165 		2.998
v 56.118 		50.055 		2.998
v 55.887 		49.915 		2.998
v 56.047 		49.996 		2.998
v 55.802 		49.898 		2.998
v 13.504 		55.396 		4
v 55.508 		49.913 		2.998
v 55.375 		49.939 		2.998
v 55.454 		49.215 		2.998
v 55.863 		49.26 		2.998
v 55.617 		49.217 		2.998
v 15.029 		52.083 		3.666
v 15.0354 		52.0899 		3.584
v 15.0407 		52.0956 		3.584
v 56.11 		49.34 		2.998
v 56.268 		49.412 		2.998
v 15.0283 		52.081 		3.584
v 15.0277 		52.0791 		3.584
v 54.968 		51.131 		2.998
v 54.933 		50.697 		2.998
v 54.983 		50.422 		2.998
v 55.04 		50.263 		2.998
v 54.932 		50.929 		2.998
v 15.0052 		51.9941 		3.584
v 54.232 		50.215 		2.998
v 54.15 		51.031 		2.998
v 54.175 		51.195 		2.998
v 54.142 		50.781 		2.998
v 54.162 		50.528 		2.998
v 53.475 		50.913 		2.998
v 15.01 		51.966 		4
v 54.496 		49.711 		2.998
v 54.341 		49.948 		2.998
v 55.124 		50.122 		2.998
v 55.206 		50.033 		2.998
v 15.0277 		52.0791 		3.5085
v 15.041 		52.096 		3.512
v 15.0277 		52.0791 		3.5085
v 54.977 		49.336 		2.998
v 54.701 		49.509 		2.998
v 55.294 		49.233 		2.998
v 55.135 		49.273 		2.998
v 15.0277 		52.0791 		3.456
v 15.0347 		52.088 		3.456
v 53.477 		49.298 		2.998
v 15.0076 		51.9981 		3.456
v 15.0067 		51.9943 		3.456
v 15.0087 		52.0026 		3.456
v 15.0273 		52.0778 		3.456
v 15.0274 		52.078 		3.456
v 15.0273 		52.0778 		3.456
v 15.0272 		52.0777 		3.456
v 15.027 		52.077 		3.425
# 1373 vertices

g group_0_16345508

usemtl color_16345508
s 0

f 3 	4 	1
f 3 	1 	2
f 5 	6 	7
f 5 	7 	8
f 2 	813 	3
f 8 	820 	5
f 11 	12 	10
f 12 	13 	10
f 9 	10 	13
f 14 	973 	13
f 15 	973 	14
f 305 	18 	312
f 4 	3 	814
f 821 	6 	5
f 25 	27 	28
f 25 	28 	29
f 22 	34 	686
f 21 	23 	339
f 31 	32 	33
f 31 	33 	35
f 195 	686 	34
f 42 	195 	34
f 44 	299 	43
f 39 	46 	31
f 39 	31 	35
f 47 	195 	42
f 43 	161 	48
f 52 	195 	47
f 54 	195 	52
f 56 	57 	78
f 35 	33 	73
f 73 	409 	35
f 33 	59 	73
f 55 	73 	59
f 25 	55 	59
f 29 	55 	25
f 58 	1026 	129
f 70 	65 	63
f 64 	280 	61
f 62 	65 	67
f 1262 	39 	409
f 62 	63 	65
f 62 	67 	72
f 74 	238 	71
f 238 	68 	69
f 69 	71 	238
f 77 	108 	74
f 61 	79 	64
f 78 	81 	56
f 75 	56 	81
f 84 	81 	78
f 80 	86 	83
f 87 	88 	91
f 89 	90 	92
f 89 	92 	93
f 94 	95 	97
f 94 	97 	98
f 86 	95 	94
f 97 	90 	89
f 97 	89 	98
f 101 	102 	155
f 80 	95 	86
f 92 	103 	93
f 82 	104 	105
f 92 	107 	103
f 238 	74 	108
f 138 	99 	106
f 55 	29 	80
f 29 	1294 	80
f 105 	104 	110
f 90 	1281 	92
f 110 	104 	115
f 155 	102 	180
f 118 	180 	102
f 110 	115 	202
f 95 	1289 	97
f 119 	120 	122
f 1294 	1290 	80
f 118 	116 	180
f 1286 	1283 	97
f 864 	117 	111
f 109 	857 	111
f 123 	121 	125
f 66 	58 	126
f 77 	142 	108
f 108 	112 	113
f 108 	113 	117
f 122 	127 	119
f 58 	129 	126
f 78 	57 	128
f 76 	66 	126
f 81 	84 	131
f 130 	131 	84
f 88 	99 	138
f 100 	106 	99
f 122 	132 	127
f 183 	92 	1281
f 121 	208 	123
f 134 	136 	133
f 133 	136 	137
f 133 	137 	139
f 133 	139 	140
f 141 	191 	140
f 142 	112 	108
f 50 	298 	44
f 161 	156 	48
f 144 	145 	146
f 157 	238 	143
f 41 	48 	156
f 149 	150 	151
f 131 	130 	230
f 152 	147 	238
f 144 	148 	153
f 155 	156 	101
f 154 	149 	151
f 238 	157 	68
f 144 	153 	145
f 67 	75 	72
f 156 	161 	101
f 151 	160 	154
f 147 	143 	238
f 160 	151 	162
f 160 	162 	165
f 166 	146 	145
f 160 	165 	158
f 166 	145 	178
f 171 	191 	170
f 169 	170 	191
f 173 	191 	171
f 168 	169 	191
f 174 	166 	175
f 165 	172 	158
f 167 	116 	114
f 147 	163 	164
f 143 	147 	164
f 165 	179 	172
f 166 	178 	175
f 172 	179 	122
f 181 	174 	175
f 180 	116 	167
f 175 	182 	181
f 172 	122 	120
f 175 	183 	182
f 126 	129 	155
f 121 	123 	186
f 123 	193 	186
f 156 	155 	129
f 107 	188 	190
f 187 	184 	150
f 190 	103 	107
f 150 	149 	187
f 161 	43 	299
f 129 	41 	156
f 176 	186 	193
f 133 	140 	191
f 141 	168 	191
f 188 	194 	190
f 115 	196 	202
f 193 	123 	125
f 54 	1013 	195
f 155 	180 	126
f 198 	196 	201
f 1281 	135 	183
f 167 	1291 	180
f 183 	135 	182
f 335 	353 	200
f 353 	337 	200
f 198 	202 	196
f 205 	193 	208
f 209 	198 	201
f 209 	201 	210
f 211 	209 	210
f 107 	178 	188
f 92 	183 	107
f 175 	178 	107
f 145 	188 	178
f 211 	210 	212
f 123 	208 	193
f 213 	214 	215
f 578 	123 	193
f 215 	211 	212
f 175 	107 	183
f 153 	699 	145
f 213 	215 	212
f 188 	145 	699
f 214 	213 	216
f 218 	219 	220
f 220 	214 	216
f 197 	205 	254
f 208 	254 	205
f 218 	220 	216
f 85 	101 	299
f 207 	204 	200
f 204 	335 	200
f 101 	161 	299
f 223 	222 	224
f 219 	218 	225
f 200 	152 	206
f 206 	207 	200
f 226 	223 	224
f 227 	219 	225
f 226 	224 	231
f 227 	225 	234
f 173 	232 	191
f 189 	191 	232
f 232 	233 	189
f 233 	199 	189
f 192 	189 	199
f 228 	336 	230
f 239 	227 	234
f 239 	234 	241
f 243 	36 	30
f 240 	236 	217
f 186 	176 	205
f 30 	72 	243
f 96 	244 	87
f 247 	249 	251
f 246 	49 	45
f 177 	197 	176
f 197 	205 	176
f 186 	205 	208
f 251 	239 	241
f 49 	246 	663
f 247 	251 	241
f 254 	159 	197
f 249 	247 	256
f 96 	248 	244
f 257 	238 	253
f 259 	249 	256
f 121 	262 	125
f 260 	238 	257
f 259 	256 	261
f 261 	266 	267
f 261 	267 	268
f 152 	238 	27
f 28 	27 	238
f 238 	260 	263
f 186 	262 	121
f 258 	125 	262
f 269 	265 	264
f 269 	264 	1273
f 203 	271 	273
f 152 	46 	206
f 275 	244 	248
f 273 	17 	203
f 83 	86 	277
f 259 	261 	268
f 282 	61 	280
f 267 	279 	281
f 270 	272 	283
f 50 	16 	273
f 279 	267 	266
f 248 	363 	275
f 275 	363 	265
f 227 	663 	219
f 239 	667 	227
f 249 	667 	251
f 281 	279 	284
f 31 	152 	32
f 274 	475 	272
f 265 	531 	264
f 532 	264 	531
f 285 	281 	284
f 21 	271 	23
f 203 	23 	271
f 278 	32 	152
f 46 	152 	31
f 433 	272 	274
f 72 	75 	243
f 286 	287 	285
f 16 	17 	273
f 27 	278 	152
f 286 	285 	284
f 272 	159 	283
f 287 	286 	288
f 254 	283 	159
f 289 	287 	288
f 271 	316 	273
f 290 	291 	289
f 235 	226 	231
f 276 	277 	86
f 276 	86 	94
f 276 	94 	98
f 276 	98 	89
f 276 	89 	93
f 276 	93 	103
f 103 	190 	276
f 235 	236 	292
f 290 	289 	288
f 238 	182 	135
f 292 	236 	240
f 291 	290 	293
f 235 	292 	226
f 293 	295 	296
f 217 	221 	240
f 293 	297 	295
f 238 	544 	182
f 238 	135 	250
f 250 	253 	238
f 295 	297 	294
f 291 	293 	296
f 273 	318 	50
f 299 	44 	298
f 714 	217 	919
f 231 	805 	235
f 235 	805 	236
f 272 	205 	197
f 300 	294 	301
f 197 	177 	272
f 166 	307 	146
f 146 	307 	144
f 85 	299 	298
f 302 	295 	294
f 363 	364 	265
f 364 	365 	265
f 300 	302 	294
f 208 	205 	270
f 272 	270 	205
f 174 	307 	166
f 181 	223 	174
f 447 	272 	177
f 85 	298 	229
f 272 	447 	274
f 310 	311 	308
f 306 	308 	311
f 311 	320 	306
f 271 	340 	313
f 313 	325 	271
f 194 	454 	276
f 190 	194 	276
f 305 	312 	304
f 369 	237 	313
f 186 	270 	262
f 315 	316 	271
f 318 	273 	316
f 226 	307 	223
f 315 	242 	245
f 315 	245 	316
f 308 	317 	310
f 298 	50 	318
f 309 	18 	305
f 270 	283 	208
f 208 	283 	254
f 318 	252 	298
f 317 	308 	319
f 387 	319 	308
f 208 	270 	186
f 314 	311 	310
f 245 	252 	316
f 318 	316 	252
f 292 	307 	226
f 321 	306 	320
f 315 	271 	325
f 314 	406 	320
f 221 	144 	240
f 466 	396 	221
f 307 	174 	223
f 315 	255 	242
f 314 	320 	311
f 322 	323 	324
f 292 	240 	307
f 508 	81 	131
f 322 	324 	326
f 315 	325 	255
f 327 	324 	323
f 327 	323 	328
f 184 	327 	328
f 327 	184 	187
f 325 	237 	255
f 331 	454 	303
f 276 	454 	331
f 303 	462 	330
f 463 	330 	462
f 329 	330 	379
f 334 	332 	322
f 325 	313 	237
f 228 	333 	336
f 648 	131 	336
f 131 	230 	336
f 322 	326 	334
f 252 	229 	298
f 339 	418 	340
f 258 	574 	125
f 345 	686 	341
f 338 	341 	200
f 418 	369 	340
f 340 	271 	21
f 106 	18 	309
f 654 	312 	18
f 356 	357 	355
f 352 	243 	349
f 349 	243 	346
f 208 	121 	270
f 343 	342 	645
f 520 	510 	312
f 339 	340 	21
f 329 	379 	358
f 595 	274 	272
f 360 	246 	354
f 354 	243 	352
f 337 	338 	200
f 110 	246 	105
f 362 	357 	356
f 359 	265 	365
f 404 	524 	525
f 361 	366 	853
f 351 	362 	356
f 595 	270 	121
f 272 	270 	595
f 371 	237 	369
f 350 	351 	356
f 121 	123 	578
f 367 	520 	372
f 105 	246 	360
f 243 	354 	246
f 375 	377 	369
f 374 	372 	312
f 377 	371 	369
f 355 	525 	356
f 375 	381 	377
f 380 	382 	379
f 379 	382 	383
f 379 	383 	384
f 379 	384 	385
f 379 	385 	386
f 358 	379 	386
f 387 	308 	306
f 376 	374 	312
f 319 	387 	388
f 378 	376 	312
f 389 	390 	392
f 651 	388 	387
f 344 	243 	127
f 393 	502 	391
f 172 	75 	158
f 389 	392 	395
f 37 	397 	398
f 389 	399 	390
f 314 	355 	406
f 396 	466 	394
f 401 	392 	400
f 402 	144 	221
f 401 	395 	392
f 397 	404 	405
f 397 	405 	398
f 307 	240 	144
f 402 	221 	396
f 243 	75 	119
f 127 	243 	119
f 346 	243 	344
f 390 	399 	167
f 303 	407 	331
f 390 	167 	114
f 406 	355 	357
f 409 	331 	407
f 313 	340 	369
f 321 	320 	406
f 81 	149 	75
f 187 	149 	81
f 154 	75 	149
f 160 	75 	154
f 158 	75 	160
f 120 	75 	172
f 120 	119 	75
f 404 	525 	405
f 330 	411 	303
f 202 	246 	110
f 319 	388 	405
f 317 	319 	405
f 389 	395 	1350
f 399 	389 	1350
f 411 	407 	303
f 651 	398 	388
f 398 	405 	388
f 413 	330 	329
f 395 	1365 	1350
f 310 	317 	405
f 310 	405 	314
f 211 	663 	209
f 355 	314 	405
f 525 	355 	405
f 413 	411 	330
f 410 	471 	408
f 395 	401 	1365
f 198 	246 	202
f 408 	471 	412
f 412 	471 	414
f 375 	418 	381
f 417 	381 	418
f 375 	369 	418
f 415 	332 	334
f 214 	663 	215
f 339 	417 	418
f 335 	1255 	421
f 422 	378 	428
f 421 	353 	335
f 423 	424 	342
f 423 	342 	343
f 414 	471 	416
f 220 	663 	214
f 198 	209 	246
f 420 	471 	419
f 416 	471 	420
f 219 	663 	220
f 409 	407 	1262
f 1258 	1262 	407
f 407 	411 	1258
f 1255 	1258 	411
f 431 	426 	432
f 421 	1255 	411
f 426 	422 	434
f 215 	663 	211
f 848 	78 	429
f 422 	428 	434
f 426 	434 	432
f 430 	130 	84
f 436 	475 	435
f 411 	413 	421
f 413 	465 	449
f 437 	431 	432
f 433 	435 	436
f 437 	432 	439
f 251 	667 	239
f 415 	441 	442
f 441 	437 	439
f 442 	441 	439
f 259 	667 	249
f 415 	442 	332
f 449 	450 	337
f 443 	480 	451
f 338 	337 	450
f 451 	480 	440
f 341 	338 	453
f 436 	435 	447
f 281 	667 	267
f 267 	667 	268
f 268 	667 	259
f 456 	457 	1228
f 338 	450 	453
f 445 	446 	459
f 458 	459 	446
f 455 	444 	459
f 445 	459 	444
f 285 	667 	281
f 436 	403 	433
f 578 	572 	403
f 449 	337 	353
f 461 	303 	454
f 462 	303 	461
f 379 	330 	463
f 572 	631 	403
f 287 	667 	285
f 329 	465 	413
f 464 	603 	598
f 458 	519 	459
f 289 	291 	667
f 465 	358 	386
f 291 	296 	667
f 274 	595 	435
f 470 	471 	472
f 470 	472 	473
f 440 	474 	438
f 467 	438 	474
f 465 	329 	358
f 464 	394 	466
f 476 	443 	455
f 444 	455 	443
f 785 	667 	296
f 450 	449 	465
f 521 	413 	449
f 270 	272 	475
f 274 	435 	475
f 295 	785 	296
f 452 	460 	448
f 474 	480 	523
f 480 	476 	523
f 523 	476 	519
f 455 	519 	476
f 459 	519 	455
f 274 	435 	433
f 443 	476 	480
f 300 	785 	302
f 302 	785 	295
f 480 	474 	440
f 478 	491 	477
f 483 	520 	367
f 274 	447 	435
f 689 	368 	482
f 477 	625 	482
f 485 	468 	489
f 391 	502 	481
f 394 	464 	393
f 502 	498 	481
f 419 	471 	425
f 427 	425 	468
f 483 	484 	520
f 625 	477 	491
f 427 	468 	485
f 493 	490 	479
f 491 	478 	490
f 621 	482 	625
f 489 	468 	488
f 502 	393 	464
f 598 	502 	464
f 436 	447 	552
f 674 	552 	447
f 475 	436 	503
f 479 	481 	498
f 498 	493 	479
f 488 	468 	495
f 187 	81 	327
f 475 	503 	270
f 545 	496 	505
f 468 	520 	484
f 497 	468 	484
f 501 	468 	497
f 495 	468 	501
f 505 	499 	545
f 262 	270 	503
f 334 	326 	508
f 326 	324 	508
f 81 	508 	324
f 324 	327 	81
f 514 	238 	507
f 510 	520 	509
f 458 	516 	519
f 512 	520 	511
f 517 	511 	689
f 519 	486 	487
f 521 	449 	353
f 521 	353 	421
f 968 	486 	516
f 515 	238 	514
f 334 	508 	415
f 520 	512 	509
f 262 	503 	258
f 522 	238 	515
f 467 	474 	529
f 441 	415 	508
f 448 	348 	452
f 347 	452 	348
f 523 	519 	487
f 525 	351 	350
f 506 	507 	1118
f 238 	522 	513
f 530 	571 	529
f 689 	511 	520
f 524 	351 	525
f 487 	492 	523
f 528 	448 	460
f 312 	372 	520
f 468 	469 	520
f 534 	520 	469
f 516 	486 	519
f 304 	312 	510
f 529 	494 	496
f 529 	496 	530
f 431 	437 	648
f 437 	441 	648
f 531 	265 	359
f 496 	545 	530
f 508 	648 	441
f 1228 	1232 	456
f 448 	528 	456
f 689 	1195 	517
f 492 	494 	529
f 492 	529 	523
f 594 	587 	533
f 534 	1277 	520
f 533 	504 	594
f 592 	594 	504
f 782 	611 	648
f 350 	356 	525
f 467 	529 	571
f 575 	565 	536
f 536 	533 	575
f 500 	536 	535
f 500 	535 	499
f 433 	403 	528
f 576 	575 	533
f 508 	131 	648
f 527 	539 	526
f 538 	526 	539
f 539 	540 	538
f 601 	538 	540
f 541 	601 	540
f 542 	601 	541
f 26 	631 	572
f 543 	433 	528
f 536 	500 	533
f 504 	533 	500
f 543 	528 	460
f 181 	182 	544
f 523 	529 	474
f 560 	557 	545
f 545 	535 	560
f 513 	544 	238
f 223 	181 	544
f 565 	560 	535
f 550 	648 	546
f 545 	499 	535
f 506 	1118 	549
f 551 	648 	550
f 553 	556 	557
f 421 	413 	521
f 563 	558 	601
f 559 	648 	551
f 553 	557 	560
f 561 	648 	559
f 562 	553 	560
f 659 	660 	368
f 554 	601 	558
f 555 	601 	554
f 564 	601 	555
f 534 	469 	537
f 562 	560 	565
f 567 	562 	565
f 422 	648 	561
f 426 	648 	422
f 557 	556 	571
f 659 	368 	370
f 674 	447 	566
f 659 	370 	373
f 674 	566 	40
f 571 	530 	557
f 530 	545 	557
f 26 	572 	568
f 571 	556 	573
f 574 	258 	503
f 677 	659 	373
f 438 	467 	573
f 571 	573 	467
f 426 	431 	648
f 575 	576 	577
f 577 	576 	581
f 548 	549 	1118
f 575 	577 	567
f 579 	548 	1118
f 547 	579 	1118
f 580 	785 	582
f 575 	567 	565
f 586 	581 	576
f 586 	576 	587
f 380 	379 	617
f 582 	785 	300
f 589 	586 	587
f 590 	586 	589
f 584 	547 	1118
f 591 	590 	589
f 585 	593 	785
f 593 	596 	785
f 583 	785 	580
f 592 	591 	589
f 592 	589 	594
f 238 	1118 	507
f 584 	1118 	588
f 596 	597 	785
f 436 	435 	595
f 597 	600 	785
f 385 	384 	609
f 595 	121 	578
f 603 	599 	598
f 589 	587 	594
f 576 	533 	587
f 535 	536 	565
f 600 	602 	785
f 677 	373 	345
f 687 	230 	430
f 578 	552 	572
f 574 	552 	578
f 568 	572 	552
f 130 	430 	230
f 503 	552 	574
f 605 	669 	632
f 361 	1130 	622
f 782 	785 	602
f 465 	386 	606
f 564 	607 	601
f 542 	563 	601
f 583 	585 	785
f 606 	385 	609
f 436 	595 	403
f 386 	385 	606
f 546 	648 	612
f 610 	608 	618
f 610 	618 	615
f 578 	403 	595
f 616 	689 	614
f 617 	623 	380
f 629 	622 	624
f 620 	782 	619
f 626 	782 	620
f 361 	622 	628
f 380 	623 	382
f 627 	382 	623
f 602 	619 	782
f 629 	628 	622
f 630 	383 	382
f 630 	382 	627
f 383 	630 	384
f 609 	384 	630
f 635 	603 	634
f 633 	634 	603
f 599 	603 	637
f 635 	637 	603
f 632 	633 	603
f 604 	605 	632
f 606 	453 	465
f 629 	366 	628
f 361 	628 	366
f 636 	782 	626
f 609 	630 	659
f 659 	677 	609
f 503 	436 	552
f 617 	709 	725
f 611 	782 	643
f 612 	648 	611
f 641 	782 	638
f 996 	403 	1014
f 623 	721 	627
f 630 	627 	660
f 648 	653 	782
f 639 	640 	689
f 660 	659 	630
f 651 	18 	652
f 336 	653 	648
f 642 	682 	640
f 644 	682 	642
f 654 	18 	651
f 655 	654 	651
f 387 	655 	651
f 650 	639 	689
f 641 	643 	782
f 658 	782 	653
f 656 	368 	660
f 664 	665 	668
f 667 	53 	51
f 666 	37 	398
f 671 	632 	669
f 603 	604 	632
f 670 	671 	669
f 18 	1211 	652
f 1211 	552 	652
f 660 	627 	656
f 677 	453 	606
f 450 	465 	453
f 606 	609 	677
f 674 	38 	37
f 674 	37 	666
f 674 	40 	38
f 664 	676 	665
f 679 	1131 	678
f 651 	666 	398
f 677 	341 	453
f 665 	664 	672
f 677 	345 	341
f 1131 	683 	678
f 675 	678 	683
f 588 	1118 	679
f 672 	680 	662
f 651 	652 	674
f 652 	552 	674
f 674 	666 	651
f 393 	391 	704
f 672 	662 	661
f 680 	665 	662
f 689 	640 	682
f 644 	681 	682
f 683 	682 	681
f 683 	681 	673
f 683 	673 	675
f 391 	706 	704
f 394 	393 	704
f 687 	689 	685
f 686 	689 	687
f 689 	1276 	685
f 664 	665 	688
f 680 	688 	665
f 396 	394 	698
f 698 	394 	704
f 690 	79 	61
f 676 	691 	665
f 1241 	665 	691
f 61 	692 	690
f 402 	396 	698
f 64 	684 	280
f 1202 	280 	684
f 402 	698 	148
f 402 	148 	144
f 693 	692 	60
f 194 	188 	699
f 692 	61 	60
f 699 	454 	194
f 1088 	1171 	684
f 712 	668 	672
f 665 	672 	668
f 1038 	1041 	686
f 195 	192 	686
f 192 	199 	686
f 199 	200 	686
f 200 	341 	686
f 373 	686 	345
f 689 	686 	370
f 373 	370 	686
f 689 	370 	368
f 689 	482 	613
f 479 	490 	478
f 613 	482 	621
f 614 	689 	613
f 689 	616 	657
f 657 	650 	689
f 682 	1127 	689
f 662 	694 	661
f 1018 	831 	1109
f 694 	662 	665
f 665 	695 	694
f 700 	699 	148
f 698 	700 	148
f 700 	454 	699
f 700 	701 	454
f 701 	461 	454
f 153 	148 	699
f 700 	698 	701
f 688 	691 	664
f 676 	664 	691
f 707 	461 	701
f 668 	708 	664
f 379 	463 	617
f 709 	617 	463
f 672 	708 	710
f 707 	462 	461
f 707 	711 	462
f 711 	709 	463
f 711 	463 	462
f 706 	726 	711
f 704 	706 	711
f 698 	704 	701
f 709 	711 	726
f 664 	708 	672
f 724 	725 	709
f 711 	707 	704
f 707 	701 	704
f 708 	668 	712
f 713 	712 	672
f 221 	217 	714
f 715 	603 	464
f 710 	712 	716
f 705 	703 	138
f 719 	749 	87
f 87 	720 	88
f 805 	919 	217
f 217 	236 	805
f 712 	713 	718
f 715 	464 	466
f 717 	715 	466
f 91 	719 	87
f 718 	716 	712
f 221 	714 	466
f 714 	717 	466
f 719 	87 	244
f 477 	721 	723
f 708 	722 	688
f 712 	722 	708
f 691 	688 	722
f 478 	477 	723
f 479 	478 	723
f 479 	723 	725
f 481 	479 	724
f 479 	725 	724
f 481 	724 	726
f 755 	649 	647
f 672 	727 	680
f 656 	721 	482
f 680 	710 	708
f 482 	721 	477
f 688 	680 	708
f 391 	481 	726
f 719 	96 	87
f 342 	646 	645
f 656 	482 	368
f 100 	99 	705
f 706 	391 	726
f 710 	680 	727
f 623 	617 	723
f 723 	721 	623
f 656 	627 	721
f 726 	724 	709
f 725 	723 	617
f 53 	667 	728
f 755 	610 	615
f 730 	731 	491
f 730 	491 	490
f 713 	732 	718
f 732 	733 	718
f 729 	718 	733
f 343 	645 	902
f 491 	731 	1044
f 729 	733 	734
f 646 	902 	645
f 735 	730 	490
f 735 	490 	493
f 736 	735 	493
f 736 	493 	498
f 691 	722 	1241
f 598 	738 	502
f 736 	498 	502
f 736 	502 	738
f 91 	88 	720
f 705 	99 	720
f 88 	720 	99
f 916 	918 	730
f 730 	735 	916
f 736 	916 	735
f 738 	916 	736
f 713 	672 	702
f 732 	713 	702
f 608 	737 	740
f 740 	741 	608
f 740 	742 	741
f 506 	881 	743
f 507 	506 	743
f 744 	733 	702
f 733 	732 	702
f 507 	743 	745
f 740 	746 	742
f 744 	734 	733
f 777 	746 	739
f 716 	718 	729
f 720 	87 	749
f 514 	507 	745
f 749 	91 	720
f 716 	750 	710
f 742 	751 	741
f 514 	745 	753
f 734 	744 	729
f 720 	749 	705
f 703 	705 	749
f 522 	515 	747
f 740 	739 	746
f 515 	514 	753
f 720 	88 	138
f 720 	138 	749
f 515 	753 	747
f 747 	513 	522
f 663 	227 	667
f 737 	755 	647
f 748 	91 	749
f 753 	745 	790
f 754 	756 	727
f 754 	727 	752
f 608 	610 	737
f 703 	749 	748
f 703 	748 	849
f 755 	737 	610
f 618 	608 	909
f 748 	749 	138
f 758 	756 	757
f 754 	757 	756
f 403 	887 	702
f 761 	762 	763
f 539 	793 	540
f 764 	759 	760
f 750 	716 	766
f 766 	716 	765
f 729 	765 	716
f 744 	765 	729
f 763 	762 	760
f 702 	767 	744
f 761 	763 	768
f 761 	768 	769
f 702 	887 	767
f 765 	744 	767
f 764 	760 	762
f 770 	771 	710
f 772 	769 	768
f 772 	768 	773
f 710 	750 	766
f 710 	766 	770
f 710 	780 	770
f 760 	828 	763
f 828 	808 	763
f 684 	64 	79
f 538 	601 	919
f 773 	647 	649
f 770 	774 	710
f 773 	649 	772
f 809 	806 	527
f 739 	815 	777
f 776 	757 	775
f 754 	775 	757
f 752 	775 	754
f 138 	703 	1129
f 468 	425 	471
f 712 	710 	771
f 781 	782 	658
f 747 	544 	513
f 783 	784 	785
f 783 	785 	786
f 775 	789 	779
f 775 	779 	776
f 544 	747 	222
f 544 	222 	223
f 818 	816 	784
f 287 	289 	667
f 784 	667 	785
f 246 	209 	663
f 636 	638 	782
f 790 	541 	540
f 804 	813 	2
f 784 	816 	728
f 540 	793 	790
f 791 	808 	794
f 790 	795 	542
f 758 	780 	756
f 727 	756 	780
f 790 	542 	541
f 570 	827 	829
f 788 	787 	796
f 788 	796 	703
f 780 	789 	752
f 775 	752 	789
f 752 	727 	780
f 728 	667 	784
f 801 	800 	703
f 2 	728 	804
f 793 	806 	747
f 747 	753 	793
f 790 	793 	753
f 806 	809 	747
f 710 	727 	780
f 790 	745 	795
f 795 	745 	743
f 917 	770 	780
f 538 	805 	526
f 807 	788 	800
f 788 	703 	800
f 527 	806 	539
f 539 	806 	793
f 792 	808 	791
f 919 	805 	538
f 789 	780 	672
f 828 	794 	808
f 809 	527 	526
f 792 	810 	808
f 809 	526 	811
f 779 	789 	710
f 672 	710 	789
f 811 	526 	805
f 647 	773 	810
f 768 	763 	808
f 727 	672 	780
f 788 	100 	705
f 773 	768 	810
f 808 	810 	768
f 917 	780 	779
f 717 	714 	919
f 224 	222 	811
f 774 	812 	710
f 815 	737 	647
f 222 	747 	809
f 812 	779 	710
f 814 	3 	813
f 815 	778 	777
f 231 	224 	811
f 805 	231 	811
f 809 	811 	222
f 817 	818 	784
f 820 	816 	818
f 804 	728 	816
f 8 	816 	820
f 821 	5 	820
f 822 	30 	36
f 822 	36 	823
f 815 	792 	778
f 824 	45 	49
f 824 	49 	826
f 827 	51 	829
f 829 	51 	53
f 830 	831 	1018
f 880 	881 	548
f 549 	548 	881
f 815 	810 	792
f 696 	845 	823
f 826 	697 	824
f 1034 	832 	833
f 506 	549 	881
f 798 	834 	799
f 569 	697 	826
f 825 	832 	1034
f 834 	802 	799
f 797 	570 	829
f 822 	72 	30
f 802 	819 	803
f 36 	243 	823
f 100 	1109 	831
f 45 	824 	246
f 697 	246 	824
f 794 	828 	834
f 569 	826 	49
f 570 	667 	51
f 570 	51 	827
f 798 	794 	834
f 765 	767 	836
f 838 	841 	839
f 840 	841 	838
f 840 	838 	845
f 834 	819 	802
f 757 	843 	758
f 842 	758 	843
f 844 	839 	841
f 739 	740 	737
f 739 	737 	815
f 851 	846 	238
f 810 	815 	647
f 776 	850 	757
f 822 	823 	845
f 1109 	100 	807
f 788 	807 	100
f 819 	834 	874
f 834 	828 	760
f 846 	851 	835
f 848 	835 	851
f 776 	812 	850
f 843 	757 	850
f 849 	138 	847
f 852 	848 	851
f 851 	1048 	852
f 430 	852 	1048
f 748 	749 	719
f 849 	748 	719
f 91 	849 	719
f 1048 	851 	871
f 244 	849 	719
f 760 	874 	834
f 244 	854 	849
f 853 	936 	851
f 851 	238 	853
f 849 	248 	96
f 860 	862 	863
f 854 	248 	849
f 860 	863 	864
f 859 	851 	858
f 96 	719 	849
f 865 	857 	855
f 865 	855 	866
f 860 	864 	865
f 860 	865 	866
f 872 	851 	868
f 703 	849 	867
f 847 	867 	849
f 779 	812 	776
f 862 	869 	870
f 91 	748 	849
f 569 	201 	697
f 863 	862 	870
f 774 	850 	812
f 873 	870 	869
f 873 	869 	874
f 874 	759 	873
f 861 	858 	851
f 871 	851 	872
f 859 	868 	851
f 759 	874 	760
f 868 	875 	872
f 877 	766 	765
f 403 	1049 	456
f 579 	885 	548
f 880 	548 	885
f 869 	819 	874
f 860 	819 	862
f 1020 	1025 	855
f 869 	862 	819
f 1024 	819 	860
f 885 	579 	547
f 456 	528 	403
f 748 	138 	849
f 819 	964 	878
f 878 	803 	819
f 990 	975 	403
f 646 	901 	902
f 608 	895 	909
f 884 	909 	883
f 771 	1241 	712
f 885 	547 	879
f 889 	909 	893
f 891 	886 	883
f 880 	890 	881
f 885 	890 	880
f 879 	896 	885
f 743 	881 	890
f 883 	909 	889
f 883 	889 	891
f 836 	767 	892
f 887 	892 	767
f 890 	554 	558
f 890 	555 	554
f 889 	893 	894
f 889 	894 	891
f 888 	1179 	854
f 887 	403 	966
f 741 	895 	608
f 893 	909 	895
f 896 	555 	890
f 893 	895 	897
f 893 	897 	894
f 966 	907 	887
f 907 	898 	887
f 892 	887 	898
f 896 	564 	555
f 896 	933 	564
f 751 	895 	741
f 899 	890 	558
f 563 	899 	558
f 751 	897 	895
f 563 	542 	899
f 542 	795 	899
f 899 	743 	890
f 900 	903 	898
f 423 	902 	424
f 901 	424 	902
f 913 	915 	896
f 343 	902 	423
f 765 	892 	877
f 879 	913 	896
f 890 	885 	896
f 892 	898 	903
f 903 	877 	892
f 836 	892 	765
f 906 	908 	909
f 906 	909 	910
f 758 	842 	912
f 911 	912 	842
f 904 	906 	910
f 904 	910 	905
f 743 	899 	795
f 879 	547 	913
f 779 	780 	996
f 905 	909 	943
f 584 	913 	547
f 758 	912 	780
f 779 	996 	1002
f 588 	914 	915
f 196 	115 	697
f 584 	588 	915
f 913 	584 	915
f 934 	933 	1090
f 915 	914 	933
f 882 	854 	888
f 916 	738 	598
f 917 	779 	1002
f 918 	977 	730
f 796 	787 	800
f 801 	796 	800
f 807 	800 	787
f 918 	916 	598
f 918 	598 	599
f 867 	847 	882
f 715 	934 	603
f 898 	907 	900
f 922 	876 	921
f 923 	876 	922
f 924 	876 	923
f 925 	953 	924
f 926 	953 	925
f 927 	953 	926
f 715 	919 	934
f 928 	917 	929
f 715 	717 	919
f 851 	936 	856
f 931 	932 	843
f 603 	934 	935
f 884 	943 	909
f 843 	917 	931
f 935 	604 	603
f 861 	851 	856
f 930 	856 	936
f 935 	937 	604
f 905 	910 	909
f 979 	941 	975
f 937 	605 	604
f 886 	939 	883
f 883 	939 	884
f 936 	940 	942
f 941 	931 	917
f 850 	917 	843
f 917 	975 	941
f 933 	919 	607
f 601 	607 	919
f 607 	564 	933
f 946 	936 	942
f 943 	939 	944
f 930 	936 	946
f 914 	1090 	933
f 933 	896 	915
f 1087 	1089 	934
f 1099 	1098 	937
f 917 	928 	771
f 945 	771 	928
f 787 	1097 	807
f 917 	850 	774
f 991 	992 	961
f 943 	884 	939
f 935 	1105 	937
f 771 	770 	917
f 936 	66 	940
f 919 	933 	934
f 618 	909 	908
f 903 	929 	917
f 770 	766 	917
f 903 	917 	766
f 903 	766 	877
f 949 	950 	938
f 616 	1039 	1040
f 970 	952 	9
f 917 	774 	770
f 999 	938 	950
f 951 	949 	938
f 940 	951 	938
f 616 	614 	1039
f 945 	903 	907
f 920 	921 	876
f 882 	847 	954
f 900 	907 	903
f 903 	945 	928
f 903 	928 	929
f 625 	491 	1044
f 1033 	1086 	1021
f 867 	882 	954
f 867 	954 	957
f 867 	957 	958
f 621 	625 	1044
f 931 	912 	932
f 911 	932 	912
f 977 	918 	637
f 599 	637 	918
f 882 	954 	1135
f 854 	882 	1135
f 948 	947 	953
f 947 	989 	953
f 962 	953 	989
f 927 	948 	953
f 876 	924 	953
f 989 	991 	962
f 959 	855 	857
f 963 	931 	941
f 637 	635 	977
f 967 	965 	968
f 819 	1024 	964
f 969 	967 	968
f 968 	965 	486
f 966 	1241 	945
f 854 	1171 	888
f 973 	976 	1021
f 1002 	692 	975
f 971 	1179 	888
f 487 	965 	974
f 972 	500 	974
f 977 	635 	978
f 1011 	504 	972
f 980 	978 	634
f 635 	634 	978
f 632 	982 	633
f 958 	703 	867
f 966 	945 	907
f 703 	1036 	801
f 985 	986 	984
f 983 	984 	986
f 986 	987 	983
f 987 	988 	983
f 988 	955 	983
f 981 	983 	955
f 771 	945 	1241
f 888 	954 	882
f 979 	975 	990
f 966 	403 	975
f 1135 	971 	888
f 1135 	888 	854
f 960 	961 	993
f 956 	960 	993
f 955 	956 	993
f 994 	955 	993
f 992 	993 	961
f 961 	962 	991
f 941 	979 	963
f 990 	963 	979
f 1171 	275 	1192
f 1003 	1023 	997
f 996 	912 	931
f 963 	990 	931
f 996 	931 	990
f 1171 	244 	275
f 912 	996 	780
f 1000 	1003 	997
f 570 	234 	569
f 248 	854 	1179
f 998 	1003 	1000
f 990 	403 	996
f 999 	950 	998
f 958 	957 	1001
f 952 	973 	1021
f 1003 	998 	950
f 973 	952 	970
f 996 	692 	1002
f 1002 	975 	917
f 1022 	976 	1006
f 1088 	684 	79
f 1007 	1023 	1005
f 692 	996 	690
f 693 	1275 	966
f 693 	966 	692
f 975 	692 	966
f 932 	911 	843
f 842 	843 	911
f 1012 	592 	1011
f 1008 	591 	1010
f 1012 	1010 	592
f 981 	955 	1015
f 1351 	825 	631
f 1016 	830 	1018
f 1020 	855 	959
f 1019 	955 	1017
f 1019 	1015 	955
f 994 	1017 	955
f 1004 	591 	1008
f 788 	1095 	787
f 1022 	1021 	976
f 995 	997 	1023
f 1007 	995 	1023
f 1025 	964 	1024
f 1025 	1006 	964
f 1025 	1022 	1006
f 1030 	936 	1029
f 1031 	936 	1030
f 796 	801 	1036
f 936 	1031 	1026
f 1021 	1022 	1033
f 866 	855 	1024
f 1022 	1025 	1032
f 1033 	1022 	1032
f 936 	853 	1028
f 1028 	1029 	936
f 1020 	1032 	1025
f 952 	1021 	1084
f 23 	16 	853
f 1027 	853 	16
f 860 	866 	1024
f 982 	980 	633
f 853 	339 	23
f 17 	16 	23
f 1027 	1028 	853
f 833 	1035 	1034
f 1024 	855 	1025
f 980 	634 	633
f 825 	1034 	1014
f 830 	1016 	833
f 1035 	833 	1016
f 1059 	1037 	1129
f 1020 	959 	1009
f 731 	730 	977
f 977 	978 	731
f 1044 	731 	978
f 76 	940 	66
f 1036 	1129 	1037
f 980 	1043 	978
f 1032 	1020 	1009
f 1013 	54 	1033
f 951 	940 	76
f 138 	1129 	1036
f 982 	1039 	980
f 1060 	1061 	1079
f 1032 	1009 	1013
f 1079 	1082 	1060
f 1026 	58 	936
f 58 	66 	936
f 1033 	1032 	1013
f 102 	371 	118
f 116 	118 	371
f 102 	101 	371
f 114 	116 	371
f 1036 	703 	958
f 1036 	958 	1001
f 614 	613 	1039
f 203 	17 	23
f 1040 	1082 	616
f 613 	621 	1039
f 1043 	1039 	621
f 957 	1036 	1001
f 229 	371 	85
f 101 	85 	371
f 252 	255 	229
f 245 	255 	252
f 242 	255 	245
f 237 	229 	255
f 371 	229 	237
f 1043 	621 	1044
f 1135 	1036 	1037
f 424 	339 	342
f 1036 	847 	138
f 366 	342 	339
f 339 	853 	366
f 1036 	954 	847
f 1036 	957 	954
f 1036 	1135 	954
f 9 	1052 	10
f 854 	244 	1171
f 9 	952 	1052
f 971 	888 	1171
f 1046 	971 	1171
f 1046 	1179 	971
f 371 	377 	390
f 392 	390 	377
f 114 	371 	390
f 377 	381 	392
f 400 	392 	381
f 294 	297 	471
f 1067 	1037 	1036
f 339 	424 	417
f 901 	686 	424
f 1043 	980 	1039
f 1044 	978 	1043
f 835 	848 	837
f 1034 	690 	996
f 1014 	1034 	996
f 631 	1014 	403
f 954 	971 	1036
f 888 	971 	954
f 1076 	1077 	639
f 640 	639 	1077
f 429 	837 	848
f 1018 	1088 	1016
f 1088 	690 	1016
f 971 	1046 	1036
f 1067 	1036 	1046
f 642 	640 	1077
f 1016 	690 	1035
f 971 	1135 	1046
f 871 	446 	1048
f 642 	1078 	644
f 642 	1077 	1078
f 1055 	15 	14
f 196 	697 	201
f 451 	1048 	443
f 440 	1048 	451
f 438 	1048 	440
f 444 	443 	1048
f 138 	1095 	705
f 445 	444 	1048
f 446 	445 	1048
f 943 	944 	1051
f 944 	15 	1051
f 705 	1095 	788
f 500 	972 	504
f 499 	974 	500
f 496 	974 	505
f 494 	974 	496
f 492 	974 	494
f 487 	974 	492
f 486 	965 	487
f 499 	505 	974
f 106 	1095 	138
f 1054 	12 	1053
f 201 	569 	210
f 1054 	13 	12
f 1109 	807 	1097
f 1054 	1055 	13
f 1056 	1053 	12
f 1052 	11 	10
f 1098 	681 	644
f 1052 	1056 	11
f 1055 	14 	13
f 1061 	1073 	1077
f 1098 	1078 	1073
f 1073 	937 	1098
f 12 	11 	1056
f 1060 	671 	1061
f 670 	1061 	671
f 1060 	632 	671
f 15 	1055 	1051
f 1059 	1106 	1037
f 1137 	1106 	1059
f 943 	1051 	905
f 1051 	1055 	905
f 1135 	1037 	1059
f 1057 	1058 	1070
f 686 	1048 	567
f 1084 	1085 	952
f 553 	562 	1048
f 1071 	1069 	1053
f 556 	553 	1048
f 1064 	1065 	1063
f 1064 	1063 	1062
f 438 	573 	1048
f 556 	1048 	573
f 1064 	1062 	1070
f 1171 	1066 	1046
f 1056 	1074 	1053
f 1074 	1056 	1080
f 1052 	1081 	1056
f 1066 	1179 	1046
f 586 	686 	581
f 581 	686 	577
f 577 	686 	567
f 562 	567 	1048
f 590 	686 	586
f 1037 	1067 	1059
f 1068 	1069 	1045
f 1005 	1023 	1004
f 591 	1004 	1023
f 1069 	1071 	1038
f 592 	504 	1011
f 592 	1010 	591
f 982 	632 	1060
f 1070 	1072 	1064
f 1038 	1071 	1041
f 430 	1048 	687
f 686 	687 	1048
f 669 	1073 	1061
f 669 	1061 	670
f 1066 	1067 	1046
f 1074 	1042 	1071
f 1041 	1071 	1042
f 1064 	1351 	1065
f 1073 	669 	937
f 605 	937 	669
f 1042 	1074 	1080
f 1135 	1066 	1046
f 1038 	1045 	1069
f 591 	400 	590
f 1023 	400 	591
f 381 	590 	400
f 686 	590 	381
f 417 	686 	381
f 417 	424 	686
f 908 	686 	901
f 1068 	1045 	19
f 845 	238 	840
f 238 	845 	696
f 263 	28 	238
f 615 	618 	238
f 629 	624 	618
f 1071 	1053 	1074
f 905 	1055 	1068
f 1069 	1068 	1055
f 1055 	1054 	1069
f 1054 	1053 	1069
f 618 	624 	238
f 624 	853 	238
f 840 	238 	846
f 904 	1068 	19
f 108 	615 	238
f 1098 	644 	1078
f 1068 	904 	905
f 639 	650 	1079
f 1080 	1081 	22
f 1080 	22 	20
f 639 	1079 	1076
f 1042 	1080 	20
f 646 	629 	618
f 1082 	1079 	650
f 34 	22 	1081
f 34 	1081 	1083
f 772 	649 	615
f 649 	755 	615
f 42 	34 	1083
f 1082 	650 	657
f 646 	342 	629
f 366 	629 	342
f 657 	616 	1082
f 1083 	47 	42
f 47 	1083 	1085
f 751 	742 	746
f 47 	1085 	1084
f 1077 	1076 	1061
f 1076 	1079 	1061
f 1082 	1040 	1060
f 982 	1060 	1040
f 1040 	1039 	982
f 52 	47 	1084
f 54 	52 	1084
f 54 	1084 	1086
f 675 	673 	1087
f 79 	690 	1088
f 1084 	1021 	1086
f 1052 	952 	1085
f 1085 	1083 	1052
f 1080 	1056 	1081
f 764 	108 	759
f 1081 	1052 	1083
f 673 	1089 	1087
f 679 	1087 	1090
f 1034 	1035 	690
f 678 	675 	1087
f 1033 	54 	1086
f 679 	678 	1087
f 69 	68 	1091
f 69 	1091 	1092
f 108 	764 	762
f 761 	615 	762
f 769 	615 	761
f 71 	69 	1092
f 71 	1092 	1093
f 772 	615 	769
f 1090 	1087 	934
f 935 	934 	1089
f 1089 	1105 	935
f 1099 	937 	1105
f 74 	71 	1093
f 74 	1093 	1094
f 1091 	68 	1193
f 108 	762 	615
f 77 	74 	1094
f 77 	1094 	1096
f 679 	1090 	914
f 679 	914 	588
f 1093 	1170 	1094
f 1092 	1170 	1093
f 1091 	1167 	1092
f 1098 	1099 	681
f 794 	798 	897
f 791 	794 	897
f 792 	791 	897
f 894 	897 	798
f 798 	799 	894
f 799 	802 	894
f 802 	803 	894
f 803 	878 	894
f 878 	964 	894
f 1097 	787 	1095
f 1096 	1140 	77
f 106 	309 	1095
f 673 	681 	1089
f 1104 	1152 	1103
f 681 	1099 	1105
f 865 	111 	857
f 681 	1105 	1089
f 1100 	1237 	109
f 1101 	1100 	111
f 683 	1131 	1132
f 683 	1132 	1108
f 1106 	1129 	796
f 111 	1100 	109
f 870 	108 	863
f 864 	111 	865
f 1107 	682 	683
f 1107 	683 	1108
f 113 	112 	1104
f 113 	1104 	1103
f 873 	108 	870
f 1078 	1077 	1073
f 1 	4 	1111
f 1110 	1111 	4
f 759 	108 	873
f 864 	863 	117
f 1111 	1047 	1
f 117 	863 	108
f 111 	1102 	1101
f 1108 	1132 	1107
f 472 	1113 	1114
f 117 	113 	1103
f 964 	1006 	894
f 7 	1115 	1112
f 1115 	1113 	1112
f 472 	1112 	1113
f 117 	1103 	1102
f 778 	792 	897
f 111 	117 	1102
f 7 	6 	1115
f 1116 	1115 	6
f 685 	228 	230
f 685 	230 	687
f 56 	835 	837
f 56 	837 	57
f 823 	243 	696
f 62 	838 	839
f 62 	839 	63
f 697 	696 	246
f 243 	246 	696
f 777 	778 	897
f 746 	777 	897
f 751 	746 	897
f 891 	894 	973
f 886 	891 	973
f 796 	1036 	1106
f 618 	908 	646
f 837 	429 	57
f 128 	57 	429
f 839 	844 	63
f 70 	63 	844
f 62 	72 	838
f 686 	908 	906
f 845 	838 	72
f 1095 	1236 	1097
f 1106 	1097 	1236
f 904 	19 	906
f 1045 	686 	19
f 906 	19 	686
f 841 	840 	67
f 841 	67 	65
f 841 	65 	70
f 841 	70 	844
f 1117 	1118 	1119
f 1117 	1119 	1120
f 1123 	1124 	1121
f 1123 	1121 	1122
f 944 	939 	973
f 1106 	1088 	1097
f 845 	72 	822
f 846 	835 	75
f 56 	75 	835
f 901 	646 	908
f 67 	840 	75
f 846 	75 	840
f 84 	78 	852
f 848 	852 	78
f 1018 	1109 	1088
f 1097 	1088 	1109
f 128 	429 	78
f 970 	13 	973
f 15 	944 	973
f 430 	84 	852
f 1126 	1169 	1149
f 1107 	1128 	682
f 1127 	682 	1128
f 1157 	1135 	1240
f 1236 	1129 	1106
f 1130 	361 	853
f 703 	796 	1129
f 1006 	976 	894
f 976 	973 	894
f 939 	886 	973
f 9 	13 	970
f 622 	1130 	853
f 622 	853 	624
f 1117 	1132 	1118
f 1131 	1118 	1132
f 1119 	1127 	1128
f 1119 	1128 	1120
f 857 	109 	959
f 858 	1133 	1141
f 1140 	112 	142
f 1137 	1129 	1240
f 1236 	1240 	1129
f 859 	858 	1141
f 1140 	142 	77
f 1138 	1134 	1136
f 1138 	1136 	1139
f 861 	856 	1133
f 1137 	1059 	1129
f 1009 	959 	185
f 109 	185 	959
f 1107 	1132 	1128
f 1102 	1103 	1150
f 1096 	1094 	1174
f 1133 	858 	861
f 185 	195 	1013
f 1013 	1009 	185
f 1117 	1120 	1132
f 1128 	1132 	1120
f 112 	1140 	1104
f 1036 	1037 	1106
f 1042 	20 	686
f 1142 	1143 	1189
f 1144 	1145 	1146
f 1144 	1146 	1147
f 543 	1057 	1058
f 1038 	686 	1045
f 1059 	1137 	1135
f 1142 	1144 	1147
f 1142 	1147 	1143
f 1041 	1042 	686
f 20 	22 	686
f 1146 	1149 	1143
f 1150 	134 	1148
f 1146 	1143 	1147
f 1146 	1151 	1149
f 134 	133 	1148
f 1151 	1146 	1145
f 1152 	134 	1150
f 1151 	1154 	1155
f 1151 	1155 	1149
f 1153 	871 	872
f 1153 	872 	1156
f 1126 	1149 	1155
f 1157 	1088 	1137
f 1152 	136 	134
f 1154 	1125 	1155
f 1126 	1155 	1125
f 868 	859 	1159
f 1134 	1160 	1136
f 1158 	1136 	1160
f 859 	1141 	1159
f 1101 	1148 	1100
f 1101 	1102 	1150
f 1138 	1161 	1134
f 1160 	1134 	1161
f 1150 	1103 	1152
f 1157 	1179 	1066
f 1161 	1138 	1162
f 1139 	1162 	1138
f 1160 	1161 	1122
f 1123 	1122 	1161
f 1148 	1101 	1150
f 1208 	1207 	1133
f 1207 	1209 	1141
f 1059 	1067 	1137
f 1157 	1137 	1067
f 1160 	1122 	1158
f 1121 	1158 	1122
f 1140 	1152 	1104
f 1162 	1124 	1161
f 1123 	1161 	1124
f 1067 	1066 	1157
f 1163 	1185 	1164
f 1135 	1137 	1240
f 1135 	1157 	1066
f 140 	1167 	141
f 1166 	141 	1167
f 1169 	1126 	1168
f 1125 	1168 	1126
f 234 	570 	241
f 213 	569 	216
f 1170 	1167 	139
f 140 	139 	1167
f 1165 	1156 	875
f 872 	875 	1156
f 1163 	1164 	1172
f 1163 	1172 	1173
f 82 	1287 	696
f 139 	137 	1174
f 139 	1174 	1170
f 1175 	1176 	1177
f 1175 	1177 	1178
f 1156 	1165 	1153
f 1182 	1177 	1176
f 1157 	1066 	1171
f 1181 	1175 	1178
f 1119 	1118 	238
f 1152 	1174 	136
f 1174 	137 	136
f 1221 	920 	876
f 1177 	1183 	1178
f 238 	1319 	1121
f 1121 	1124 	238
f 1124 	1119 	238
f 1167 	1091 	1166
f 1170 	1092 	1167
f 1136 	689 	1127
f 1223 	920 	1221
f 1192 	684 	1171
f 1106 	1137 	1088
f 1174 	1094 	1170
f 1189 	1143 	1169
f 1143 	1149 	1169
f 1157 	1171 	1088
f 1131 	679 	1118
f 1140 	1096 	1152
f 1139 	1136 	1127
f 1174 	1152 	1096
f 1127 	1119 	1139
f 1119 	1124 	1139
f 1182 	1183 	1177
f 923 	1209 	924
f 1182 	1185 	1186
f 1182 	1186 	1183
f 1163 	1186 	1185
f 1180 	1181 	1178
f 1154 	1151 	1145
f 264 	532 	1187
f 157 	143 	1184
f 1188 	1142 	1189
f 1311 	1310 	1187
f 1189 	1169 	1188
f 1168 	1188 	1169
f 1187 	1273 	264
f 1121 	1154 	1158
f 922 	1209 	923
f 1125 	1154 	1121
f 1145 	1158 	1154
f 1180 	1178 	1183
f 1180 	1183 	1198
f 926 	1229 	927
f 1190 	147 	152
f 1190 	152 	1191
f 1139 	1124 	1162
f 1186 	1200 	1183
f 1198 	1183 	1200
f 68 	157 	1193
f 1182 	1164 	1185
f 1223 	921 	920
f 1192 	275 	265
f 1163 	1173 	1186
f 1125 	1121 	1319
f 1193 	157 	1184
f 1192 	265 	269
f 1194 	1195 	1196
f 1194 	1196 	1197
f 1216 	1212 	1205
f 1198 	1199 	1194
f 1198 	1194 	1197
f 1176 	1319 	1164
f 1182 	1176 	1164
f 1176 	1175 	1319
f 1165 	875 	868
f 1300 	1206 	1298
f 1198 	1200 	1201
f 1198 	1201 	1199
f 1184 	1166 	1193
f 868 	1159 	1165
f 280 	1202 	282
f 1200 	1203 	1204
f 1200 	1204 	1201
f 1190 	1205 	163
f 301 	294 	471
f 163 	1184 	164
f 1197 	1196 	1198
f 1180 	1198 	1196
f 1208 	925 	1207
f 924 	1207 	925
f 163 	1205 	1184
f 1075 	1351 	1064
f 924 	1209 	1207
f 141 	1166 	168
f 1210 	168 	1166
f 282 	1202 	1206
f 1195 	1181 	1196
f 1180 	1196 	1181
f 1210 	1212 	169
f 1210 	169 	168
f 1075 	1064 	1057
f 1218 	1213 	173
f 1212 	1216 	170
f 1212 	170 	169
f 1072 	1057 	1064
f 1141 	1133 	1207
f 1209 	1227 	1159
f 1159 	1141 	1209
f 171 	1218 	173
f 1214 	1217 	1219
f 1206 	1202 	1298
f 1215 	1214 	1220
f 1159 	1226 	1165
f 1223 	1221 	1165
f 1216 	1218 	171
f 1216 	171 	170
f 1192 	1298 	1202
f 1220 	1214 	1219
f 143 	164 	1184
f 684 	1192 	1202
f 163 	147 	1190
f 1190 	1191 	1205
f 1311 	1187 	532
f 1200 	1186 	1271
f 1166 	1184 	1210
f 1091 	1193 	1166
f 953 	1222 	1221
f 1184 	1205 	1212
f 1210 	1184 	1212
f 1241 	1279 	1215
f 1215 	1279 	1214
f 1214 	1224 	1217
f 1213 	1218 	1191
f 925 	1208 	926
f 1225 	926 	1208
f 1175 	1168 	1319
f 1168 	1125 	1319
f 1181 	1168 	1175
f 1216 	1205 	1218
f 1227 	922 	1226
f 921 	1226 	922
f 448 	456 	348
f 1227 	1209 	922
f 1232 	347 	348
f 1172 	351 	1233
f 1225 	1229 	926
f 1191 	1218 	1205
f 1181 	1195 	1188
f 363 	1179 	1240
f 248 	1179 	363
f 152 	1253 	1191
f 1223 	1226 	921
f 1257 	1231 	1232
f 1179 	1157 	1240
f 1142 	1188 	1144
f 1188 	1168 	1181
f 1231 	1233 	1232
f 305 	304 	1235
f 1262 	46 	39
f 1201 	1204 	1194
f 1201 	1194 	1199
f 1235 	304 	1234
f 347 	1232 	1233
f 309 	305 	1236
f 348 	456 	1232
f 1236 	305 	1235
f 1274 	1191 	1268
f 1221 	1222 	1153
f 1153 	1165 	1221
f 1095 	309 	1236
f 1 	1047 	797
f 1228 	457 	1239
f 1237 	1238 	185
f 1204 	1256 	517
f 1195 	1144 	1188
f 1256 	1219 	1217
f 109 	1237 	185
f 1208 	1133 	1225
f 1242 	189 	1246
f 1243 	365 	1244
f 191 	189 	1242
f 1223 	1165 	1226
f 1227 	1226 	1159
f 1220 	1219 	1172
f 365 	364 	1244
f 189 	192 	1246
f 364 	1240 	1244
f 722 	712 	1241
f 1245 	191 	1242
f 364 	363 	1240
f 1229 	1259 	1270
f 365 	1243 	359
f 695 	665 	1241
f 695 	1241 	1250
f 191 	1245 	1148
f 1148 	133 	191
f 1241 	966 	1275
f 1230 	1172 	1231
f 1235 	1244 	1236
f 1234 	1244 	1235
f 1164 	1319 	1172
f 1233 	1231 	1172
f 1148 	1245 	1100
f 1237 	1100 	1245
f 1237 	1245 	1238
f 1238 	1242 	1248
f 1220 	1241 	1215
f 1244 	1234 	1243
f 1244 	1240 	1236
f 1242 	1238 	1245
f 1247 	1225 	1133
f 1257 	1232 	1228
f 1248 	1242 	1246
f 1247 	856 	930
f 1231 	1257 	1230
f 856 	1247 	1133
f 695 	1250 	1239
f 1246 	192 	1248
f 1288 	1249 	938
f 195 	1248 	192
f 1288 	938 	999
f 546 	483 	367
f 1228 	1239 	1257
f 185 	1238 	1248
f 185 	1248 	195
f 1249 	1251 	940
f 200 	199 	1252
f 200 	1252 	1253
f 550 	546 	367
f 550 	367 	372
f 938 	1249 	940
f 1239 	1250 	1254
f 1172 	1254 	1250
f 1172 	1250 	1220
f 152 	200 	1253
f 942 	940 	1251
f 551 	550 	372
f 551 	372 	374
f 1254 	1172 	1230
f 1241 	1220 	1250
f 335 	204 	1255
f 559 	551 	374
f 559 	374 	376
f 946 	942 	1259
f 1258 	1255 	207
f 561 	559 	376
f 561 	376 	378
f 1172 	1219 	1256
f 1112 	472 	797
f 1258 	207 	206
f 942 	1251 	1260
f 207 	1255 	204
f 60 	61 	1269
f 942 	1260 	1259
f 1259 	1247 	930
f 1239 	1254 	1257
f 422 	561 	378
f 1265 	1261 	1264
f 1264 	1261 	1263
f 60 	1269 	1261
f 1258 	206 	1262
f 1259 	930 	946
f 1254 	1230 	1257
f 410 	583 	580
f 410 	408 	583
f 927 	1229 	948
f 1252 	1268 	1253
f 300 	301 	410
f 1229 	1270 	948
f 1263 	1261 	1269
f 1269 	61 	282
f 1203 	1271 	1204
f 1256 	1204 	1271
f 300 	410 	582
f 1270 	947 	948
f 39 	35 	409
f 1266 	1256 	1217
f 410 	580 	582
f 1270 	1272 	947
f 1173 	1271 	1186
f 1203 	1200 	1271
f 233 	1268 	1252
f 233 	1252 	199
f 1267 	518 	1256
f 408 	412 	585
f 1271 	1173 	1256
f 1172 	1256 	1173
f 1253 	1268 	1191
f 232 	1268 	233
f 232 	1274 	1268
f 269 	1273 	1267
f 1194 	1204 	517
f 60 	1261 	693
f 1275 	693 	1261
f 1213 	1191 	1274
f 689 	520 	1277
f 583 	408 	585
f 173 	1213 	1274
f 1275 	1261 	1265
f 1275 	1265 	1278
f 1277 	1276 	689
f 585 	412 	414
f 1229 	1225 	1247
f 1247 	1259 	1229
f 1260 	1270 	1259
f 1343 	1339 	1347
f 1265 	1264 	1279
f 1265 	1279 	1278
f 232 	173 	1274
f 593 	585 	414
f 414 	596 	593
f 414 	416 	596
f 1145 	1144 	689
f 1195 	689 	1144
f 1194 	517 	1195
f 518 	517 	1256
f 1273 	518 	1267
f 1266 	1267 	1256
f 1158 	1145 	689
f 1136 	1158 	689
f 135 	1281 	250
f 1264 	1263 	1280
f 1264 	1280 	1279
f 1251 	1249 	1270
f 250 	1281 	1283
f 1278 	1241 	1275
f 253 	250 	1283
f 1260 	1251 	1270
f 253 	1283 	1286
f 416 	597 	596
f 1286 	1289 	257
f 416 	420 	597
f 253 	1286 	257
f 151 	150 	238
f 260 	257 	1289
f 260 	1289 	1290
f 1284 	1282 	696
f 949 	1291 	1292
f 1287 	1285 	696
f 1285 	1284 	696
f 419 	425 	602
f 1292 	1293 	950
f 949 	1292 	950
f 420 	600 	597
f 1281 	90 	1283
f 90 	97 	1283
f 1286 	97 	1289
f 95 	80 	1290
f 1289 	95 	1290
f 420 	419 	600
f 126 	1295 	76
f 263 	260 	1290
f 263 	1290 	1294
f 602 	600 	419
f 951 	76 	1295
f 1291 	949 	951
f 1294 	29 	263
f 28 	263 	29
f 1291 	951 	1295
f 619 	602 	425
f 210 	569 	212
f 115 	104 	697
f 696 	697 	82
f 104 	82 	697
f 1262 	206 	46
f 950 	1293 	1350
f 1340 	1343 	1348
f 277 	55 	80
f 277 	73 	55
f 612 	611 	484
f 612 	484 	483
f 132 	696 	124
f 1295 	180 	1291
f 126 	180 	1295
f 1291 	167 	1292
f 1292 	167 	1293
f 83 	277 	80
f 612 	483 	546
f 1153 	458 	871
f 124 	696 	1282
f 277 	276 	73
f 620 	427 	485
f 1153 	1297 	458
f 1278 	1279 	1241
f 876 	953 	1221
f 409 	73 	331
f 276 	331 	73
f 1280 	1224 	1279
f 278 	27 	25
f 278 	25 	59
f 962 	1296 	953
f 278 	59 	33
f 278 	33 	32
f 619 	425 	427
f 162 	238 	165
f 1222 	953 	1296
f 620 	619 	427
f 122 	696 	132
f 165 	238 	179
f 962 	961 	1297
f 962 	1297 	1296
f 1217 	1224 	1306
f 485 	626 	620
f 626 	485 	489
f 1224 	1214 	1279
f 1192 	269 	1298
f 638 	488 	495
f 961 	960 	1299
f 961 	1299 	1297
f 1267 	1266 	1298
f 636 	489 	488
f 636 	626 	489
f 960 	956 	1299
f 179 	238 	122
f 151 	238 	162
f 150 	184 	238
f 184 	328 	238
f 1320 	238 	328
f 1316 	1320 	328
f 638 	636 	488
f 501 	497 	641
f 495 	641 	638
f 641 	495 	501
f 1306 	1300 	1298
f 1206 	1269 	282
f 643 	641 	497
f 484 	611 	643
f 484 	643 	497
f 1206 	1300 	1269
f 1153 	1222 	1296
f 1296 	1297 	1153
f 510 	509 	1301
f 1269 	1300 	1263
f 1280 	1263 	1300
f 512 	1302 	1303
f 1072 	1305 	1065
f 1304 	1305 	1072
f 1063 	1065 	1305
f 512 	511 	1302
f 1299 	458 	1297
f 509 	512 	1303
f 1217 	1306 	1266
f 1301 	509 	1303
f 1307 	1302 	511
f 1300 	1306 	1280
f 517 	1307 	511
f 1357 	1057 	1050
f 1306 	1224 	1280
f 871 	458 	446
f 510 	1301 	1308
f 212 	569 	213
f 1266 	1306 	1298
f 1307 	517 	518
f 1299 	1321 	458
f 1308 	1234 	510
f 1058 	1309 	543
f 1310 	1307 	518
f 1298 	269 	1267
f 1330 	974 	965
f 1057 	1315 	1058
f 1309 	1058 	1315
f 570 	797 	471
f 304 	510 	1234
f 965 	967 	1335
f 216 	569 	218
f 531 	359 	1243
f 1330 	965 	1335
f 1332 	1070 	1309
f 1058 	1309 	1070
f 1313 	531 	1243
f 967 	969 	1336
f 532 	1313 	1311
f 218 	569 	225
f 225 	569 	234
f 1336 	968 	516
f 532 	531 	1313
f 1273 	1187 	1312
f 1276 	333 	685
f 228 	685 	333
f 969 	968 	1336
f 256 	247 	570
f 247 	241 	570
f 1310 	518 	1273
f 1277 	333 	1276
f 1310 	1273 	1312
f 1305 	1314 	1063
f 261 	570 	266
f 1277 	336 	333
f 537 	653 	534
f 955 	988 	1321
f 346 	124 	1282
f 1062 	1063 	1344
f 266 	570 	279
f 256 	570 	261
f 284 	279 	570
f 132 	124 	344
f 344 	127 	132
f 1302 	1311 	1303
f 1307 	1311 	1302
f 1311 	1307 	1310
f 1312 	1187 	1310
f 1301 	1303 	1311
f 346 	344 	124
f 1315 	1304 	1072
f 1282 	349 	346
f 1282 	1284 	349
f 1308 	1301 	1311
f 1234 	1308 	1313
f 1234 	1313 	1243
f 974 	1331 	972
f 1329 	972 	1331
f 1313 	1308 	1311
f 1072 	1065 	1315
f 471 	797 	472
f 1277 	534 	653
f 1277 	653 	336
f 1285 	1287 	354
f 469 	658 	537
f 1329 	1011 	972
f 537 	658 	653
f 286 	570 	288
f 1284 	352 	349
f 1323 	985 	984
f 658 	469 	781
f 1284 	1285 	352
f 786 	470 	473
f 786 	473 	783
f 288 	570 	290
f 284 	570 	286
f 352 	1285 	354
f 569 	49 	663
f 1287 	360 	354
f 1287 	82 	360
f 1344 	1211 	1062
f 569 	663 	667
f 569 	667 	570
f 293 	570 	297
f 290 	570 	293
f 829 	53 	728
f 829 	728 	797
f 82 	105 	360
f 797 	728 	1
f 782 	781 	469
f 782 	469 	468
f 301 	471 	410
f 470 	786 	785
f 470 	785 	471
f 784 	783 	473
f 784 	473 	472
f 1305 	1304 	1315
f 1305 	1315 	1314
f 782 	468 	471
f 782 	471 	785
f 321 	1319 	306
f 306 	1320 	1316
f 1317 	1318 	1316
f 306 	1316 	1318
f 728 	2 	1
f 1318 	1326 	306
f 1315 	1072 	1070
f 1047 	804 	1112
f 1320 	306 	1319
f 804 	816 	1112
f 321 	1172 	1319
f 1315 	1070 	1314
f 956 	955 	1321
f 1299 	956 	1321
f 238 	1320 	1319
f 988 	987 	1322
f 988 	1322 	1321
f 1111 	1110 	814
f 1111 	814 	813
f 696 	122 	238
f 4 	814 	1110
f 986 	1324 	987
f 804 	1047 	813
f 813 	1047 	1111
f 1114 	817 	784
f 1114 	784 	472
f 1322 	987 	1324
f 6 	821 	1116
f 1316 	1326 	1317
f 1324 	986 	1323
f 986 	985 	1323
f 1112 	816 	7
f 816 	8 	7
f 818 	817 	1114
f 818 	1114 	1113
f 322 	1326 	323
f 1322 	1336 	1321
f 818 	1113 	1115
f 818 	1115 	820
f 323 	1316 	328
f 1324 	1323 	1336
f 820 	1115 	1116
f 820 	1116 	821
f 1324 	1336 	1322
f 1335 	1336 	1323
f 1325 	1330 	1323
f 1329 	1331 	1327
f 1323 	984 	1325
f 983 	1325 	984
f 322 	332 	1326
f 1316 	323 	1326
f 1328 	1355 	1359
f 1328 	1327 	981
f 1315 	1057 	1072
f 1325 	983 	1327
f 983 	981 	1327
f 1318 	1317 	1326
f 974 	1330 	1331
f 1333 	1334 	1332
f 362 	1172 	357
f 357 	1172 	406
f 1057 	1357 	1058
f 1309 	1058 	1333
f 1332 	1309 	1333
f 37 	460 	397
f 404 	397 	524
f 543 	1309 	1332
f 351 	1172 	362
f 1332 	1309 	1315
f 1330 	1325 	1331
f 1335 	1323 	1330
f 458 	1321 	1336
f 347 	1233 	351
f 1336 	1335 	967
f 1336 	516 	458
f 1338 	1332 	1315
f 1337 	1332 	1338
f 1339 	989 	947
f 442 	439 	1326
f 1337 	1070 	1332
f 1339 	947 	1272
f 332 	442 	1326
f 992 	1340 	993
f 306 	1326 	387
f 312 	655 	1326
f 1341 	1342 	993
f 993 	1342 	994
f 1339 	1343 	989
f 1063 	1314 	1344
f 991 	989 	1343
f 1340 	992 	991
f 406 	1172 	321
f 1343 	1340 	991
f 1340 	1341 	993
f 38 	460 	37
f 40 	460 	38
f 1339 	1272 	1288
f 1272 	1270 	1249
f 1249 	1288 	1272
f 378 	312 	428
f 1340 	1349 	1341
f 434 	428 	312
f 1334 	543 	1332
f 432 	434 	312
f 439 	432 	312
f 1345 	1349 	997
f 995 	1345 	997
f 1346 	1347 	999
f 1346 	999 	998
f 1000 	997 	1348
f 312 	1326 	439
f 997 	1349 	1348
f 998 	1000 	1348
f 1346 	998 	1348
f 1347 	1288 	999
f 950 	1350 	1003
f 1348 	1343 	1346
f 1349 	1340 	1348
f 1346 	1343 	1347
f 1345 	1341 	1349
f 1288 	1347 	1339
f 452 	524 	460
f 399 	1293 	167
f 1350 	1293 	399
f 1005 	1004 	1352
f 351 	524 	452
f 347 	351 	452
f 1005 	1352 	1353
f 1007 	1005 	1353
f 524 	397 	460
f 1004 	1008 	1360
f 1352 	1004 	1360
f 1011 	1362 	1012
f 1010 	1012 	1362
f 1354 	1017 	994
f 1337 	1338 	1333
f 1334 	1333 	1338
f 981 	1015 	1355
f 40 	566 	460
f 543 	460 	566
f 1328 	981 	1355
f 1019 	1017 	1354
f 702 	457 	1049
f 543 	159 	433
f 702 	694 	695
f 176 	1364 	177
f 1050 	177 	1357
f 1342 	1354 	994
f 694 	672 	661
f 543 	1357 	159
f 694 	702 	672
f 1355 	1019 	1354
f 1015 	1019 	1355
f 457 	702 	695
f 457 	695 	1239
f 1342 	1352 	1354
f 1342 	1341 	1345
f 1345 	1353 	1342
f 1353 	1352 	1342
f 1360 	1354 	1352
f 1359 	1362 	1328
f 832 	825 	833
f 1360 	1359 	1355
f 1354 	1360 	1355
f 831 	830 	833
f 471 	297 	570
f 1333 	1358 	1337
f 1357 	1358 	1333
f 1356 	1337 	1358
f 1008 	1359 	1360
f 825 	1351 	833
f 1333 	1058 	1357
f 1359 	1008 	1010
f 1361 	1362 	1011
f 1329 	1361 	1011
f 1356 	1070 	1337
f 1325 	1327 	1331
f 1361 	1329 	1327
f 1362 	1361 	1328
f 1327 	1328 	1361
f 543 	566 	1050
f 1362 	1359 	1010
f 1007 	1353 	1345
f 1357 	1364 	1358
f 1363 	1358 	1364
f 1007 	1345 	995
f 400 	1023 	401
f 1365 	401 	1023
f 1358 	1357 	1338
f 1334 	1338 	1357
f 1350 	1365 	1023
f 1350 	1023 	1003
f 1028 	1027 	44
f 1070 	1062 	1075
f 1028 	44 	43
f 1358 	1338 	1356
f 1029 	1028 	43
f 43 	1030 	1029
f 43 	48 	1030
f 1062 	1211 	1075
f 1366 	1344 	1314
f 1031 	1030 	48
f 1344 	1366 	1367
f 41 	1031 	48
f 1026 	1031 	41
f 1315 	1065 	1368
f 129 	1026 	41
f 16 	44 	1027
f 16 	50 	44
f 1057 	543 	1050
f 1065 	1351 	1368
f 1351 	1075 	1211
f 1075 	1057 	1070
f 1211 	18 	1351
f 1369 	1370 	1358
f 1357 	1358 	1370
f 831 	833 	1351
f 797 	1047 	1112
f 1357 	543 	1334
f 24 	1368 	1351
f 1358 	1363 	1369
f 106 	1351 	18
f 1338 	1315 	1356
f 1371 	1356 	1372
f 1351 	100 	831
f 100 	1351 	106
f 1371 	1070 	1356
f 655 	312 	654
f 387 	1326 	655
f 1368 	1367 	1366
f 1364 	1370 	1363
f 1369 	1363 	1370
f 1370 	1369 	1372
f 1371 	1372 	1369
f 1366 	24 	1368
f 1368 	24 	1315
f 26 	1315 	24
f 26 	1367 	24
f 1368 	24 	1367
f 1344 	1367 	568
f 26 	568 	1367
f 1344 	568 	1211
f 1315 	26 	1314
f 578 	1314 	574
f 1070 	574 	1314
f 1351 	26 	24
f 26 	1351 	631
f 578 	1373 	1314
f 1070 	125 	574
f 568 	552 	1211
f 1364 	1357 	177
f 1373 	1371 	1369
f 1373 	1369 	1370
f 1370 	1364 	1373
f 176 	1373 	1364
f 193 	1373 	176
f 1370 	1372 	1373
f 1373 	193 	125
f 205 	197 	1373
f 1357 	1373 	197
f 1357 	1370 	1373
f 197 	159 	1357
f 1315 	1314 	1373
f 193 	205 	1373
f 578 	193 	1373
f 1372 	1356 	1315
f 1070 	1371 	1373
f 125 	1070 	1373
f 1373 	1372 	1315
f 825 	1014 	631
f 1049 	457 	456
f 403 	702 	1049
f 159 	272 	433
f 447 	177 	1050
f 566 	447 	1050
f 26 	1366 	1314
f 1366 	26 	24
# 2858 faces

 #end of obj_0

