<svg version="1.1" id="Layer_1" xmlns="http://www.w3.org/2000/svg" xmlns:xlink="http://www.w3.org/1999/xlink" x="0px" y="0px"
	 width="100%" viewBox="0 0 512 512" enable-background="new 0 0 512 512" xml:space="preserve">
<path fill="#518FF5" opacity="1.000000" stroke="none" 
	d="
M421.000000,513.000000 
	C311.979095,513.000000 202.958206,513.000000 93.793434,512.729614 
	C92.885788,511.884125 92.192322,511.163483 91.347824,510.755402 
	C77.154434,503.897278 70.925171,492.525085 70.936615,476.866058 
	C71.043701,330.314697 71.039902,183.763184 70.942635,37.211800 
	C70.932144,21.403841 77.179642,9.879764 91.639069,3.047795 
	C92.273582,2.747995 92.554420,1.699659 93.000000,1.000000 
	C162.354233,1.000000 231.708450,1.000000 301.557007,1.342508 
	C302.100250,2.139996 302.149170,2.594976 302.154480,3.512736 
	C302.096375,38.449627 302.058472,72.923752 302.081421,107.397842 
	C302.088440,117.960846 305.737518,127.089951 314.254700,133.528015 
	C318.424225,136.679718 323.479340,138.659836 328.301086,141.438416 
	C343.052155,153.513794 357.645233,165.309280 372.216980,177.131073 
	C390.790344,192.199295 409.301758,207.344376 427.940948,222.330597 
	C432.689301,226.148315 437.819519,229.491074 442.853088,233.511627 
	C442.954559,314.914276 442.908508,395.857513 443.059082,476.800354 
	C443.088470,492.608307 436.814667,504.122284 422.361206,510.952057 
	C421.726593,511.251923 421.445679,512.300293 421.000000,513.000000 
M349.078918,258.088318 
	C305.840027,258.076355 262.601166,258.048157 219.362289,258.059967 
	C200.572403,258.065125 181.782562,258.152618 162.513046,258.176727 
	C162.169830,258.351959 162.054504,258.623871 162.037094,259.922333 
	C162.037094,266.186096 162.037094,272.449860 162.037094,278.749573 
	C225.339691,278.749573 287.992950,278.749573 350.833130,278.749573 
	C350.833130,271.920959 350.833130,265.458374 350.832184,258.515533 
	C350.650665,258.169403 350.377014,258.065125 349.078918,258.088318 
M349.078918,305.088318 
	C305.840027,305.076355 262.601166,305.048126 219.362289,305.059937 
	C200.572403,305.065063 181.782562,305.152618 162.513046,305.176727 
	C162.169830,305.351959 162.054504,305.623871 162.037094,306.922333 
	C162.037094,313.186096 162.037094,319.449860 162.037094,325.749573 
	C225.339691,325.749573 287.992950,325.749573 350.833130,325.749573 
	C350.833130,318.920959 350.833130,312.458374 350.832184,305.515533 
	C350.650665,305.169403 350.377014,305.065125 349.078918,305.088318 
M298.500000,352.115753 
	C253.133728,352.115753 207.767441,352.115753 162.491669,352.115753 
	C162.491669,359.618195 162.491669,366.201904 162.491669,372.821808 
	C225.713638,372.821808 288.558929,372.821808 351.587708,372.821808 
	C351.587708,365.867554 351.587708,359.295990 351.587708,352.115845 
	C334.031982,352.115845 316.765991,352.115845 298.500000,352.115753 
M205.499969,420.202545 
	C235.903793,420.202545 266.307617,420.202545 296.659393,420.202545 
	C296.659393,412.733643 296.659393,406.151428 296.659393,399.461639 
	C251.754303,399.461639 207.190613,399.461639 162.398117,399.461639 
	C162.398117,406.387054 162.398117,412.965546 162.398117,420.202728 
	C176.613937,420.202728 190.556961,420.202728 205.499969,420.202545 
z"/>
<path fill="#94BAF9" opacity="1.000000" stroke="none" 
	d="
M304.625000,0.999999 
	C304.916443,1.396793 304.832886,1.793587 304.546478,2.586772 
	C303.628418,3.005426 302.913269,3.027691 302.198090,3.049955 
	C302.149170,2.594976 302.100250,2.139996 302.025665,1.342508 
	C302.750000,1.000000 303.500000,1.000000 304.625000,0.999999 
z"/>
<path fill="#A6C5FA" opacity="1.000000" stroke="none" 
	d="
M302.154480,3.512735 
	C302.913269,3.027691 303.628418,3.005426 304.702393,2.964936 
	C305.061188,2.946710 305.011047,2.982880 305.142975,3.172825 
	C305.536346,3.565532 305.797760,3.768293 306.059174,3.971060 
	C306.059174,3.971065 305.995087,3.972813 306.122894,4.175060 
	C306.523956,4.579744 306.797211,4.782181 307.070496,4.984613 
	C307.070496,4.984609 307.005768,4.993308 307.129578,5.190019 
	C307.530426,5.583785 307.807434,5.780840 308.084442,5.977896 
	C308.084442,5.977897 308.015503,5.985489 308.141418,6.176499 
	C308.539093,6.572065 308.810852,6.776620 309.082611,6.981174 
	C309.082611,6.981174 309.013214,6.983144 309.133911,7.180429 
	C309.531250,7.577890 309.807922,7.778069 310.084564,7.978246 
	C310.084564,7.978244 310.015533,7.985554 310.141418,8.176530 
	C310.539093,8.572059 310.810852,8.776611 311.082611,8.981168 
	C311.082611,8.981172 311.013214,8.983145 311.133911,9.180427 
	C311.531250,9.577887 311.807922,9.778065 312.084564,9.978245 
	C312.084564,9.978246 312.015533,9.985555 312.141418,10.176527 
	C312.539093,10.572055 312.810852,10.776609 313.082611,10.981169 
	C313.082611,10.981174 313.013275,10.983175 313.131958,11.180295 
	C313.523926,11.579813 313.797180,11.782210 314.070435,11.984608 
	C314.070435,11.984608 314.005829,11.993385 314.127686,12.189987 
	C314.523132,12.585823 314.796722,12.785059 315.070312,12.984295 
	C315.070312,12.984295 315.005798,12.993321 315.127686,13.189955 
	C315.523132,13.585822 315.796692,13.785057 316.070282,13.984293 
	C316.070282,13.984293 316.005676,13.993235 316.129547,14.190004 
	C316.530426,14.583819 316.807434,14.780864 317.084442,14.977901 
	C317.084442,14.977896 317.015503,14.985489 317.141418,15.176500 
	C317.539093,15.572066 317.810852,15.776621 318.082611,15.981174 
	C318.082611,15.981174 318.013275,15.983175 318.131958,16.180298 
	C318.523926,16.579819 318.797180,16.782217 319.070435,16.984613 
	C319.070435,16.984612 319.005707,16.993319 319.129578,17.190041 
	C319.530426,17.583807 319.807434,17.780851 320.084442,17.977896 
	C320.084442,17.977896 320.015503,17.985487 320.141418,18.176506 
	C320.539093,18.572071 320.810852,18.776619 321.082611,18.981169 
	C321.082611,18.981173 321.013275,18.983175 321.131958,19.180298 
	C321.523926,19.579819 321.797180,19.782219 322.070435,19.984615 
	C322.070435,19.984612 322.005707,19.993319 322.129578,20.190046 
	C322.530426,20.583818 322.807434,20.780863 323.084442,20.977901 
	C323.084442,20.977896 323.015503,20.985487 323.141418,21.176510 
	C323.539062,21.572081 323.810852,21.776628 324.082611,21.981174 
	C324.082611,21.981173 324.013275,21.983175 324.131958,22.180298 
	C324.523926,22.579821 324.797180,22.782219 325.070435,22.984615 
	C325.070435,22.984612 325.005707,22.993319 325.129578,23.190041 
	C325.530426,23.583803 325.807434,23.780848 326.084442,23.977894 
	C326.084442,23.977896 326.015503,23.985487 326.141418,24.176510 
	C326.539062,24.572079 326.810852,24.776625 327.082611,24.981173 
	C327.082611,24.981173 327.013275,24.983175 327.131958,25.180298 
	C327.523926,25.579823 327.797180,25.782221 328.070435,25.984615 
	C328.070435,25.984612 328.005707,25.993319 328.129578,26.190039 
	C328.530426,26.583803 328.807434,26.780846 329.084442,26.977894 
	C329.084442,26.977896 329.015503,26.985487 329.141418,27.176508 
	C329.539062,27.572075 329.810852,27.776623 330.082611,27.981171 
	C330.082611,27.981173 330.013275,27.983175 330.131958,28.180294 
	C330.523926,28.579811 330.797180,28.782209 331.070435,28.984612 
	C331.070435,28.984612 331.005707,28.993319 331.129578,29.190044 
	C331.530426,29.583813 331.807434,29.780857 332.084442,29.977898 
	C332.084442,29.977896 332.015533,29.985464 332.141418,30.176495 
	C332.539062,30.572073 332.810852,30.776621 333.082611,30.981171 
	C333.082611,30.981173 333.013275,30.983175 333.131958,31.180294 
	C333.523926,31.579813 333.797180,31.782211 334.070435,31.984612 
	C334.070435,31.984612 334.005829,31.993385 334.127686,32.189995 
	C334.523132,32.585835 334.796722,32.785065 335.070312,32.984299 
	C335.070312,32.984299 335.005798,32.993320 335.127686,33.189957 
	C335.523132,33.585831 335.796722,33.785065 336.070312,33.984299 
	C336.070312,33.984299 336.005798,33.993320 336.127686,34.189957 
	C336.523132,34.585831 336.796722,34.785069 337.070312,34.984299 
	C337.070312,34.984299 337.005798,34.993320 337.127686,35.189957 
	C337.523132,35.585835 337.796722,35.785069 338.070312,35.984299 
	C338.070312,35.984299 338.005798,35.993320 338.127686,36.189960 
	C338.523132,36.585835 338.796722,36.785069 339.070312,36.984303 
	C339.070312,36.984299 339.005798,36.993320 339.127686,37.189957 
	C339.523132,37.585823 339.796722,37.785061 340.070312,37.984299 
	C340.070312,37.984299 340.005798,37.993320 340.127686,38.189957 
	C340.523132,38.585827 340.796722,38.785061 341.070312,38.984299 
	C341.070312,38.984299 341.005798,38.993320 341.127686,39.189957 
	C341.523132,39.585827 341.796722,39.785061 342.070312,39.984299 
	C342.070312,39.984299 342.005798,39.993320 342.127686,40.189957 
	C342.523132,40.585827 342.796722,40.785065 343.070312,40.984299 
	C343.070312,40.984299 343.005798,40.993320 343.127686,41.189957 
	C343.523132,41.585831 343.796722,41.785065 344.070312,41.984299 
	C344.070312,41.984299 344.005798,41.993320 344.127686,42.189957 
	C344.523132,42.585831 344.796722,42.785065 345.070312,42.984299 
	C345.070312,42.984299 345.005798,42.993320 345.127686,43.189957 
	C345.523132,43.585831 345.796722,43.785069 346.070312,43.984299 
	C346.070312,43.984299 346.005798,43.993320 346.127686,44.189953 
	C346.523132,44.585823 346.796722,44.785057 347.070312,44.984295 
	C347.070312,44.984299 347.005798,44.993320 347.127686,45.189957 
	C347.523132,45.585823 347.796722,45.785057 348.070312,45.984299 
	C348.070312,45.984299 348.005798,45.993320 348.127686,46.189957 
	C348.523132,46.585823 348.796722,46.785061 349.070312,46.984299 
	C349.070312,46.984299 349.005798,46.993320 349.127686,47.189957 
	C349.523132,47.585827 349.796722,47.785061 350.070312,47.984299 
	C350.070312,47.984299 350.005798,47.993320 350.127686,48.189957 
	C350.523132,48.585827 350.796722,48.785061 351.070312,48.984299 
	C351.070312,48.984299 351.005798,48.993320 351.127686,49.189957 
	C351.523132,49.585831 351.796722,49.785065 352.070312,49.984299 
	C352.070312,49.984299 352.005798,49.993320 352.127686,50.189957 
	C352.523132,50.585831 352.796722,50.785065 353.070312,50.984299 
	C353.070312,50.984299 353.005798,50.993320 353.127686,51.189957 
	C353.523132,51.585831 353.796722,51.785069 354.070312,51.984299 
	C354.070312,51.984299 354.005798,51.993320 354.127686,52.189957 
	C354.523132,52.585835 354.796722,52.785069 355.070312,52.984299 
	C355.070312,52.984299 355.005798,52.993320 355.127686,53.189953 
	C355.523132,53.585823 355.796722,53.785057 356.070312,53.984295 
	C356.070312,53.984299 356.005798,53.993320 356.127686,54.189960 
	C356.523132,54.585835 356.796722,54.785072 357.070312,54.984303 
	C357.070312,54.984299 357.005798,54.993320 357.127686,55.189960 
	C357.523132,55.585838 357.796722,55.785072 358.070312,55.984303 
	C358.070312,55.984299 358.005798,55.993320 358.127686,56.189957 
	C358.523132,56.585827 358.796722,56.785061 359.070312,56.984299 
	C359.070312,56.984299 359.005798,56.993320 359.127686,57.189957 
	C359.523132,57.585827 359.796722,57.785065 360.070312,57.984299 
	C360.070312,57.984299 360.005798,57.993320 360.127686,58.189957 
	C360.523132,58.585831 360.796722,58.785065 361.070312,58.984299 
	C361.070312,58.984299 361.005798,58.993320 361.127686,59.189957 
	C361.523132,59.585831 361.796722,59.785065 362.070312,59.984299 
	C362.070312,59.984299 362.005798,59.993320 362.127686,60.189953 
	C362.523132,60.585819 362.796722,60.785057 363.070312,60.984295 
	C363.070312,60.984299 363.005798,60.993320 363.127686,61.189953 
	C363.523132,61.585823 363.796722,61.785057 364.070312,61.984295 
	C364.070312,61.984299 364.005798,61.993320 364.127686,62.189960 
	C364.523132,62.585835 364.796722,62.785072 365.070312,62.984303 
	C365.070312,62.984299 365.005798,62.993320 365.127686,63.189957 
	C365.523132,63.585823 365.796722,63.785061 366.070312,63.984299 
	C366.070312,63.984299 366.005798,63.993320 366.127655,64.189964 
	C366.523102,64.585831 366.796692,64.785057 367.070282,64.984291 
	C367.070282,64.984291 367.005798,64.993301 367.127655,65.189957 
	C367.523102,65.585838 367.796692,65.785065 368.070282,65.984291 
	C368.070282,65.984283 368.005798,65.993309 368.127655,66.189957 
	C368.523102,66.585823 368.796692,66.785049 369.070282,66.984283 
	C369.070282,66.984283 369.005798,66.993309 369.127655,67.189949 
	C369.523102,67.585815 369.796692,67.785049 370.070282,67.984283 
	C370.070282,67.984283 370.005798,67.993309 370.127655,68.189957 
	C370.523102,68.585831 370.796692,68.785057 371.070282,68.984283 
	C371.070282,68.984283 371.005798,68.993309 371.127655,69.189957 
	C371.523102,69.585823 371.796692,69.785049 372.070282,69.984283 
	C372.070282,69.984283 372.005798,69.993309 372.127655,70.189949 
	C372.523102,70.585823 372.796692,70.785049 373.070282,70.984283 
	C373.070282,70.984283 373.005798,70.993309 373.127655,71.189957 
	C373.523102,71.585831 373.796692,71.785057 374.070282,71.984283 
	C374.070282,71.984283 374.005798,71.993309 374.127655,72.189957 
	C374.523102,72.585823 374.796692,72.785057 375.070282,72.984283 
	C375.070282,72.984283 375.005798,72.993309 375.127655,73.189957 
	C375.523102,73.585838 375.796692,73.785065 376.070282,73.984283 
	C376.070282,73.984283 376.005798,73.993309 376.127655,74.189949 
	C376.523102,74.585823 376.796692,74.785049 377.070282,74.984283 
	C377.070282,74.984283 377.005798,74.993309 377.127655,75.189949 
	C377.523102,75.585815 377.796692,75.785042 378.070282,75.984283 
	C378.070282,75.984283 378.005798,75.993309 378.127655,76.189957 
	C378.523102,76.585823 378.796692,76.785057 379.070282,76.984283 
	C379.070282,76.984283 379.005798,76.993309 379.127655,77.189957 
	C379.523102,77.585823 379.796692,77.785049 380.070282,77.984283 
	C380.070282,77.984283 380.005798,77.993309 380.127655,78.189949 
	C380.523102,78.585815 380.796692,78.785049 381.070282,78.984283 
	C381.070282,78.984283 381.005798,78.993309 381.127655,79.189957 
	C381.523102,79.585831 381.796692,79.785057 382.070282,79.984283 
	C382.070282,79.984283 382.005798,79.993309 382.127655,80.189957 
	C382.523102,80.585823 382.796692,80.785057 383.070282,80.984283 
	C383.070282,80.984283 383.005798,80.993309 383.127655,81.189957 
	C383.523102,81.585831 383.796692,81.785065 384.070282,81.984283 
	C384.070282,81.984283 384.005798,81.993309 384.127655,82.189949 
	C384.523102,82.585815 384.796692,82.785049 385.070282,82.984283 
	C385.070282,82.984283 385.005798,82.993309 385.127655,83.189957 
	C385.523102,83.585831 385.796692,83.785057 386.070282,83.984283 
	C386.070282,83.984283 386.005798,83.993309 386.127655,84.189957 
	C386.523102,84.585838 386.796692,84.785065 387.070282,84.984283 
	C387.070282,84.984283 387.005798,84.993309 387.127655,85.189949 
	C387.523102,85.585823 387.796692,85.785049 388.070282,85.984283 
	C388.070282,85.984283 388.005798,85.993309 388.127655,86.189949 
	C388.523102,86.585815 388.796692,86.785049 389.070282,86.984283 
	C389.070282,86.984283 389.005798,86.993309 389.127655,87.189957 
	C389.523102,87.585823 389.796692,87.785057 390.070282,87.984283 
	C390.070282,87.984283 390.005798,87.993309 390.127655,88.189957 
	C390.523102,88.585823 390.796692,88.785049 391.070282,88.984283 
	C391.070282,88.984283 391.005798,88.993309 391.127655,89.189957 
	C391.523102,89.585831 391.796692,89.785057 392.070282,89.984283 
	C392.070282,89.984283 392.005798,89.993309 392.127655,90.189957 
	C392.523102,90.585831 392.796692,90.785057 393.070282,90.984283 
	C393.070282,90.984283 393.005798,90.993309 393.127655,91.189957 
	C393.523102,91.585823 393.796692,91.785057 394.070282,91.984283 
	C394.070282,91.984283 394.005798,91.993309 394.127655,92.189957 
	C394.523102,92.585831 394.796692,92.785065 395.070282,92.984283 
	C395.070282,92.984283 395.005798,92.993309 395.127655,93.189949 
	C395.523102,93.585815 395.796692,93.785049 396.070282,93.984283 
	C396.070282,93.984283 396.005798,93.993309 396.127655,94.189957 
	C396.523102,94.585831 396.796692,94.785057 397.070282,94.984283 
	C397.070282,94.984283 397.005798,94.993309 397.127655,95.189957 
	C397.523102,95.585823 397.796692,95.785049 398.070282,95.984283 
	C398.070282,95.984283 398.005798,95.993309 398.127655,96.189949 
	C398.523102,96.585823 398.796692,96.785049 399.070282,96.984283 
	C399.070282,96.984283 399.005798,96.993309 399.127655,97.189957 
	C399.523102,97.585831 399.796692,97.785057 400.070282,97.984283 
	C400.070282,97.984283 400.005798,97.993309 400.127655,98.189957 
	C400.523102,98.585823 400.796692,98.785057 401.070282,98.984283 
	C401.070282,98.984283 401.005798,98.993309 401.127655,99.189957 
	C401.523102,99.585823 401.796692,99.785049 402.070282,99.984283 
	C402.070282,99.984283 402.005798,99.993309 402.127655,100.189957 
	C402.523102,100.585831 402.796692,100.785065 403.070282,100.984283 
	C403.070282,100.984283 403.005798,100.993309 403.127655,101.189949 
	C403.523102,101.585815 403.796692,101.785042 404.070282,101.984283 
	C404.070282,101.984283 404.005798,101.993309 404.127655,102.189957 
	C404.523102,102.585823 404.796692,102.785057 405.070282,102.984283 
	C405.070282,102.984283 405.005798,102.993309 405.127655,103.189957 
	C405.523102,103.585838 405.796692,103.785065 406.070282,103.984283 
	C406.070282,103.984283 406.005798,103.993332 406.127655,104.189972 
	C406.523071,104.585838 406.796661,104.785065 407.070221,104.984291 
	C407.070221,104.984291 407.005768,104.993355 407.127625,105.190010 
	C407.523010,105.585876 407.796539,105.785088 408.070099,105.984299 
	C408.070099,105.984299 408.005707,105.993423 408.127533,106.190109 
	C408.522888,106.585968 408.796448,106.785133 409.069977,106.984299 
	C409.069977,106.984299 409.005676,106.993500 409.125732,107.189499 
	C409.516663,107.584953 409.787506,107.784416 410.058350,107.983871 
	C410.058350,107.983871 410.000214,107.997185 410.119293,108.198654 
	C410.512115,108.594437 410.785858,108.788757 411.059601,108.983078 
	C411.059601,108.983070 411.002289,108.999252 411.126709,109.196884 
	C411.523987,109.591026 411.796875,109.787544 412.069763,109.984070 
	C412.069763,109.984070 412.005615,109.993561 412.125671,110.189621 
	C412.516571,110.585068 412.787415,110.784470 413.058289,110.983864 
	C413.058289,110.983864 413.000214,110.997238 413.119293,111.198708 
	C413.512115,111.594475 413.785828,111.788780 414.059570,111.983078 
	C414.059570,111.983078 414.002289,111.999252 414.126709,112.196899 
	C414.523987,112.591049 414.796875,112.787560 415.069763,112.984070 
	C415.069763,112.984070 415.005615,112.993546 415.125671,113.189606 
	C415.516602,113.585052 415.787476,113.784454 416.058350,113.983856 
	C416.058350,113.983856 416.000214,113.997185 416.119354,114.198654 
	C416.512268,114.594452 416.786041,114.788780 417.059814,114.983101 
	C417.059814,114.983101 417.002350,114.999222 417.126831,115.196777 
	C417.524200,115.590904 417.797150,115.787483 418.070068,115.984055 
	C418.070068,115.984062 418.005737,115.993378 418.127594,116.190079 
	C418.523041,116.585945 418.796631,116.785118 419.070221,116.984283 
	C419.070221,116.984291 419.005798,116.993340 419.127655,117.190002 
	C419.523102,117.585876 419.796692,117.785088 420.070282,117.984283 
	C420.070282,117.984283 420.005798,117.993332 420.127686,118.189972 
	C420.523132,118.585831 420.796692,118.785057 421.070282,118.984283 
	C421.070282,118.984283 421.005798,118.993332 421.127655,119.189972 
	C421.523071,119.585838 421.796661,119.785065 422.070221,119.984291 
	C422.070221,119.984291 422.005768,119.993355 422.127625,120.190010 
	C422.523010,120.585876 422.796539,120.785088 423.070099,120.984299 
	C423.070099,120.984299 423.005707,120.993423 423.127533,121.190109 
	C423.522888,121.585968 423.796448,121.785133 424.069977,121.984299 
	C424.069977,121.984299 424.005676,121.993500 424.125732,122.189491 
	C424.516663,122.584946 424.787506,122.784401 425.058350,122.983871 
	C425.058350,122.983871 425.000214,122.997185 425.119293,123.198654 
	C425.512115,123.594437 425.785858,123.788757 426.059601,123.983078 
	C426.059601,123.983070 426.002289,123.999252 426.126709,124.196877 
	C426.523987,124.591026 426.796875,124.787544 427.069763,124.984070 
	C427.069763,124.984070 427.005615,124.993561 427.125671,125.189621 
	C427.516571,125.585068 427.787415,125.784462 428.058289,125.983864 
	C428.058289,125.983864 428.000214,125.997238 428.119293,126.198700 
	C428.512085,126.594467 428.785828,126.788765 429.059540,126.983063 
	C429.059540,126.983070 429.002258,126.999245 429.126648,127.196899 
	C429.523926,127.591064 429.796814,127.787567 430.069702,127.984070 
	C430.069702,127.984077 430.005585,127.993607 430.125610,128.189667 
	C430.516449,128.585098 430.787292,128.784470 431.058105,128.983841 
	C431.058105,128.983841 431.000153,128.997253 431.119202,129.198792 
	C431.511932,129.594589 431.785645,129.788818 432.059326,129.983063 
	C432.059326,129.983063 432.002258,129.999313 432.124817,130.196365 
	C432.517578,130.590164 432.787720,130.786896 433.057892,130.983643 
	C433.057892,130.983643 433.000122,130.997238 433.119141,131.198853 
	C433.511871,131.594650 433.785583,131.788849 434.059265,131.983063 
	C434.059265,131.983063 434.002258,131.999344 434.124847,132.196411 
	C434.517578,132.590179 434.787720,132.786911 435.057861,132.983627 
	C435.057861,132.983627 435.000092,132.997238 435.119141,133.198853 
	C435.511841,133.594666 435.785553,133.788864 436.059235,133.983047 
	C436.059235,133.983047 436.002228,133.999329 436.124786,134.196411 
	C436.517487,134.590195 436.787628,134.786911 437.057770,134.983612 
	C437.057770,134.983612 437.000122,134.997269 437.119080,135.198914 
	C437.511688,135.594711 437.785339,135.788879 438.058990,135.983032 
	C438.058990,135.983032 438.002136,135.999390 438.124664,136.196533 
	C438.517242,136.590302 438.787323,136.786926 439.057373,136.983566 
	C439.057373,136.983566 439.001007,136.998260 439.083923,137.195084 
	C439.325287,137.670959 439.538177,137.899216 439.805511,138.076645 
	C440.471802,138.822403 441.138092,139.568161 441.448486,140.665237 
	C435.594696,141.041046 430.096802,141.081833 424.598846,141.087326 
	C392.443787,141.119537 360.288696,141.143478 328.133636,141.170197 
	C323.479340,138.659836 318.424225,136.679718 314.254700,133.528015 
	C305.737518,127.089951 302.088440,117.960846 302.081421,107.397842 
	C302.058472,72.923752 302.096375,38.449627 302.154480,3.512735 
z"/>
<path fill="#4274C7" opacity="1.000000" stroke="none" 
	d="
M328.301086,141.438416 
	C360.288696,141.143478 392.443787,141.119537 424.598846,141.087326 
	C430.096802,141.081833 435.594696,141.041046 441.556824,140.948227 
	C442.349731,142.238464 442.963318,143.596619 442.965271,144.955643 
	C443.006897,174.012100 442.979950,203.068665 442.870300,232.588623 
	C437.819519,229.491074 432.689301,226.148315 427.940948,222.330597 
	C409.301758,207.344376 390.790344,192.199295 372.216980,177.131073 
	C357.645233,165.309280 343.052155,153.513794 328.301086,141.438416 
z"/>
<path fill="#FFFFFF" opacity="1.000000" stroke="none" 
	d="
M299.000000,352.115784 
	C316.765991,352.115845 334.031982,352.115845 351.587708,352.115845 
	C351.587708,359.295990 351.587708,365.867554 351.587708,372.821808 
	C288.558929,372.821808 225.713638,372.821808 162.491669,372.821808 
	C162.491669,366.201904 162.491669,359.618195 162.491669,352.115753 
	C207.767441,352.115753 253.133728,352.115753 299.000000,352.115784 
z"/>
<path fill="#FFFFFF" opacity="1.000000" stroke="none" 
	d="
M162.992691,305.202698 
	C181.782562,305.152618 200.572403,305.065063 219.362289,305.059937 
	C262.601166,305.048126 305.840027,305.076355 349.658356,305.300781 
	C350.409882,305.706635 350.608307,305.867493 350.833130,305.995789 
	C350.833130,312.458374 350.833130,318.920959 350.833130,325.749573 
	C287.992950,325.749573 225.339691,325.749573 162.037094,325.749573 
	C162.037094,319.449860 162.037094,313.186096 162.261353,306.349609 
	C162.688751,305.615631 162.857788,305.424225 162.992691,305.202698 
z"/>
<path fill="#FFFFFF" opacity="1.000000" stroke="none" 
	d="
M350.833130,258.995789 
	C350.833130,265.458374 350.833130,271.920959 350.833130,278.749573 
	C287.992950,278.749573 225.339691,278.749573 162.037094,278.749573 
	C162.037094,272.449860 162.037094,266.186096 162.261353,259.349609 
	C162.688751,258.615631 162.857788,258.424225 162.992691,258.202698 
	C181.782562,258.152618 200.572403,258.065125 219.362289,258.059967 
	C262.601166,258.048157 305.840027,258.076355 349.658356,258.300781 
	C350.409882,258.706635 350.608307,258.867493 350.833130,258.995789 
z"/>
<path fill="#FFFFFF" opacity="1.000000" stroke="none" 
	d="
M204.999969,420.202637 
	C190.556961,420.202728 176.613937,420.202728 162.398117,420.202728 
	C162.398117,412.965546 162.398117,406.387054 162.398117,399.461639 
	C207.190613,399.461639 251.754303,399.461639 296.659393,399.461639 
	C296.659393,406.151428 296.659393,412.733643 296.659393,420.202545 
	C266.307617,420.202545 235.903793,420.202545 204.999969,420.202637 
z"/>
<path fill="#EEF4FE" opacity="1.000000" stroke="none" 
	d="
M162.752869,258.189697 
	C162.857788,258.424225 162.688751,258.615631 162.326324,258.884644 
	C162.054504,258.623871 162.169830,258.351959 162.752869,258.189697 
z"/>
<path fill="#EEF4FE" opacity="1.000000" stroke="none" 
	d="
M350.832642,258.755676 
	C350.608307,258.867493 350.409882,258.706635 350.124512,258.357971 
	C350.377014,258.065125 350.650665,258.169403 350.832642,258.755676 
z"/>
<path fill="#EEF4FE" opacity="1.000000" stroke="none" 
	d="
M162.752869,305.189697 
	C162.857788,305.424225 162.688751,305.615631 162.326324,305.884644 
	C162.054504,305.623871 162.169830,305.351959 162.752869,305.189697 
z"/>
<path fill="#EEF4FE" opacity="1.000000" stroke="none" 
	d="
M350.832642,305.755676 
	C350.608307,305.867493 350.409882,305.706635 350.124512,305.357971 
	C350.377014,305.065125 350.650665,305.169403 350.832642,305.755676 
z"/>
<path fill="#89AFFC" opacity="1.000000" stroke="none" 
	d="
M397.997742,95.721764 
	C397.796692,95.785049 397.523102,95.585823 397.132141,95.157707 
	C397.318268,95.105629 397.621735,95.282433 397.997742,95.721764 
z"/>
<path fill="#89AFFC" opacity="1.000000" stroke="none" 
	d="
M413.988495,111.723145 
	C413.785828,111.788780 413.512115,111.594475 413.127319,111.169998 
	C413.316650,111.114281 413.617035,111.288742 413.988495,111.723145 
z"/>
<path fill="#89AFFC" opacity="1.000000" stroke="none" 
	d="
M398.997742,96.721756 
	C398.796692,96.785049 398.523102,96.585823 398.132141,96.157700 
	C398.318268,96.105629 398.621735,96.282433 398.997742,96.721756 
z"/>
<path fill="#89AFFC" opacity="1.000000" stroke="none" 
	d="
M399.997742,97.721771 
	C399.796692,97.785057 399.523102,97.585831 399.132141,97.157715 
	C399.318268,97.105644 399.621735,97.282448 399.997742,97.721771 
z"/>
<path fill="#89AFFC" opacity="1.000000" stroke="none" 
	d="
M400.997742,98.721771 
	C400.796692,98.785057 400.523102,98.585823 400.132141,98.157715 
	C400.318268,98.105637 400.621735,98.282448 400.997742,98.721771 
z"/>
<path fill="#89AFFC" opacity="1.000000" stroke="none" 
	d="
M401.997742,99.721771 
	C401.796692,99.785049 401.523102,99.585823 401.132141,99.157715 
	C401.318268,99.105637 401.621735,99.282448 401.997742,99.721771 
z"/>
<path fill="#89AFFC" opacity="1.000000" stroke="none" 
	d="
M402.997742,100.721771 
	C402.796692,100.785065 402.523102,100.585831 402.132141,100.157715 
	C402.318268,100.105637 402.621735,100.282448 402.997742,100.721771 
z"/>
<path fill="#89AFFC" opacity="1.000000" stroke="none" 
	d="
M403.997742,101.721771 
	C403.796692,101.785042 403.523102,101.585815 403.132141,101.157715 
	C403.318268,101.105637 403.621735,101.282448 403.997742,101.721771 
z"/>
<path fill="#89AFFC" opacity="1.000000" stroke="none" 
	d="
M404.997742,102.721771 
	C404.796692,102.785057 404.523102,102.585823 404.132141,102.157715 
	C404.318268,102.105637 404.621735,102.282448 404.997742,102.721771 
z"/>
<path fill="#89AFFC" opacity="1.000000" stroke="none" 
	d="
M405.997742,103.721771 
	C405.796692,103.785065 405.523102,103.585838 405.132141,103.157715 
	C405.318268,103.105637 405.621735,103.282440 405.997742,103.721771 
z"/>
<path fill="#89AFFC" opacity="1.000000" stroke="none" 
	d="
M406.997711,104.721756 
	C406.796661,104.785065 406.523071,104.585838 406.132141,104.157730 
	C406.318268,104.105637 406.621735,104.282433 406.997711,104.721756 
z"/>
<path fill="#89AFFC" opacity="1.000000" stroke="none" 
	d="
M407.997650,105.721771 
	C407.796539,105.785088 407.523010,105.585876 407.132141,105.157784 
	C407.318268,105.105682 407.621735,105.282463 407.997650,105.721771 
z"/>
<path fill="#89AFFC" opacity="1.000000" stroke="none" 
	d="
M408.997559,106.721771 
	C408.796448,106.785133 408.522888,106.585968 408.132080,106.157913 
	C408.318237,106.105774 408.621704,106.282501 408.997559,106.721771 
z"/>
<path fill="#89AFFC" opacity="1.000000" stroke="none" 
	d="
M409.990692,107.720825 
	C409.787506,107.784416 409.516663,107.584953 409.130371,107.157349 
	C409.317627,107.105400 409.620331,107.281586 409.990692,107.720825 
z"/>
<path fill="#89AFFC" opacity="1.000000" stroke="none" 
	d="
M410.988525,108.723129 
	C410.785858,108.788757 410.512115,108.594437 410.127319,108.169922 
	C410.316650,108.114220 410.617035,108.288704 410.988525,108.723129 
z"/>
<path fill="#89AFFC" opacity="1.000000" stroke="none" 
	d="
M411.997772,109.722168 
	C411.796875,109.787544 411.523987,109.591026 411.133240,109.167816 
	C411.318817,109.114182 411.622314,109.287224 411.997772,109.722168 
z"/>
<path fill="#89AFFC" opacity="1.000000" stroke="none" 
	d="
M412.990662,110.720818 
	C412.787415,110.784470 412.516571,110.585068 412.130310,110.157532 
	C412.317596,110.105515 412.620331,110.281639 412.990662,110.720818 
z"/>
<path fill="#89AFFC" opacity="1.000000" stroke="none" 
	d="
M380.997742,78.721764 
	C380.796692,78.785049 380.523102,78.585815 380.132141,78.157707 
	C380.318268,78.105629 380.621735,78.282440 380.997742,78.721764 
z"/>
<path fill="#89AFFC" opacity="1.000000" stroke="none" 
	d="
M388.997742,86.721764 
	C388.796692,86.785049 388.523102,86.585815 388.132141,86.157707 
	C388.318268,86.105637 388.621735,86.282448 388.997742,86.721764 
z"/>
<path fill="#89AFFC" opacity="1.000000" stroke="none" 
	d="
M379.997742,77.721771 
	C379.796692,77.785049 379.523102,77.585823 379.132141,77.157715 
	C379.318268,77.105629 379.621735,77.282440 379.997742,77.721771 
z"/>
<path fill="#89AFFC" opacity="1.000000" stroke="none" 
	d="
M381.997742,79.721771 
	C381.796692,79.785057 381.523102,79.585831 381.132141,79.157715 
	C381.318268,79.105644 381.621735,79.282455 381.997742,79.721771 
z"/>
<path fill="#89AFFC" opacity="1.000000" stroke="none" 
	d="
M382.997742,80.721771 
	C382.796692,80.785057 382.523102,80.585823 382.132141,80.157715 
	C382.318268,80.105637 382.621735,80.282448 382.997742,80.721771 
z"/>
<path fill="#89AFFC" opacity="1.000000" stroke="none" 
	d="
M383.997742,81.721771 
	C383.796692,81.785065 383.523102,81.585831 383.132141,81.157715 
	C383.318268,81.105637 383.621735,81.282448 383.997742,81.721771 
z"/>
<path fill="#89AFFC" opacity="1.000000" stroke="none" 
	d="
M384.997742,82.721764 
	C384.796692,82.785049 384.523102,82.585815 384.132141,82.157707 
	C384.318268,82.105637 384.621735,82.282448 384.997742,82.721764 
z"/>
<path fill="#89AFFC" opacity="1.000000" stroke="none" 
	d="
M385.997742,83.721771 
	C385.796692,83.785057 385.523102,83.585831 385.132141,83.157715 
	C385.318268,83.105637 385.621735,83.282448 385.997742,83.721771 
z"/>
<path fill="#89AFFC" opacity="1.000000" stroke="none" 
	d="
M386.997742,84.721771 
	C386.796692,84.785065 386.523102,84.585838 386.132141,84.157715 
	C386.318268,84.105637 386.621735,84.282448 386.997742,84.721771 
z"/>
<path fill="#89AFFC" opacity="1.000000" stroke="none" 
	d="
M387.997742,85.721764 
	C387.796692,85.785049 387.523102,85.585823 387.132141,85.157707 
	C387.318268,85.105637 387.621735,85.282448 387.997742,85.721764 
z"/>
<path fill="#89AFFC" opacity="1.000000" stroke="none" 
	d="
M396.997742,94.721764 
	C396.796692,94.785057 396.523102,94.585831 396.132141,94.157707 
	C396.318268,94.105629 396.621735,94.282440 396.997742,94.721764 
z"/>
<path fill="#89AFFC" opacity="1.000000" stroke="none" 
	d="
M389.997742,87.721771 
	C389.796692,87.785057 389.523102,87.585823 389.132141,87.157715 
	C389.318268,87.105637 389.621735,87.282448 389.997742,87.721771 
z"/>
<path fill="#89AFFC" opacity="1.000000" stroke="none" 
	d="
M390.997742,88.721771 
	C390.796692,88.785049 390.523102,88.585823 390.132141,88.157715 
	C390.318268,88.105637 390.621735,88.282448 390.997742,88.721771 
z"/>
<path fill="#89AFFC" opacity="1.000000" stroke="none" 
	d="
M391.997742,89.721771 
	C391.796692,89.785057 391.523102,89.585831 391.132141,89.157715 
	C391.318268,89.105637 391.621735,89.282440 391.997742,89.721771 
z"/>
<path fill="#89AFFC" opacity="1.000000" stroke="none" 
	d="
M392.997742,90.721771 
	C392.796692,90.785057 392.523102,90.585831 392.132141,90.157715 
	C392.318268,90.105637 392.621735,90.282440 392.997742,90.721771 
z"/>
<path fill="#89AFFC" opacity="1.000000" stroke="none" 
	d="
M393.997742,91.721771 
	C393.796692,91.785057 393.523102,91.585823 393.132141,91.157715 
	C393.318268,91.105637 393.621735,91.282440 393.997742,91.721771 
z"/>
<path fill="#89AFFC" opacity="1.000000" stroke="none" 
	d="
M394.997742,92.721771 
	C394.796692,92.785065 394.523102,92.585831 394.132141,92.157715 
	C394.318268,92.105629 394.621735,92.282440 394.997742,92.721771 
z"/>
<path fill="#89AFFC" opacity="1.000000" stroke="none" 
	d="
M395.997742,93.721756 
	C395.796692,93.785049 395.523102,93.585815 395.132141,93.157700 
	C395.318268,93.105629 395.621735,93.282440 395.997742,93.721756 
z"/>
<path fill="#89AFFC" opacity="1.000000" stroke="none" 
	d="
M309.010590,6.715431 
	C308.810852,6.776620 308.539093,6.572065 308.142365,6.141841 
	C308.324463,6.094011 308.631500,6.271850 309.010590,6.715431 
z"/>
<path fill="#89AFFC" opacity="1.000000" stroke="none" 
	d="
M432.990784,130.721222 
	C432.787720,130.786896 432.517578,130.590164 432.131531,130.167450 
	C432.318298,130.113922 432.621002,130.286377 432.990784,130.721222 
z"/>
<path fill="#89AFFC" opacity="1.000000" stroke="none" 
	d="
M433.988312,131.723114 
	C433.785583,131.788849 433.511871,131.594650 433.127228,131.170288 
	C433.316620,131.114471 433.617004,131.288818 433.988312,131.723114 
z"/>
<path fill="#89AFFC" opacity="1.000000" stroke="none" 
	d="
M434.990784,132.721222 
	C434.787720,132.786911 434.517578,132.590179 434.131531,132.167511 
	C434.318329,132.113983 434.621002,132.286392 434.990784,132.721222 
z"/>
<path fill="#89AFFC" opacity="1.000000" stroke="none" 
	d="
M435.988281,133.723114 
	C435.785553,133.788864 435.511841,133.594666 435.127197,133.170288 
	C435.316620,133.114471 435.617004,133.288818 435.988281,133.723114 
z"/>
<path fill="#89AFFC" opacity="1.000000" stroke="none" 
	d="
M436.990723,134.721222 
	C436.787628,134.786911 436.517487,134.590195 436.131500,134.167542 
	C436.318329,134.113983 436.620972,134.286407 436.990723,134.721222 
z"/>
<path fill="#89AFFC" opacity="1.000000" stroke="none" 
	d="
M437.988159,135.723083 
	C437.785339,135.788879 437.511688,135.594711 437.127167,135.170410 
	C437.316650,135.114548 437.616974,135.288849 437.988159,135.723083 
z"/>
<path fill="#89AFFC" opacity="1.000000" stroke="none" 
	d="
M438.990479,136.721161 
	C438.787323,136.786926 438.517242,136.590302 438.131439,136.167725 
	C438.318298,136.114105 438.620941,136.286438 438.990479,136.721161 
z"/>
<path fill="#89AFFC" opacity="1.000000" stroke="none" 
	d="
M439.858154,137.803101 
	C439.538177,137.899216 439.325287,137.670959 439.094421,137.167908 
	C439.318207,137.139114 439.614502,137.334335 439.858154,137.803101 
z"/>
<path fill="#89AFFC" opacity="1.000000" stroke="none" 
	d="
M431.988342,129.723114 
	C431.785645,129.788818 431.511932,129.594589 431.127258,129.170166 
	C431.316650,129.114380 431.617035,129.288773 431.988342,129.723114 
z"/>
<path fill="#89AFFC" opacity="1.000000" stroke="none" 
	d="
M308.005096,5.717463 
	C307.807434,5.780840 307.530426,5.583785 307.133850,5.157643 
	C307.318115,5.104714 307.621948,5.280872 308.005096,5.717463 
z"/>
<path fill="#89AFFC" opacity="1.000000" stroke="none" 
	d="
M306.998108,4.722134 
	C306.797211,4.782181 306.523956,4.579744 306.135742,4.145677 
	C306.322388,4.095913 306.624054,4.277781 306.998108,4.722134 
z"/>
<path fill="#94BAF9" opacity="1.000000" stroke="none" 
	d="
M305.992920,3.711110 
	C305.797760,3.768293 305.536346,3.565532 305.153320,3.143636 
	C305.330048,3.100056 305.628357,3.275611 305.992920,3.711110 
z"/>
<path fill="#89AFFC" opacity="1.000000" stroke="none" 
	d="
M423.997559,121.721771 
	C423.796448,121.785133 423.522888,121.585968 423.132080,121.157913 
	C423.318237,121.105759 423.621704,121.282494 423.997559,121.721771 
z"/>
<path fill="#89AFFC" opacity="1.000000" stroke="none" 
	d="
M415.990692,113.720810 
	C415.787476,113.784454 415.516602,113.585052 415.130310,113.157516 
	C415.317596,113.105515 415.620331,113.281647 415.990692,113.720810 
z"/>
<path fill="#89AFFC" opacity="1.000000" stroke="none" 
	d="
M416.988647,114.723167 
	C416.786041,114.788780 416.512268,114.594452 416.127380,114.169922 
	C416.316650,114.114227 416.617065,114.288734 416.988647,114.723167 
z"/>
<path fill="#89AFFC" opacity="1.000000" stroke="none" 
	d="
M417.997955,115.722168 
	C417.797150,115.787483 417.524200,115.590904 417.133301,115.167641 
	C417.318848,115.114059 417.622345,115.287170 417.997955,115.722168 
z"/>
<path fill="#89AFFC" opacity="1.000000" stroke="none" 
	d="
M418.997711,116.721764 
	C418.796631,116.785118 418.523041,116.585945 418.132141,116.157898 
	C418.318268,116.105766 418.621735,116.282501 418.997711,116.721764 
z"/>
<path fill="#89AFFC" opacity="1.000000" stroke="none" 
	d="
M419.997742,117.721771 
	C419.796692,117.785088 419.523102,117.585876 419.132141,117.157791 
	C419.318268,117.105690 419.621735,117.282471 419.997742,117.721771 
z"/>
<path fill="#89AFFC" opacity="1.000000" stroke="none" 
	d="
M420.997742,118.721771 
	C420.796692,118.785057 420.523132,118.585831 420.132172,118.157730 
	C420.318268,118.105652 420.621735,118.282448 420.997742,118.721771 
z"/>
<path fill="#89AFFC" opacity="1.000000" stroke="none" 
	d="
M421.997711,119.721771 
	C421.796661,119.785065 421.523071,119.585838 421.132141,119.157730 
	C421.318268,119.105652 421.621735,119.282448 421.997711,119.721771 
z"/>
<path fill="#89AFFC" opacity="1.000000" stroke="none" 
	d="
M422.997650,120.721771 
	C422.796539,120.785088 422.523010,120.585876 422.132141,120.157784 
	C422.318268,120.105682 422.621735,120.282463 422.997650,120.721771 
z"/>
<path fill="#89AFFC" opacity="1.000000" stroke="none" 
	d="
M414.997772,112.722168 
	C414.796875,112.787560 414.523987,112.591049 414.133240,112.167839 
	C414.318817,112.114182 414.622314,112.287224 414.997772,112.722168 
z"/>
<path fill="#89AFFC" opacity="1.000000" stroke="none" 
	d="
M424.990692,122.720810 
	C424.787506,122.784401 424.516663,122.584946 424.130371,122.157341 
	C424.317627,122.105392 424.620331,122.281578 424.990692,122.720810 
z"/>
<path fill="#89AFFC" opacity="1.000000" stroke="none" 
	d="
M425.988525,123.723129 
	C425.785858,123.788757 425.512115,123.594437 425.127319,123.169922 
	C425.316650,123.114220 425.617035,123.288704 425.988525,123.723129 
z"/>
<path fill="#89AFFC" opacity="1.000000" stroke="none" 
	d="
M426.997772,124.722168 
	C426.796875,124.787544 426.523987,124.591026 426.133240,124.167816 
	C426.318817,124.114174 426.622314,124.287224 426.997772,124.722168 
z"/>
<path fill="#89AFFC" opacity="1.000000" stroke="none" 
	d="
M427.990662,125.720825 
	C427.787415,125.784462 427.516571,125.585068 427.130310,125.157532 
	C427.317596,125.105522 427.620331,125.281647 427.990662,125.720825 
z"/>
<path fill="#89AFFC" opacity="1.000000" stroke="none" 
	d="
M428.988464,126.723129 
	C428.785828,126.788765 428.512085,126.594467 428.127319,126.169983 
	C428.316650,126.114273 428.617004,126.288727 428.988464,126.723129 
z"/>
<path fill="#89AFFC" opacity="1.000000" stroke="none" 
	d="
M429.997742,127.722183 
	C429.796814,127.787567 429.523926,127.591064 429.133179,127.167862 
	C429.318817,127.114204 429.622314,127.287247 429.997742,127.722183 
z"/>
<path fill="#89AFFC" opacity="1.000000" stroke="none" 
	d="
M430.990540,128.720795 
	C430.787292,128.784470 430.516449,128.585098 430.130249,128.157608 
	C430.317596,128.105560 430.620300,128.281662 430.990540,128.720795 
z"/>
<path fill="#89AFFC" opacity="1.000000" stroke="none" 
	d="
M335.997772,33.721771 
	C335.796722,33.785065 335.523132,33.585831 335.132172,33.157707 
	C335.318268,33.105625 335.621765,33.282433 335.997772,33.721771 
z"/>
<path fill="#89AFFC" opacity="1.000000" stroke="none" 
	d="
M327.998047,25.722137 
	C327.797180,25.782221 327.523926,25.579823 327.135681,25.145824 
	C327.322388,25.096035 327.624023,25.277845 327.998047,25.722137 
z"/>
<path fill="#89AFFC" opacity="1.000000" stroke="none" 
	d="
M329.005096,26.717461 
	C328.807434,26.780846 328.530426,26.583803 328.133850,26.157677 
	C328.318115,26.104740 328.621948,26.280886 329.005096,26.717461 
z"/>
<path fill="#89AFFC" opacity="1.000000" stroke="none" 
	d="
M330.010590,27.715435 
	C329.810852,27.776623 329.539062,27.572075 329.142334,27.141857 
	C329.324463,27.094025 329.631500,27.271864 330.010590,27.715435 
z"/>
<path fill="#89AFFC" opacity="1.000000" stroke="none" 
	d="
M330.998047,28.722134 
	C330.797180,28.782209 330.523926,28.579811 330.135681,28.145821 
	C330.322388,28.096037 330.624023,28.277847 330.998047,28.722134 
z"/>
<path fill="#89AFFC" opacity="1.000000" stroke="none" 
	d="
M332.005096,29.717466 
	C331.807434,29.780857 331.530426,29.583813 331.133850,29.157682 
	C331.318115,29.104742 331.621948,29.280888 332.005096,29.717466 
z"/>
<path fill="#89AFFC" opacity="1.000000" stroke="none" 
	d="
M333.010590,30.715427 
	C332.810852,30.776621 332.539062,30.572073 332.142334,30.141848 
	C332.324463,30.094009 332.631500,30.271849 333.010590,30.715427 
z"/>
<path fill="#89AFFC" opacity="1.000000" stroke="none" 
	d="
M333.998047,31.722134 
	C333.797180,31.782211 333.523926,31.579813 333.135681,31.145821 
	C333.322388,31.096039 333.624023,31.277847 333.998047,31.722134 
z"/>
<path fill="#89AFFC" opacity="1.000000" stroke="none" 
	d="
M334.997742,32.721779 
	C334.796722,32.785065 334.523132,32.585835 334.132172,32.157715 
	C334.318268,32.105637 334.621735,32.282448 334.997742,32.721779 
z"/>
<path fill="#89AFFC" opacity="1.000000" stroke="none" 
	d="
M327.010590,24.715435 
	C326.810852,24.776625 326.539062,24.572079 326.142334,24.141857 
	C326.324463,24.094021 326.631500,24.271858 327.010590,24.715435 
z"/>
<path fill="#89AFFC" opacity="1.000000" stroke="none" 
	d="
M336.997772,34.721775 
	C336.796722,34.785069 336.523132,34.585831 336.132172,34.157711 
	C336.318268,34.105633 336.621765,34.282440 336.997772,34.721775 
z"/>
<path fill="#89AFFC" opacity="1.000000" stroke="none" 
	d="
M337.997772,35.721779 
	C337.796722,35.785069 337.523132,35.585835 337.132172,35.157715 
	C337.318268,35.105637 337.621765,35.282444 337.997772,35.721779 
z"/>
<path fill="#89AFFC" opacity="1.000000" stroke="none" 
	d="
M338.997772,36.721775 
	C338.796722,36.785069 338.523132,36.585835 338.132172,36.157711 
	C338.318268,36.105629 338.621765,36.282436 338.997772,36.721775 
z"/>
<path fill="#89AFFC" opacity="1.000000" stroke="none" 
	d="
M339.997772,37.721771 
	C339.796722,37.785061 339.523132,37.585823 339.132172,37.157707 
	C339.318268,37.105637 339.621765,37.282444 339.997772,37.721771 
z"/>
<path fill="#89AFFC" opacity="1.000000" stroke="none" 
	d="
M340.997772,38.721771 
	C340.796722,38.785061 340.523132,38.585827 340.132172,38.157707 
	C340.318268,38.105629 340.621765,38.282436 340.997772,38.721771 
z"/>
<path fill="#89AFFC" opacity="1.000000" stroke="none" 
	d="
M341.997772,39.721771 
	C341.796722,39.785061 341.523132,39.585827 341.132172,39.157707 
	C341.318268,39.105633 341.621765,39.282440 341.997772,39.721771 
z"/>
<path fill="#89AFFC" opacity="1.000000" stroke="none" 
	d="
M342.997772,40.721771 
	C342.796722,40.785065 342.523132,40.585827 342.132172,40.157707 
	C342.318268,40.105625 342.621765,40.282433 342.997772,40.721771 
z"/>
<path fill="#89AFFC" opacity="1.000000" stroke="none" 
	d="
M343.997772,41.721771 
	C343.796722,41.785065 343.523132,41.585831 343.132172,41.157707 
	C343.318268,41.105629 343.621765,41.282436 343.997772,41.721771 
z"/>
<path fill="#89AFFC" opacity="1.000000" stroke="none" 
	d="
M318.998047,16.722134 
	C318.797180,16.782217 318.523926,16.579819 318.135681,16.145821 
	C318.322388,16.096031 318.624023,16.277842 318.998047,16.722134 
z"/>
<path fill="#89AFFC" opacity="1.000000" stroke="none" 
	d="
M311.010590,8.715428 
	C310.810852,8.776611 310.539093,8.572059 310.142365,8.141842 
	C310.324463,8.094017 310.631500,8.271854 311.010590,8.715428 
z"/>
<path fill="#89AFFC" opacity="1.000000" stroke="none" 
	d="
M312.005402,9.717861 
	C311.807922,9.778065 311.531250,9.577887 311.137512,9.145893 
	C311.322357,9.095212 311.624298,9.276345 312.005402,9.717861 
z"/>
<path fill="#89AFFC" opacity="1.000000" stroke="none" 
	d="
M313.010590,10.715425 
	C312.810852,10.776609 312.539093,10.572055 312.142365,10.141838 
	C312.324463,10.094013 312.631500,10.271852 313.010590,10.715425 
z"/>
<path fill="#89AFFC" opacity="1.000000" stroke="none" 
	d="
M313.998047,11.722131 
	C313.797180,11.782210 313.523926,11.579813 313.135681,11.145821 
	C313.322388,11.096036 313.624023,11.277844 313.998047,11.722131 
z"/>
<path fill="#89AFFC" opacity="1.000000" stroke="none" 
	d="
M314.997742,12.721772 
	C314.796722,12.785059 314.523132,12.585823 314.132172,12.157704 
	C314.318268,12.105631 314.621735,12.282441 314.997742,12.721772 
z"/>
<path fill="#89AFFC" opacity="1.000000" stroke="none" 
	d="
M315.997742,13.721772 
	C315.796692,13.785057 315.523132,13.585822 315.132172,13.157703 
	C315.318268,13.105632 315.621735,13.282442 315.997742,13.721772 
z"/>
<path fill="#89AFFC" opacity="1.000000" stroke="none" 
	d="
M317.005066,14.717472 
	C316.807434,14.780864 316.530426,14.583819 316.133850,14.157687 
	C316.318115,14.104746 316.621918,14.280891 317.005066,14.717472 
z"/>
<path fill="#89AFFC" opacity="1.000000" stroke="none" 
	d="
M318.010590,15.715435 
	C317.810852,15.776621 317.539093,15.572066 317.142365,15.141846 
	C317.324463,15.094018 317.631500,15.271855 318.010590,15.715435 
z"/>
<path fill="#89AFFC" opacity="1.000000" stroke="none" 
	d="
M344.997772,42.721779 
	C344.796722,42.785065 344.523132,42.585831 344.132172,42.157715 
	C344.318268,42.105637 344.621765,42.282444 344.997772,42.721779 
z"/>
<path fill="#89AFFC" opacity="1.000000" stroke="none" 
	d="
M320.005096,17.717466 
	C319.807434,17.780851 319.530426,17.583807 319.133850,17.157682 
	C319.318115,17.104746 319.621948,17.280891 320.005096,17.717466 
z"/>
<path fill="#89AFFC" opacity="1.000000" stroke="none" 
	d="
M321.010590,18.715425 
	C320.810852,18.776619 320.539093,18.572071 320.142334,18.141848 
	C320.324463,18.094009 320.631500,18.271849 321.010590,18.715425 
z"/>
<path fill="#89AFFC" opacity="1.000000" stroke="none" 
	d="
M321.998047,19.722134 
	C321.797180,19.782219 321.523926,19.579819 321.135681,19.145821 
	C321.322388,19.096033 321.624023,19.277843 321.998047,19.722134 
z"/>
<path fill="#89AFFC" opacity="1.000000" stroke="none" 
	d="
M323.005096,20.717472 
	C322.807434,20.780863 322.530426,20.583818 322.133850,20.157688 
	C322.318115,20.104748 322.621948,20.280893 323.005096,20.717472 
z"/>
<path fill="#89AFFC" opacity="1.000000" stroke="none" 
	d="
M324.010590,21.715439 
	C323.810852,21.776628 323.539062,21.572081 323.142334,21.141861 
	C323.324432,21.094028 323.631500,21.271866 324.010590,21.715439 
z"/>
<path fill="#89AFFC" opacity="1.000000" stroke="none" 
	d="
M324.998047,22.722137 
	C324.797180,22.782219 324.523926,22.579821 324.135681,22.145824 
	C324.322388,22.096035 324.624023,22.277843 324.998047,22.722137 
z"/>
<path fill="#89AFFC" opacity="1.000000" stroke="none" 
	d="
M326.005096,23.717461 
	C325.807434,23.780848 325.530426,23.583803 325.133850,23.157677 
	C325.318115,23.104736 325.621948,23.280882 326.005096,23.717461 
z"/>
<path fill="#89AFFC" opacity="1.000000" stroke="none" 
	d="
M370.997742,68.721771 
	C370.796692,68.785057 370.523102,68.585831 370.132141,68.157715 
	C370.318268,68.105637 370.621735,68.282448 370.997742,68.721771 
z"/>
<path fill="#89AFFC" opacity="1.000000" stroke="none" 
	d="
M362.997772,60.721764 
	C362.796722,60.785057 362.523132,60.585819 362.132172,60.157700 
	C362.318268,60.105625 362.621765,60.282433 362.997772,60.721764 
z"/>
<path fill="#89AFFC" opacity="1.000000" stroke="none" 
	d="
M363.997772,61.721775 
	C363.796722,61.785057 363.523132,61.585823 363.132172,61.157711 
	C363.318268,61.105644 363.621735,61.282452 363.997772,61.721775 
z"/>
<path fill="#89AFFC" opacity="1.000000" stroke="none" 
	d="
M364.997772,62.721779 
	C364.796722,62.785072 364.523132,62.585835 364.132172,62.157715 
	C364.318268,62.105637 364.621765,62.282444 364.997772,62.721779 
z"/>
<path fill="#89AFFC" opacity="1.000000" stroke="none" 
	d="
M365.997772,63.721771 
	C365.796722,63.785061 365.523132,63.585823 365.132172,63.157707 
	C365.318268,63.105629 365.621765,63.282436 365.997772,63.721771 
z"/>
<path fill="#89AFFC" opacity="1.000000" stroke="none" 
	d="
M366.997742,64.721771 
	C366.796692,64.785057 366.523102,64.585831 366.132141,64.157715 
	C366.318268,64.105637 366.621735,64.282448 366.997742,64.721771 
z"/>
<path fill="#89AFFC" opacity="1.000000" stroke="none" 
	d="
M367.997742,65.721779 
	C367.796692,65.785065 367.523102,65.585838 367.132141,65.157722 
	C367.318268,65.105637 367.621735,65.282448 367.997742,65.721779 
z"/>
<path fill="#89AFFC" opacity="1.000000" stroke="none" 
	d="
M368.997742,66.721771 
	C368.796692,66.785049 368.523102,66.585823 368.132141,66.157715 
	C368.318268,66.105637 368.621735,66.282448 368.997742,66.721771 
z"/>
<path fill="#89AFFC" opacity="1.000000" stroke="none" 
	d="
M369.997742,67.721771 
	C369.796692,67.785049 369.523102,67.585815 369.132141,67.157715 
	C369.318268,67.105637 369.621735,67.282448 369.997742,67.721771 
z"/>
<path fill="#89AFFC" opacity="1.000000" stroke="none" 
	d="
M361.997772,59.721775 
	C361.796722,59.785065 361.523132,59.585831 361.132172,59.157711 
	C361.318268,59.105633 361.621765,59.282440 361.997772,59.721775 
z"/>
<path fill="#89AFFC" opacity="1.000000" stroke="none" 
	d="
M371.997742,69.721771 
	C371.796692,69.785049 371.523102,69.585823 371.132141,69.157715 
	C371.318268,69.105637 371.621735,69.282448 371.997742,69.721771 
z"/>
<path fill="#89AFFC" opacity="1.000000" stroke="none" 
	d="
M372.997742,70.721771 
	C372.796692,70.785049 372.523102,70.585823 372.132141,70.157715 
	C372.318268,70.105637 372.621735,70.282448 372.997742,70.721771 
z"/>
<path fill="#89AFFC" opacity="1.000000" stroke="none" 
	d="
M373.997742,71.721771 
	C373.796692,71.785057 373.523102,71.585831 373.132141,71.157715 
	C373.318268,71.105629 373.621735,71.282440 373.997742,71.721771 
z"/>
<path fill="#89AFFC" opacity="1.000000" stroke="none" 
	d="
M374.997742,72.721771 
	C374.796692,72.785057 374.523102,72.585823 374.132141,72.157715 
	C374.318268,72.105629 374.621735,72.282440 374.997742,72.721771 
z"/>
<path fill="#89AFFC" opacity="1.000000" stroke="none" 
	d="
M375.997742,73.721771 
	C375.796692,73.785065 375.523102,73.585838 375.132141,73.157715 
	C375.318268,73.105629 375.621735,73.282440 375.997742,73.721771 
z"/>
<path fill="#89AFFC" opacity="1.000000" stroke="none" 
	d="
M376.997742,74.721764 
	C376.796692,74.785049 376.523102,74.585823 376.132141,74.157707 
	C376.318268,74.105629 376.621735,74.282440 376.997742,74.721764 
z"/>
<path fill="#89AFFC" opacity="1.000000" stroke="none" 
	d="
M377.997742,75.721764 
	C377.796692,75.785042 377.523102,75.585815 377.132141,75.157707 
	C377.318268,75.105629 377.621735,75.282440 377.997742,75.721764 
z"/>
<path fill="#89AFFC" opacity="1.000000" stroke="none" 
	d="
M378.997742,76.721771 
	C378.796692,76.785057 378.523102,76.585823 378.132141,76.157715 
	C378.318268,76.105629 378.621735,76.282440 378.997742,76.721771 
z"/>
<path fill="#89AFFC" opacity="1.000000" stroke="none" 
	d="
M353.997772,51.721775 
	C353.796722,51.785069 353.523132,51.585831 353.132172,51.157711 
	C353.318268,51.105633 353.621765,51.282440 353.997772,51.721775 
z"/>
<path fill="#89AFFC" opacity="1.000000" stroke="none" 
	d="
M345.997772,43.721779 
	C345.796722,43.785069 345.523132,43.585831 345.132172,43.157715 
	C345.318268,43.105640 345.621765,43.282448 345.997772,43.721779 
z"/>
<path fill="#89AFFC" opacity="1.000000" stroke="none" 
	d="
M346.997772,44.721771 
	C346.796722,44.785057 346.523132,44.585823 346.132172,44.157707 
	C346.318268,44.105633 346.621765,44.282440 346.997772,44.721771 
z"/>
<path fill="#89AFFC" opacity="1.000000" stroke="none" 
	d="
M347.997772,45.721775 
	C347.796722,45.785057 347.523132,45.585823 347.132172,45.157711 
	C347.318268,45.105640 347.621765,45.282448 347.997772,45.721775 
z"/>
<path fill="#89AFFC" opacity="1.000000" stroke="none" 
	d="
M348.997772,46.721779 
	C348.796722,46.785061 348.523132,46.585823 348.132172,46.157715 
	C348.318268,46.105644 348.621735,46.282452 348.997772,46.721779 
z"/>
<path fill="#89AFFC" opacity="1.000000" stroke="none" 
	d="
M349.997772,47.721771 
	C349.796722,47.785061 349.523132,47.585827 349.132172,47.157707 
	C349.318268,47.105637 349.621765,47.282444 349.997772,47.721771 
z"/>
<path fill="#89AFFC" opacity="1.000000" stroke="none" 
	d="
M350.997772,48.721771 
	C350.796722,48.785061 350.523132,48.585827 350.132172,48.157707 
	C350.318268,48.105629 350.621765,48.282436 350.997772,48.721771 
z"/>
<path fill="#89AFFC" opacity="1.000000" stroke="none" 
	d="
M351.997772,49.721771 
	C351.796722,49.785065 351.523132,49.585831 351.132172,49.157707 
	C351.318268,49.105633 351.621765,49.282440 351.997772,49.721771 
z"/>
<path fill="#89AFFC" opacity="1.000000" stroke="none" 
	d="
M352.997772,50.721779 
	C352.796722,50.785065 352.523132,50.585831 352.132172,50.157715 
	C352.318268,50.105640 352.621765,50.282448 352.997772,50.721779 
z"/>
<path fill="#89AFFC" opacity="1.000000" stroke="none" 
	d="
M310.005402,7.717867 
	C309.807922,7.778069 309.531250,7.577890 309.137512,7.145900 
	C309.322327,7.095221 309.624298,7.276354 310.005402,7.717867 
z"/>
<path fill="#89AFFC" opacity="1.000000" stroke="none" 
	d="
M354.997772,52.721779 
	C354.796722,52.785069 354.523132,52.585835 354.132172,52.157715 
	C354.318268,52.105637 354.621765,52.282444 354.997772,52.721779 
z"/>
<path fill="#89AFFC" opacity="1.000000" stroke="none" 
	d="
M355.997772,53.721767 
	C355.796722,53.785057 355.523132,53.585823 355.132172,53.157703 
	C355.318268,53.105629 355.621765,53.282436 355.997772,53.721767 
z"/>
<path fill="#89AFFC" opacity="1.000000" stroke="none" 
	d="
M356.997772,54.721779 
	C356.796722,54.785072 356.523132,54.585835 356.132172,54.157715 
	C356.318268,54.105633 356.621765,54.282440 356.997772,54.721779 
z"/>
<path fill="#89AFFC" opacity="1.000000" stroke="none" 
	d="
M357.997772,55.721771 
	C357.796722,55.785072 357.523132,55.585838 357.132172,55.157707 
	C357.318268,55.105625 357.621765,55.282433 357.997772,55.721771 
z"/>
<path fill="#89AFFC" opacity="1.000000" stroke="none" 
	d="
M358.997772,56.721771 
	C358.796722,56.785061 358.523132,56.585827 358.132172,56.157707 
	C358.318268,56.105633 358.621765,56.282440 358.997772,56.721771 
z"/>
<path fill="#89AFFC" opacity="1.000000" stroke="none" 
	d="
M359.997772,57.721771 
	C359.796722,57.785065 359.523132,57.585827 359.132172,57.157707 
	C359.318298,57.105625 359.621765,57.282433 359.997772,57.721771 
z"/>
<path fill="#89AFFC" opacity="1.000000" stroke="none" 
	d="
M360.997772,58.721771 
	C360.796722,58.785065 360.523132,58.585831 360.132172,58.157707 
	C360.318268,58.105629 360.621765,58.282436 360.997772,58.721771 
z"/>
</svg>