<?xml version="1.0" standalone="no"?>
<!DOCTYPE svg PUBLIC "-//W3C//DTD SVG 20010904//EN"
 "http://www.w3.org/TR/2001/REC-SVG-20010904/DTD/svg10.dtd">
<svg version="1.0" xmlns="http://www.w3.org/2000/svg"
 width="512.000000pt" height="512.000000pt" viewBox="0 0 512.000000 512.000000"
 preserveAspectRatio="xMidYMid meet">

<g transform="translate(0.000000,512.000000) scale(0.100000,-0.100000)"
fill="currentColor" stroke="none">
<path d="M2455 4826 c-190 -44 -331 -151 -410 -311 -117 -237 -76 -494 110
-681 121 -122 279 -183 448 -171 254 17 460 184 533 432 25 86 23 230 -4 320
-56 184 -210 339 -391 395 -85 27 -210 33 -286 16z m191 -137 c151 -27 290
-144 341 -284 77 -211 -17 -454 -213 -553 -185 -93 -391 -58 -531 91 -240 253
-111 668 231 742 77 17 99 17 172 4z"/>
<path d="M3825 4012 c-27 -10 -277 -150 -554 -311 -277 -161 -518 -299 -537
-307 -24 -10 -78 -14 -187 -14 -149 0 -156 1 -208 28 -30 15 -254 144 -499
286 -245 143 -470 271 -500 285 -47 22 -69 26 -145 26 -78 0 -97 -4 -147 -28
-73 -36 -150 -119 -179 -195 -28 -73 -30 -168 -5 -240 36 -105 75 -135 591
-450 l470 -288 3 -368 2 -367 -337 -667 -337 -667 -4 -81 c-5 -97 11 -155 63
-226 125 -171 379 -192 528 -45 44 45 96 134 357 616 168 310 311 570 318 578
19 19 66 16 84 -4 8 -10 152 -270 319 -578 191 -352 318 -576 343 -603 21 -23
67 -56 102 -73 60 -30 69 -31 151 -27 144 7 254 73 318 189 36 67 46 174 22
247 -9 26 -167 346 -352 709 l-335 662 2 352 3 352 185 114 c102 62 319 195
484 295 164 101 317 201 340 223 24 23 56 68 72 100 25 52 29 71 29 145 0 72
-4 93 -27 140 -64 131 -167 200 -306 207 -57 3 -90 -1 -127 -15z m228 -158
c49 -34 97 -119 97 -173 0 -41 -38 -128 -66 -152 -10 -9 -242 -152 -514 -318
-272 -167 -505 -314 -517 -327 l-23 -25 0 -396 0 -396 350 -693 c301 -595 350
-699 350 -736 -1 -115 -99 -208 -221 -208 -58 0 -105 19 -142 58 -14 15 -164
281 -332 592 -169 311 -318 577 -332 592 -76 81 -208 81 -285 0 -21 -22 -154
-257 -333 -587 -163 -302 -308 -565 -322 -583 -70 -93 -219 -102 -311 -18 -45
40 -65 93 -60 160 4 57 28 107 339 716 l334 655 3 425 3 426 -23 21 c-13 12
-234 151 -493 308 -259 158 -487 304 -507 323 -47 44 -61 87 -56 162 6 78 42
131 114 166 44 21 64 26 108 22 49 -4 99 -31 552 -293 275 -159 525 -300 557
-313 55 -22 68 -23 240 -20 180 3 183 3 247 34 36 17 272 151 525 299 253 147
483 279 510 292 69 33 148 29 208 -13z"/>
</g>
</svg>
